<svg id="Layer_1" data-name="Layer 1" xmlns="http://www.w3.org/2000/svg" viewBox="0 0 212 56"><defs><style>.cls-1{fill:#c5daec;}.cls-2{fill:#fff;opacity:0;}</style></defs><title>Artboard 1</title><circle class="cls-1" cx="2" cy="12" r="2" transform="translate(-7.9 4.93) rotate(-45)"/><circle class="cls-1" cx="18" cy="12" r="2" transform="translate(-3.21 16.24) rotate(-45)"/><circle class="cls-1" cx="34" cy="12" r="2" transform="translate(1.47 27.56) rotate(-45)"/><circle class="cls-1" cx="50" cy="12" r="2" transform="translate(6.16 38.87) rotate(-45)"/><circle class="cls-1" cx="66" cy="12" r="2" transform="translate(10.85 50.19) rotate(-45)"/><circle class="cls-1" cx="82" cy="12" r="2" transform="translate(15.53 61.5) rotate(-45)"/><circle class="cls-1" cx="98" cy="12" r="2" transform="translate(20.22 72.81) rotate(-45)"/><circle class="cls-1" cx="114" cy="12" r="2" transform="translate(24.91 84.12) rotate(-45)"/><circle class="cls-1" cx="130" cy="12" r="2" transform="translate(29.59 95.44) rotate(-45)"/><circle class="cls-1" cx="146" cy="12" r="2" transform="translate(34.28 106.75) rotate(-45)"/><circle class="cls-1" cx="162" cy="12" r="2" transform="translate(38.96 118.06) rotate(-45)"/><circle class="cls-1" cx="178" cy="12" r="2" transform="translate(43.65 129.38) rotate(-45)"/><circle class="cls-1" cx="194" cy="12" r="2" transform="translate(48.34 140.7) rotate(-45)"/><circle class="cls-1" cx="210" cy="12" r="2" transform="translate(53.02 152.01) rotate(-45)"/><rect class="cls-2" width="24" height="1"/><circle class="cls-1" cx="2" cy="26" r="2" transform="translate(-17.8 9.03) rotate(-45)"/><circle class="cls-1" cx="18" cy="26" r="2" transform="translate(-13.11 20.34) rotate(-45)"/><circle class="cls-1" cx="34" cy="26" r="2" transform="translate(-8.43 31.66) rotate(-45)"/><circle class="cls-1" cx="50" cy="26" r="2" transform="translate(-3.74 42.97) rotate(-45)"/><circle class="cls-1" cx="66" cy="26" r="2" transform="translate(0.95 54.29) rotate(-45)"/><circle class="cls-1" cx="82" cy="26" r="2" transform="translate(5.63 65.6) rotate(-45)"/><circle class="cls-1" cx="98" cy="26" r="2" transform="translate(10.32 76.91) rotate(-45)"/><circle class="cls-1" cx="114" cy="26" r="2" transform="translate(15 88.23) rotate(-45)"/><circle class="cls-1" cx="130" cy="26" r="2" transform="translate(19.69 99.54) rotate(-45)"/><circle class="cls-1" cx="146" cy="26" r="2" transform="translate(24.38 110.85) rotate(-45)"/><circle class="cls-1" cx="162" cy="26" r="2" transform="translate(29.06 122.16) rotate(-45)"/><circle class="cls-1" cx="178" cy="26" r="2" transform="translate(33.75 133.48) rotate(-45)"/><circle class="cls-1" cx="194" cy="26" r="2" transform="translate(38.44 144.8) rotate(-45)"/><circle class="cls-1" cx="210" cy="26" r="2" transform="translate(43.12 156.11) rotate(-45)"/><circle class="cls-1" cx="2" cy="40" r="2" transform="translate(-27.7 13.13) rotate(-45)"/><circle class="cls-1" cx="18" cy="40" r="2" transform="translate(-23.01 24.44) rotate(-45)"/><circle class="cls-1" cx="34" cy="40" r="2" transform="translate(-18.33 35.76) rotate(-45)"/><circle class="cls-1" cx="50" cy="40" r="2" transform="translate(-13.64 47.07) rotate(-45)"/><circle class="cls-1" cx="66" cy="40" r="2" transform="translate(-8.95 58.39) rotate(-45)"/><circle class="cls-1" cx="82" cy="40" r="2" transform="translate(-4.27 69.7) rotate(-45)"/><circle class="cls-1" cx="98" cy="40" r="2" transform="translate(0.42 81.01) rotate(-45)"/><circle class="cls-1" cx="114" cy="40" r="2" transform="translate(5.1 92.33) rotate(-45)"/><circle class="cls-1" cx="130" cy="40" r="2" transform="translate(9.79 103.64) rotate(-45)"/><circle class="cls-1" cx="146" cy="40" r="2" transform="translate(14.48 114.95) rotate(-45)"/><circle class="cls-1" cx="162" cy="40" r="2" transform="translate(19.16 126.26) rotate(-45)"/><circle class="cls-1" cx="178" cy="40" r="2" transform="translate(23.85 137.58) rotate(-45)"/><circle class="cls-1" cx="194" cy="40" r="2" transform="translate(28.54 148.9) rotate(-45)"/><circle class="cls-1" cx="210" cy="40" r="2" transform="translate(33.22 160.21) rotate(-45)"/><circle class="cls-1" cx="2" cy="54" r="2" transform="translate(-37.6 17.23) rotate(-45)"/><circle class="cls-1" cx="18" cy="54" r="2" transform="translate(-32.91 28.54) rotate(-45)"/><circle class="cls-1" cx="34" cy="54" r="2" transform="translate(-28.23 39.86) rotate(-45)"/><circle class="cls-1" cx="50" cy="54" r="2" transform="translate(-23.54 51.17) rotate(-45)"/><circle class="cls-1" cx="66" cy="54" r="2" transform="translate(-18.86 62.49) rotate(-45)"/><circle class="cls-1" cx="82" cy="54" r="2" transform="translate(-14.17 73.8) rotate(-45)"/><circle class="cls-1" cx="98" cy="54" r="2" transform="translate(-9.48 85.11) rotate(-45)"/><circle class="cls-1" cx="114" cy="54" r="2" transform="translate(-4.8 96.43) rotate(-45)"/><circle class="cls-1" cx="130" cy="54" r="2" transform="translate(-0.11 107.74) rotate(-45)"/><circle class="cls-1" cx="146" cy="54" r="2" transform="translate(4.58 119.05) rotate(-45)"/><circle class="cls-1" cx="162" cy="54" r="2" transform="translate(9.26 130.36) rotate(-45)"/><circle class="cls-1" cx="178" cy="54" r="2" transform="translate(13.95 141.68) rotate(-45)"/><circle class="cls-1" cx="194" cy="54" r="2" transform="translate(18.64 153) rotate(-45)"/><circle class="cls-1" cx="210" cy="54" r="2" transform="translate(23.32 164.31) rotate(-45)"/></svg>