<svg id="Layer_1" data-name="Layer 1" xmlns="http://www.w3.org/2000/svg" viewBox="0 0 521.9 96.2"><defs><style>.cls-1{fill:#0079c1;}.cls-2{fill:#ffef00;}</style></defs><title>Artboard 1</title><path class="cls-1" d="M161.08,75.49A14.58,14.58,0,0,1,146.5,90.07H14.58A14.58,14.58,0,0,1,0,75.49L.23,25.81A14.58,14.58,0,0,1,14.81,11.24H146.73a14.58,14.58,0,0,1,14.58,14.58Z"/><polygon class="cls-2" points="83 25.89 83 11.21 76.6 11.21 76.6 46.12 46.17 46.12 46.17 26.65 16.26 51.73 46.17 76.33 46.17 56.99 76.6 56.99 76.6 90.07 83 90.07 83 77.07 106.76 51.72 83 25.89"/><rect class="cls-2" x="113.87" y="37.49" width="16.62" height="27.44"/><path class="cls-1" d="M206.55,36c-3,3-8.11,2.9-12,2.9s-9.44.06-13.15-1.16c-5.39-1.79-6.2-7.64-6.2-12.57,0-12.62,5.79-13.72,16.79-13.72,3.88,0,11.41-.17,14.36,3,1.8,2,2.2,4.34,2.32,6.89h-4.46c-.12-4.46-2.26-5.44-6.37-5.91a50.4,50.4,0,0,0-5.91-.23c-9.09,0-12.22.46-12.22,10.6,0,2.55.23,5.44,2.14,7.35,2.2,2.2,9,2,11.81,2a34.68,34.68,0,0,0,5.5-.29c4-.58,5.15-2.08,5.33-6h4.29C208.69,31.5,208.46,34.11,206.55,36Z"/><path class="cls-1" d="M231.22,39c-11.12,0-18.36-.12-18.36-13.61,0-12.51,5.39-13.9,16.45-13.9,11.64,0,18.82-.17,18.82,13.9C248.13,38.1,242.22,39,231.22,39Zm10.65-21.31c-2.2-2.78-8.69-2.43-11.81-2.43-8.74,0-12.68.12-12.68,10.25,0,2.55.17,5.91,2.2,7.76,2.32,2.2,8.28,2,11.23,2s5.85.12,8.57-.75c4.17-1.33,4.23-6,4.23-9.67C243.61,22.35,243.44,19.63,241.87,17.66Z"/><path class="cls-1" d="M281.49,38.62V25.31c0-2.49.17-5.73-1.51-7.82-2-2.37-7.18-2.26-10-2.26-4.23,0-11.23,0-12.85,4.92a19,19,0,0,0-.52,6V38.62h-4.23V11.81h4.23v4.05h.29c1.68-3.24,4.57-3.94,8-4.23,1.85-.17,3.71-.23,5.56-.23,3.94,0,10-.17,13,3,2.2,2.32,2.2,6,2.2,9V38.62Z"/><path class="cls-1" d="M317,35.61c-2.08,3.13-6.78,3.3-10.13,3.3-4.4,0-10.13-.12-11.47-5.27a19.23,19.23,0,0,1-.46-5.15V15.4h-6.6V11.81h6.6V5.15h4.23v6.66H318V15.4H299.15V27c0,.58.06,1.1.06,1.68.06,1.62-.06,3.3,1,4.63,1.39,1.79,5,1.79,7,1.79,7.3,0,6.95-2.2,6.95-8.69h4.23V28.2C318.38,30.69,318.43,33.41,317,35.61Z"/><path class="cls-1" d="M347.85,23.86c0-7.12-.41-8.63-8-8.63-9.55,0-11.93,1.16-11.93,11V38.62h-4.29V11.81h4.29V15.4h.29c2.26-4.34,8-3.94,12.16-3.94,3,0,6.77-.06,9.15,2,2.14,1.91,2.72,4.86,2.72,7.59v2.78Z"/><path class="cls-1" d="M373.91,39c-11.12,0-18.36-.12-18.36-13.61,0-12.51,5.39-13.9,16.45-13.9,11.64,0,18.82-.17,18.82,13.9C390.82,38.1,384.92,39,373.91,39Zm10.66-21.31c-2.2-2.78-8.69-2.43-11.81-2.43-8.74,0-12.68.12-12.68,10.25,0,2.55.17,5.91,2.2,7.76,2.32,2.2,8.28,2,11.23,2s5.85.12,8.57-.75c4.17-1.33,4.23-6,4.23-9.67C386.31,22.35,386.13,19.63,384.57,17.66Z"/><path class="cls-1" d="M396.44,38.62V0h4.29V38.62Z"/><path class="cls-1" d="M205.68,89l.06-3.42h-.29c-2,3-4.46,3.42-7.88,3.65-1.68.12-3.3.12-5,.12a45,45,0,0,1-9.67-.7,9.89,9.89,0,0,1-4.69-2.43c-3-2.72-3.07-7.24-3.07-10.94,0-13.67,7.59-13.38,18.53-13.38,3.94,0,9.21-.23,11.7,3.47h.29v-15h4.23V89ZM193.23,65.62h-.52a33.14,33.14,0,0,0-8.28.69c-4.52,1.16-4.75,5.56-4.75,9.5,0,9.38,3.82,9.79,12.22,9.79,2.72,0,6.83,0,9.44-.75,4.17-1.16,4.46-5.44,4.46-9.15C205.8,65.85,202,65.62,193.23,65.62Z"/><path class="cls-1" d="M218.89,76.56c.06,2.32.29,5,2,6.83,2.32,2.49,9.55,2.2,12.62,2.2,2.66,0,7.88.17,9.84-2a4.29,4.29,0,0,0,1-2.9h4.4c-.06,5.27-2.78,7.3-7.7,8.17a42.07,42.07,0,0,1-7.12.46c-3.71,0-9.21-.06-12.8-1-5.85-1.62-6.72-7.53-6.72-12.8,0-12.68,5.73-13.67,16.79-13.67,1.8,0,3.59,0,5.44.12,3.59.23,6.89.64,9.44,3.47,2.72,3,2.66,7.3,2.72,11.12Zm16.68-10.83c-1.51-.12-3-.12-4.52-.12a41.54,41.54,0,0,0-6,.35c-4.4.69-5.67,2.66-6,6.95h25C244.08,67.07,240.6,66,235.56,65.74Z"/><path class="cls-1" d="M270.6,89h-5.5L249.64,62.2h4.92l13,22.87h.46l13-22.87h5.1Z"/><path class="cls-1" d="M289.48,55.43v-5h4.23v5Zm0,33.59V62.2h4.23V89Z"/><path class="cls-1" d="M329.55,86.41c-3,3-8.11,2.9-12,2.9s-9.44.06-13.14-1.16c-5.39-1.79-6.2-7.64-6.2-12.57C298.17,63,304,61.86,315,61.86c3.88,0,11.41-.17,14.36,3,1.79,2,2.2,4.34,2.32,6.89h-4.46c-.12-4.46-2.26-5.44-6.37-5.91a50.29,50.29,0,0,0-5.91-.23c-9.09,0-12.22.46-12.22,10.6,0,2.55.23,5.44,2.14,7.35,2.2,2.2,9,2,11.81,2a34.67,34.67,0,0,0,5.5-.29c4-.58,5.15-2.08,5.33-6h4.29C331.7,81.89,331.46,84.5,329.55,86.41Z"/><path class="cls-1" d="M340.38,76.56c.06,2.32.29,5,2,6.83,2.32,2.49,9.55,2.2,12.62,2.2,2.66,0,7.88.17,9.84-2a4.28,4.28,0,0,0,1-2.9h4.4c-.06,5.27-2.78,7.3-7.7,8.17a42.08,42.08,0,0,1-7.12.46c-3.71,0-9.21-.06-12.8-1-5.85-1.62-6.72-7.53-6.72-12.8,0-12.68,5.73-13.67,16.79-13.67,1.79,0,3.59,0,5.44.12,3.59.23,6.89.64,9.44,3.47,2.72,3,2.66,7.3,2.72,11.12Zm16.68-10.83c-1.51-.12-3-.12-4.52-.12a41.53,41.53,0,0,0-6,.35c-4.4.69-5.67,2.66-6,6.95h25C365.57,67.07,362.1,66,357.06,65.74Z"/><path class="cls-1" d="M406.63,86.47c-2,2.55-6.31,2.72-9.26,2.84-2,.12-3.88.12-5.85.12-3.88,0-8.51.06-12.33-.87-4-1-5-3.59-5-7.47a11.22,11.22,0,0,1,.06-1.39h4.52c0,1.62-.23,3.42,1.1,4.63,1.85,1.68,9.5,1.33,11.75,1.33,2.43,0,7.41.17,9.73-.7,1.68-.58,2.26-1.79,2.26-3.53,0-4.05-3.42-4.11-6.66-4.11-4.23,0-8.45-.12-12.68-.17-5.67-.06-9.55-1-9.55-7.47A7.43,7.43,0,0,1,376,65c2-2.66,6.37-2.9,9.38-3.07,2-.12,3.88-.12,5.85-.12,3.36,0,8.51.06,11.7,1.22a7,7,0,0,1,3,2.14c1.27,1.51,1.16,3.42,1.16,5.27h-4.46c-.23-1.16.06-2.26-.87-3.24-1.68-1.68-8.4-1.62-10.71-1.62-2.61,0-9.55-.29-11.23,1.79a3.8,3.8,0,0,0-.7,2.49,3.34,3.34,0,0,0,.58,2.2c1.16,1.45,4.92,1.33,6.54,1.33,2.37,0,4.75,0,7.12.06,3.3.06,6.95-.17,10.13.81,3.59,1.1,4.58,3.71,4.58,7.24A7.24,7.24,0,0,1,406.63,86.47Z"/><path class="cls-1" d="M419.32,93.47c-.81,2.14-3.42,2.72-5.44,2.72h-1V92.61h1c1.91,0,1.85-2.26,1.85-3.59h-2.14V82.53h6.25V89A12.74,12.74,0,0,1,419.32,93.47Z"/><path class="cls-1" d="M435.36,89V62.08H439V85.74h21.25V89Z"/><path class="cls-1" d="M463.3,89V62.08h3.63V85.74h21.25V89Z"/><path class="cls-1" d="M520.2,87.16c-1.62,1.66-5.33,1.74-7.47,1.82-1.66.08-3.31.08-5,.08-2,0-4,0-6.1-.08-2.71-.08-7,0-9.13-2.06s-2.1-8.2-2.1-10.95c0-1.9.08-3.84.24-5.74.32-3.92,1-6.95,5.41-7.63A78.14,78.14,0,0,1,507.2,62a46.13,46.13,0,0,1,10,.73,6.23,6.23,0,0,1,2.91,1.58c1.58,1.49,1.37,4.69,1.41,6.66h-3.35c0-1.33.16-3.23-.81-4.28C515.88,65.1,509,65.23,507,65.23c-2.42,0-9.77-.12-11.47,1.25a2.93,2.93,0,0,0-1,1.78,26.08,26.08,0,0,0-.53,6.14c0,1.58.12,3.15.16,4.73s0,4.65,1.25,5.69a4.52,4.52,0,0,0,2.46.85,74.75,74.75,0,0,0,8.52.32h.89l5.29-.16c1.5,0,3.84-.08,5-1.17s.85-3.51.85-4.85h3.51C521.82,82.15,521.94,85.38,520.2,87.16Z"/></svg>