<svg id="Layer_1" data-name="Layer 1" xmlns="http://www.w3.org/2000/svg" viewBox="0 0 341.2 218.11"><title>Artboard 1</title><path d="M264.43,156.54v-.25a.45.45,0,0,0-.06-.23V156a3.94,3.94,0,0,0-.12-.41.44.44,0,0,0-.06-.18.45.45,0,0,0-.08-.21A.42.42,0,0,0,264,155l0-.06a.45.45,0,0,0-.08-.18l0-.07a.44.44,0,0,0-.1-.17l0-.07a.5.5,0,0,0-.08-.11.45.45,0,0,0-.08-.11h0a.49.49,0,0,0-.1-.17l-.21-.21a.52.52,0,0,0-.22-.22l-.11-.11h0l0,0a.87.87,0,0,0-.3-.24l-.1-.08-.09-.06,0,0a4.44,4.44,0,0,0-.52-.28h0a.42.42,0,0,0-.15-.08.46.46,0,0,0-.24-.1.45.45,0,0,0-.18-.06.44.44,0,0,0-.18-.06.46.46,0,0,0-.23-.06h-.08a.45.45,0,0,0-.22-.06h-.25a.45.45,0,0,0-.23-.06h-.54a.45.45,0,0,0-.23.06h-.25a.45.45,0,0,0-.22.06h0a.45.45,0,0,0-.22.06h0a.39.39,0,0,0-.21.06.47.47,0,0,0-.23.08l-.09,0a.46.46,0,0,0-.21.08.44.44,0,0,0-.14.08l-.06,0a.46.46,0,0,0-.22.13h0a.49.49,0,0,0-.17.1v0a.46.46,0,0,0-.17.1l0,0-.11.07-.11.08-.06.06,0,0,0,0,0,0a.51.51,0,0,0-.22.22l-.24.24a.4.4,0,0,0-.07.1l-.06.09-.05.05a.43.43,0,0,0-.09.15l0,0a.42.42,0,0,0-.09.15l0,0a.46.46,0,0,0-.13.25.42.42,0,0,0-.08.15.45.45,0,0,0-.1.25l0,0a.46.46,0,0,0-.1.24.46.46,0,0,0-.06.23h0a.45.45,0,0,0-.06.23v0a.45.45,0,0,0-.06.22v.25a.45.45,0,0,0-.06.23v.54a.45.45,0,0,0,.06.23v.25a.45.45,0,0,0,.06.22v.08a.46.46,0,0,0,.06.23,58.37,58.37,0,0,1,.12.36.46.46,0,0,0,.08.21.43.43,0,0,0,.07.14l0,.07a.45.45,0,0,0,.08.17l0,.07a.45.45,0,0,0,.1.16l0,.07a.5.5,0,0,0,.08.12.48.48,0,0,0,.08.11h0a.46.46,0,0,0,.1.16l.21.21a.52.52,0,0,0,.22.22l.17.17h0l.12.12a.43.43,0,0,0,.15.09l0,0,.1.07.08.05,0,0a4.62,4.62,0,0,0,.52.29.42.42,0,0,0,.15.08,7,7,0,0,0,.6.22.46.46,0,0,0,.23.06h.07a.45.45,0,0,0,.23.06h.25a.45.45,0,0,0,.22.06h.54a.45.45,0,0,0,.22-.06h.26a.45.45,0,0,0,.23-.06h0a.45.45,0,0,0,.22-.06h0a.39.39,0,0,0,.21-.06.46.46,0,0,0,.23-.08l.09,0a.44.44,0,0,0,.21-.08.42.42,0,0,0,.14-.07l.07,0a.46.46,0,0,0,.22-.12v0a.46.46,0,0,0,.17-.1v0a.45.45,0,0,0,.16-.1l0,0,.11-.08,0,0h0a.45.45,0,0,0,.27-.26.52.52,0,0,0,.15-.15l.23-.23a.39.39,0,0,0,.07-.1l.06-.09.05-.05a.42.42,0,0,0,.09-.15l0,0a.45.45,0,0,0,.09-.15l0,0a.46.46,0,0,0,.13-.25h0A.42.42,0,0,0,264,159a.45.45,0,0,0,.1-.25l0,0a.46.46,0,0,0,.1-.24.46.46,0,0,0,.06-.23v0a.45.45,0,0,0,.06-.22h0a.45.45,0,0,0,.06-.23v-.26a.45.45,0,0,0,.06-.22v-.54A.45.45,0,0,0,264.43,156.54Zm-8.11,1.89a.44.44,0,0,0-.05-.16,18.88,18.88,0,0,1-.12-.36v-.07a.45.45,0,0,0-.06-.22v-.25a.45.45,0,0,0-.06-.23v-.21a.45.45,0,0,0,.06-.23v-.26a.45.45,0,0,0,.06-.22h0a4.31,4.31,0,0,0,.12-.41v0l0,0s0-.05,0-.08Zm5.82,1.53h0l-.1.08,0,0a.48.48,0,0,0-.17.11v0a.46.46,0,0,0-.16.1.43.43,0,0,0-.2.11l0,0-.09,0a.46.46,0,0,0-.21.08l-.08,0h0a.39.39,0,0,0-.21.06.45.45,0,0,0-.2.06h0a.45.45,0,0,0-.23.06h-.25a.45.45,0,0,0-.22.06h-.21a.45.45,0,0,0-.22-.06h-.25a.45.45,0,0,0-.23-.06h-.08a.46.46,0,0,0-.17-.06,8.87,8.87,0,0,0-.38-.12l0,0a.45.45,0,0,0-.27-.16.44.44,0,0,0-.24-.12l-.09-.06-.09-.06-.05-.05,0,0v-6l0,0v0a.46.46,0,0,0,.17-.1v0a.46.46,0,0,0,.16-.1.43.43,0,0,0,.2-.11l0,0,.09,0a.45.45,0,0,0,.21-.08l.08,0h0a.39.39,0,0,0,.21-.06.45.45,0,0,0,.2-.06h0a.45.45,0,0,0,.22-.06h.25a.45.45,0,0,0,.23-.06h.21a.45.45,0,0,0,.23.06h.25a.45.45,0,0,0,.22.06h.08a.46.46,0,0,0,.17.06.44.44,0,0,0,.18.06.45.45,0,0,0,.19.06l0,0a5.26,5.26,0,0,0,.51.28l.09.06.08.05a1,1,0,0,0,.17.13Zm1.44-2.82a.45.45,0,0,0-.06.22v.25a.45.45,0,0,0-.06.23v0a.46.46,0,0,0-.06.17.45.45,0,0,0-.06.23v0l0,0a.46.46,0,0,0-.1.25l0,0a.45.45,0,0,0-.15.27v-3.74a.43.43,0,0,0,0,.08v0a.41.41,0,0,0,.11.22l0,0,0,.08a.45.45,0,0,0,.06.18.46.46,0,0,0,.06.18.46.46,0,0,0,.06.17v.08a.45.45,0,0,0,.06.23v.25a.45.45,0,0,0,.06.22Z"/><path d="M261.71,156.15l-.36-.54a.46.46,0,0,0-.16-.14l-.44-.24-.06,0-.06,0-.06,0-.6-.18a.46.46,0,0,0-.25,0l-.53.15-.1,0-.07,0-.07,0-.54.3a.45.45,0,0,0-.18.18l-.24.46,0,0a.44.44,0,0,0,0,.07l0,.08-.18.66a.44.44,0,0,0,0,.25l.16.5v.05a.45.45,0,0,0,0,.07l0,.06.3.54a.47.47,0,0,0,.15.16l.54.36a.43.43,0,0,0,.17.07l.66.12h.17l.6-.12a.42.42,0,0,0,.17-.07l.54-.36a.45.45,0,0,0,.13-.13l.36-.54a.45.45,0,0,0,.07-.17l.12-.6a.43.43,0,0,0,0-.17l-.12-.66A.43.43,0,0,0,261.71,156.15Zm-.81,1.33-.26.39-.39.26-.43.09-.47-.09-.33-.25-.27-.4-.09-.43.09-.47.26-.34.34-.26.47-.08.43.08.4.27.25.33.09.47Z"/><path d="M247.43,137.84a.45.45,0,0,0,.23.06H248a.45.45,0,0,0,.22.06h.42a.45.45,0,0,0,.22-.06h.32a.45.45,0,0,0,.23-.06h0a.45.45,0,0,0,.22-.06h.08a.45.45,0,0,0,.26-.08l.09,0a.45.45,0,0,0,.21-.08l.09,0a9.59,9.59,0,0,1,.47-.21l.12-.08.06,0,.12-.08.06,0,.12-.08.06,0a.48.48,0,0,0,.19-.16l0,0,.11-.08.06-.06,0,0,0,0,.24-.24a.38.38,0,0,0,.06-.09.55.55,0,0,0,.12-.15l.06-.05a.43.43,0,0,0,.09-.15l0,0a.43.43,0,0,0,.09-.15l0,0a.43.43,0,0,0,.09-.15l0,0a.42.42,0,0,0,.09-.16,5.88,5.88,0,0,0,.28-.64h0a.46.46,0,0,0,.06-.18.45.45,0,0,0,.06-.18.46.46,0,0,0,.06-.23V134a.45.45,0,0,0,.06-.22v-.25a.46.46,0,0,0,.06-.23v-.48a.45.45,0,0,0-.06-.22v-.32a.45.45,0,0,0-.06-.22v0a.45.45,0,0,0-.06-.23v-.07a.46.46,0,0,0-.08-.26l0-.09a.47.47,0,0,0-.08-.21l0-.09a9.12,9.12,0,0,1-.21-.47.47.47,0,0,0-.08-.12l0-.07a.42.42,0,0,0-.08-.12l0-.07a.47.47,0,0,0-.08-.11l0-.07a.5.5,0,0,0-.16-.19l0,0a.48.48,0,0,0-.08-.11l-.06-.06,0,0,0,0-.24-.24-.09-.06a.55.55,0,0,0-.15-.12l-.05-.05a.43.43,0,0,0-.15-.09l0,0a.42.42,0,0,0-.15-.09l0,0a.43.43,0,0,0-.15-.09l0,0a.44.44,0,0,0-.16-.09l-.11-.06a.46.46,0,0,0-.21-.1.45.45,0,0,0-.31-.13h0a28.17,28.17,0,0,1-.36-.12.46.46,0,0,0-.23-.06h-.08a.45.45,0,0,0-.22-.06h-.31a.45.45,0,0,0-.23-.06h-.42a.45.45,0,0,0-.23.06h-.31a.45.45,0,0,0-.22.06h0a.45.45,0,0,0-.23.06h-.07a.46.46,0,0,0-.26.08l-.09,0a.47.47,0,0,0-.21.08l-.09,0a.46.46,0,0,0-.26.12.47.47,0,0,0-.21.09l-.12.08-.07,0-.11.08-.07,0-.11.08-.06,0a.5.5,0,0,0-.19.16l-.05,0-.1.08-.06.06,0,0,0,0-.24.24a.34.34,0,0,0-.07.1.53.53,0,0,0-.12.15l-.05.05a.43.43,0,0,0-.09.15l0,0a.42.42,0,0,0-.09.15l0,0a.42.42,0,0,0-.09.15l0,0a.44.44,0,0,0-.09.15.48.48,0,0,0-.06.12.46.46,0,0,0-.1.21.46.46,0,0,0-.13.31v0a.46.46,0,0,0-.06.17.45.45,0,0,0-.06.18.46.46,0,0,0-.06.23v.07a.45.45,0,0,0-.06.23v.31a.46.46,0,0,0-.06.23v.42a.45.45,0,0,0,.06.22v.32a.45.45,0,0,0,.06.23h0a.45.45,0,0,0,.06.22v.08a.45.45,0,0,0,.08.26l0,.09a.45.45,0,0,0,.08.21l0,.09a.45.45,0,0,0,.12.26.44.44,0,0,0,.09.2.41.41,0,0,0,.08.12l0,.06a.44.44,0,0,0,.08.12l0,.06a.47.47,0,0,0,.08.12l0,.07a.5.5,0,0,0,.16.19l0,0a.49.49,0,0,0,.08.11l.06.06,0,0,0,0,.24.24.09.06a.53.53,0,0,0,.15.12l.05.05a.43.43,0,0,0,.15.09l0,0a.42.42,0,0,0,.15.09l0,0a.42.42,0,0,0,.15.09l0,0a.44.44,0,0,0,.16.09l.11.06a.47.47,0,0,0,.21.1.45.45,0,0,0,.31.13h0a.46.46,0,0,0,.17.06.44.44,0,0,0,.18.06.46.46,0,0,0,.23.06Zm-.34-1.81-.05,0-.12-.06-.11-.06,0,0a.44.44,0,0,0-.16-.09l-.05,0a.47.47,0,0,0-.15-.12l-.1-.07-.06,0a.38.38,0,0,0-.1-.12l-.06-.06-.06-.06,0,0-.08-.1-.15-.15-.07-.11,0,0a.46.46,0,0,0-.06-.12.46.46,0,0,0-.11-.18h0a.46.46,0,0,0-.05-.1l0-.09a34.1,34.1,0,0,1-.18-.54h0a.45.45,0,0,0-.06-.22v-.32a.46.46,0,0,0,0-.18.45.45,0,0,0,0-.18v-.37a.45.45,0,0,0,.06-.22h0a1155,1155,0,0,1,.12-.36.45.45,0,0,0,.06-.19l0-.05a.43.43,0,0,0,.06-.12.46.46,0,0,0,.06-.11l0,0a.45.45,0,0,0,.09-.16l0-.05a.51.51,0,0,0,.12-.15.37.37,0,0,0,.07-.1l0-.06a.38.38,0,0,0,.12-.1l.06-.06.06-.06,0,0,.11-.08.15-.15.11-.07,0,0,.12-.06a.46.46,0,0,0,.18-.11h0l.11-.06.08,0a.45.45,0,0,0,.18-.06.46.46,0,0,0,.18-.06.44.44,0,0,0,.18-.06h0a.45.45,0,0,0,.23-.06h.31a.45.45,0,0,1,.42,0h.31a.45.45,0,0,0,.23.06h0a.46.46,0,0,0,.17.06.46.46,0,0,0,.18.06.47.47,0,0,0,.2.06l.05,0,.12.06.11.06,0,0a.42.42,0,0,0,.16.09l.06,0a.46.46,0,0,0,.15.12l.1.07.06,0a.4.4,0,0,0,.1.12l.06.06.06.06,0,0a.45.45,0,0,0,.08.1l.15.15a.46.46,0,0,0,.07.11l0,0a.48.48,0,0,0,.06.12.46.46,0,0,0,.11.18h0a.46.46,0,0,0,.06.11l0,.09a.46.46,0,0,0,.06.18.45.45,0,0,0,.06.18.46.46,0,0,0,.06.17v0a.45.45,0,0,0,.06.23v.31a.45.45,0,0,1,0,.42v.31a.45.45,0,0,0-.06.23h0a.46.46,0,0,0-.06.17,9.43,9.43,0,0,0-.12.38l0,0a.52.52,0,0,0-.06.12.49.49,0,0,0-.06.11l0,0a.44.44,0,0,0-.09.16l0,.05a.46.46,0,0,0-.12.15.26.26,0,0,0-.06.09l0,.07a.39.39,0,0,0-.12.1l-.06.06-.06.06,0,0-.1.08-.15.15-.11.08,0,0-.12.06a.47.47,0,0,0-.18.11v0l-.1.05-.09,0a29.15,29.15,0,0,1-.36.12.46.46,0,0,0-.18.06h0a.45.45,0,0,0-.22.06h-.32a.45.45,0,0,1-.42,0h-.32a.45.45,0,0,0-.22-.06h0a37.42,37.42,0,0,1-.36-.12A.45.45,0,0,0,247.09,136Z"/><path d="M63.6,93.88a.46.46,0,0,0,.08.26s.05.06.08.1a.39.39,0,0,0,0,.11.42.42,0,0,0,.06.12.44.44,0,0,0,.1.17.46.46,0,0,0,.08.11l0,0a.4.4,0,0,0,.11.14l.06.06a.47.47,0,0,0,.16.13l.06,0a.46.46,0,0,0,.24.18l.12.06a.46.46,0,0,0,.21.08.44.44,0,0,0,.18,0l.06,0a.45.45,0,0,0,.18,0h.66a.45.45,0,0,0,.23-.06h0a.39.39,0,0,0,.22-.07.46.46,0,0,0,.16-.07.44.44,0,0,0,.14-.07l.07,0a.41.41,0,0,0,.2-.14l.07-.07,0,0h0l.1-.05,0,0,.05-.05.07-.09h0a.44.44,0,0,0,0,0v0a6.22,6.22,0,0,1,.24-.43.44.44,0,0,0,.08-.21.45.45,0,0,0,.06-.23v-.13a.45.45,0,0,0,.06-.23v-.18a.45.45,0,0,0-.06-.23V93a.45.45,0,0,0-.06-.23.45.45,0,0,0-.11-.24.4.4,0,0,0,0-.06.45.45,0,0,0-.12-.19.41.41,0,0,0-.13-.19L67.42,92,67.36,92l-.06-.06-.06-.06-.06-.06a.46.46,0,0,0-.16-.13l0,0a.46.46,0,0,0-.21-.15,3.61,3.61,0,0,0-.41-.14.51.51,0,0,0-.28,0l-.11,0h-.48a.46.46,0,0,0-.23.06h0a.45.45,0,0,0-.23.06.4.4,0,0,0-.18.07l-.12.06a.4.4,0,0,0-.2.13l0,0-.11.08,0,0a.47.47,0,0,0-.2.19l-.06,0,0,0a.46.46,0,0,0-.23.33,1.82,1.82,0,0,0-.25.61v.13a.45.45,0,0,0-.06.23v.18a.45.45,0,0,0,.06.23Zm1.27-1.08,0-.15,1-.37.09,0,1,.79,0,.16-.13.49-.05.5v0l-.39.12-.38.16-.42.11-.44-.36-.47-.47Z"/><path d="M60.9,94.36a.45.45,0,0,0,.06.23v.07a.39.39,0,0,0,.09.23.45.45,0,0,0,0,.12.47.47,0,0,0,.06.18.45.45,0,0,0,.06.17h0a.42.42,0,0,0,.11.22l0,0a.45.45,0,0,0,.1.17s0,.07,0,.09a.44.44,0,0,0,.08.12l0,0a.46.46,0,0,0,.06.1.43.43,0,0,0,.09.15l0,.06a.48.48,0,0,0,.14.17h0a.44.44,0,0,0,.06.1l.06.06,0,0,0,0,.24.24h0l.12.12,0,0,0,0,.06.06a.34.34,0,0,0,.1.06.45.45,0,0,0,.14.12.42.42,0,0,0,.15.09l0,0a.46.46,0,0,0,.19.1l.08,0,0,0a.41.41,0,0,0,.16.09.54.54,0,0,0,.18.08,2.7,2.7,0,0,0,.46.2h0s.07.05.12.06a.46.46,0,0,0,.23.06h0a.44.44,0,0,0,.2.05h0a.45.45,0,0,0,.23.06h.19a.45.45,0,0,0,.23.06h.84a.45.45,0,0,0,.23-.06h.19a.45.45,0,0,0,.23-.06h0a4.63,4.63,0,0,1,.41-.12.46.46,0,0,0,.18-.06s.08,0,.12-.06h0a3.18,3.18,0,0,0,.54-.24s.07,0,.1,0l.12-.08,0,0a.47.47,0,0,0,.18-.11l.06-.06h0a.45.45,0,0,0,.17-.11l.09-.09a.48.48,0,0,0,.16-.13l.11-.08.06-.06,0,0,0,0,.06-.06,0,0,0,0,.06-.06a.36.36,0,0,0,.06-.09.46.46,0,0,0,.12-.15.45.45,0,0,0,.1-.15s.07-.06.08-.09a.41.41,0,0,0,.09-.15l0,0a.44.44,0,0,0,.13-.24l0,0a.47.47,0,0,0,.13-.24.45.45,0,0,0,.09-.19l0-.05a.55.55,0,0,0,.08-.19,1.18,1.18,0,0,0,.14-.39h0s0,0,0,0a.44.44,0,0,0,.06-.21v-.07a.45.45,0,0,0,.06-.23v-.18h0a.45.45,0,0,0,.06-.23v-.18s0,0,0,0,0,0,0,0v-.42s0,0,0,0,0,0,0,0a.45.45,0,0,0-.06-.23v-.19s0,0,0,0,0,0,0,0a.45.45,0,0,0-.06-.23h0a.45.45,0,0,0-.06-.23h0a.45.45,0,0,0-.06-.23.41.41,0,0,0-.07-.17.44.44,0,0,0-.05-.1,1.48,1.48,0,0,0-.23-.51s0-.06,0-.09a1.37,1.37,0,0,0-.15-.25.45.45,0,0,0-.08-.11l0,0a.47.47,0,0,0-.07-.1l0,0a.45.45,0,0,0-.11-.18l-.06-.06,0,0,0,0-.3-.3h0l-.18-.18,0,0,0,0-.06-.06a.41.41,0,0,0-.14-.07h0l0,0-.06-.06a.42.42,0,0,0-.16-.09l0,0-.11-.06h0a.42.42,0,0,0-.16-.09l-.11-.06,0,0L68,89,68,89l-.08,0-.07,0,0,0a28.69,28.69,0,0,1-.36-.16.45.45,0,0,0-.23-.06h0l-.1,0-.12,0a.45.45,0,0,0-.23-.06h-.15a.45.45,0,0,0-.21-.06H65.25a.45.45,0,0,0-.23.06h-.13a.45.45,0,0,0-.23.06h-.07a.45.45,0,0,0-.24.08.45.45,0,0,0-.2.06l-.09,0a.45.45,0,0,0-.17.06h0a.45.45,0,0,0-.21.08.46.46,0,0,0-.18.11l0,0-.07,0a.45.45,0,0,0-.14.07l-.12.08-.11.08h0a.4.4,0,0,0-.12.06l-.07.07a.45.45,0,0,0-.17.11l-.06.06,0,0a.49.49,0,0,0-.18.16.46.46,0,0,0-.09.11.51.51,0,0,0-.19.2l-.17.17a.41.41,0,0,0-.08.14l0,0-.06.06a.39.39,0,0,0-.07.1l-.05.08a.44.44,0,0,0-.11.19l0,0-.05.08a.43.43,0,0,0-.09.15l0,0,0,.08,0,.08v0a.45.45,0,0,0-.12.26h0a.45.45,0,0,0-.06.18.46.46,0,0,0-.06.23v0a.57.57,0,0,0,0,.11.45.45,0,0,0,0,.11.45.45,0,0,0-.06.23v.09a.45.45,0,0,0-.06.21v.42s0,0,0,0,0,0,0,0v.42h0v.3a.45.45,0,0,0,.06.22Zm1-1.27a.45.45,0,0,0,.06-.23v-.13A.46.46,0,0,0,62,92.5h0a28,28,0,0,1,.12-.35.45.45,0,0,0,.06-.2l0-.05a41.3,41.3,0,0,1,.12-.24.5.5,0,0,0,.06-.12l0-.06.05-.08a.39.39,0,0,0,.07-.1l.06-.09.05-.05a.37.37,0,0,0,.07-.1l0,0a.55.55,0,0,0,.16-.18l.05-.05,0,0,0,0,.06-.06,0,0,0,0,0,0a.49.49,0,0,0,.18-.16l0,0,.06,0,.12-.08.11-.08h0l.11-.06.12-.06.12-.06.09,0a.4.4,0,0,0,.17-.07l.13-.05a.4.4,0,0,0,.15-.06.46.46,0,0,0,.2-.06h0a.46.46,0,0,0,.23-.06h.13a.45.45,0,0,0,.23-.06h.69a.45.45,0,0,0,.23.06h.13a.46.46,0,0,0,.23.06h0a28,28,0,0,1,.35.12.45.45,0,0,0,.2.06l.05,0,.12.06.12.06.12.06.06,0,.08.05.1.07.09.06.06.06.1.07.09.06.18.18,0,0,0,0,.06.06,0,0,0,0,0,0a.49.49,0,0,0,.16.18l0,0,0,.06a.44.44,0,0,0,.08.12.45.45,0,0,0,.08.11h0a.47.47,0,0,0,.06.11,4032518.14,4032518.14,0,0,1,.12.24l0,.09a.4.4,0,0,0,.07.17.45.45,0,0,0,.05.13.39.39,0,0,0,.06.15.45.45,0,0,0,.06.2h0a.45.45,0,0,0,.06.23v.13a.45.45,0,0,0,.06.23v.69a.45.45,0,0,0-.06.23v.13a.45.45,0,0,0-.06.23h0a28,28,0,0,1-.12.35.45.45,0,0,0-.06.2l0,.05a.48.48,0,0,0-.06.12,27.51,27.51,0,0,0-.12.24l0,.06-.05.08a.36.36,0,0,0-.07.1l-.06.09-.06.06a.37.37,0,0,0-.07.1l-.06.09-.18.18,0,0,0,0-.06.06,0,0,0,0,0,0a.49.49,0,0,0-.18.15l0,0-.06,0-.12.08-.11.08h0l-.1.05-.12.06-.12.06-.09,0a.41.41,0,0,0-.17.07l-.13.05a.39.39,0,0,0-.15.06.45.45,0,0,0-.2.06h0a.45.45,0,0,0-.23.06h-.13a.45.45,0,0,0-.23.06h-.69a.45.45,0,0,0-.23-.06h-.13a.45.45,0,0,0-.23-.06h0a28,28,0,0,1-.35-.12.45.45,0,0,0-.2-.06l-.05,0-.12-.06L64,96.83l-.12-.06-.06,0-.08-.05-.1-.07-.09-.06-.05-.05-.1-.07-.09-.06-.18-.18,0,0,0,0L63,96.08l0,0,0,0,0,0a.5.5,0,0,0-.15-.18l0,0,0-.06a.45.45,0,0,0-.08-.12.46.46,0,0,0-.08-.11h0a.44.44,0,0,0-.05-.1.48.48,0,0,0-.06-.12.45.45,0,0,0-.06-.12l0-.09a.4.4,0,0,0-.07-.17.45.45,0,0,0-.05-.13.4.4,0,0,0-.06-.15.46.46,0,0,0-.06-.2h0a.46.46,0,0,0-.06-.23V94a.45.45,0,0,0-.06-.23Z"/><polygon points="232.4 199.51 233.85 199.51 233.85 207.29 234.95 207.29 234.95 198.42 233.06 198.42 232.4 199.51"/><polygon points="237.81 208.46 238.97 208.46 242.64 198.2 241.47 198.2 237.81 208.46"/><path d="M247.28,204.1a9.89,9.89,0,0,0,1.38-1.76,3,3,0,0,0,.37-1.43,2.69,2.69,0,0,0-2.79-2.7,2.87,2.87,0,0,0-2.11.86,3.09,3.09,0,0,0-.89,2.18v.13h1.07v-.12a2.26,2.26,0,0,1,.59-1.47,1.72,1.72,0,0,1,1.29-.51,1.7,1.7,0,0,1,1.24.49,1.55,1.55,0,0,1,.5,1.16,2,2,0,0,1-.29,1,10.55,10.55,0,0,1-1.29,1.57l-3.49,3.77h6.26v-1.08h-3.81Z"/><polygon points="249.75 201.16 250.6 201.16 250.74 198.2 249.61 198.2 249.75 201.16"/><polygon points="252.03 201.16 252.87 201.16 253.02 198.2 251.89 198.2 252.03 201.16"/><polygon points="263.33 204.81 257.81 198.46 257.78 198.42 257.41 198.42 257.41 207.29 258.55 207.29 258.55 200.97 264.02 207.24 264.06 207.29 264.43 207.29 264.43 198.42 263.33 198.42 263.33 204.81"/><path d="M270.14,198.55a9.82,9.82,0,0,0-2-.13h-1.84v8.87h1.11v-4h.49a11.05,11.05,0,0,0,2.22-.14,2.38,2.38,0,0,0,1.33-.79,2.54,2.54,0,0,0,0-3A2.35,2.35,0,0,0,270.14,198.55Zm.42,3a1.19,1.19,0,0,1-.59.47,3.73,3.73,0,0,1-1.25.15l-1.34,0v-2.68h1.4a3.65,3.65,0,0,1,1.21.14,1.18,1.18,0,0,1,.56.46,1.29,1.29,0,0,1,.21.72A1.31,1.31,0,0,1,270.55,201.58Z"/><polygon points="272.52 199.51 274.45 199.51 274.45 207.29 275.57 207.29 275.57 199.51 277.5 199.51 277.5 198.42 272.52 198.42 272.52 199.51"/><path d="M286,198.2a4.56,4.56,0,0,0-4,2.33,4.74,4.74,0,0,0-.62,2.36,4.45,4.45,0,0,0,1.36,3.26,4.55,4.55,0,0,0,3.32,1.35,4.67,4.67,0,0,0,3.29-8A4.62,4.62,0,0,0,286,198.2Zm3.12,6.46a3.37,3.37,0,0,1-1.29,1.28,3.58,3.58,0,0,1-1.8.47,3.5,3.5,0,0,1-3.51-3.53,3.63,3.63,0,0,1,.46-1.82,3.56,3.56,0,0,1,3-1.78,3.53,3.53,0,0,1,1.78.48,3.45,3.45,0,0,1,1.3,1.28,3.53,3.53,0,0,1,.46,1.79A3.63,3.63,0,0,1,289.15,204.66Z"/><path d="M297.1,203.75a6.39,6.39,0,0,1-.08,1.32,1.92,1.92,0,0,1-.36.73,1.71,1.71,0,0,1-.61.47,2,2,0,0,1-1.69,0,1.64,1.64,0,0,1-.67-.53,1.79,1.79,0,0,1-.28-.8,10.74,10.74,0,0,1,0-1.14v-5.33h-1.11v5.33a7,7,0,0,0,.16,1.85,2.53,2.53,0,0,0,1,1.38,3.27,3.27,0,0,0,1.86.52A2.72,2.72,0,0,0,297,207a2.67,2.67,0,0,0,.94-1.3,6.5,6.5,0,0,0,.23-1.9v-5.33H297.1Z"/><polygon points="299.23 199.51 301.15 199.51 301.15 207.29 302.28 207.29 302.28 199.51 304.2 199.51 304.2 198.42 299.23 198.42 299.23 199.51"/><polygon points="306.31 198.42 305.19 198.42 305.19 207.29 309.62 207.29 309.62 206.21 306.31 206.21 306.31 198.42"/><polygon points="310.74 207.29 315.9 207.29 315.9 206.19 311.86 206.19 311.86 203.06 315.9 203.06 315.9 201.96 311.86 201.96 311.86 199.51 315.93 199.51 315.93 198.42 310.74 198.42 310.74 207.29"/><polygon points="316.32 199.51 318.24 199.51 318.24 207.29 319.37 207.29 319.37 199.51 321.29 199.51 321.29 198.42 316.32 198.42 316.32 199.51"/><path d="M341.2,202.59v0a.36.36,0,0,0-.11-.23h0l-43.87-39.08.7-.79a.37.37,0,0,0,.09-.29.36.36,0,0,0-.16-.26l-7.66-5v-12.1a.46.46,0,0,0-.46-.46h-18l-.11,0a.42.42,0,0,0-.27.11l-.06.06,0,0H268v-.08a.45.45,0,0,0-.06-.22h0a.4.4,0,0,0-.07-.22.47.47,0,0,0-.05-.13.4.4,0,0,0-.07-.18.45.45,0,0,0-.1-.17l0-.06a.44.44,0,0,0-.08-.12.47.47,0,0,0-.08-.1l0,0a.45.45,0,0,0-.12-.15l-.05-.05-.06-.06-.06-.06a.59.59,0,0,0-.17-.13l-.06-.06-.09-.06-.08-.05,0,0a1,1,0,0,0-.43-.23l-.09,0a.45.45,0,0,0-.26-.08h0a.45.45,0,0,0-.22-.06h-5.88l-4.6-9.82a33,33,0,0,1,.73-3.32l.06-.3a1432,1432,0,0,1,0-.15.43.43,0,0,0,0-.08.46.46,0,0,0,0-.06l-.06-.12a.45.45,0,0,0-.08-.12l-.12-.12,0,0-.07,0-.08,0,0,0-.93-.17-1.2-.3h0l-.4-.09a.41.41,0,0,0-.06-.11.43.43,0,0,0-.08-.12l0-.06a.39.39,0,0,0-.12-.15l0,0a.5.5,0,0,0-.08-.11l0,0a.51.51,0,0,0-.19-.2.47.47,0,0,0-.2-.19l-.09-.06a.48.48,0,0,0-.15-.12l-.1-.07-.08-.05a.42.42,0,0,0-.16-.09l-.12-.06-.11-.06a.46.46,0,0,0-.24-.1.46.46,0,0,0-.18-.06.45.45,0,0,0-.23-.06h-.07a.45.45,0,0,0-.23-.06h-.15v-.55l.07-.43v-.72a.44.44,0,0,0-.06-.21s0,0,0,0v-.13a.39.39,0,0,0-.08-.23.45.45,0,0,0-.1-.16l0-.06a.4.4,0,0,0-.12-.15.53.53,0,0,0-.17-.14l0,0a.46.46,0,0,0-.28-.16.55.55,0,0,0-.25-.07h-.6a.39.39,0,0,0-.23.08.44.44,0,0,0-.17.1l-.06,0a.39.39,0,0,0-.15.11.47.47,0,0,0-.14.16l0,0a.9.9,0,0,0-.23.47v.3h0v.22l-.07.44v.71l-.06.36h0s0,0,0,0,0,0,0,0v.56l-17.33-3.76-2-.43-.42-.06h-.15l-.09,0-.07,0-.06.05-.06.07a.45.45,0,0,0,0,.08.43.43,0,0,0,0,.06l-.06.25c-.12.52-.22,1-.32,1.54l-1.87-.41.2-.88.18-.89h0a.42.42,0,0,0,0,0,.46.46,0,0,0,0-.13.44.44,0,0,0,0-.07.46.46,0,0,0,0-.09l-.06-.06-.06-.07-.08,0-.08,0-7-1.57-.22-.57-.21-.44-.06-.3a.5.5,0,0,0-.39-.35h0l-3.48-.77v-10.6a.46.46,0,0,0,.17-.11l.06-.06,0,0a.31.31,0,0,0,.09-.21.43.43,0,0,0,0-.08v-3.68h4.58a.45.45,0,0,0,.18,0l.08-.05.07,0,.6-.6a.45.45,0,0,0,.13-.32h0V93.73a.45.45,0,0,0,0-.15.45.45,0,0,0-.06-.1l0-.05-.6-.6h0a.46.46,0,0,0-.15-.1l-.08,0-.1,0H214V82.3a.43.43,0,0,0,0-.09.45.45,0,0,0,0-.09.46.46,0,0,0-.1-.15h0l-.06-.06a.45.45,0,0,0-.14-.1l0,0V64.59a.5.5,0,0,0,0-.17.4.4,0,0,0,0-.15V54h4.95a.45.45,0,0,0,.32-.13l.6-.6a.45.45,0,0,0,.13-.35s0,0,0,0V45.16s0,0,0,0a.37.37,0,0,0-.11-.26l0,0-.6-.6a.45.45,0,0,0-.13-.09h0a.45.45,0,0,0-.18,0h-4.95V41.9h4.95a.45.45,0,0,0,.18,0l.08-.05.07,0,.6-.6a.45.45,0,0,0,.08-.11l0,0a.46.46,0,0,0,0-.18V33a.45.45,0,0,0-.13-.32l-.6-.6a.45.45,0,0,0-.32-.13h-4.95V30.37a.45.45,0,0,0,0-.15.45.45,0,0,0-.06-.1l0-.05-1-1,0,0a.42.42,0,0,0-.3-.12H202.11a.45.45,0,0,0-.18,0l0,0a.45.45,0,0,0-.11.08l-.21.21a.45.45,0,0,0-.43-.34h-20.4a.46.46,0,0,0-.46.46v2.08l0,.35-.14.92A5.53,5.53,0,0,1,175.85,37l-1.12.12H146.92l-.46.06a56.15,56.15,0,0,1-5.69.24l-.66,0v-.06a.45.45,0,0,0-.38-.44l-.13-.06h1.56a.45.45,0,0,0,.19,0l0,0a.45.45,0,0,0,.11-.09h0l2.76-3.48,0-.05,0-.07v0a.44.44,0,0,0,0-.07.42.42,0,0,0,0-.06V13.48a.42.42,0,0,0,0-.06.44.44,0,0,0,0-.08v0l0-.06,0-.05-2.76-3.48,0,0-.07-.06-.07,0-.09,0-.06,0h-14V8.32a.46.46,0,0,0-.46-.46h-1.29V2a.44.44,0,0,0-.08-.24s0,0,0,0a.45.45,0,0,0-.07-.14l0-.07a.4.4,0,0,0-.13-.2l-.06-.06,0,0A.47.47,0,0,0,125,1.1L124.85,1l-.09-.07h0a.46.46,0,0,0-.33-.23.43.43,0,0,0-.15-.08.46.46,0,0,0-.15-.08.46.46,0,0,0-.26-.08h0a.45.45,0,0,0-.23-.06h-1.14a.45.45,0,0,0-.23.06.46.46,0,0,0-.18.06.41.41,0,0,0-.18.07l-.12.06a.41.41,0,0,0-.2.14l-.06.06,0,0-.06,0a.39.39,0,0,0-.15.12.47.47,0,0,0-.13.16.4.4,0,0,0-.07.09h0a.45.45,0,0,0-.22.26.45.45,0,0,0-.08.19.5.5,0,0,0,0,.19.4.4,0,0,0,0,.13V7.87h-1.23l-.08,0s0-.05-.08-.06a.45.45,0,0,0-.32-.13h-.21V6h0a.45.45,0,0,0,0-.08.45.45,0,0,0,0-.08l0-.06-.06-.08h0l-.6-.54-.05,0L118,5.08l-.09,0h-7.27l-.11,0a.46.46,0,0,0-.15.1l-.54.54,0,0,0,0,0,0-.05.09v.05h0s0,0,0,0a.46.46,0,0,0,0,.07h0V7.69h-.27a.45.45,0,0,0-.32.13l-.12.12a.45.45,0,0,0-.13.32v0h-.62a.46.46,0,0,0-.46.46v.81h-2.63l-.08,0-.09,0-.06,0-.08.06,0,0L102,13.2l0,.06,0,.07v0a.45.45,0,0,0,0,.08.43.43,0,0,0,0,.06V32.92a.43.43,0,0,0,0,.06.44.44,0,0,0,0,.09v0l0,.06,0,.06,1.63,2c-.35.69-.65,1.4-.92,2.11h-.14l-2.72-.18-.42-.06H57.15a.46.46,0,0,0-.46.46v.72s0,0,0,0,0,0,0,0V99.2l-.1.56-.19.72-.05.35,0,.05a.44.44,0,0,0,0,.05.45.45,0,0,0,0,.06s0,0,0,0a.59.59,0,0,0,0,.18s0,0,0,0l0,0a.45.45,0,0,0,0,.05l0,0,.06.06.07.05,0,0h0l.06,0h.06v77.72a.46.46,0,0,0,.46.46h4.43l7.17,5.71a.36.36,0,0,0,.23.08H69a.36.36,0,0,0,.25-.18l.54-.95L129,218.11h.73L185,184.61l.55.9a.35.35,0,0,0,.24.17h.07a.36.36,0,0,0,.23-.08l7.05-5.89h8a.46.46,0,0,0,.46-.46V176.4l.18.18a.45.45,0,0,0,.11.07l0,0a.45.45,0,0,0,.18,0h10.08a.45.45,0,0,0,.18,0l0,0a.45.45,0,0,0,.11-.07l1-1a.46.46,0,0,0,.13-.32v-1.58h4.95a.46.46,0,0,0,.32-.13l.6-.6a.46.46,0,0,0,.13-.32s0,0,0,0,0,0,0,0V168h5.73a.46.46,0,0,0,0-.91h-.91l.87-2,.43-1.85v-1.77l-.52-2.45-1-2h0v0l1.07-2.4.43-1.85V151l-.52-2.45-.76-1.57h.74a.45.45,0,0,0,.21.06.46.46,0,0,0,.32-.77l-.06-.06h0a.45.45,0,0,0-.32-.13h-5.73v-.86s0,0,0,0a.38.38,0,0,0-.11-.26l0,0-.6-.6-.06,0-.09-.06-.08,0-.09,0h-4.95v-6.65h4.95a.45.45,0,0,0,.32-.13h0l.6-.6a.45.45,0,0,0,.13-.35s0,0,0,0v-3l2.61.56h.12a.45.45,0,0,0,.28-.1s0,0,0-.07a.44.44,0,0,0,.11-.17l.24-.92.19-.87,1.88.4v0l0,.09c-.1.49-.19,1-.28,1.42l-.06.18a.42.42,0,0,0,0,.05.43.43,0,0,0,0,.09.44.44,0,0,0,0,.08.44.44,0,0,0,0,.05l0,0,0,.07.06.07.06,0,0,0,.12.06.13,0,1,.17,1.2.3h0l19.36,4.2-.08,1.56h-.41a.45.45,0,0,0-.45.44.41.41,0,0,0-.18.09l-.06,0-.07,0a.45.45,0,0,0-.17.1l-.1.08,0,0a.38.38,0,0,0-.14.11l-.06.06-.06.06-.06.06a.48.48,0,0,0-.13.16l0,.06a.45.45,0,0,0-.2.31l0,0a.45.45,0,0,0-.17.31.45.45,0,0,0-.06.18.46.46,0,0,0-.06.23v0a.72.72,0,0,0-.06.27v.81H230.19a.46.46,0,0,0-.46.46v2.36l-4.34-.05a.46.46,0,0,0-.33.77.45.45,0,0,0,.32.14l4.35.05V166l-4.35.05a.45.45,0,0,0-.32.14.46.46,0,0,0,.33.77h0l4.34-.05v2.42a.46.46,0,0,0,.46.46h13.95v.87a.45.45,0,0,0,.06.22v0a.39.39,0,0,0,.07.22.45.45,0,0,0,0,.13.4.4,0,0,0,.07.18.44.44,0,0,0,.1.17l0,.07a.49.49,0,0,0,.08.12.48.48,0,0,0,.08.11l0,0a.41.41,0,0,0,.11.14l.06.06.06.06.06.06a.54.54,0,0,0,.16.13l.06.06.1.07.08.05,0,0a.92.92,0,0,0,.38.21v0a.46.46,0,0,0,.46.46h4.56a.44.44,0,0,0,.21-.06h.15a.4.4,0,0,0,.23-.08l.12-.06a.44.44,0,0,0,.17-.1l.07,0a.42.42,0,0,0,.15-.11l.06-.06a.48.48,0,0,0,.13-.16l0,0a.45.45,0,0,0,.14-.21.46.46,0,0,0,.06-.12.45.45,0,0,0,.08-.26v0h12.8a.44.44,0,0,0,.21-.06h.27a.45.45,0,0,0,.22-.06h0a.39.39,0,0,0,.22-.07l.13-.05a.4.4,0,0,0,.18-.07.44.44,0,0,0,.17-.1l.06,0a.43.43,0,0,0,.12-.08l.1-.08,0,0a.41.41,0,0,0,.15-.12l.06-.06.06-.06.06-.06a.59.59,0,0,0,.13-.17l.05-.05.07-.1.06-.09,0,0a1,1,0,0,0,.23-.42l0-.09a.46.46,0,0,0,.08-.26v0a.45.45,0,0,0,.06-.22v0h3.18l.09,0,.1.06h0l.09.06,0,0h0a.45.45,0,0,0,.17,0h18a.46.46,0,0,0,.46-.46V158.19l5.26,6.42a.37.37,0,0,0,.28.13h0a.37.37,0,0,0,.27-.12l.74-.83,43.15,38.44h-17a.37.37,0,1,0,0,.73h18a.36.36,0,0,0,.15,0l0,0,.09-.07h0a.36.36,0,0,0,.09-.23ZM214,100.3V93.62h4.13v8.09H214Zm-.36-61.08V32.9h4.49V41h-4.49Zm0,5.8h4.49v8.09h-4.49Zm30.53,122.17.18,1.66H230.65V157.52h13.68l-.19,1.71Zm-13.49-10.58V145.28h13.68l-.19,1.7v8l.19,1.65Zm15.17,15.07h0l0,0-.1-.07,0,0-.06-.06,0,0a.5.5,0,0,0-.08-.11l0,0a.49.49,0,0,0-.07-.11l0-.07,0-.07a.4.4,0,0,0-.06-.12.47.47,0,0,0-.05-.13.4.4,0,0,0-.06-.15.45.45,0,0,0-.06-.2v-.76l.05,0,.07-.06,0-.07,0-.08a.45.45,0,0,0,0-.08.43.43,0,0,0,0-.07v0s0,0,0,0l-.24-2.11v-7.87l.23-2.12a.43.43,0,0,0,0-.09v0L245,154.9V147l.24-2.16s0,0,0,0v0a.43.43,0,0,0,0-.07.45.45,0,0,0,0-.08l0-.08,0-.06-.07-.06,0,0v-.76a.45.45,0,0,0,.06-.22h0l0-.09a.48.48,0,0,0,.08-.25v0a.45.45,0,0,0,.15-.24l.06-.09.06-.09,0,0,.06-.06,0,0,.11-.08,0,0,0,0ZM268,157.1s0,0,0,0,0,0,0,0S268,157.08,268,157.1Zm-2.33-13.94h0a.45.45,0,0,0,.18.06l.09,0a.46.46,0,0,0,.19.08l.09.06.09.06.05.05.09.07,0,0,.07.07h0a.46.46,0,0,0,.08.11l0,0a.46.46,0,0,0,.07.11l0,.06,0,.07a.4.4,0,0,0,.05.11.45.45,0,0,0,.05.13.39.39,0,0,0,.06.16.45.45,0,0,0,.06.2V145a.45.45,0,0,0,.06.21v6.48l0-.06a.3.3,0,0,0-.07-.09l-.05-.09a.56.56,0,0,0-.08-.11l-.13-.13a1.94,1.94,0,0,1-.2-.23,2.49,2.49,0,0,0-.39-.42l-.06-.06-.1-.07h0l-.07-.1-.12-.12-.1-.07-.07-.05Zm-.59,7.62.12.08,0,0,.05.08a.44.44,0,0,0,.19.19l.1.07a1.71,1.71,0,0,1,.29.31,2.46,2.46,0,0,0,.27.31l.11.13a.3.3,0,0,0,.07.09l.05.08a.44.44,0,0,0,.09.12l0,0a3.37,3.37,0,0,1,.22.32l0,0,.2.3a.45.45,0,0,0,0,.17l.06.12a.3.3,0,0,0,.07.09l.05.08,0,0a.45.45,0,0,0,.12.26l.06.11a.33.33,0,0,0,0,.12l0,.08a.44.44,0,0,0,.12.29l0,0a6.38,6.38,0,0,0,.18.63l0,.13v.11a.46.46,0,0,0,0,.19l0,.11a.45.45,0,0,0,0,.18l0,.12a.46.46,0,0,0,0,.18l0,.48a.47.47,0,0,0,0,.18l0,.28s0,0,0,.07v0a.44.44,0,0,0,0-.08.45.45,0,0,0,0-.06l-3.9-6.72,0,0L264,150l-.07,0-.08,0,0,0h-.36l-.12-.26.27.13,0,0,.11.08.18.09a1.91,1.91,0,0,1,.54.31l.06.06.11.08.07,0,.1.07h0a.42.42,0,0,0,.17.17ZM257.91,164h0a.45.45,0,0,0-.23-.06h0a.47.47,0,0,0-.19-.06l-.05,0-.12-.06-.12-.06-.06,0-.08-.06-.09-.06a.49.49,0,0,0-.15-.12h3.7l-.77.36h-.18a.4.4,0,0,0-.22.07l-.12,0h0a.38.38,0,0,0-.2.06h0a.45.45,0,0,0-.22.06h-.57A.45.45,0,0,0,257.91,164Zm0,1h-.12l-.13,0h.07A.45.45,0,0,0,257.94,165Zm-.71-.19h0l-.13,0-.17-.08-.13,0-.16-.08-.14,0-.1,0h0a.45.45,0,0,0-.27-.13h0l-.07,0-.09-.06h.31l.07,0a.55.55,0,0,0,.15.12l.1.06.08.05a.43.43,0,0,0,.16.09l.12.06.11.06A.45.45,0,0,0,257.22,164.82Zm1.65.2a.45.45,0,0,0,.22-.06h.08a.39.39,0,0,0,.21-.06.46.46,0,0,0,.2-.06l.05,0,.08,0a.44.44,0,0,0,.19,0l1.19-.56h2.57l-.07,0-.09.07-.08.05,0,0a.44.44,0,0,0-.26.12l-.11.06-.12,0-.08,0a.46.46,0,0,0-.28.11h0a.45.45,0,0,0-.21.06l-.15,0h0l-.13,0-.08,0a.47.47,0,0,0-.17,0l-.12,0a.45.45,0,0,0-.18,0l-.12,0a.46.46,0,0,0-.19,0l-.11,0a.43.43,0,0,0-.19,0l0,0a1.64,1.64,0,0,0-.59,0,.78.78,0,0,1-.26,0h-.26a.52.52,0,0,1-.2,0,1.26,1.26,0,0,0-.58-.06.46.46,0,0,0-.22-.06h-.19a.45.45,0,0,0-.23-.06h-.08a.45.45,0,0,0-.19,0Zm4.12-2.41h-6.37l-2.68-4.66-.06-.12a.45.45,0,0,0-.06-.08l-.43-.75,3.27-5.49H263l3.16,5.54Zm3.36-4a.45.45,0,0,0,0,.16v.57a.45.45,0,0,0-.06.22h0a.45.45,0,0,0-.06.23h0a.47.47,0,0,0-.06.19l0,.05a.55.55,0,0,0-.06.12.47.47,0,0,0-.06.12l0,.06-.05.08-.07.09a.46.46,0,0,0-.11.14l0,0,0,0-.12.12,0,0,0,0,0,0a.42.42,0,0,0-.14.11l0,0-.06,0a.43.43,0,0,0-.12.08l0,0-.12.06a.46.46,0,0,0-.22.16l-.15.07Zm-1.58-15.5v6.27a2,2,0,0,0-.54-.29l-.06,0-.1-.07c-.19-.11-.39-.19-.61-.29l-.05,0-.26-.12-.12,0,0,0-.15,0,0,0-.06,0-2.48-5.29Zm-10.43-14.41.73.14h0c-.16.54-.31,1.2-.45,1.85l-.25-1-.42-1.11Zm-4.73-2.15h.57a.45.45,0,0,0,.23.06h0a.46.46,0,0,0,.23.06h0a.47.47,0,0,0,.19.06l.05,0,.12.06.12.06.06,0,.08.06.09.06a.48.48,0,0,0,.12.09l-2.22-.48.07,0h0A.45.45,0,0,0,249.62,126.56Zm-1.22-1.94.07-.43v-.37a.46.46,0,0,0,.05-.15l0-.05,0,0,.07,0,.1,0H249a.45.45,0,0,0,.15.05l.05,0,0,0,0,.07a.39.39,0,0,0,0,.1v.09a.45.45,0,0,0,.06.21v.49l-.07.43v.63l0,0-.06,0h-.07a.38.38,0,0,0-.21.06.45.45,0,0,0-.21.06.4.4,0,0,0-.14.06h0l-.12-.07-.07-.09,0-.07.05-.34Zm-20.69-.15c.1-.51.2-1,.31-1.49l1.1.22-1,1.08-.47.66ZM212.65,30.54l0,0V33l0,0Zm0,3.48,0,0v3.72l0,0Zm0,5.34,0,0V41.6l0,0Zm0,3.48,0,0V53.7l0,0Zm0,12.08,0,0v9h0Zm0,9.87h0v41.46l0,0Zm0,42.63,0,0v9.72h0ZM202.57,29.9h9.17v2.93h-9.17Zm0,3.84h9.17v3.71h-9.17Zm0,5h9.17v2.57h-9.17Zm0,3.48h9.17v12h-9.17Zm0,13h9.17v8.63h-9.17Zm0,9.54h9.17V106h-9.17Zm0,42.18h9.17v3.06l-9.17-2Zm-1-76.29,0,0V33l0,0Zm0,3.45,0,0v3.7l0,0Zm0,5.37,0,0v2.19l0,0Zm0,3.48,0,0v10.9l0,0Zm0,12,0,0v8.95h0Zm0,9.92h0v41.42l0,0Zm0,42.67,0,0v.3h0ZM181.08,32.73l.07-.71,0-.29s0,0,0,0,0,0,0,0V29.9H200.7v.5h0v2.42H181.06Zm-2.28,4,1-1,.7-1.1.37-.91H200.7v3.71H177.81Zm21.89,1.94v2.57H109.41a18.45,18.45,0,0,1,1-2.57ZM71.1,111.26v.65H57.61v-.65Zm-13.49-.91v-8.61l13.49,2.92v5.69Zm13.49,2.47V125.7h0l0,.42H57.61V112.82ZM71.25,127l.17.77a26.81,26.81,0,0,0,7.53,11l.27.21H57.61V127ZM79,87.21l-.25,1.21-18-3.89.09-.43.19-.72v-.07l3.77.82a.44.44,0,0,0,.21.06h.05Zm-9.6-3H71.1v.37Zm11.35,6.3.2-.92a.45.45,0,0,0,0-.19h0l.37-1.67,2,.45L82.08,94.3l-2.44,11.28-2-.46c.9-4.37,1.94-9.23,3.11-14.49a.44.44,0,0,0,0-.08A.43.43,0,0,0,80.76,90.49Zm20.46-34.39,1.08.24h0l1.13.24,1.66.36,1.88.42-.49,2.4-.21,0h0l-.31,0c-.58-.17-1.17-.28-1.74-.39s-1.14-.22-1.74-.4l-.71-.12h0l-.56-.1c-.58-.17-1.16-.29-1.73-.39s-1.13-.22-1.75-.4l-.11,0a.46.46,0,0,0-.2,0h-.07l-.16,0,.53-2.42c.58.15,1.16.27,1.74.38S100.6,55.94,101.21,56.11Zm-1.46-1.41.22-1c1.16.22,2.33.48,3.47.74l2.13.47-.23,1h-.06c-.58-.12-1.19-.25-1.73-.39l-1-.18-1-.23c-.52-.15-1.14-.27-1.76-.4Zm4.65,8.48.53-2.49.46-.07h.66l1,.56-.53,2.51-.49.1-.68-.05Zm0,5.3.93.55-.65,2.88-.43.1L103.6,72h0l-1-.55.64-2.87.43-.1ZM104,60.53,103.52,63l-.24,0L101,62.78h0l-.64-.15-1.81-.76.5-2.38,1.9,0,.68.11,2.19.74Zm-6.89-1.84,1,.56-.53,2.51-.43.1-.62,0,0,0-1-.56.53-2.5.49-.1Zm-.93,7c.35.06.77.16,1.19.27A11.37,11.37,0,0,0,99,66.3l1,.24h0l1.11.25c.92.15,1.82.36,2.81.61l0,.07c-.53-.15-1.07-.26-1.6-.36s-1.08-.21-1.64-.37l-.64-.12-.69-.19c-.62-.1-1.24-.24-1.84-.38-.42-.1-.89-.2-1.36-.3Zm6.14,2.71-.63,2.8-.24,0L99.15,71h0l-.64-.15-1.81-.75.61-2.74,1.85,0,.74.11,2.15.75Zm-5.93-1.3L95.77,70l-.43.1-.61,0-1-.57.59-2.87.43-.1.73.05ZM94.65,71l.17,0a16.44,16.44,0,0,0,1.84.42c.53.1,1.08.21,1.64.37l.66.12h0l.61.11a15.14,15.14,0,0,0,1.68.38,14.85,14.85,0,0,1,1.81.42l.19,0-.06.31c-.69-.18-1.53-.35-2.3-.5l-1-.19-1-.24h0L97.81,72l-1.13-.23c-.73-.15-1.48-.3-2.09-.46Zm0,3.9a.45.45,0,0,0,.18.09L95,75a21.31,21.31,0,0,0,5.08,1.24l1,.09.39.08h.1s.08,0,.12,0l1.2.1h.07l2.32.49c-3.61,16.46-6.92,31.73-10.1,46.6a.33.33,0,0,0-.05.24l-.23,1.06L78.16,121.2c1.59-7.27,3.18-14.65,4.72-21.8,1.84-8.52,3.74-17.33,5.65-26.09l4.92,1.09.13,0C94,74.6,94.31,74.72,94.67,74.85Zm11.17,3.66.9-.58q-2.57,11.81-5.12,23.63l-.2.93-4.78,22.08-.59-.88C99,109.78,102.25,95,105.84,78.51ZM82,99.2c-1.5,6.94-3,14.11-4.59,21.17l-.05-.08c1.94-8.82,3.89-17.84,5.61-25.79L84.37,88s0,0,0-.07a.45.45,0,0,0,0-.16l3-14,.07,0C85.62,82.4,83.7,91.31,82,99.2Zm-4.58,2.43-.58-.12L78,96.08h0l1.2-5.38.57.11C78.92,94.6,78.14,98.22,77.42,101.63ZM80.1,89.32l-.14.61-.57-.11.17-.75h0l.29-1.52.12-.42A.48.48,0,0,0,80,87v-.12s0,0,0,0a.44.44,0,0,0,0-.09l0-.08v0l0,0-.06-.06-.07,0-.08,0,0,0L72,84.76V78.67l0-.08.34-.21.75-.38.8-.55,2.67-2.06,3.5-3.11Zm-1.53,0-.13.59a.46.46,0,0,0-.07.17.45.45,0,0,0,0,.15l-1.26,5.66h0l-1.25,5.86v0s0,0,0,0l-.14.67L57.75,98.57l2.87-13.15Zm-3,16.31h0a.44.44,0,0,0,.26-.09l.05-.06a.44.44,0,0,0,.09-.1l.06-.12a.45.45,0,0,0,0-.14l0-.36.19-.7.18-1h0l.15-.69.59.12c-.18.87-.37,1.75-.54,2.59l-.06.24h0a.44.44,0,0,0,0,.1.46.46,0,0,0,0,.07,4.5,4.5,0,0,0,.06.16l.07.08,0,0,.1,0,.06,0h0l.53.12-.37,0a27.18,27.18,0,0,0-5.12.5v-1.69l3.47.75h.09ZM77.19,107c.64,0,1.24,0,1.81-.07h.36q-1.44,6.64-2.92,13.4v.12s0,0,0,0a.44.44,0,0,0,0,.09l0,.08v0l.72,1.14h0l.06.06.05.06,0,0,.06,0h0l.06,0h0l2.58.56V138.5l-.56-.44a25.8,25.8,0,0,1-7.24-10.5l-.23-1-.06-.84v-18.2A25.43,25.43,0,0,1,77.19,107Zm3.37,32.93a.45.45,0,0,0,.19,0l0,0,.1-.08,0,0,0-.05,0-.08a.44.44,0,0,0,0-.09.42.42,0,0,0,0-.06V122.75l14.09,3.08h.1a.44.44,0,0,0,.26-.09l.05-.06a.44.44,0,0,0,.09-.1l.06-.12a.45.45,0,0,0,0-.11l.09-.42.7,1.05h0l0,0,.06.06.06,0,0,0,.06,0,0,0,67.76,14.7H57.61v-1Zm16.84-14.49q2.57-11.81,5.12-23.63,2.63-12.14,5.26-24.26l78.49,17-3.16,14.6-.2.92c-2.29,10.59-4.65,21.53-7,32.38ZM184,109.32l3-14,.62.93-2.1,9.6,0,.16c-2.53,11.59-5.14,23.55-7.65,35.33l-1,.64C179.3,131,181.69,120,184,109.32Zm2.44-3.27,2.12-9.74a.43.43,0,0,0,0-.05.46.46,0,0,0,0-.05l.24-1.12,4.61,1c-1.59,7.27-3.19,14.65-4.74,21.8l-.17.79C186.85,126.45,185,135.23,183,144l-4.6-1C181.09,130.5,183.93,117.52,186.44,106Zm2.95,13,0-.16c1.55-7.16,3.15-14.55,4.77-22l0,.05-2.57,11.89c-2.45,11.33-5,23-7.54,34.65l0,0C185.86,135.35,187.65,127.06,189.39,119Zm3.22-10.35.54-2.51,2.14.46a.47.47,0,0,0-.08.26.41.41,0,0,0,0,.12q-.42,1.92-.83,3.85v.07c-.56,2.64-1.14,5.37-1.79,8.06l-.36,1.91-1.09,5c-.71,3.26-1.35,6.21-2,9.23l-2.16-.47C188.94,125.67,190.86,116.78,192.61,108.69ZM192,126.06l1.09-5h0l.35-1.9c.65-2.68,1.23-5.42,1.79-8.07v-.06l.57-2.68.07.07a.42.42,0,0,0,.11.14.48.48,0,0,0,.16.13l.09.07a.57.57,0,0,0,.15.12l0,0a.47.47,0,0,0,.21.14l.12.06a.45.45,0,0,0,.21.08.46.46,0,0,0,.18.06.46.46,0,0,0,.23.06h.07a.46.46,0,0,0,.23.06h.72a.39.39,0,0,0,.2-.06h0a3.69,3.69,0,0,0,.41-.12.41.41,0,0,0,.18-.07l.09,0c-.3,1.44-.61,2.87-.92,4.28l0,.14c-.47,2.13-1,4.33-1.37,6.49l-.42,1.8h0l-.42,1.86c-.42,1.82-.82,3.74-1.14,5.29-.38,1.84-.79,3.74-1.23,5.67l0,0h0l0-.07a.44.44,0,0,0-.12-.15.59.59,0,0,0-.17-.13l-.05-.05-.09-.06a.47.47,0,0,0-.15-.12l0,0a.45.45,0,0,0-.21-.14l-.12-.06-.12-.06a2.51,2.51,0,0,0-.44-.14h-.08a.45.45,0,0,0-.22-.06h-.78a.45.45,0,0,0-.22.06h-.08a.4.4,0,0,0-.22.07l-.13.05a.41.41,0,0,0-.18.07h0C190.95,131.1,191.53,128.45,192,126.06ZM199.36,108a.37.37,0,0,0-.14.11l0,0-.06,0-.07,0-.12.06-.11.06-.13.05a.45.45,0,0,0-.17.06h-.07a.39.39,0,0,0-.2.06h-.35a.46.46,0,0,0-.23-.06h-.07a.45.45,0,0,0-.18-.06l-.09,0-.12-.06a.46.46,0,0,0-.19-.08l-.08-.06a.44.44,0,0,0-.15-.11l-.06,0-.06-.07-.09-.09a.42.42,0,0,0-.11-.14l0,0,0-.06,0-.07a.4.4,0,0,0-.06-.12.39.39,0,0,0-.06-.11.44.44,0,0,0-.05-.13.45.45,0,0,0,0-.14l0-.14h4.51v.64l-.47-.1H200l-.06,0h0l0,0a.34.34,0,0,0-.11.07l-.06.06a.47.47,0,0,0-.13.16l0,.06-.07.06Zm-3.19-2,0,0-.08,0-.06,0h0l-2.63-.57,1.74-8.09.06-.12a183.47,183.47,0,0,0,0-.14.71.71,0,0,0,0-.17s0,0,0,0l0-.06a.43.43,0,0,0,0-.05l-.78-1.14,0,0-.06-.06,0,0,0,0-.08,0,0,0-5.46-1.2h-.16a.46.46,0,0,0-.46.46v.15l-.07.32-.72-1.08h0l0,0h0l-.07-.07h0l-.07,0-.07,0h0L107.54,76.52h-.07a.43.43,0,0,0-.19,0l-.09,0h0l-1.07.68.09-.42v-.06s0,0,0-.08a.46.46,0,0,0-.35-.54l-2.41-.51v0l0-.08a.47.47,0,0,0,0-.17.42.42,0,0,0,0,0l0,0,0-.08v0h0l0,0a.44.44,0,0,0,.16-.33.46.46,0,0,0,0-.17l0,0,0,0,0,0,0-.06v0l0-.06,0-.07a.43.43,0,0,0,0,0,.45.45,0,0,0,0-.06.42.42,0,0,0,0,0v0s0,0,0,0h0l0-.05v0l.07-.05,0,0a.44.44,0,0,0,.08-.15l0,0,.14-.72h.07l.14,0,.9-.3a.45.45,0,0,0,.17-.11l0,0a.45.45,0,0,0,.07-.09.44.44,0,0,0,0-.08l0,0,.78-3.48s0,0,0,0a.45.45,0,0,0,0-.23v0a.45.45,0,0,0-.11-.15l-.7-.64h0a.43.43,0,0,0-.13-.08h-.06l-.08,0h0l-.3-.06.1-.37a.43.43,0,0,0,0-.19.45.45,0,0,0,0-.08.45.45,0,0,0,0,0,.44.44,0,0,0,0-.06v-.06s0,0,0,0v0l0-.05h0l0,0h0l0-.05,0-.05v0l0-.06v0s0,0,0,0a.32.32,0,0,0,0-.11.45.45,0,0,0,0-.07s0,0,0,0v0l0-.05h0l.07,0h0l0-.05,0-.05v0a.82.82,0,0,0,0-.17,83.26,83.26,0,0,0,0-.15v0l0-.08,0-.06,0,0a.4.4,0,0,0,.12-.59h0l0,0,0,0,0,0,0,0,0,0h0l.1,0,.1.05a.45.45,0,0,0,.2,0H106l.14,0,.29-.1H200.7V106ZM107.42,63.79,108,61s0,0,0,0a.45.45,0,0,0,0-.23v0a.45.45,0,0,0-.12-.16l-.52-.43.62-3s0,0,0,0a.45.45,0,0,0,0-.06.43.43,0,0,0,0-.07v0l0-.05a.44.44,0,0,0,0,0l0,0v0h0l0,0-.05,0,0,0h0l-.54-.3a.45.45,0,0,0-.2-.05l-.74-.18.22-1H200.7v8.63Zm-.91-9.54L109,42.86h0l.15-.66H200.7v12Zm6.42-28.64a.45.45,0,0,0,.27-.27c1.61-1.6,3.23-3.2,4.92-4.86l0,0L121,17.65a.43.43,0,0,0,.09-.12l.06-.12h0l0,0,.06-.06.06-.06,0,0,.1-.08h0l.11-.05a.45.45,0,0,0,.14-.07l.07,0,.11-.05a.45.45,0,0,0,.16-.07l.09,0a.45.45,0,0,0,.17-.06h0a.39.39,0,0,0,.2-.06.58.58,0,0,0,.31-.07h.59a.45.45,0,0,0,.23.06h.08a.45.45,0,0,0,.23.06h0a.45.45,0,0,0,.19.06l0,0a1.7,1.7,0,0,0,.33.16.43.43,0,0,0,.15.09l.11.06,0,0,.09.07,0,0,.06.06a.53.53,0,0,0,.17.14l0,0a.4.4,0,0,0,.11.14l.06.06.06.06,0,0a.46.46,0,0,0,.08.11h0a.46.46,0,0,0,.06.11.47.47,0,0,0,.07.14l0,.07a.43.43,0,0,0,.06.11.46.46,0,0,0,.07.16l0,.09a.45.45,0,0,0,.06.18h0a.39.39,0,0,0,.06.2.57.57,0,0,0,.07.31s0,.09,0,.21v.37a.45.45,0,0,0-.06.23v.07a.45.45,0,0,0-.06.23h0a.45.45,0,0,0-.06.19l0,0a.47.47,0,0,0-.08.15.46.46,0,0,0-.08.19.44.44,0,0,0-.09.15.49.49,0,0,0-.06.11l0,0a.39.39,0,0,0-.07.09l0,0-.06.06a.48.48,0,0,0-.13.16l0,0,0,0-.06.06-2.69,2.67s-.05,0-.07,0l0,0-.07.07a.44.44,0,0,0-.1.12l-1.55,1.53c-2,2-4.35,4.33-6.61,6.52l-.78.78a4.77,4.77,0,0,0-1.44-2.66,5.06,5.06,0,0,0-2.64-1.48l.77-.74Zm-.06-12.7-1.67-1.77-.92-.68h7.62l-2.7,1.13Zm14.34,5.78v.07a.45.45,0,0,0,.06.23,1,1,0,0,0,.06.56.45.45,0,0,0-.06.23v.37a.45.45,0,0,0-.06.23h0a.45.45,0,0,0-.06.23h0a.45.45,0,0,0-.06.23h0l0,.08a.45.45,0,0,0-.08.23l0,.05a.5.5,0,0,0-.06.12,82,82,0,0,1-.12.24.49.49,0,0,0-.06.12l0,.05a.48.48,0,0,0-.12.15.43.43,0,0,0-.09.15l0,0a.34.34,0,0,0-.06.09l-.08.09a.53.53,0,0,0-.16.18l-.14.14a.5.5,0,0,0-.18.16l0,0-.06,0a.48.48,0,0,0-.17.14l-.07,0-.12.08,0,0a1.32,1.32,0,0,1-.36.18l-.12.06-.09,0h0l1-1a.44.44,0,0,0,.19-.19.34.34,0,0,0,.06-.09l0,0,.06-.06a.53.53,0,0,0,.14-.17l.05-.05a.42.42,0,0,0,.09-.16.47.47,0,0,0,.06-.11,1,1,0,0,0,.22-.43l0,0a3.06,3.06,0,0,0,.16-.42.45.45,0,0,0,.06-.23v-.13A.45.45,0,0,0,127,20v-.51a1,1,0,0,0-.06-.57v-.17a.39.39,0,0,0-.06-.21,3.31,3.31,0,0,0-.14-.42l0-.09a.41.41,0,0,0-.07-.18.44.44,0,0,0-.1-.17l0,0a.44.44,0,0,0-.06-.12.45.45,0,0,0-.11-.18l0,0a.4.4,0,0,0-.11-.14l-.06-.06-.06-.06,0,0a.46.46,0,0,0-.08-.1l-.18-.18-.09-.07,0,0-.06-.06a.53.53,0,0,0-.17-.14l-.05-.05a.42.42,0,0,0-.16-.09l-.11-.06a.46.46,0,0,0-.21-.14.45.45,0,0,0-.23-.08l0,0a.46.46,0,0,0-.24-.1.47.47,0,0,0-.18-.06.45.45,0,0,0-.23-.06h-.13a.45.45,0,0,0-.23-.06h-.51a1,1,0,0,0-.57.06h-.17a.39.39,0,0,0-.2.06.45.45,0,0,0-.21.06.46.46,0,0,0-.21.08l-.09,0a.41.41,0,0,0-.18.07.43.43,0,0,0-.17.1l0,0-.12.06a.46.46,0,0,0-.18.11l0,0a.4.4,0,0,0-.14.11l-.06.06-.06.06,0,0-.11.08-.06.06a.45.45,0,0,0-.12.23l-1.09,1.06a.45.45,0,0,0,.06-.16l0-.05a3993587.61,3993587.61,0,0,0,.12-.24.48.48,0,0,0,.06-.12.49.49,0,0,0,.06-.12l0-.05a.47.47,0,0,0,.12-.15.42.42,0,0,0,.09-.15l0,0a.35.35,0,0,0,.07-.09l.08-.09a.54.54,0,0,0,.16-.19l.14-.14a.49.49,0,0,0,.18-.16l0,0,.07,0a.48.48,0,0,0,.17-.13l.07,0,.12-.08,0,0a1.38,1.38,0,0,1,.36-.18l.12-.06.09,0a.46.46,0,0,0,.18-.06.41.41,0,0,0,.17-.07l.12,0h0a.45.45,0,0,0,.23-.06h.07a.46.46,0,0,0,.23-.06h.37a.46.46,0,0,1,.42,0h.37a.46.46,0,0,0,.23.06h0a.45.45,0,0,0,.23.06h0a.45.45,0,0,0,.23.06h0l.08,0a.45.45,0,0,0,.23.08l.05,0,.12.06.12.06.12.06.12.06.05,0a.46.46,0,0,0,.15.12.42.42,0,0,0,.15.09l0,0,.09.07.09.08a.54.54,0,0,0,.18.16l.14.14a.49.49,0,0,0,.15.18l0,0,0,.06a.47.47,0,0,0,.13.17l0,.07a.44.44,0,0,0,.08.12l0,0a.45.45,0,0,0,.1.17,2.32,2.32,0,0,0,.14.31l0,.09a.46.46,0,0,0,.06.18.41.41,0,0,0,.07.17.45.45,0,0,0,0,.12h0A.45.45,0,0,0,127.2,18.69ZM112.67,35.34l1.25-1.25,1.31.75,2.74,1.1h-5.86c.14-.17.28-.33.43-.48ZM120,37.7h.67q1.45,0,2.84.07l-4.19,0h-1.51C118.56,37.7,119.29,37.69,120,37.7Zm-3.66-.84c-1.61.08-3.23.2-4.86.41l-.38.05c.1-.16.19-.31.29-.46Zm14,0,2.32.24c.74.08,1.52.19,2.37.32l1.81.26-3.29.06-.12,0L132,37.51c-2.43-.27-5.21-.52-8.18-.65Zm-2.22-.91,1.61-.52,3.08-1.57.65-.37,1.61,1.71,1,.74Zm9.53-25.33,1.1-.16,1.18.21.91.48.95.65,1.68,1.85v19.1l-.81,1L141.25,35l-1.45.72-1.06.21-1.23-.21-.89-.47-1-.73L134,32.74V13.65l.81-1,1.42-1.26Zm-1.56-.16-.39.22L134.15,12l-.71.84-.66-.41-3.07-1.53-1.57-.49Zm-14-9,.11-.06.11-.06.13-.05a.45.45,0,0,0,.17-.06h.81a.45.45,0,0,0,.17.06.44.44,0,0,0,.2.06l0,0a.45.45,0,0,0,.15.09h-1.9Zm-.45.92h2.87V7.87h-2.87ZM120,8.78h6.29v.77H120Zm1.25,1.8,1.88-.12,3.06.34,3.17,1,3,1.48.75.47V32.66l-.71.4-3,1.53-3.09,1-3.14.36-1.8-.11-2.94-.7L115.64,34l-1-.6.06-.06c2.26-2.2,4.57-4.5,6.61-6.53l1.46-1.45,1.48.36.6.12h.09a.45.45,0,0,0,.17,0l.05,0,.09-.06,0,0,2.1-2.22h0l2.1-2.22,0,0,0,0v0a.43.43,0,0,0,0-.09.43.43,0,0,0,0-.08s0,0,0,0a.45.45,0,0,0,0-.06.44.44,0,0,0,0-.05l-.9-3h0l-.9-2.87,0,0,0-.08-.06-.07-.06-.05,0,0-.05,0,0,0L124.66,14h0l-.14,0-.07,0a.45.45,0,0,0-.2,0h0a.45.45,0,0,0-.23-.06h-.14l-2.41-.53a.45.45,0,0,0-.43.13L119.61,15h0l-.09.09a.48.48,0,0,0-.16.13l-.11.08-.12.12,0,0,0,0-.12.12a.45.45,0,0,0-.1.16l0,0h0l-1.92,2.1,0,0,0,.07a.55.55,0,0,0,0,.17s0,0,0,0a.45.45,0,0,0,0,.05.42.42,0,0,0,0,.05l.43,1.47.08.2-4.05,4V13.75l2.36-1.34,2.8-1.18Zm-4.37-4.29.46-.3.37.1.18.16V7.69h-1Zm-4.14,0,.29-.14L114.31,6l1.28.31.14.06V7.69h-3Zm-2.16,0L111,6l.38.1.23.17V7.69h-1.07ZM108.67,9.2H119.1v.35H108.67Zm-5.88,23.54V13.66l.87-1L105,11.42l1.43-.8,1.1-.16,1.19.22,1,.47.9.67,1.74,1.85V24.92l-3,3.05-2,1.92h0l-.69.69a25.05,25.05,0,0,0-2.44,3.56Zm-.19,8a20.94,20.94,0,0,1,.6-2.18.45.45,0,0,0,.13-.31.42.42,0,0,0,0-.05,23.28,23.28,0,0,1,4-7l.62-.62.13-.07c.78-.64,2.17,0,3.13,1s1.58,2.3.86,3.21l0,.05-.07.07a9.51,9.51,0,0,0-1,1.21.44.44,0,0,0-.18.24,14,14,0,0,0-.78,1.3,4.33,4.33,0,0,0-.33.56s0,0,0,0v0a19.21,19.21,0,0,0-1.23,3.36v0l-.08.3-.08.35-2.72-.61-.1,0L102.54,41Zm-.25,1.09,3,.67,2.71.61-2.38,10.8-2.7-.58-3-.62L102.3,42A.44.44,0,0,0,102.35,41.85ZM57.61,38.72H102.2c-.19.61-.36,1.21-.49,1.83l-.18.66s0,0,0,0h0v.06H57.61Zm0,3.48h43.71L99,52.93s0,0,0,0A.43.43,0,0,0,99,53a.44.44,0,0,0,0,.09s0,0,0,0l0,0,0,.08,0,0-.2.91H57.61Zm0,13H96.75l-.55,2.53-.73.24-.05,0-.05,0,0,0-.06.06,0,0h0v0l0,0a.45.45,0,0,0,0,.06l0,0h0l-.66,3.11s0,0,0,0a.8.8,0,0,0,0,.13v0l0,.06,0,.06,0,0,0,0,0,0,.71.59,0,0a.43.43,0,0,0,.29.13h0l.24.05a89.95,89.95,0,0,1,0,.14l0,.06-.05,0,0,0,0,0,0,0v0a.5.5,0,0,0,0,.17.44.44,0,0,0,0,.09.44.44,0,0,0,0,0v0l0,.09,0,0,0,0h0l0,.06h0l0,.07h0a.44.44,0,0,0,0,.08v0H57.61Zm0,9.54h38v0l0,0h0l0,0,0,0h0l0,0,0,.07,0,.08,0,0-.09.48H95.1a.45.45,0,0,0-.2,0h-.2l-.9.3-.06,0-.06,0,0,0-.05.06,0,.05v0a.44.44,0,0,0,0,.06.42.42,0,0,0,0,.05l-.72,3.48s0,0,0,0a.43.43,0,0,0,0,.05.44.44,0,0,0,0,.07.43.43,0,0,0,0,0l0,0,0,.07,0,0,0,0,0,0,.65.6,0,0a.39.39,0,0,0,.15.09l-.15.76a.23.23,0,0,1,0,.09v.06a.44.44,0,0,0,0,.07l0,.06h0l0,0h0l0,0a.44.44,0,0,0-.08.14v0s0,0,0,0a.19.19,0,0,0,0,.15.42.42,0,0,0,0,.06.44.44,0,0,0,0,.09l-.08.06,0,0a.44.44,0,0,0-.08.16v0s0,0,0,0a.41.41,0,0,0,0,0,.45.45,0,0,0,0,.16v0l0,.06-.08.07,0,0a.44.44,0,0,0-.06.15l0,0s0,0,0,0,0,0,0,0a.45.45,0,0,0,0,.06l-5-1.11h-.14l-.09,0-.08,0h0l-1.14.72,0,0,0,0a.44.44,0,0,0-.07.1l0,0,0,0a.45.45,0,0,0,0,.08s0,0,0,0v0c-1,4.56-2,9.17-3,13.74l-2.46-.55h0l-.08,0h0V71.26a.43.43,0,0,0,0-.07.45.45,0,0,0,0-.09l0-.08,0-.06h0l-.07-.05-.08-.05-.07,0-.09,0h-23Zm0,7H79.35l-3.34,3-2.62,2-.72.51-.62.31H57.61Zm0,6.72H71.13a.45.45,0,0,0,0,.07.43.43,0,0,0,0,.08v2.3H57.61Zm0,3.36H71.1v1.49H65.22l-4.37-.95h-.25l0,0,0,0,0,0-.07.07,0,.06,0,0-.06.12a.45.45,0,0,0,0,.14l0,.36,0,.08H57.61Zm0,2.4h2.34l-.12.6h0L57.61,95Zm-.32,16.52v-.05l.19-.7.08-.43a.45.45,0,0,0,0-.07l17.94,3.89-.09.49-.19.71v.06l-3.46-.75a.44.44,0,0,0-.22-.07h0l-14.13-3.06Zm.32,78.09v-8.93H69.09l-.07.18c-.19.56-.38,1.12-.58,1.67l0,.11c-.64,1.85-1.25,3.59-1.74,5.52l-.12.49v0l0,.09a.46.46,0,0,0-.08.21.45.45,0,0,0-.06.23v.25l0,.13Zm11.66-6.67,0-.09v3.76h-.08a.45.45,0,0,0-.23.06h0a.45.45,0,0,0-.22.06h0a.39.39,0,0,0-.22.07.44.44,0,0,0-.16.07l-.09,0a.42.42,0,0,0-.23.11l0,0-.06,0C68.33,174.89,68.78,173.54,69.27,172.14Zm114.95,10.39a.36.36,0,0,0-.17.53l.57.94-55.22,33.49-59.2-33.74.54-.94a.37.37,0,0,0-.19-.52l-6.73-2.56h2.94a.46.46,0,0,0,.46-.46h0v-.2l.06-.22h0l.12-.51v0a.46.46,0,0,0,.06-.16.45.45,0,0,0,.09-.15.5.5,0,0,0,.06-.12l0-.06.06-.09.17-.17,0-.06.07-.06.06-.06,0-.06,0,0a.4.4,0,0,0,.15-.12l0,0,0,0a.43.43,0,0,0,.13-.07l.07,0a.47.47,0,0,0,.16-.07l.09,0a.41.41,0,0,0,.15-.06.46.46,0,0,0,.2-.06h0a.45.45,0,0,0,.23-.06H184.07a.45.45,0,0,0,.23.06h0a19.71,19.71,0,0,0,.37.12l0,0a.46.46,0,0,0,.21.1.43.43,0,0,0,.15.09l.05,0a.45.45,0,0,0,.15.12l.06,0,.06.08.06.06.06,0,.06.07.15.15a.48.48,0,0,0,.08.11l0,0a.46.46,0,0,0,.06.12.45.45,0,0,0,.07.14l0,.06a.47.47,0,0,0,.05.13.41.41,0,0,0,.06.16.38.38,0,0,0,.06.18v0a.46.46,0,0,0,.11.29v.31a.46.46,0,0,0,.46.46H191Zm0-6.72v-3.72c.49,1.44,1,2.83,1.39,4.25l-.12-.06a.46.46,0,0,0-.31-.16l0,0A.47.47,0,0,0,185,176a.45.45,0,0,0-.26-.08h0a.45.45,0,0,0-.22-.06h0A.72.72,0,0,0,184.21,175.81Zm16.49,3H187.18l0-.17-.07-.45c-.64-2.44-1.42-4.68-2.23-7.06l-.44-1.25h16.3Zm0-9.84h-17l-.05,0-.07,0-.08.06,0,0a.45.45,0,0,0-.06.09l0,0a.45.45,0,0,0,0,.17v6.38H70.21v-6.38h0a.45.45,0,0,0,0-.11.46.46,0,0,0,0-.07h0l0-.07-.05-.07-.07,0-.08,0h0l-.12,0H57.61v-3.59H200.7Zm0-4.5H57.61V147.8H200.7Zm0-17.58H57.61V141.8H168.71l7.44,1.61h.09a.44.44,0,0,0,.22-.07h0l1.09-.73-.09.42,0,.08a.45.45,0,0,0,0,.05.45.45,0,0,0,0,.06s0,0,0,0a.62.62,0,0,0,0,.18s0,0,0,0l0,0a.45.45,0,0,0,0,.06l0,0,.06.06.07.06,0,0h0l.07,0,5.52,1.2h.09a.45.45,0,0,0,.25-.08h0l1.14-.78,0,0,.05-.05.06-.1,0-.05a.44.44,0,0,0,0-.12s0,0,0,0v0l.42-1.9h15.3Zm0-6H185.6l1.18-5.37,2.64.57h.09a.44.44,0,0,0,.26-.09l0,0a.45.45,0,0,0,.14-.22v0a.44.44,0,0,0,0-.06.45.45,0,0,0,0,0v-.09l.07-.33s0,0,0-.06l.07-.1.06-.06,0-.06,0,0a.44.44,0,0,0,.15-.12l0,0,.06,0,.07,0,.12-.06.12-.06.13-.05a.42.42,0,0,0,.15-.06h0a.45.45,0,0,0,.22-.06h.45a.45.45,0,0,0,.22.06h0a.46.46,0,0,0,.18.06l.09,0,.12.06a.44.44,0,0,0,.18.08l.08.06a.54.54,0,0,0,.15.12l.06.06.06,0,0,0a.49.49,0,0,0,.13.16h0l0,.07,0,.07a.42.42,0,0,0,.06.12.43.43,0,0,0,.05.11.46.46,0,0,0,.05.13.39.39,0,0,0,.06.15v0a.46.46,0,0,0,.08.26.4.4,0,0,0,.22.22l.05,0,.08,0,0,0,6.78,1.48Zm1,34.28,0-.05v-9.43l0,0Zm0-10.52,0,0V148.1l0,0Zm0-17.58,0,0v-4.75l0,0Zm0-5.94,0,0v-3h0Zm.46-3.84h0l-7.55-1.64c.52-2.12,1-4.31,1.41-6.43l0-.14c.36-1.72.72-3.49,1.12-5.22l.42-1.86h0l.42-1.81c.42-2.23.93-4.51,1.38-6.52.38-1.72.78-3.5,1.13-5.27l.5.11a.45.45,0,0,0,.2.05h0l10,2.18c-.48,2.11-.94,4.25-1.38,6.32l0,.08c-.41,1.92-.78,3.65-1.17,5.38l-.42,1.8h0l-.36,1.85q-.42,1.95-.87,3.91l0,.12c-.54,2.39-1.14,5.09-1.67,7.77l-2.9-.63A.44.44,0,0,0,202.11,137.29Zm9.63-25.12V117l-1-.22C211.06,115.31,211.39,113.76,211.74,112.17Zm0,63.64h-9.17V165.38h9.17Zm0-11.34h-9.17V147.8h9.17Zm0-17.58h-9.17V141.8h9.17Zm0-6h-9.17v-2.56l2.93.64h.1a.44.44,0,0,0,.26-.09l0,0a.45.45,0,0,0,.13-.21l0,0a.44.44,0,0,0,0-.07s0,0,0,0v0c.41-2.06.87-4.14,1.32-6.19l4.37,1Zm1,34.19,0,.06v-9.47l0,0Zm0-10.41,0,0V148.08l0,0Zm0-17.58,0,0V142.3l0,0Zm0-5.92,0,0v-7.67h0Zm5.4,31.64h-4.49v-7.4h0v-.68h4.49Zm6.25-13.42.47,2.23v1.57l-.39,1.66-1,2.13h-3.62l-.25-.55v-1.58a.43.43,0,0,0,0-.05.39.39,0,0,0-.13-.27l-.6-.6-.06,0-.09-.06h0l-.21-.93,0-1.54.33-1.58,1-2.14h3.63Zm-4.49-12.25h3.63l.86,1.75.47,2.23v1.57l-.39,1.66-1,2.13h-3.62l-.86-1.81-.53-2.28,0-1.54.33-1.58Zm-1.76-2v1H218a.46.46,0,0,0,0,.91h.9l-.92,2-.37,1.76-.06,1.68a.48.48,0,0,0,0,.12l.57,2.43,1,2.07v0L218,159.49l-.37,1.76-.06,1.68a.49.49,0,0,0,0,.12l.17.76h-4.13V148.09L218,148a.45.45,0,0,0,.32-.14.46.46,0,0,0-.33-.77l-4.34.05V145.1Zm0-8.47h-4.49v-3l.11,0h.16a.45.45,0,0,0,.36-.17l1-1,2.87.62Zm4.83-7.77,0,.13-.44,2.06a.42.42,0,0,0-.08.37l-.24,1.1L222,133l-3.23-.69a.44.44,0,0,0-.22-.06h0l-3.34-.72H215l-.12,0,0,0,0,0,0,0,0,0-1.06,1.07v0l-.29-.06a.44.44,0,0,0-.24-.08h-.06l-5.53-1.22.18-.82,0-.17c.3-1.34.6-2.68.9-4l.36-1.85.42-1.79c.38-1.68.74-3.39,1.1-5.08l2.41.53.12,0,3.62.8.52,1.38,0,0a.45.45,0,0,0,.15.19h0a.45.45,0,0,0,.15.07l6.83,1.52-.09.45c-.1.43-.19.87-.29,1.3v0s0,0,0,0C223.62,125.63,223.27,127.26,222.93,128.86Zm2.35,2.52-1.88-.4.42-1.93c.35-1.62.65-3,1-4.45l1.88.41c-.09.43-.17.85-.27,1.3l-.18.89-.48,2h0l-.18.88C225.45,130.51,225.37,130.94,225.28,131.38Zm1.1,2.55-.67-.12q.12-.6.24-1.2v0c0-.18.08-.37.12-.56h0s0,0,0,0l0-.08.25,1,.42,1.11Zm1.46.36-.62-1.64-.47-1.84-.11-1.49.45-1.87.18-.49,1.51-2.1,1.38-1.44,22.29,4.84a.45.45,0,0,0,.18,0l.26.06.62,1.64.47,1.84.12,1.49-.39,1.86-.24.48-1.52,2.11-1.38,1.44-2.27-.49a.45.45,0,0,0-.25-.06l-.59-.13,0,0h0a.47.47,0,0,0-.16,0h0Zm25.29,3.41q-.21.95-.4,1.94v.07l-1.11-.25,1-1.08ZM248,140.92l-.41,0,.06-1.37.21,0,.05.05.1.07.14.11a.5.5,0,0,0,.13.09,1.56,1.56,0,0,1,.26.21l0,.85Zm.47.94-.12,2.55-.89,0,.11-2.57h.38Zm1.9,30.46h-3.65V145.18a.44.44,0,0,0,.25.1l1.8.06h0a.45.45,0,0,0,.17,0,.45.45,0,0,0,.23-.21l0,0a.47.47,0,0,0,0-.09.44.44,0,0,0,0-.08l.15-3.11h.68c.07.09.14.18.19.27l.11.19Zm.73-30.62-.07-.13a7.24,7.24,0,0,0-.67-.87l-.22-.25-.05-.1a.45.45,0,0,0-.2-.2l0,0-.15-.17.91.2h0l2.15.48h.11a.44.44,0,0,0,.26-.09l0,0h0l.14-.11,0,0,.07-.06.05-.06,0-.07,0,0s0,0,0,0v0l.06-.3c.24-1.23.5-2.43.78-3.58l.18-.78h0l.33-1.58,4.19,8.95,0,.08,2.76,5.89h0a.45.45,0,0,0,.17.35l.64,1.36,0,.06,0,.05h-6.46l0,0-.08,0-.07,0-.06.07,0,0-3,5.11-.92-2.06.24-.53a.45.45,0,0,0,.19-.36v-.1a.44.44,0,0,0,0-.18l.13-.36a.46.46,0,0,0,0-.19l.12-.45a4.22,4.22,0,0,1,.11-.54,4,4,0,0,0,.14-.83v0a.45.45,0,0,0,0-.2v-.21a.45.45,0,0,0,0-.21v-2c0-.11,0-.25-.05-.4v0a5.4,5.4,0,0,0-.17-1v-.1a.45.45,0,0,0,0-.18l0-.12a.39.39,0,0,0,0-.18l0-.08a.48.48,0,0,0,0-.11c-.11-.37-.23-.71-.34-1v-.1a.45.45,0,0,0-.17-.35,8,8,0,0,0-1-2l0,0A.44.44,0,0,0,251.11,141.71Zm.46,29.66a.44.44,0,0,0-.06.21v.13l0,.08a.46.46,0,0,0-.08.19.3.3,0,0,0-.06.08h0l0,0V160.26a.46.46,0,0,0,0,.13v0a.44.44,0,0,0,0,.15l.12.24v0a.45.45,0,0,0,.06.17Zm0-18.69-.29.67v-9.47c.1.22.19.46.29.72Zm0,4.3h0s0,0,0,0v-.22a.45.45,0,0,0,0-.2v-.37a.45.45,0,0,0,.06-.23v-.2a.45.45,0,0,0,.06-.22v0l.3.66-.42.71a.42.42,0,0,0,0,.05.44.44,0,0,0,0,.06S251.59,157,251.59,157Zm.81,3.56a.37.37,0,0,0-.09-.17l-.07-.12a.32.32,0,0,0,0-.12l0-.08a.47.47,0,0,0-.11-.28v0a687.56,687.56,0,0,0-.11-.36v0a.34.34,0,0,0,0-.12l0-.08a.4.4,0,0,0,0-.16l-.07-.27a11.44,11.44,0,0,1-.17-1.52v0a.45.45,0,0,0,0,.07l3.9,6.72s0,0,.07.07l-.08,0-.11-.08-.07,0-.1-.07-.14-.11-.11-.08-.07,0-.1-.07h0a.42.42,0,0,0-.17-.17l-.14-.11-.12-.09,0,0-.05-.08a.45.45,0,0,0-.14-.17,5.06,5.06,0,0,1-1.09-1.23l-.21-.28-.06-.12-.07-.09-.06-.09v0a.46.46,0,0,0,0-.16l-.06-.12a.3.3,0,0,0-.07-.09l0,0A.44.44,0,0,0,252.4,160.54ZM264.78,171H252.49v-8.57a5.28,5.28,0,0,0,1,1.16v0a.45.45,0,0,0,.08.12l.12.12.1.07.14.11.1.07h0a.45.45,0,0,0,.19.18l.07,0,.09.07.14.11.11.08.07,0,.11.08.07,0,.12.08.12.06.13,0,.1,0h0l.1.08.07,0a.46.46,0,0,0,.27.13l0,0,.24.12.13,0,.17.08.13,0,.17.08.13,0,0,0a.44.44,0,0,0,.15,0,.47.47,0,0,0,.21.06h.05l.13,0,0,0a.45.45,0,0,0,.2,0h.08a.45.45,0,0,0,.22.06h.07a.45.45,0,0,0,.23.06h.2a.46.46,0,0,0,.23.06h.15a.86.86,0,0,1,.29,0,1,1,0,0,0,.39.06h.35a1.47,1.47,0,0,0,.51,0,.9.9,0,0,1,.36,0h.12a.45.45,0,0,0,.19,0l.11,0a.46.46,0,0,0,.19,0l.11,0a.45.45,0,0,0,.18,0l.12,0a.4.4,0,0,0,.18,0l.08,0a.46.46,0,0,0,.19,0h0l.12,0,.08,0a.46.46,0,0,0,.21-.06l.15,0,.12-.06,0,0a.44.44,0,0,0,.15,0h0a.43.43,0,0,0,.15,0l.24-.12,0,0a.4.4,0,0,0,.25-.11l.08-.05.1-.06h0a.46.46,0,0,0,.3-.13v0l.41-.27Zm2.4-2.16a.44.44,0,0,0-.06.21v.31a14,14,0,0,1-.12.35l0,.09a.45.45,0,0,0-.08.19.36.36,0,0,0-.06.09l-.06.09-.05.05a.38.38,0,0,0-.07.09l0,0-.06.06,0,0-.11.08,0,0-.11.08-.06,0-.07,0-.11.05-.13.05a.39.39,0,0,0-.15.06l-.06,0V164l0,0,.08-.05a.45.45,0,0,0,.12-.08l.42-.42.08-.1h0l.1-.08.12-.12a.38.38,0,0,0,.07-.1l.11-.15.07-.09h0a.46.46,0,0,0,.19-.2,1.15,1.15,0,0,1,.09-.14Zm.82-11.49a1.94,1.94,0,0,0,0,.48v.07a.45.45,0,0,0-.06.23v.2a.45.45,0,0,0-.06.22v.07a.45.45,0,0,0-.06.23V159a.47.47,0,0,0,0,.15c0,.11-.07.22-.11.34a1.4,1.4,0,0,1-.14.38.49.49,0,0,0-.05.16l0,.09a6.83,6.83,0,0,1-.31.67h0a.42.42,0,0,0-.09.12l-.12.24a.41.41,0,0,0,0,.12.48.48,0,0,0-.09.12,1.69,1.69,0,0,1-.19.28,3.29,3.29,0,0,0-.21.29.43.43,0,0,0-.18.18l-.11.14a.45.45,0,0,0-.08.12l0,0-.07.05a.46.46,0,0,0-.2.19l-.35.39-.05,0a.45.45,0,0,0-.12.08l-.17.17-.14.11-.09.06-.08.05a.46.46,0,0,0-.13.09h0l-.53.36,0,0,0,0,1-1.63.35-.17a.45.45,0,0,0,.14-.11l.12-.06.12-.08.06,0a.43.43,0,0,0,.15-.12l0,0,.11-.08,0,0a.5.5,0,0,0,.21-.19.47.47,0,0,0,.19-.2.41.41,0,0,0,.07-.1.48.48,0,0,0,.11-.14.39.39,0,0,0,.07-.1l.06-.08a.45.45,0,0,0,.09-.16.55.55,0,0,0,.06-.12.52.52,0,0,0,.06-.11.46.46,0,0,0,.1-.24,4,4,0,0,0,.12-.41v-.08a.45.45,0,0,0,.06-.22v-.9a.45.45,0,0,0,0-.15l.7-1.18a.43.43,0,0,0,0-.05l0-.06s0,0,0,0v0A1.64,1.64,0,0,1,268,157.36Zm2.54-3.26V160h0l.06,1.52.12,1.32-.06,1.48-.12,1.26s0,0,0,0v2.93h0v0h-2.46v-7.82c0-.09.1-.2.13-.28l.06-.12a.44.44,0,0,0,0-.12,2.56,2.56,0,0,0,.19-.53,1.88,1.88,0,0,1,.09-.27.44.44,0,0,0,0-.12l0,0a.45.45,0,0,0,0-.2V159a.45.45,0,0,0,.06-.23v-.08a.45.45,0,0,0,.06-.22v-.19a.45.45,0,0,0,.06-.23v-.26a1.06,1.06,0,0,1,0-.29,2.18,2.18,0,0,0,0-.64v-.3a.46.46,0,0,0,0-.18l0-.48a.46.46,0,0,0,0-.19l0-.11a.45.45,0,0,0,0-.18l0-.12a.46.46,0,0,0,0-.19l0-.11a.44.44,0,0,0,0-.13l-.08-.25a4.57,4.57,0,0,1-.15-.52.46.46,0,0,0,0-.14l-.06-.12v0a.45.45,0,0,0,0-.15v0a.42.42,0,0,0,0-.15l-.12-.24v-7.75h2.45v2.91h0l.06,1.22.12,1.2-.06,1.54-.12,1.68Zm18.72,14.74H272.17V157.52h17.09Zm0-12.24h0l-.14-.09.07.09h-17V145.28h17.09Z"/><path d="M19.55,117.13a2.7,2.7,0,0,0,1.85.67,3.24,3.24,0,0,0,1.61-.39,2.88,2.88,0,0,0,1.11-1.14,3.3,3.3,0,0,0,.41-1.62,2.91,2.91,0,0,0-.8-2.11,2.72,2.72,0,0,0-2-.83,3.54,3.54,0,0,0-.85.12l.38-2.05h3.08v-1.07h-4l-.86,4.61.21-.09c1.53-.65,2.55-.57,3.18.06a1.77,1.77,0,0,1,.51,1.33,2.14,2.14,0,0,1-.58,1.52,1.8,1.8,0,0,1-1.37.6,1.77,1.77,0,0,1-.77-.18,1.6,1.6,0,0,1-.59-.46,1.84,1.84,0,0,1-.31-.76l0-.1H18.63l0,.14A2.76,2.76,0,0,0,19.55,117.13Z"/><path d="M26.15,116.3a.86.86,0,0,0,0,1.2.84.84,0,0,0,1.2,0,.85.85,0,1,0-1.2-1.2Z"/><path d="M30.59,117.85l2.68-4a7.09,7.09,0,0,0,.78-1.43,3.38,3.38,0,0,0,.22-1.16,2.82,2.82,0,0,0-.36-1.39,2.61,2.61,0,0,0-1-1,2.87,2.87,0,0,0-2.81,0,2.68,2.68,0,0,0-1,1,2.77,2.77,0,0,0-.36,1.4,2.66,2.66,0,0,0,.75,1.91,2.46,2.46,0,0,0,1.83.78,2.7,2.7,0,0,0,.59-.07l-2.22,3.36ZM31.5,113a1.68,1.68,0,1,1,1.2-.49A1.62,1.62,0,0,1,31.5,113Z"/><path d="M36.62,117.31a2.63,2.63,0,0,0,1.56.5,2.7,2.7,0,0,0,1.6-.51,3.33,3.33,0,0,0,1.12-1.5,8.85,8.85,0,0,0,0-5.27,3.35,3.35,0,0,0-1.12-1.5,2.69,2.69,0,0,0-1.59-.51,2.63,2.63,0,0,0-1.57.5,3.19,3.19,0,0,0-1.08,1.47,7.62,7.62,0,0,0-.37,2.68,7.55,7.55,0,0,0,.38,2.68A3.2,3.2,0,0,0,36.62,117.31ZM36.48,111a2.26,2.26,0,0,1,.73-1.07,1.57,1.57,0,0,1,2,0,2.39,2.39,0,0,1,.75,1.16,6.54,6.54,0,0,1,.28,2.09,6.65,6.65,0,0,1-.32,2.18,2.2,2.2,0,0,1-.71,1.08,1.58,1.58,0,0,1-2,0,2.23,2.23,0,0,1-.73-1.08,9.35,9.35,0,0,1,0-4.34Z"/><path d="M45.93,108.45l-2.69,4a7.09,7.09,0,0,0-.78,1.43,3.36,3.36,0,0,0-.22,1.15,2.83,2.83,0,0,0,.36,1.39,2.6,2.6,0,0,0,1,1,2.77,2.77,0,0,0,1.38.36,2.91,2.91,0,0,0,1.43-.37,2.67,2.67,0,0,0,1-1A2.78,2.78,0,0,0,47.8,115a2.66,2.66,0,0,0-.75-1.91,2.46,2.46,0,0,0-1.83-.78,2.65,2.65,0,0,0-.59.07l2.21-3.35ZM45,113.34a1.69,1.69,0,1,1-1.19.49A1.62,1.62,0,0,1,45,113.34Z"/><path d="M53.55,37.18H33.28l-.07-.46-.07.46H24.21a.37.37,0,0,0,0,.73h8.57l-1.38,8.94a.37.37,0,0,0,.36.42h1.07v58.55a.37.37,0,1,0,.73,0V47.27h1.07a.37.37,0,0,0,.36-.42l-1.38-8.94H53.55a.37.37,0,0,0,0-.73Z"/><polygon points="0 73.8 0 74.87 4.04 74.87 0.1 82.45 1.03 82.93 5.8 73.8 0 73.8"/><path d="M7.13,81.38a.86.86,0,0,0,0,1.2.84.84,0,0,0,1.2,0,.85.85,0,1,0-1.2-1.2Z"/><path d="M14.65,82.67v-2h1V79.59h-1v-6h-.36l-5,7.08h4.24v2Zm-3.29-3.07,2.19-3.1v3.1Z"/><path d="M19.15,81.8a1.86,1.86,0,0,1-1.28-.44,2.35,2.35,0,0,1-.6-1.15l0-.09H16.16l0,.15a3.28,3.28,0,0,0,1,2,2.88,2.88,0,0,0,1.94.67,3.21,3.21,0,0,0,1.55-.38,2.82,2.82,0,0,0,1.1-1.08A2.87,2.87,0,0,0,22.2,80a2.49,2.49,0,0,0-.59-1.61,2.61,2.61,0,0,0-.85-.68,2,2,0,0,0,1-1.75,2.19,2.19,0,0,0-.34-1.16,2.41,2.41,0,0,0-1-.87,2.78,2.78,0,0,0-1.31-.32,2.54,2.54,0,0,0-1.69.6,3,3,0,0,0-1,1.71l0,.15h1.12l0-.08a2.26,2.26,0,0,1,.65-1,1.41,1.41,0,0,1,.88-.29,1.48,1.48,0,0,1,1,.38,1.15,1.15,0,0,1,.41.88,1.09,1.09,0,0,1-.2.63,1.46,1.46,0,0,1-.65.49,2.6,2.6,0,0,1-1,.2h-.12v1h.12a4.14,4.14,0,0,1,1.43.26,1.68,1.68,0,0,1,.71.62,1.59,1.59,0,0,1,.26.88,1.66,1.66,0,0,1-.53,1.23A1.94,1.94,0,0,1,19.15,81.8Z"/><path d="M28.56,74.87V73.8h-4l-.86,4.61.21-.09c1.54-.65,2.55-.57,3.18.06a1.77,1.77,0,0,1,.51,1.33,2.14,2.14,0,0,1-.58,1.52,1.8,1.8,0,0,1-1.37.6,1.77,1.77,0,0,1-.77-.18,1.6,1.6,0,0,1-.59-.46,1.84,1.84,0,0,1-.31-.76l0-.1H22.88l0,.14a2.76,2.76,0,0,0,.9,1.74,2.7,2.7,0,0,0,1.85.67,3.24,3.24,0,0,0,1.61-.39,2.88,2.88,0,0,0,1.11-1.14,3.3,3.3,0,0,0,.41-1.62,2.91,2.91,0,0,0-.8-2.11,2.72,2.72,0,0,0-2-.83,3.54,3.54,0,0,0-.85.12l.38-2.05Z"/><path d="M5.25,1.19h8.57l-1.38,8.94a.37.37,0,0,0,.36.42h1.08V70.9a.37.37,0,0,0,.73,0V10.55h1.07a.37.37,0,0,0,.36-.42L14.68,1.19H119.55a.37.37,0,1,0,0-.73H14.32L14.25,0l-.07.46H5.25a.37.37,0,1,0,0,.73Z"/><path d="M53.55,178.9H33.64L35,170a.36.36,0,0,0-.36-.42H33.58V120.1a.37.37,0,1,0-.73,0v49.43H31.77a.36.36,0,0,0-.36.42l1.38,8.94H14.68L16.05,170a.36.36,0,0,0-.36-.42H14.62V85.18a.37.37,0,0,0-.73,0v84.35H12.81a.37.37,0,0,0-.28.13.36.36,0,0,0-.08.29l1.38,8.94H5.25a.37.37,0,1,0,0,.73h8.93l.07.46.07-.46H33.14l.07.46.07-.46H53.55a.37.37,0,1,0,0-.73Z"/></svg>