<svg id="Layer_1" data-name="Layer 1" xmlns="http://www.w3.org/2000/svg" viewBox="0 0 376.1 292.33"><title>Artboard 1</title><path d="M128.66,2.26a.39.39,0,0,0,.08-.39.32.32,0,0,0-.13-.14l0,0-.18-.53V.81l-.48-.24h0L126.58,0l-.09,0h-3.6c-.38,0-.49.11-.49.49V8.65a.48.48,0,0,0,.49.49h.1l.39-.39V5.3h2.87l.11,0,.13,0h0l1.2-.48h.05l0,0,.11,0V4.67l.48-.48V4.07l.21-.57a.41.41,0,0,0,.06-.55s0,0,0-.07V2.26Zm-5.28,2.06V1h2.82l1.16.46h.05l0,.06v0l0,0,.06.12h0l.12.19V3.13a.5.5,0,0,0,0,.21l-.29.43v0l0,0-1.22.47Z"/><path d="M131.11,7.87l.65.65v.07l.11,0,0,0H132l1.16.46.09,0h1.06l0,0,1.11-.44h.29l.87-.87V7.48l.22-.87a.41.41,0,0,0,.05-.54s0,0,0-.07V.49c0-.38-.11-.49-.49-.49a.48.48,0,0,0-.49.49V6.22l-.16.8-.75.75-.82.39h-.61l-1.11-.44L131.7,7l-.16-.8V.49a.48.48,0,0,0-.49-.49c-.38,0-.49.11-.49.49v6l.36.77C130.8,7.46,130.86,7.61,131.11,7.87Z"/><path d="M139.45,9.14h4.9l.39-.39v-.1a.48.48,0,0,0-.49-.49h-4.31V.49c0-.38-.11-.49-.49-.49a.48.48,0,0,0-.49.49V8.75l.39.39Z"/><path d="M146.17,9.14h4.56a.48.48,0,0,0,.49-.49c0-.38-.11-.49-.49-.49h-4.07V.49a.48.48,0,0,0-.49-.49c-.38,0-.49.11-.49.49V8.65A.48.48,0,0,0,146.17,9.14Z"/><path d="M160.81,9.14a.48.48,0,0,0,.49-.49V4.82h2l2.53,3.91c.05.41.52.41.72.41h.25v-.8L164.53,4.8a.49.49,0,0,0,.16-.07l.64-.26a.34.34,0,0,0,.17,0,.36.36,0,0,0,.3-.2.31.31,0,0,0,.26-.17l.16-.08.06,0,.07-.08.17-.16.24-.65A.49.49,0,0,0,166.8,3h0v-1a.51.51,0,0,0-.08-.26l-.17-.54-.06-.1-.17-.16-.07-.08L166,.64a.46.46,0,0,0-.31-.15l-1-.39a.51.51,0,0,0-.28-.09h-3.6a.48.48,0,0,0-.49.49V8.75l.39.39ZM164.36,1l1.11.44.16.16.21.63v.41l-.14.54-.52.52-.8.16H161.3V1Z"/><path d="M169,9.14a.48.48,0,0,0,.49-.49V.49c0-.38-.11-.49-.49-.49a.48.48,0,0,0-.49.49V8.75l.39.39Z"/><path d="M172.09,9.14a.48.48,0,0,0,.49-.49V2.21l4.55,6.52s0,0,0,0a.49.49,0,0,0,.08.18V9a.47.47,0,0,0,.37.17h.49V.49c0-.38-.11-.49-.49-.49s-.49.11-.49.49V6.88L172.46,0h-.37a.51.51,0,0,0-.24.07l-.06,0a.46.46,0,0,0-.19.39V8.75l.39.39Z"/><path d="M180.24,6.76v0l0,0a.45.45,0,0,0,.2.3l.26.39v.27l.72.72v.05l.1.05,0,0h0l.67.33a.47.47,0,0,0,.35.15h1.76l.72-.48h.27l.87-.87v-.3l.09-.27h0l.39-.39V5.53a.48.48,0,0,0-.49-.49h-2.16a.48.48,0,0,0-.49.49v.1L184,6h1.77v.41L185.5,7h-.07l-.87.87v.08l-.53.25h-1.08l-.53-.26V7.8l-.72-.54s0,0,0-.05V7.13l-.6-.89H181l-.29-.76V3.66l.3-.76h.08l.53-1.06.42-.42.87-.44H184l.76.38.62.82h.15l.21.31c0,.32.14.41.49.41h.1l.07-.07a.46.46,0,0,0,.16-.47.3.3,0,0,0-.13-.14l-.2-.79V1.35l0,0,0-.12h-.09l-.72-.72h-.27L184.41,0h-1.76c-.26,0-.39.06-.44.21l-.56.27h-.05l0,0-.1,0V.63l-.57.57h-.05l-.05.1,0,0v0l-.33.65a.4.4,0,0,0-.15.32l-.16.79a.47.47,0,0,0-.33.46v2l.32.32Z"/><path d="M43.44,97.77v.32l.43.22,0,0s0,0,0,.06v.18l.72.24h0l.17.05h0l2.25.67a.46.46,0,0,0,.15.05l.56.37v0l.12.06,0,0h0l.07,0,.46,1v.57l-.67.67-.82.39H45.66l-1.11-.44-.76-.76h-.34a.47.47,0,0,0-.29.09.35.35,0,0,0-.15.28.37.37,0,0,0,.29.35l.57.77.08.11.07.1h.12l1.06.44,0,0h1.68l0,0,.11,0h.05l0,0,1.11-.44h.32l.58-.77a.47.47,0,0,0,.24-.33l0,0v-1.28a.5.5,0,0,0-.18-.37l-.33-.7,0-.06h0l-.25-.54h-.32l-.55-.36V98.7l-.14,0,0,0h0l-2.37-.71h0l-.6-.2-.05,0-.2-.2-.39-.81v-.33l.59-.59h0l1.09-.22H47l.86.22.67.67c.17.17.29.25.42.25s.25-.08.42-.25l.07-.07v-.45l-.79-.79L48.59,95l-.16-.17-.05-.05-1.27-.25H45.32l-1.4.28V95s0,0,0,.07a.54.54,0,0,0-.06.16l-.49.49,0,0-.08,0-.06,0,0,0a.46.46,0,0,0-.19.38v.82l.06.06Z"/><path d="M51.61,103.7h5a.48.48,0,0,0,.49-.49c0-.38-.11-.49-.49-.49H52.1V99.38h2.63a.48.48,0,0,0,.49-.49c0-.38-.11-.49-.49-.49H52.1V95.54h4.55a.48.48,0,0,0,.49-.49c0-.38-.11-.49-.49-.49h-5a.48.48,0,0,0-.49.49v8.26l.39.39Z"/><path d="M60.24,95.54v7.67a.48.48,0,0,0,.49.49h.1l.39-.39V95.54h2.25l.39-.39V95a.48.48,0,0,0-.49-.49H57.85a.48.48,0,0,0-.49.49v.1l.39.39Z"/><path d="M73.45,103.7h.1l.39-.39V99.62H77.1l1.18-.23h.08l0,0,.13,0v-.1l.33-.33h.09l0-.12,0,0v-.07l.16-.65a.41.41,0,0,0,.06-.16.33.33,0,0,0,.1-.12.39.39,0,0,0-.08-.39v-.53a.39.39,0,0,0,.08-.39.33.33,0,0,0-.1-.12.41.41,0,0,0-.06-.16L79,95.5v-.12l0,0,0-.08h-.14l-.29-.14v-.29l-1.45-.28h-3.6c-.38,0-.49.11-.49.49v8.16A.48.48,0,0,0,73.45,103.7Zm3.33-8.16,1,.21,0,0,.24.48h.06l.09.27v1.16h0l-.08.22H78.1l-.25.51-1.06.21H73.94v-3.1Z"/><path d="M81.61,103.7h.1l.39-.39V99.38H84l2.6,3.91a.32.32,0,0,0,.18.33l.11,0c.11,0,.2-.08.33-.2a.33.33,0,0,0,.21-.18.37.37,0,0,0-.12-.42l-2.11-3.46h0l1.2-.48h0l0,0,.15-.06v0l.48-.24v-.35l.21-.63a.56.56,0,0,0,.14-.36.55.55,0,0,0-.11-.33v-.07a.39.39,0,0,0,.08-.39.33.33,0,0,0-.1-.12.41.41,0,0,0-.06-.16l-.16-.65v-.12l0,0,0-.08h-.14l-.29-.14v-.29l-1.45-.28h-3.6c-.38,0-.49.11-.49.49v8.16A.48.48,0,0,0,81.61,103.7Zm3.34-8.16,1,.21,0,0,.24.48h.06l.08.27v.68h0l-.21.57L86,98l-1.08.42H82.1V95.54Z"/><path d="M89.77,103.7h5a.48.48,0,0,0,.49-.49c0-.38-.11-.49-.49-.49H90.26V99.38H93l.39-.39v-.1a.48.48,0,0,0-.49-.49H90.26V95.54h4.55A.48.48,0,0,0,95.3,95c0-.38-.11-.49-.49-.49h-5c-.38,0-.49.11-.49.49v8.16A.48.48,0,0,0,89.77,103.7Z"/><path d="M97.32,103.2l0,0h.05l1.11.44,0,0h.05l.11,0,0,0h1.68l0,0,1.11-.44h.08l.07-.1.08-.11.39-.52h.15l.39-.39v-1.41l-.09-.09-.39-.82v0l-.55-.55h0l-.07-.07h-.07l-.88-.45-.11,0h0l-2.06-.71h-.1l-.56-.21-.47-.47-.14-.54v-.35l.59-.59,1.1-.22h1.15l1.09.22h0l.6.6a.44.44,0,0,0,.08.17.35.35,0,0,0,.28.15,1,1,0,0,0,.55-.55.38.38,0,0,0-.31-.36l-.49-.49a.53.53,0,0,0-.06-.16s0,0,0-.07v-.21l-1.4-.28H98.6l-1.27.25-.05.05c-.21.21-.28.29-.3.46l-.73.55v1.19l.06.06.29.43a.33.33,0,0,0,0,.13c0,.16.1.26.25.42l.2.11a1,1,0,0,0,.28.37l.82.3h.11l2.11.66a.47.47,0,0,0,.18.06l.65.43.22.22,0,0,.39.81v.57l-.64.64-1.08.42h-1.1l-1.11-.44-.76-.76h-.83v.59l.74.74A.46.46,0,0,0,97.32,103.2Z"/><path d="M104.31,97.46l.09.27v.35l.43.22,0,0s0,0,0,.06v.18l.72.24h0l.17.05h0l2.25.67a.46.46,0,0,0,.15.05l.56.37v0l.12.06,0,0h0l.07,0,.46,1v.57l-.72.72v0l-.76.29h-1.34l-1.11-.44-.76-.76h-.34a.47.47,0,0,0-.29.09.35.35,0,0,0-.15.28.37.37,0,0,0,.29.35l.57.77.08.11.07.1h.12l1.11.46.09,0a.4.4,0,0,0,.11,0,.48.48,0,0,0,.13,0h1.34l0,0,.11,0h.05l0,0,1.11-.44h.32l.58-.77a.47.47,0,0,0,.24-.33l0,0v-1.28a.5.5,0,0,0-.18-.37l-.33-.7,0-.06h0l-.25-.54h-.32l-.55-.36V98.7l-.14,0,0,0h0l-2.37-.71h0l-.56-.19,0,0-.25-.51h-.14l-.25-.52v-.33l.59-.59h0l1.09-.22H108l.8.16.73.73c.17.17.29.25.42.25s.25-.08.42-.25l.07-.07v-.45l-.79-.79-.08-.07-.16-.17-.05-.05-1.27-.25h-1.78l-1.4.28V95s0,0,0,.07a.54.54,0,0,0-.06.16l-.49.49,0,0-.08,0-.06,0,0,0a.46.46,0,0,0-.19.38v.82l.39.39Z"/><path d="M112.56,102.06v0l0,0a.46.46,0,0,0,.24.32l.59.79h.32l1.11.44,0,0h.05l.11,0,0,0h.62a.49.49,0,0,0,.13,0,.4.4,0,0,0,.11,0h0l1.2-.48h.08l0,0,.09,0v-.09l.43-.57a.31.31,0,0,0,.27-.3.36.36,0,0,0,.2-.29.34.34,0,0,0,0-.16l.26-.64a.46.46,0,0,0,.07-.18h0l0-.09V95a.48.48,0,0,0-.49-.49c-.38,0-.49.11-.49.49v5.7l-.45.91,0,.11a.4.4,0,0,0,0,.11l-.43.43-1.08.42H115l-.76-.3v0l-.81-.81-.39-.82V95c0-.38-.11-.49-.49-.49a.48.48,0,0,0-.49.49v5.76a.47.47,0,0,0,.12.32Z"/><path d="M121.21,103.7h.1l.39-.39V99.38h1.94l2.61,3.92a.44.44,0,0,0,.08.2.35.35,0,0,0,.28.15.37.37,0,0,0,.34-.24.31.31,0,0,0,.12-.14.37.37,0,0,0-.12-.42l-2.11-3.46h0l1.2-.48h0l0,0,.15-.06v0l.48-.24v-.35l.21-.63a.56.56,0,0,0,.14-.36.55.55,0,0,0-.11-.33v-.07a.39.39,0,0,0,.08-.39.33.33,0,0,0-.1-.12.41.41,0,0,0-.06-.16l-.16-.65v-.12l0,0,0-.08h-.14l-.29-.14v-.29l-1.45-.28h-3.6c-.38,0-.49.11-.49.49v8.16A.48.48,0,0,0,121.21,103.7Zm3.33-8.16,1,.21,0,0,.24.48H126v0a.5.5,0,0,0,0,.22v.72a.5.5,0,0,0,0,.22l-.23.35-.21.21-1.08.42H121.7V95.54Z"/><path d="M129.47,103.7h4.94a.48.48,0,0,0,.49-.49c0-.38-.11-.49-.49-.49h-4.55V99.38h2.73L133,99v-.1a.48.48,0,0,0-.49-.49h-2.63V95.54h4.55a.48.48,0,0,0,.49-.49c0-.38-.11-.49-.49-.49h-5c-.38,0-.49.11-.49.49v8.16a.48.48,0,0,0,.49.49Z"/><path d="M137,101.89a.36.36,0,0,0-.14.15l-.08,0,0,0-.22.11h0l0,0a.44.44,0,0,0-.15.06.26.26,0,0,0-.13.34c0,.14,0,.28.23.47l.35.19a.36.36,0,0,0,.1.09l0,.08,0,0-.37.56v0l-.1.05-.06,0c-.34.34-.34.5,0,.83l.07.07h.45l.26-.26a.46.46,0,0,0,.35-.35l0,0v0l.48-.72v-.08a1.12,1.12,0,0,0,0-.18.47.47,0,0,0,0-.07v-.72a.46.46,0,0,0-.19-.38.42.42,0,0,0-.18-.08l-.13-.13a.36.36,0,0,0-.06-.11.39.39,0,0,0,0-.08.33.33,0,0,0-.15-.09l0,0a.35.35,0,0,0-.23,0Z"/><path d="M148.32,95v8.16a.48.48,0,0,0,.49.49h.1l.39-.39V99.38h1.94l2.6,3.91a.32.32,0,0,0,.18.33l.11,0c.13,0,.23-.1.38-.26l.07-.07v-.41l-2.15-3.52h0l1-.48h.24l.67-.34v-.35l.23-.68V97.3s0-.06,0-.09v-.72a.59.59,0,0,0-.08-.34l-.16-.65v-.12l0,0,0-.08h-.14l-.39-.2L153.7,95l-.15-.16,0,0-1.09-.26h-3.6C148.43,94.56,148.32,94.67,148.32,95Zm3.82.49,1,.21,0,0,.24.48h.06l.09.27v.68h0l-.21.57-.19.19-1.08.42H149.3V95.54Z"/><path d="M157,103.7h5.14l.39-.39v-.1a.48.48,0,0,0-.49-.49h-4.55V99.38h2.73l.39-.39v-.1a.48.48,0,0,0-.49-.49h-2.63V95.54h4.65l.39-.39V95a.48.48,0,0,0-.49-.49h-5c-.38,0-.49.11-.49.49v8.16A.48.48,0,0,0,157,103.7Z"/><path d="M164.17,94.56a.48.48,0,0,0-.49.49v8.26l.39.39h5l.39-.39v-.1a.48.48,0,0,0-.49-.49h-4.31V95C164.66,94.67,164.55,94.56,164.17,94.56Z"/><path d="M170.89,103.7h.1l.39-.39V95a.48.48,0,0,0-.49-.49c-.38,0-.49.11-.49.49v8.16A.48.48,0,0,0,170.89,103.7Z"/><path d="M173.52,95v8.16a.48.48,0,0,0,.49.49h5a.48.48,0,0,0,.49-.49c0-.38-.11-.49-.49-.49H174.5V99.38h2.63a.48.48,0,0,0,.49-.49c0-.38-.11-.49-.49-.49H174.5V95.54H179a.48.48,0,0,0,.49-.49c0-.38-.11-.49-.49-.49h-5C173.63,94.56,173.52,94.67,173.52,95Z"/><path d="M181.45,94.56c-.38,0-.49.11-.49.49v8.16a.48.48,0,0,0,.49.49h.1l.39-.39V99.38h2.73l.39-.39v-.1a.48.48,0,0,0-.49-.49h-2.63V95.54h4.65l.39-.39V95a.48.48,0,0,0-.49-.49Z"/><path d="M36.48,116.43v.1l0,0,.42.64h0a.45.45,0,0,0,.25.33l.46.62v.07l.09,0,0,.05h.07l.67.33a.47.47,0,0,0,.35.15h1.76l.72-.48h.29l.59-.79a.45.45,0,0,0,.23-.31l0,0v0l.21-.63a.39.39,0,0,0,.11-.42.33.33,0,0,0-.22-.19.38.38,0,0,0-.4-.1.33.33,0,0,0-.19.24l-.43.65-.78.78v.08l-.53.25H39.19l-.53-.26v-.09l-.72-.54s0,0,0-.05v-.08l-.54-.8L37,114.92v-1.58l.4-1a.38.38,0,0,0,.07-.15l.49-.73v-.08s0,0,0,0l.71-.53.52-.13H40.3l.54.14.73.73.43.64c0,.32.14.41.49.41h.25v-.25s0,0,0-.07a.41.41,0,0,0-.06-.55l-.21-.63V111l-.79-.79c-.23-.23-.37-.29-.55-.21l-.51-.34H38.89c-.26,0-.39.06-.45.21l-.22.11c-.13,0-.26,0-.44.21l-.11.05v.05L37,111v0l-.48.72v.28l-.2.79a.46.46,0,0,0-.28.44v2l.32.32Z"/><path d="M48.75,115.94l.93,2.44a.48.48,0,0,0,.49.44h.1l.07-.07c.27-.27.31-.33.31-.66l-3.2-8.41h-.82L43.46,118l0,.09c0,.32,0,.38.31.66l.07.07h.1a.48.48,0,0,0,.49-.44l.93-2.44Zm-1.7-4.46L48.38,115H45.73Z"/><path d="M57.52,114l.05-.1,0,0v0l.33-.67a.47.47,0,0,0,.15-.35v-1.2a.47.47,0,0,0-.18-.38l-.3-.63v-.11l-.07,0,0-.06h-.1l-.24-.12,0,0s0,0,0-.06V110l-1.27-.25a.51.51,0,0,0-.18,0h-3.6c-.38,0-.49.11-.49.49v8.16a.49.49,0,0,0,1,0v-3.59h3.16l1.18-.23H57l0,0h0l.05-.05.41-.41Zm-4.94-.26v-3.1h2.84l1.09.22h0l.16.16.42.64v1l-.42.64-.17.17-1.1.22Z"/><path d="M63.87,115.94l.93,2.44c0,.44.52.44.73.44h.25v-.73l-3.2-8.41h-.82L58.58,118l0,.09a.55.55,0,0,0,.19.42.17.17,0,0,1,0,.06v.25h.25c.36,0,.48-.1.49-.44l.93-2.44Zm-1.7-4.46L63.5,115H60.85Z"/><path d="M68.33,118.34l.64.42.06.06h1.89l0,0,.87-.44h.07l0-.05.09,0v-.07l.46-.62a.45.45,0,0,0,.25-.33h0l.48-.72v-.08c0-.31-.07-.44-.31-.48a.3.3,0,0,0-.12-.1.48.48,0,0,0-.5.2l-.52.78v.08s0,0,0,.05l-.72.54v.11l-.53.25H69.45l-.64-.42-.69-.69-.43-.65-.23-1.14v-1.63l.21-1.07a.44.44,0,0,0,0-.06l.43-.65.66-.66.63-.21h1.13l.52.13.71.53s0,0,0,0v.08l.49.73a.48.48,0,0,0,.48.4h.1l.07-.07c.27-.27.31-.33.31-.66v-.08l-.48-.72v0l-.72-.72v-.05l-.11-.06c-.16-.16-.29-.22-.41-.21l-.33-.17a.5.5,0,0,0-.35-.14H69.05l0,0a.47.47,0,0,0-.3.2l-.19.13c-.17-.08-.32,0-.55.21l-.79.79v0l-.48.72v.08a1.5,1.5,0,0,0,0,.17h0l-.24,1v.25s0,0,0,.05v2l.24,1.18v.1l0,0,.42.64h0a.45.45,0,0,0,.25.33l.59.78Z"/><path d="M75.37,118.82a.48.48,0,0,0,.49-.49v-8.16c0-.38-.11-.49-.49-.49a.48.48,0,0,0-.49.49v8.26l.39.39Z"/><path d="M76.8,110.17v.1l.39.39h2.49v7.67a.48.48,0,0,0,.49.49h.1l.39-.39v-7.77h2.15a.47.47,0,0,0,.46-.33.36.36,0,0,0,.12.08l2.77,3.93v4.1l.39.39h.1a.48.48,0,0,0,.49-.49v-4l3.12-4.08v-.57h-.85l-2.76,3.4-2.76-3.4h-.36a.45.45,0,0,0-.32.12.49.49,0,0,0-.4-.12H77.29A.48.48,0,0,0,76.8,110.17Z"/><path d="M91.2,119.38v.88h.88l.13-.27c.21,0,.42-.13.44-.42l.23-.69v-.27s0,0,0,0v-1.21h-.15l-.09-.09h0l-.07-.07a1.35,1.35,0,0,0-.22-.19l-.06,0a.35.35,0,0,0-.13,0l-.08,0a.36.36,0,0,0-.11,0l-.09.08-.11.09-.39.2H91.2v1h.19l.39.2.11.09-.16.49Z"/><path d="M103.93,111.38h.1l.55-.55,0,0,0,0v-.07l.2-.79a.3.3,0,0,0,.13-.14.39.39,0,0,0-.08-.39v-.21a.36.36,0,0,0,.18-.29.38.38,0,0,0-.31-.36l-.11-.11-.07-.07c-.34-.34-.49-.34-.83,0l-.07.07-.11.11a.48.48,0,0,0-.37.48v.1l.07.07a.74.74,0,0,0,.34.23l.07.13v0l.07.07.15.13-.19.51-.14.14a.48.48,0,0,0-.37.48v.1l.07.07C103.55,111.34,103.61,111.38,103.93,111.38Z"/><path d="M106.06,110.27l-.46.23v.88h.88l.24-.49,0,0a.37.37,0,0,0,.24-.33.35.35,0,0,0,0-.11l.19-.38a.5.5,0,0,0,.14-.35v-1.21h-.19l-.24-.12a.36.36,0,0,0-.09-.08s0-.05-.07-.08a.37.37,0,0,0-.07-.08l-.1,0-.09,0-.1,0-.1,0a.38.38,0,0,0-.07.09s0,0-.06.08l-.06.05-.46.23v.5l.07.07.25.25a.36.36,0,0,0,.2.27l0,.08.06.05-.11.42Z"/><path d="M110.18,116.94s0,0,0-.05l-.48-1v-5.7a.48.48,0,0,0-.49-.49c-.38,0-.49.11-.49.49v5.76c0,.23,0,.35.16.42l.32.83v0h0c0,.23.09.34.28.38l.55.74h.31l.91.45.11,0h1l.05,0a.46.46,0,0,0,.18-.07l1-.39h.32l.59-.78a.42.42,0,0,0,.24-.32l0,0v-.06l.15-.76a.47.47,0,0,0,.33-.46v-5.76a.48.48,0,0,0-.49-.49c-.38,0-.49.11-.49.49v5.7l-.44.87-.76.76v0l-.76.29h-.62l-.76-.3v-.05Z"/><path d="M123.38,110.17a.48.48,0,0,0-.49-.49h-.41l-2.72,7.1-2.7-7.1h-.41a.48.48,0,0,0-.49.49l3,8a.4.4,0,0,0,.06.35s0,0,0,.06v.25H120v-.14l.17-.16,3.18-8.25Z"/><path d="M125.65,110.5l.33-.66,0,0v-1.22l-.46-.23-.06-.05s0,0-.06-.07a.38.38,0,0,0-.07-.09l-.09,0-.1,0-.1,0-.1,0a.37.37,0,0,0-.07.08s-.05,0-.07.08l-.08,0,0,0-.22.11h-.19v.16a.39.39,0,0,0-.08.39.3.3,0,0,0,.12.14l.05.09a.35.35,0,0,0,.23.13h0a.36.36,0,0,0,.2.27l0,.08,0,0-.37.56v0l-.1.05-.06,0a.46.46,0,0,0-.16.47.31.31,0,0,0,.12.14.49.49,0,0,0,.45.29h.1l.39-.39h0a.31.31,0,0,0,.18-.21A.5.5,0,0,0,125.65,110.5Z"/><path d="M128.24,108.59a.42.42,0,0,0-.17-.09h0l-.11-.11-.07-.07c-.34-.34-.49-.34-.83,0l-.07.07-.11.11a.45.45,0,0,0-.17.08.35.35,0,0,0-.15.28.35.35,0,0,0,.06.19l.05,0a.36.36,0,0,0,.11.09l0,.08,0,0,.11.22v0l.07.07a1.57,1.57,0,0,0,.2.18l-.23.46-.21.21c-.15.15-.25.25-.25.42s.1.26.25.42l.07.07h.45l.63-.63v-.07l.43-.85,0,0V109A.46.46,0,0,0,128.24,108.59Z"/><path d="M137.52,111v1.06a.51.51,0,0,0,.08.26l.17.54.06.1.18.17.06.07.24.24.07.06.17.18.63.23a.46.46,0,0,0,.22.08l2.11.7.91.45.15.15a.43.43,0,0,0,.08.17.36.36,0,0,0,.08.07l.11.23,0,0V117l-.4.4-1.08.42H140l-.76-.3v0l-.87-.87h-.83v.57l.85,1.13h.32l1,.39a.46.46,0,0,0,.18.07h0l.09,0h1.73l1.2-.48h.08l0,0,.09,0v-.09l.46-.61a.47.47,0,0,0,.23-.25.33.33,0,0,0,0-.6v-.45a.39.39,0,0,0,.08-.39.3.3,0,0,0-.13-.14l-.25-1h-.2l-.06,0,0,0-.12-.24v-.1l-.06,0,0-.06h-.1l-.91-.45-.11,0h0l-1.89-.65v0l-.17,0h0l-.58-.14-.55-.55-.14-.54v-.35l.65-.65.8-.16h1.39l1,.21a.3.3,0,0,0,.14.12h0l.49.49a.44.44,0,0,0,.08.17.35.35,0,0,0,.28.15,1,1,0,0,0,.55-.55.38.38,0,0,0-.31-.36l-.59-.59V110l-1.4-.28h-1.73a.69.69,0,0,0-.3.05l-1,.21-.05.05-.17.18-.07.06Z"/><path d="M151.21,109.68h-.36l-2.76,3.4-2.76-3.4h-.85v.57l3.12,4.08v4a.48.48,0,0,0,.49.49h.1l.39-.39v-4.1l3.12-4.08v-.08A.48.48,0,0,0,151.21,109.68Z"/><path d="M155.76,118.38v.44h.59l0,0a.42.42,0,0,0,.34-.39l2.14-5.6v5.55a.48.48,0,0,0,.49.49h.1l.39-.39v-8.22l0-.11-.07-.07a.46.46,0,0,0-.34-.34l0,0H159l-2.72,7.1-2.7-7.1h-.9v8.65a.48.48,0,0,0,.49.49h.1l.39-.39v-5.69Z"/><path d="M165.85,118.82h0l.05,0a.46.46,0,0,0,.18-.07l1-.39h.35l.2-.41a.82.82,0,0,0,.3-.15l.3-.82v-.23s0-.06,0-.09v-1.2a.51.51,0,0,0-.08-.26l-.16-.5v-.35l-.58-.29,0,0,.28-.28a.42.42,0,0,0,.34-.4l.23-.69v-.23s0-.06,0-.09v-.72a.59.59,0,0,0-.08-.34l-.22-.87h-.33l-.17-.17-.07-.06-.17-.18-.05-.05-1-.2a.66.66,0,0,0-.31-.06h-3.36c-.38,0-.49.11-.49.49v8.16a.48.48,0,0,0,.49.49h3.36Zm0-8.16.8.16.56.56h0l.09.27v.68h0l-.2.55-.52.24v.09l-.76.29H163v-2.86Zm0,3.84.8.16.46.46.19.6v.93h0l-.19.53-.53.27v.09l-.76.29H163V114.5Z"/><path d="M170.08,116.24a.31.31,0,0,0,0,.22.31.31,0,0,0,.14.15l.2.59.06.1c.21.21.29.28.46.3l.42.56v.05l.08.05,0,.07h0l.72.48h2.07l.72-.48h0l0,0a.43.43,0,0,0,.31-.31l.77-.77v-.13l.23-.62v-.05l.39-.93a.51.51,0,0,0,.1-.29v-1.92s0,0,0-.07,0-.13,0-.17l-.56-1.44-.16-.51V111l0,0,0-.1H176l-.57-.43a.31.31,0,0,0-.28-.27.35.35,0,0,0-.37-.19l-.47-.31h-2.07l-.48.32a.34.34,0,0,0-.35.21.3.3,0,0,0-.14.15s0,0,0,0l-.4.4a.53.53,0,0,0-.16.06l-.07,0h-.18l-.28.84a.4.4,0,0,0-.1.46l-.38.76,0,.11c0,.05,0,.13,0,.2s0,0,0,0v2l.06.06Zm3.93-5.58h0l.57.21.62.62a.42.42,0,0,0,.07.16l.17.53,0,.08.42,1.09V115l-.4,1h0l-.28.83-.66.66-.64.42h-1.29l-.64-.42-.69-.69-.23-.35a.49.49,0,0,0,0-.21l-.48-1.25v-1.59l.52-1.31-.12-.12.12-.18a.38.38,0,0,0,.18-.25l.49-.49h0a.31.31,0,0,0,.15-.14l.55-.19Z"/><path d="M179,109.68a.48.48,0,0,0-.49.49v8.26l.39.39h5l.39-.39v-.1a.48.48,0,0,0-.49-.49h-4.31v-7.67C179.54,109.79,179.43,109.68,179,109.68Z"/><path d="M187,118.34v-.88l-.43-.21a.36.36,0,0,0-.09-.08s0,0-.07-.08a.37.37,0,0,0-.07-.08l-.1,0-.09,0-.1,0-.1,0a.37.37,0,0,0-.07.08s0,0-.07.07l-.08,0,0,0-.22.11h-.19v1h.19l.24.12a.36.36,0,0,0,.09.08l0,.08a.37.37,0,0,0,.11.09l-.14.38,0,0-.51.26v.88h.59l.25-.25c.22,0,.33-.11.36-.31a.36.36,0,0,0,.2-.29s0,0,0,0l.32-.48v-.08a1.12,1.12,0,0,0,0-.18.47.47,0,0,0,0-.07Z"/><path d="M3.83,124.92l0-.12H3.2l0,.12a.46.46,0,0,0-.13.34l-1.95,5.09-.12.12v.1a.47.47,0,0,0,0,.05l-1,2.5,0,.82H.25c.21,0,.7,0,.73-.44l.86-2.44H5.31l.93,2.44c0,.34.13.44.49.44H7v-.25s0,0,0-.06a.55.55,0,0,0,.19-.42l-3.26-8A.47.47,0,0,0,3.83,124.92Zm-.32,1.42,1.43,3.74H2.18Z"/><path d="M13.93,124.8a.48.48,0,0,0-.49.49v6.39l-4.3-6.36v0a.47.47,0,0,0-.34-.46l0,0H8.41a.39.39,0,0,0-.43.37.36.36,0,0,0,.18.28v8a.48.48,0,0,0,.49.49h.1l.39-.39v-6.68l4.3,6.64v0l.39.39h.1a.47.47,0,0,0,.47-.36l0,0v-8.26C14.42,124.91,14.31,124.8,13.93,124.8Z"/><path d="M22.58,127.15v-.26l-.32-.47s0,0,0-.05a.36.36,0,0,0-.23-.31.3.3,0,0,0-.15-.14h0l-.4-.4s0,0,0,0a.3.3,0,0,0-.14-.15.35.35,0,0,0-.48-.19l-.82-.33h-3a.48.48,0,0,0-.49.49v8.26l.39.39h3l1.2-.48h.08l.07-.1.08-.11.39-.53a.31.31,0,0,0,.27-.3.36.36,0,0,0,.2-.29.34.34,0,0,0,0-.06l.18-.27a.34.34,0,0,0,.11-.16l0,0v0l.44-1.11,0,0v-2s0,0,0,0,0-.15,0-.2Zm-2.92-1.37,1.09.22h0l.49.5a.26.26,0,0,0,0,0,.31.31,0,0,0,.13.15v0l.14.42h0l.52,1.31v1.63l-.4,1h0l-.28.83-.67.67-1.08.42h-2.1v-7.18Z"/><path d="M34.43,123.6l-.09-.09-.07-.07c-.15-.15-.25-.25-.42-.25a.36.36,0,0,0-.21.07l-.08.07-.1.08-.39.2h-.19v.59l.07.07.41.41.07.07.15.13-.17.47-.53.27v.5l.07.07c.27.27.33.31.66.31h.15l.2-.4a.65.65,0,0,0,.3-.15l0,0,.21-.88a.51.51,0,0,0,.05-.21v-1.06h0v-.14Z"/><path d="M36.83,125.16a.5.5,0,0,0,.15-.35V123.6h-.19l-.24-.12a.36.36,0,0,0-.09-.08s0,0-.06-.07a.37.37,0,0,0-.07-.08l-.09,0-.1,0-.1,0-.09,0a.37.37,0,0,0-.07.08s0,0-.06.07l-.08,0,0,0-.22.11h-.19v.59l.07.07.25.25a.36.36,0,0,0,.2.27l0,.08.06.05-.1.41-.08,0,0,0-.41.2v.88h.88l.25-.51a.37.37,0,0,0,.26-.34.35.35,0,0,0,0-.12Z"/><path d="M44.07,133.94h.1a.47.47,0,0,0,.46-.31.3.3,0,0,0,.12-.14.35.35,0,0,0-.08-.36v-7.85c0-.38-.11-.49-.49-.49a.48.48,0,0,0-.49.49v6.33l-4.41-6.82H38.4v8.65a.48.48,0,0,0,.49.49H39l.39-.39v-6.74l4.3,6.36v.38Z"/><path d="M53.3,132.09V132a1.53,1.53,0,0,0,0-.16s0,0,0-.08v-1.28l0,0a.47.47,0,0,0-.2-.3L53,130a.33.33,0,0,0,0-.13c0-.16-.1-.26-.25-.42l-.24-.24-.07-.06-.08-.08.07-.06.25-.13.06,0,.07-.08.17-.16.3-.82v-.08a1.54,1.54,0,0,0,0-.16s0-.05,0-.08v-.72c0-.26-.06-.39-.21-.45L53,126a.35.35,0,0,0,0-.13.36.36,0,0,0-.25-.31l0-.06h-.1l-.1-.05a.32.32,0,0,0-.26-.17.33.33,0,0,0-.43-.14l-.67-.27a.51.51,0,0,0-.28-.09h-3.6a.48.48,0,0,0-.49.49v8.26l.39.39H51l0,0,1.11-.44h.05l0,0a.46.46,0,0,0,.34-.34l0,0h0a.3.3,0,0,0,.15-.14.36.36,0,0,0,.24-.31s0,0,0-.05Zm-2.47.87H47.78v-3.34h3.08l.8.16.44.44.21.63v.88l-.18.55,0,0-.51.25v0Zm0-7.18.86.22.5.5h0l.09.27v.64l-.2.61-.52.24v0l-.77.36H47.78v-2.86Z"/><path d="M56.72,123.71a.42.42,0,0,0-.17-.09h0l-.14-.14a.38.38,0,0,0-.21-.26.42.42,0,0,0-.21,0h0c-.16,0-.26.1-.42.25l-.07.07-.11.11a.45.45,0,0,0-.17.08A.35.35,0,0,0,55,124a.35.35,0,0,0,.06.19l.05,0a.36.36,0,0,0,.11.09l0,.08,0,0,.11.22v0l.07.07a1,1,0,0,0,.26.2l-.28.42-.16.16a.45.45,0,0,0-.17.08.35.35,0,0,0-.15.28.36.36,0,0,0,.22.33.49.49,0,0,0,.45.28h.1l.55-.55,0,0,0,0v-.07l.14-.54.34-.34v-.82A.46.46,0,0,0,56.72,123.71ZM55.44,126h0Z"/><path d="M59.07,124.24a.35.35,0,0,0,.17-.27.38.38,0,0,0-.37-.36l-.23-.12a.36.36,0,0,0-.1-.08.36.36,0,0,0-.14-.16h0a.34.34,0,0,0-.23,0l0,0a.34.34,0,0,0-.15.09.39.39,0,0,0,0,.08.37.37,0,0,0-.06.11l-.12.12,0,0-.08,0,0,0,0,0a.49.49,0,0,0-.18.37v.1l.49.49a.44.44,0,0,0,.08.17.35.35,0,0,0,.16.12l-.11.22a.4.4,0,0,0-.13.22l-.18.18c-.15.15-.25.25-.25.42s.1.26.25.42l.07.07h.5l.22-.44h0l.06,0h.2l.25-1a.3.3,0,0,0,.13-.14.39.39,0,0,0-.08-.39v-.22Z"/><path d="M73.24,125.18l-.58-.23c-.07-.1-.19-.14-.41-.14H70.57l-.91.35a.35.35,0,0,0-.49.19l-.05,0v.07l-.59.59a.44.44,0,0,0-.17.08.35.35,0,0,0-.15.28.36.36,0,0,0,.18.29v.22a.39.39,0,0,0-.08.39.32.32,0,0,0,.13.14l0,0,.18.53v.35l.48.24v.28l1.11.28h.05l2.13.71h0l.53.27v.13l.43.22a.36.36,0,0,0,.09.08l.2.78v.58l-.72.72v0l-.76.29H70.86l-1.11-.44-.76-.76h-.34a.47.47,0,0,0-.29.09.35.35,0,0,0-.14.28.37.37,0,0,0,.29.35l.61.81v.09l.09,0,0,0h.08l1.16.46.09,0H72.3l.05,0a.46.46,0,0,0,.18-.07l1-.39h.32l.58-.77a.47.47,0,0,0,.24-.33l0,0V131a.49.49,0,0,0-.17-.37l-.16-.35a.35.35,0,0,0,0-.12.37.37,0,0,0-.26-.34l-.25-.51h-.32L73,129v-.05l-.14,0,0,0h0l-2.36-.71h0l-.56-.19,0,0-.25-.51h-.14l0-.09,0,0v-.82a.48.48,0,0,0,0-.11l.26-.26h0a.3.3,0,0,0,.14-.12l1-.21h1.39l.8.16.73.73a.75.75,0,0,0,.51.25.4.4,0,0,0,.4-.43v-.34l-.79-.79C73.61,125.09,73.45,125,73.24,125.18Z"/><path d="M78.49,133.94a.48.48,0,0,0,.49-.49v-7.67h2.15a.48.48,0,0,0,.49-.49c0-.38-.11-.49-.49-.49H75.85c-.38,0-.49.11-.49.49a.48.48,0,0,0,.49.49H78v7.67A.48.48,0,0,0,78.49,133.94Z"/><path d="M81.85,133.94c.32,0,.38,0,.66-.31l.91-2.57h3.42l1,2.44c0,.34.13.44.49.44h.25v-.25s0,0,0-.07a.41.41,0,0,0-.06-.55L85.46,125v-.19h-.91l-2.92,8.28a.41.41,0,0,0-.06.55s0,0,0,.07v.25ZM85,126.59l1.43,3.49H83.77Z"/><path d="M93.62,133.94v-.25s0,0,0-.07a.41.41,0,0,0,.06-.35l2.06-5.38v5.65l.39.39h.1a.48.48,0,0,0,.49-.49v-8.16a1,1,0,0,0,0-.11v-.38h-.91l-2.6,7.36-2.81-7.36H90a.51.51,0,0,0-.19,0l-.09.05-.07.05-.05.07a.43.43,0,0,0-.05.09.51.51,0,0,0,0,.19v8.26l.39.39H90a.48.48,0,0,0,.49-.49v-5.77l2.29,5.61a.41.41,0,0,0,.06.33s0,0,0,.07v.25h.74Z"/><path d="M99.37,124.8a.48.48,0,0,0-.49.49v8.26l.39.39h.1a.48.48,0,0,0,.49-.49v-3.59H103l1.18-.24h.08l0,0,.46-.46h.05l0,0a.38.38,0,0,0,.23-.2.44.44,0,0,0,0-.27l.17-.35a.47.47,0,0,0,.15-.35v-1.2a.47.47,0,0,0-.18-.38l-.2-.41a.51.51,0,0,0-.15-.31l0-.1h-.11l-.08,0a.31.31,0,0,0-.27-.18.33.33,0,0,0-.43-.14l-.67-.27a.51.51,0,0,0-.28-.09Zm.49,4.08v-3.1h2.84l1.1.22.5.5h0l.09.27v1.12l-.09.27h0l-.5.5-1.1.22Z"/><path d="M112.57,125.78a.48.48,0,0,0,.49-.49c0-.38-.11-.49-.49-.49h-5a.48.48,0,0,0-.49.49v8.26l.39.39h5.14a.48.48,0,0,0,.49-.49c0-.38-.11-.49-.49-.49H108v-3.34h2.63c.38,0,.49-.11.49-.49s-.11-.49-.49-.49H108v-2.86Z"/><path d="M120.5,127.15v-.26l-.48-.71v0l-.72-.72v-.07l0,0a.37.37,0,0,0-.2-.21.45.45,0,0,0-.33,0l-.78-.31h-3c-.38,0-.49.11-.49.49v8.16a.48.48,0,0,0,.49.49h2.93l1.2-.48h.08l0,0,.09,0v-.09l.46-.62a.45.45,0,0,0,.25-.33h0l.48-.72v-.07l.44-1.06,0,0v-2a.48.48,0,0,0,0-.11.62.62,0,0,0,0-.13Zm-5-1.37h2.12l.79.16.77.57a.36.36,0,0,0,.19.19l0,0,.18.56,0,.08.42,1.09V130l-.4,1h0l-.27.82-1,.75v.06l-.76.29h-2.1Z"/><path d="M137.45,130.61a.51.51,0,0,0,.09-.28v-2.16l-.37-1h0a.56.56,0,0,0-.14-.36l-.21-.63v-.06l-.79-.79c-.23-.23-.37-.29-.55-.21l-.51-.34h-1.76c-.26,0-.39.06-.44.21l-.22.11c-.13,0-.26,0-.44.21l-.11.05v.05l-.72.72v0l-.48.72v.26l-.45.91,0,.11a.62.62,0,0,0,0,.13.48.48,0,0,0,0,.11v2l.06.06.42,1.08v0l.48.72h0a.45.45,0,0,0,.25.33l.46.62v.07l.09,0,0,.05h.07l.67.33a.47.47,0,0,0,.35.15H135l.72-.48H136l.59-.79a.45.45,0,0,0,.23-.31l0,0v0l.21-.63a.43.43,0,0,0,.12-.31ZM133.29,133l-.31-.2v-.15l-.72-.54s0,0,0-.05v-.08l-.55-.82L131.3,130v-1.58l.45-1.13.51-.76v-.08s0,0,0,0l.73-.55v0l.27-.09h1.41l.57.21.66.66.32.48a.3.3,0,0,0,0,.14.35.35,0,0,0,.1.12.49.49,0,0,0,0,.13l.18.92v1.63l-.22,1.11a.52.52,0,0,0,0,.09l-.39.59-.68.69-.64.42Z"/><path d="M145.11,133.94h.1a.47.47,0,0,0,.47-.36l0,0v-8.26c0-.38-.11-.49-.49-.49a.48.48,0,0,0-.49.49v6.39l-4.66-6.88h-.37a.45.45,0,0,0-.3.11.46.46,0,0,0-.19.38v8.26l.39.39h.1a.48.48,0,0,0,.49-.49v-6.94l4.54,7v0Z"/><path d="M162.5,126.73a.47.47,0,0,0-.18-.38l-.3-.63v-.11l-.07,0,0-.06h-.1l-.3-.15,0,0a.35.35,0,0,0-.49-.19l-.64-.26a.51.51,0,0,0-.28-.09h-3.6a.48.48,0,0,0-.49.49v8.26l.39.39h3.81l0,0,1.11-.44h.06l.63-.63v0l.48-.72V132a1.45,1.45,0,0,0,0-.19.45.45,0,0,0,0,0v-1.3l-.06-.06-.42-.64v-.32l-.43-.22,0,0s0,0,0-.06V129l.48-.24v-.32l.48-.72v-.08a1.45,1.45,0,0,0,0-.19.46.46,0,0,0,0,0Zm-2.68-1,1.09.22h0l.16.16.42.64v.57l-.48.72v0l-.1,0,0,0-1.08.42H157v-2.86ZM157,133v-3.34h2.84l1.09.22h0l.11.11s0,.1,0,.13v.08l.48.72v.81l-.48.72v0l-.06,0a.41.41,0,0,0-.23.11l-.95.37Z"/><path d="M171,128.4a.55.55,0,0,0-.12-.35l-.22-1.11v-.07l0-.15h-.07l-.36-.54v0l-.72-.72v-.05l-.11-.06c-.16-.16-.29-.22-.41-.21l-.33-.17a.5.5,0,0,0-.35-.14h-1.76l0,0a.47.47,0,0,0-.3.2l-.19.13c-.17-.08-.32,0-.55.21l-.79.79v0l-.48.72V127a1.5,1.5,0,0,0,0,.17h0l-.25,1v2.21l.24,1.18v.1l0,0,.42.64h0a.45.45,0,0,0,.25.33l.59.78h.29l.64.42.06.06h1.89l0,0,.87-.44h.07l0-.05.09,0v-.07l.46-.62a.45.45,0,0,0,.25-.33h0l.36-.55h.07l0-.15v-.07l.22-1.11a.38.38,0,0,0,.1-.41.3.3,0,0,0-.08-.11v-1.2A.55.55,0,0,0,171,128.4ZM166.87,133l-.53-.26v-.07l-.78-.78-.44-.66-.23-1.13v-1.63l.22-1.1v0l.43-.65.73-.73.54-.14H168l.52.13.71.53s0,0,0,0v.08l.49.73a.45.45,0,0,0,.12.23l.22.58a.47.47,0,0,0-.11.3v2l.06.06-.27.68-.51.76V132s0,0,0,.05l-.72.54v.11L168,133Z"/><path d="M177.55,125.35c-.26-.26-.41-.32-.63-.18l-.58-.23c-.07-.1-.19-.14-.41-.14h-2.64c-.38,0-.49.11-.49.49v8.16a.48.48,0,0,0,.49.49H176l.05,0a.46.46,0,0,0,.18-.07l1-.39h.32l.59-.78a.45.45,0,0,0,.25-.33h0l.42-.64,0,0v-.1l.2-1a.51.51,0,0,0,0-.18v-1.92s0,0,0-.05v-.25l-.23-.9a.46.46,0,0,0,0,0,1.45,1.45,0,0,0,0-.19v-.08l-.48-.71v0Zm-3.77.43h2.12l.8.16.71.71.43.65v0l.22,1.1v1.63l-.23,1.13-.44.66-.78.78v0l-.76.29h-2.1Z"/><path d="M187,125.29a.48.48,0,0,0-.49-.49h-.36l-2.76,3.4-2.76-3.4h-.85v.57l3.12,4.08v4a.48.48,0,0,0,.49.49h.1l.39-.39v-4.1l3.12-4.08Z"/><path d="M31.09,170.16l-1,1.23-1.07.27v.78l.07.07a.55.55,0,0,0,.35.18l.12,0a.31.31,0,0,0,.14-.13l.79-.2h.07l0,0h0l0,0h0L31,172v6.84c0,.38.11.49.49.49s.49-.11.49-.49v-8.65Z"/><path d="M39,170.16l0,0a.46.46,0,0,0-.34.34l-.89.89-.65.21-.1.06c-.27.27-.31.33-.31.66v.1l.07.07a.63.63,0,0,0,.43.18.55.55,0,0,0,.36-.14l.63-.21h.06l0,0a.46.46,0,0,0,.34-.34h0v6.84a.48.48,0,0,0,.49.49c.38,0,.49-.11.49-.49v-8.65Z"/><path d="M46.59,175.09v0L43,181.33l0,.06v.07a.48.48,0,0,0,.49.49h.38l3.6-6.24h0l.07-.13,0,0h0l3.33-6.19,0-.61H50Z"/><path d="M55.35,170.16l0,0a.46.46,0,0,0-.34.34l-.89.89-.65.21-.1.06c-.27.27-.31.33-.31.66v.1l.07.07a.63.63,0,0,0,.43.18.55.55,0,0,0,.36-.14l.63-.21h.06l0,0A.46.46,0,0,0,55,172h0v6.84a.48.48,0,0,0,.49.49c.38,0,.49-.11.49-.49v-8.65Z"/><path d="M65.78,174.69v-.08l0,0,0-.09h-.09L65,174a.47.47,0,0,0-.23-.22.35.35,0,0,0-.48-.18l-.78-.31,0,0h-.69l-.06.06-.74.29a.35.35,0,0,0-.49.17.47.47,0,0,0-.23.22l-.26.2.44-1.77.5-.83H62l1.2-.48h.43l.92.39.27.41a.49.49,0,0,0,1-.08l-.38-.79a.51.51,0,0,0-.15-.31l0-.1h-.15l-1.11-.46-.09,0h-1a.51.51,0,0,0-.34.13l-.91.35h-.33l-.78,1.3,0,0v0l0,0v0L60,173.95V174a.4.4,0,0,0,0,.11.48.48,0,0,0,0,.13v2l0,0,.43,1.33V178l.79.59a.45.45,0,0,0,.32.24l0,0h0l1,.39a.51.51,0,0,0,.28.09h.53l0,0a.49.49,0,0,0,.19-.07l1-.39h0l1.13-.85v-.31l.45-.91,0-.11a.5.5,0,0,0,0-.13.48.48,0,0,0,0-.11v-.24a.48.48,0,0,0,0-.13.4.4,0,0,0,0-.11Zm-.85,2.43-.54.72h-.05l-1.2.46L62,177.86l-.09,0h-.05l-.54-.72h0l-.29-1,.39-1,.4-.4a.4.4,0,0,0,.11,0h0l1.15-.46,1.11.44.09,0a.4.4,0,0,0,.11,0l.43.43.42,1.08v.14l-.3.76Z"/><path d="M83.53,170.16a.46.46,0,0,0-.48.43l-1.44,6.11-1.43-6.08a.46.46,0,0,0,0-.06.49.49,0,0,0,0-.1.43.43,0,0,0-.06-.09l0-.06-.08-.06-.08,0a.51.51,0,0,0-.19,0c-.38,0-.49.11-.48.43l-1.47,6.23-1.64-6.2c0-.35-.12-.46-.49-.46h-.1l-.07.07a.45.45,0,0,0-.16.47.3.3,0,0,0,.12.14l1.88,8s0,0,0,.06v.43h.59l0,0a.39.39,0,0,0,.31-.31l.06-.06,0-.08,1.42-6.06,1.43,6.06a.51.51,0,0,0,0,.19.43.43,0,0,0,.05.09l.05.07.07.05.09.05a.51.51,0,0,0,.19,0,.53.53,0,0,0,.19,0l0,0a.4.4,0,0,0,.25-.37L84,170.65A.48.48,0,0,0,83.53,170.16Z"/><path d="M91.45,171.29l-.06-.1-.12-.12-.12-.12-.31-.31h-.3l-.84-.33c-.07-.1-.19-.14-.41-.14H85.93c-.38,0-.49.11-.49.49v8.16c0,.38.11.49.49.49a.48.48,0,0,0,.49-.49V175h1.77l2.64,4.32h.87v-.8L89.42,175a.37.37,0,0,0,.28-.13l.57-.23a.37.37,0,0,0,.22.07c.16,0,.26-.1.42-.25l.17-.17h.33l.24-1a.51.51,0,0,0,.05-.21v-1a.51.51,0,0,0-.08-.26ZM89.26,174H86.42v-2.86h2.82l.76.3v.08l.54.27.18.57v.42l-.14.54-.52.52Z"/><path d="M99.62,178.81a.48.48,0,0,0-.49-.49H94.58V175h2.63a.48.48,0,0,0,.49-.49v-.1l-.39-.39H94.58v-2.86h4.55a.49.49,0,1,0,0-1h-5c-.38,0-.49.11-.49.49v8.16c0,.38.11.49.49.49h5A.48.48,0,0,0,99.62,178.81Z"/><path d="M101.19,170.16l0,0a.47.47,0,0,0-.36.47v8.16a.48.48,0,0,0,.49.49c.38,0,.49-.11.49-.49v-6.39l4.66,6.89h.37a.51.51,0,0,0,.24-.07l.06,0a.46.46,0,0,0,.19-.39v-8.16a.48.48,0,0,0-.49-.49c-.38,0-.49.11-.49.49V177l-4.66-6.88Z"/><path d="M113.37,179.29h.23l.72-.48h.27l.87-.87v-.3l.19-.55a.31.31,0,0,0,.14-.15.46.46,0,0,0-.16-.47l-.07-.07h-.5l-.36.72h-.09l-.54.72h-.13l-.72.48h-1.29l-.64-.42-.48-.48-.48-1h-.09l-.29-.76v-1.82l.3-.76h.08l.47-.95.82-.62v-.15l.31-.2h1.29l.64.42.78.78h.09l.34.72h.5l.07-.07a.45.45,0,0,0,.16-.47.3.3,0,0,0-.14-.15l-.19-.55v-.3l-.87-.87h-.27l-.72-.48h-1.76c-.26,0-.39.06-.45.21l-.56.27h-.05l0,0-.1,0v.05l-.72.72v.27l-.26.39a.45.45,0,0,0-.2.31l0,0v0l-.44,1.11,0,0v.06l0,.11,0,0v1.71l0,0,0,.11v.06l0,0,.45,1.11a.46.46,0,0,0,.18.33l.3.62V178l0,0,0,.1h.05l.57.57v.05l.1.05,0,0h0l.59.29c.06.13.19.19.43.19h1.52Zm2.08-2.65h0Z"/><path d="M123.61,170.16c-.38,0-.49.11-.49.49V174h-4.54v-3.35a.48.48,0,0,0-.49-.49c-.38,0-.49.11-.49.49v8.16c0,.38.11.49.49.49a.48.48,0,0,0,.49-.49V175h4.54v3.83c0,.38.11.49.49.49a.48.48,0,0,0,.49-.49v-8.16A.48.48,0,0,0,123.61,170.16Z"/><path d="M126.49,170.16a.48.48,0,0,0-.49.49v8.16a.48.48,0,0,0,.49.49c.38,0,.49-.11.49-.49v-8.16C127,170.27,126.87,170.16,126.49,170.16Z"/><path d="M135.13,170.16a.48.48,0,0,0-.49.49V177L130,170.16h-.48l0,0a.47.47,0,0,0-.36.47v8.16a.48.48,0,0,0,.49.49c.38,0,.49-.11.49-.49v-6.7l4.65,7.19h.87v-8.65C135.62,170.27,135.51,170.16,135.13,170.16Z"/><path d="M143.78,171.51l-.72-.72v-.05l-.1-.05,0,0h0l-.67-.34a.5.5,0,0,0-.35-.14h-1.68a.5.5,0,0,0-.37.18l-.64.3h-.05l0,0-.1,0v.05l-.72.72v.27l-.26.39a.41.41,0,0,0-.2.31l0,0v.05l-.21,1a.3.3,0,0,0-.12.14.39.39,0,0,0,.08.39v1.25a.39.39,0,0,0-.08.39.31.31,0,0,0,.12.14l.21,1a.46.46,0,0,0,.18.35l.3.63V178l0,0,0,.1h.05l.57.57v.05l.1.05,0,0h0l.67.34a.5.5,0,0,0,.35.14h1.74l0,0a.49.49,0,0,0,.25-.13l.67-.34h0l0,0,.1-.05v-.05l.72-.72v-.27l.43-.64.05-.05v-1.3a.48.48,0,0,0-.49-.49h-1.92c-.38,0-.49.11-.49.49a.48.48,0,0,0,.49.49h1.43v.41l-.44.87-.47.47-.82.39h-1.08l-.87-.44-.47-.47-.48-1-.15-.74v-1.87l.14-.73h0l.47-.95.82-.62v-.09l.53-.26h1.11l.5.26v.1l.86.64.44.92h.39a.48.48,0,0,0,.49-.49v-.08l-.48-.72Z"/><path d="M159.61,170.16h-5c-.38,0-.49.11-.49.49v8.16c0,.38.11.49.49.49s.49-.11.49-.49V175h2.63c.38,0,.49-.11.49-.49a.48.48,0,0,0-.49-.49h-2.63v-2.86h4.55c.38,0,.49-.11.49-.49S160,170.16,159.61,170.16Z"/><path d="M166.69,179.14a.47.47,0,0,0,.36.16.48.48,0,0,0,.49-.44l.84-2.2H172l.84,2.2a.49.49,0,0,0,1-.05l-3.14-8.25a.47.47,0,0,0-.47-.4h-.49v.44l-3,7.86a.5.5,0,0,0-.35-.14H162v-7.67c0-.38-.11-.49-.49-.49a.48.48,0,0,0-.49.49v8.16a.48.48,0,0,0,.49.49h4.8A.5.5,0,0,0,166.69,179.14Zm4.91-3.46h-2.84l1.42-3.72Z"/><path d="M176.65,179.3c.38,0,.49-.11.49-.49v-7.67h2.39a.49.49,0,1,0,0-1H174a.49.49,0,1,0,0,1h2.15v7.67A.48.48,0,0,0,176.65,179.3Z"/><path d="M182.07,171.58l1.11-.44h1.1l1.11.44.76.76H187v-.86l-.79-.59a.45.45,0,0,0-.32-.24l0,0h0l-1-.39a.51.51,0,0,0-.28-.09h-1.68a.51.51,0,0,0-.34.13l-.91.35h0l-1.13.84v1.09s0,0,0,0,0,.15,0,.2v.08l.48.72v0l.26.26a.46.46,0,0,0,.34.34l0,0h.06l.63.21a.46.46,0,0,0,.3.14h0l2.1.84.09,0h0l.55.2.24.52h.14l.25.53v.58l-.42.56h-.05l-1.24.48h-1.11l-1.15-.46-.09,0h-.05l-.54-.72h-.85V178l1.13.85h.08l.91.38a.51.51,0,0,0,.29.1h1.73l0,0a.5.5,0,0,0,.19-.08l1-.39h0l0,0a.45.45,0,0,0,.32-.24L187,178v-1.67l-.09-.09-.39-.81v-.11l-.07,0,0-.06h-.1l-.1-.05a.32.32,0,0,0-.26-.17.35.35,0,0,0-.34-.18l-.47-.32h-.28l-2.05-.68h0l-.08,0-.51-.34v0l-.12-.06-.05,0h0l0,0v0l-.48-.72v-.3Z"/><path d="M102.77,245.22a.41.41,0,0,0-.05-.54l-.24-1,0,0a1,1,0,0,0-.36-.28l0-.09v-.38l-1-.25-.09,0h-.24l1.76-2.47.06-.06V240a.51.51,0,0,0,0-.19.44.44,0,0,0-.05-.09l-.05-.07-.07-.05-.09-.05a.51.51,0,0,0-.19,0H97.69c-.38,0-.49.11-.49.49a.48.48,0,0,0,.49.49h3.2l-1.77,2.3v.08a1.46,1.46,0,0,0,0,.19.45.45,0,0,0,0,0,.47.47,0,0,0,.36.47l0,0h1l.54.14.53.53.23.5a.47.47,0,0,0-.09.27v.72a.47.47,0,0,0,.1.29l-.17.42h0l-.78.79-1.08.42h-.87l-.76-.3v-.08l-.54-.27-.19-.62-.06-.1a.63.63,0,0,0-.43-.18h0a.57.57,0,0,0-.41.18l-.07.07v.34l.25.8.06.1a1,1,0,0,0,.36.27l.14.28h.35l1,.39a.46.46,0,0,0,.18.07h0l.09,0h1.3l0,0,1.11-.44h.05l.79-.79.06-.07.18-.17,0,0,.24-1a.41.41,0,0,0,.05-.54s0,0,0-.06v-.24S102.74,245.26,102.77,245.22Z"/><path d="M111.08,238a.33.33,0,0,0-.19.25l-3.42,5.93a.46.46,0,0,0-.18.31h0L104,250.58a.37.37,0,0,0-.27.35.39.39,0,0,0,.43.37h.38l3.6-6.24h0l.07-.13,0,0h0l3.28-6.08a.3.3,0,0,0,.17-.16.46.46,0,0,0-.16-.47C111.38,238,111.23,237.93,111.08,238Zm.29.32h0Zm-7.2,12.49Zm0,.25h0Zm7.21-12.49Z"/><path d="M119.14,245.58a.39.39,0,0,0-.11-.42l-.22-.67-.06-.1c-.21-.21-.29-.28-.46-.3l-.39-.52-.09-.12-.07-.1h0l.44-.22h.1l0-.06.06,0v-.1l.33-.67a.47.47,0,0,0,.15-.35v-.72s0,0,0,0,0-.15,0-.2v-.08l-.48-.72v-.09l-.12,0a.46.46,0,0,0-.33-.13l-.91-.36-.09,0h-1.68c-.23,0-.35,0-.42.16l-.68.26,0,0c-.19-.08-.38.06-.5.2l-.52.78V241a1.44,1.44,0,0,0,0,.19.46.46,0,0,0,0,0v.72a.47.47,0,0,0,.18.38l.3.63V243l.07,0,0,.06h.1l.44.22h0L113,244.47v.13l-.23.62v.27s0,0,0,0v1.2l.25.8.06.1a1,1,0,0,0,.36.27l.14.28H114l1,.39a.46.46,0,0,0,.17.07h0l.09,0h1.73l1.2-.48h.11l0-.05.07,0V248l0-.09a1,1,0,0,0,.36-.27l.28-.77a.39.39,0,0,0,.11-.42.3.3,0,0,0-.08-.11v-.64A.3.3,0,0,0,119.14,245.58Zm-3.89,2.1-.76-.3v-.08L114,247l-.18-.57v-.89l.21-.63.64-.64,1.12-.45.17,0,.17,0h0l1.12.45.67.67.23.35a.51.51,0,0,0,0,.22v1a.5.5,0,0,0,0,.21l-.23.35-.21.21-1.08.41Zm1.35-7.18,1,.39.26.4v.57l-.3.46-.71.34-.94.16-.74-.1-.85-.42-.28-.42v-.57l.26-.4,1-.39Z"/><path d="M134.89,239.52a.48.48,0,0,0-.49.49v6.39L130.1,240v0a.47.47,0,0,0-.34-.46l0,0h-.48l-.07.07a.45.45,0,0,0-.16.47.33.33,0,0,0,.08.11v8a.48.48,0,0,0,.49.49h.1l.39-.39V241.6l4.3,6.64v0l.39.39h.59V240C135.38,239.63,135.27,239.52,134.89,239.52Z"/><path d="M143.64,240.81a.44.44,0,0,0-.08-.26s0,0,0-.06v-.15l-.37-.19a.5.5,0,0,0-.3-.15l-1-.39a.51.51,0,0,0-.28-.09H138a.48.48,0,0,0-.49.49v8.26l.39.39h.1a.48.48,0,0,0,.49-.49v-3.35h3.21l0,0,1.11-.44h.05l.48-.48h0l.14-.14v0L144,243v-.08a1.44,1.44,0,0,0,0-.19.46.46,0,0,0,0,0v-1.3l-.06-.06Zm-5.14,3V240.5h2.82l1.15.46.09,0a.4.4,0,0,0,.1,0l.37.78v.84l-.48.72v0l-.24.12h0l-1,.38Z"/><path d="M150.49,239.52h-5.28c-.38,0-.49.11-.49.49a.48.48,0,0,0,.49.49h2.15v7.67a.48.48,0,0,0,.49.49h.1l.39-.39V240.5h2.15A.48.48,0,0,0,151,240C151,239.63,150.87,239.52,150.49,239.52Z"/><path d="M160.57,239.52c-.38,0-.49.11-.49.49v8.16a.49.49,0,1,0,1,0V240C161.06,239.63,161,239.52,160.57,239.52Z"/><path d="M169.21,239.52c-.38,0-.49.11-.49.49v6.7l-4.65-7.19h-.87v8.65a.48.48,0,0,0,.49.49h.1l.39-.39v-6.74l4.55,6.72a.44.44,0,0,0,0,.05l0,.07.06.1,0,.05.08.06.07,0a.51.51,0,0,0,.18,0h.1l.07-.07.31-.31V240A.48.48,0,0,0,169.21,239.52Z"/><path d="M176.89,247.68h-4.07V240a.48.48,0,0,0-.49-.49c-.38,0-.49.11-.49.49v8.16a.48.48,0,0,0,.49.49h4.56a.48.48,0,0,0,.49-.49C177.38,247.79,177.27,247.68,176.89,247.68Z"/><path d="M183.85,240.5a.48.48,0,0,0,.49-.49c0-.38-.11-.49-.49-.49h-5a.48.48,0,0,0-.49.49v8.26l.39.39h5.14a.48.48,0,0,0,.49-.49c0-.38-.11-.49-.49-.49H179.3v-3.34h2.63c.38,0,.49-.11.49-.49a.48.48,0,0,0-.49-.49H179.3V240.5Z"/><path d="M190.57,239.52H185a.48.48,0,0,0-.49.49v.1l.39.39h2.49v7.67a.48.48,0,0,0,.49.49h.1l.39-.39V240.5h2.25l.39-.39V240A.48.48,0,0,0,190.57,239.52Z"/><path d="M375.61,290.4h-14l1.32-7.47-.21-.42v0h0l-.12-.24h-1.1v-66c0-.38-.11-.49-.49-.49a.48.48,0,0,0-.49.49v66h-1.1l-.12.24h0v0l-.21.42,1.32,7.47H304.23l-.39.39v.1a.48.48,0,0,0,.49.49H360.8l.17.95.17-.95h14.47c.38,0,.49-.11.49-.49A.48.48,0,0,0,375.61,290.4Z"/><path d="M354.24,203l-.2.59s0,0,0,.06l-.83.83h0l-.07.08-.06.06h0l-3.25,3.69h-.2l-.39.39v.1a.47.47,0,0,0,.18.38.45.45,0,0,0,.31.11h5.52a.48.48,0,0,0,.49-.49v-.1l-.39-.39H351l2.86-2.86h0l.07-.08.06-.06v0l.83-1h.08l0-.14,0,0V204l.2-.8a.5.5,0,0,0,0-.09v-.06s0,0,0,0v-1l-.31-1h-.18l-.07,0,0,0-.22-.43h-.31l-.65-.43-.06-.06h-1.89l-.09.09-.81.39h-.11l0,.07-.06,0v.1l-.15.29,0,0-.1.05a.35.35,0,0,0-.14.28s0,0,0,.05l-.32.47v.8h0a.48.48,0,0,0,.49.48h.1l.39-.39v-.58h0l.19-.5h0l.07-.06.46-.23v-.12l.53-.26H353l.55.36v0l.12.06.05,0h0l.35.17.18.58Z"/><path d="M359,208.15h0l-.25-.54h-.89v.15l-.48.48v.45l.07.07.41.41v.14h1v-.19l.1-.2a.43.43,0,0,0,.14-.33v-.24h0v-.09Z"/><path d="M364.57,209.3a.48.48,0,0,0,.49-.49v-8.26l-.39-.39h-.1a.47.47,0,0,0-.47.35v0l-.92.92-.88.41-.48.46.18.18c.27.27.33.31.66.31h.08l.72-.48h.29l.35-.44v6.91C364.08,209.19,364.19,209.3,364.57,209.3Z"/><path d="M372.25,209.3a.48.48,0,0,0,.49-.49v-8.26l-.07-.07h0l-.31-.31h-.1a.47.47,0,0,0-.47.38l-.67.83H371l-1.21.58v.39a.48.48,0,0,0,.49.49h.06l1-.48h0l0,0,.1-.05v-.05l.22-.22v6.84C371.76,209.19,371.87,209.3,372.25,209.3Z"/><path d="M304.39,211.46h.29l.48-.48h.48l.48-.48h.24l.73-.73,0,0,.06,0,.1-.06,0,0,.06-.08,0-.07a.51.51,0,0,0,0-.18V193.83l-.31-.31-.07-.07h-.24l-.72-.72h-.24l-.17-.17-.41-.22v-.21l-.14.14-.25,0-.48-.48H304l-.24-.24H303l-.24-.24h-.33V156.63l-.14-.14.25-.25H302l-.09-.09.11-.15h-.11v-.11l-.11.11h-.13v-.13l.11-.11h-.11v-.11l-.11.11h0l.24-.24h-.5l-.09-.09v-1.09h.35l-.24-.24.13.11v-.11h.11l-.11-.11.09-.13.15.11v-.11h.12l-.12-.11v-.12h.13l.11.11v-.11h.11l-.11-.11h0l.24.24v-.36h.35l-.32-.32,0,0a.45.45,0,0,0,.13-.15v0a.5.5,0,0,0,.05-.22V150a.47.47,0,0,0-.34-.46h0l-1.45-1.69H282.74V130.09a.47.47,0,0,0-.16-.37l-.08-.17v-.08l.1-.1-.1-.1v-.37h.11l-.11-.11v0h0l-.23-.23v-.15h-.15l-.09-.09v-.58l.07,0,.68-.23h.68l.56-.25.75-.25.45-.23.75-.25.45-.23.72-.24.55-.51.41-.21.75-.25.48-.24.5-.48.66-.22.55-.51.44-.22,1-1,.44-.22,3.11-3.09h64.36L359,126.81l.41.4h.24l.27.27,0-.27h.5v66.33l.39.39h.1a.48.48,0,0,0,.49-.49V127.22h.5l0,.27.27-.27h.24l.41-.4-1.37-7.75h14.06c.38,0,.49-.11.49-.49a.48.48,0,0,0-.49-.49H361.14l-.17-.95-.17.95H296.93l.17-.32.93-.93.27-.51.45-.45.29-.79.22-.44.45-.45.29-.79.25-.51.22-.66.44-.44.3-.58.23-.69.24-.48,0-.29.21-.43,0-.77.23-.46.23-.69.24-.48,0-.79.23-.68v-.52l.23-.68v-1h.12l-.12-.11.23-.78V97.69l-.24-.54V95.77L302.9,95v-.44l-.24-.76v-.44l-.48-1.48v-.44l-.27-.83-.23-.45-.25-.75-.23-.45-.25-.75-.23-.45-.3-.89h-.27l-.4-.79v0l.14-.14h-.18l-.18-.55-.51-.55-.24-.47-.46-.69-.24-.48-.5-.52-.22-.44-1.46-1.48-.22-.44-2.45-2.46-.51-.27-.49-.48-.75-.5-.44-.22-.45-.45-.52-.27-.75-.5-1-.49-.55-.18v-.21l-1.13-.56-.69-.23-.51-.25-.69-.23-.51-.25-1.44-.48h-.52l-.65-.21-.48-.24-.79,0-.68-.23h-.52l-.68-.23h-2l-.68-.23h-2.48l-.62.19-1.88-3.31h-.47l-.31.24h-.28l.08.15-.29.22-50.48-64a.46.46,0,0,0-.34-.43l0,0H193.45a.48.48,0,0,0-.49.49v.1l.39.39h24.94l50.52,64.1-.73.57V70l-.14.11.14.13v.24l1.19,1.09-.51.23h-.66l-.56.25-.68.23h-.1l-.11-.11v.11h-.47l-.56.25-.75.25-.45.23-.75.25-.45.23-.75.25-.45.23-.89.3v.27l-.79.4-.72.24-.55.51-.44.22-.5.49-.66.22-1,1-.44.22L253,80.71l-.27.51-.93.93-.27.51-.93.93-.29.78-.22.44-.45.45-.24.65h-.19l.14.14-.22.44-.45.45-.29.79-.25.51-.23.69-.25.51-.23.69-.25.51-.23.69-.24.48,0,.79-.23.68v.52l-.21.65-.24.48,0,1.49-.21.43,0,6.11,0,.11-.14.14h.21l.14.29v.66l.24.76v.44l.24.76v.68l.25.56.23.68v.44l.27.83.21.43v.18l.25.56.25.75.47.93.24.72.5.54.23.7.24.48.49.5.22.66.51.55.22.44,1,1,.22.44,1.46,1.48.22.44,2,2,.52.27.68.45.48.48.51.27.45.45.52.27.13.09v.07l0,0,.58.38,1,.49.67.22.44.44.79.29.51.25.69.23.51.25.69.23.48.24.77,0,.46.23.31.1v.28l-.09.09h-.15v.15l-.35.35h.35V129l-.24-.24v.5l-.1.1.1.1v.08l-.09.19a.47.47,0,0,0-.14.35v17.75H248.55l-1.83,1.83v11.6l-3.45-5.75h-.47l-.31.24h0v0l-.47.36-35.64-42.29-.08-.09h-12.6a.48.48,0,0,0-.49.49v.1l.39.39H206l35.2,42-.34.26-.14-.12v.23l-.24.19V158l.24.2v.19l.12-.09,5.88,5v28h-.23l-.54.24h-.42l-.54.24h-.29l-.48.48h-.48l-.48.48H243l-.52.53-.39.19h-.43v6.78l-4.18-5.58h-.72l-.21.24h-.18l.08.11-.28.32-21.63-20.22a.35.35,0,0,0-.65-.13H193.69a.48.48,0,0,0-.49.49v.1l.39.39h20.5l.13,0,21.31,20.15-.57.65v.23l-.1.1,0,0,.14.09v.24l6.72,4.56v7.65l.31.31.51.27.28.29H243l.48.48h.28l.39.2.29.29h.24l.24.24h.48l.24.24h.72l.24.24h.09v3.93l0,0,.19.61v1.15h-.1l.1.29v.21H247l.17.51v1.39h-.1l.1.29v.21h.07l.17.51v9.76l-.17.51h-.07v.21l-.1.29h.1v1.15l-.17.51H247V234l-.1.29h.1v1.16l-.19.78a.51.51,0,0,0,0,.05l0,.1v20.08l.39.39h.06l3,1.69-3,1.89H247v.88l3.41,1.81-2.83,1.77a.44.44,0,0,0-.26.07l-.07,0H247v.25a1.06,1.06,0,0,0,0,.16.52.52,0,0,0,0,.09v.1l.07.07h0l.32.32.43,0,2.81,1.58-2.81,1.76-5.51-5.74H242l-.14-.14-.1.14h-.24l-.51.77-26.48-19.86v0a.47.47,0,0,0-.46-.34H197.67l-.39.39v.1a.48.48,0,0,0,.49.49H214l26.47,20.09-.47.71v.21l-.35.35h.54l7,3.74h0v.1h.14l.1.11,0,0,.05,0,3.25,1.72-3.17,1.78h0l-.38.38v.1a.47.47,0,0,0,.36.47l0,0h0l3.23,1.71-3,1.89a.45.45,0,0,0-.28.17l0,.06a.35.35,0,0,0-.06.3,1.47,1.47,0,0,0,0,.18v.25h.42l3,1.69-3.2,2v.14s0,0,0,.07a.44.44,0,0,0-.08.26.39.39,0,0,0,0,.15l0,0a.78.78,0,0,0,.12.16l.07.07h.06l3.21,1.71-3,1.87h-.42v.25c0,.05,0,.12,0,.2s0,0,0,0v.1l0,0a.45.45,0,0,0,.14.24l0,0a.5.5,0,0,0,.16.07l0,0,3.11,1.75-.19.15h-.32l-.39.39v.1a.47.47,0,0,0,0,.07,1.07,1.07,0,0,0,0,.17v.25h49l0,0a.49.49,0,0,0,.22-.09l1.62-.7v-.9H301l-3-1.89,3-1.69h.42v-.25c0-.05,0-.12,0-.2s0,0,0,0a.47.47,0,0,0-.07-.25l0-.05-.06-.07,0,0a.5.5,0,0,0-.16-.07l0,0-3-1.88,3.23-1.71h0l0,0a.28.28,0,0,0,.21-.33.32.32,0,0,0,0,0,.44.44,0,0,0-.08-.26s0,0,0-.07v-.14l-3.17-2,3.23-1.71h.19v-.87l-3.28-2.05,2.92-1.54h.05a.45.45,0,0,0,.24-.08l.07,0h.25v-.25a1.06,1.06,0,0,0,0-.16.51.51,0,0,0,0-.08v-.1l-.07-.07-.32-.32-.39,0-2.84-1.77,3-1.57h.17a.41.41,0,0,0,.32-.13.38.38,0,0,0,.14-.19l0,0v-.64h-.15a.59.59,0,0,0-.16-.09l-3.07-1.91,3.19-1.59h0l.07-.07h0l.31-.31V263a.52.52,0,0,0,0-.06,1.48,1.48,0,0,0,0-.18v-.25h-.42l-3-1.87,3.41-1.81v-.15s0,0,0-.06a.44.44,0,0,0,.08-.26.35.35,0,0,0,0-.09.51.51,0,0,0-.07-.14l0-.05,0-.05L302,258h0l-1.83-1.18H302l.39-.39V236.51l0,0-.06-.25v0l-.19-.78V235h.1l-.1-.29v-.21h-.07l-.17-.51v-1.15h.1l-.1-.29v-.21h-.07l-.17-.51V229h.1l-.1-.29v-.21h-.07l-.17-.51v-3.76l.17-.51h.07v-.21l.1-.29h-.1v-2.6l.08-.31.16.16v-.81l.07-.28h-.07v-1.15l.17-.51h.07v-.21l.1-.29h-.1v-.43l.21-.63,0,0v-3.93h.09l.24-.24h.72l.24-.24h.14Zm-1.49-.5v-.11l.11.11Zm-.13-.24.1.1-.28.14h-.19v.1l-.29.14h-.41V211l-.31.15h-.19v.09l-.29.14h-2l-.09-.09v-.15h-.15l-.35-.35v.35h-.59L298,211h-.5l-.1-.1-.1.1h-.49l.24-.24h-.5l-.1-.1-.1.1h-.08l-.29-.14v-.1h-.19l-.12-.06.18-.18h-.5l-.1-.1-.1.1h0l.06-.06-.27-.14-.15-.15,0,0-.18-.09v-.1h-.19l-.31-.15v0l-.36-.36.25-.25h-.5l-.09-.09V194.27l.22-.22v.24l.35-.35H294v-.15l.33-.33h.27l.1.1.1-.1h.5l-.13-.13.35-.35h.15v-.09l.29-.14h.79l-.1-.1.28-.14h.19v-.1l.29-.14h.17v.35l.35-.35h.15v-.15l.09-.09h3.32a.46.46,0,0,0,.13.14l-.08.1h.26l.35.36v-.36h.37l.09.09-.11.15h.26l.35.36v-.36h.17l.29.14v.1h.19l.12.06-.18.18h.5l.1.1.1-.1h0l-.06.06.65.33v.1h.19l.31.15v0l.12.12-.25.25h.5l.11.11.09-.11.37.34v14.66l-.09.09h-.5l.25.25-.36.36v-.24l-.35.35h-.15v.15l-.14.14-.39.2h-.08l-.1-.1-.1.1h-.13v-.11l-.11.11H304l.13.13-.11.11h-.15v.15l-.09.09h-.27l-.1-.1-.1.1Zm-5.94,76.56h-.42v0l-44.09,2.37-2.24-1.26,48.68-2.21Zm-46.63.15,2.15-1.35,44.49-2.37,2.38,1.48Zm46.6-4.69-44.52,2.37-2.35-1.24,49-2.21Zm-46.86.14,2.14-1.34h.42v0l44.56-2.37,2.38,1.49Zm47.13-4.72-45,2.39-2.23-1.26,49.33-2.22Zm-47.11.15,2.14-1.34h.17v0l44.83-2.36,2.51,1.48Zm46.87,10,2.36,1.48-16.94.66H257.11Zm.48-14.66L252,276l-2.37-1.25,49.82-2.22Zm-47.6.15,2-1.23h0l.12,0a.3.3,0,0,0,.12-.09L297.31,270l.09,0,2.3,1.44Zm48-4.72-46.19,2.41h-.11L249,270.2l50.35-2-1.65.87Zm-48.27.18,1.87-1.17a.52.52,0,0,0,.24.06l46.07-2.4a.49.49,0,0,0,.23-.05l2.46,1.54Zm48-4.52-.07,0h-.25v0l-45.38,2.36,0,0a.45.45,0,0,0-.29-.07l-2.07-1.16,50.12-2.22-1.75,1A.42.42,0,0,0,297.44,264.69ZM246.59,211l-.35-.35V211h-.17l-.29-.14v-.1h-.19l-.12-.06.18-.18h-.5l-.1-.1-.1.1h-.08l-.29-.14v-.1h-.19l-.31-.15v0L244,210l.25-.25h-.5l-.11-.11-.09.11-.5-.47.25-.25h-.5l-.09-.09v-6.72l.63.41-.63-.81v-.07l.13-.06-.13-.17v-.05l.14-.14-.14-.09v-7l.33-.33.14.1.1-.1h.5l-.13-.13.35-.35h.15v-.15l.33-.33h.27l.1.1.1-.1H245v.11l.11-.11h.26l-.13-.13.11-.11h.15v-.15l.09-.09H246v.35l.35-.35h.26l-.11-.11.09-.13h.51l.1.1.1-.1h.5l-.21-.21,0,0h3.13l.29.14v.1h.19l.31.15v-.15h.17l.29.14v.1h.19l.28.14-.1.1h.5l.1.1.1-.1h.27l.09.09V193h.15l.35.35-.13.13h.5l.1.1.1-.1h0l-.06.06.65.33v.09h.19l.29.14v15.1l-.38.38-.39.2h-.08l-.1-.1-.1.1H254l.13.13-.35.35h-.15v.09l-.29.14h-.19v.1l-.22.11v-.32l-.35.35h-.15v.15l-.09.09h-.51l-.1-.1-.1.1h-.5l.24.24h-.59v-.35l-.35.35h-.26l.12.12-.09.12h-2l-.29-.14v-.1h-.12l-.37-.15v.15h-.61l-.09-.09V211Zm-3.11-17.27.12-.12v.23ZM264.83,126l-.14-.07,0,0-.56-.19-.83-.41v.06l-.37-.12-.93-.47-1.1-.73v.06l-.58-.29-.31-.21.17-.17-.83-.28-.12-.08v0l-.56-.26-.75-.75.07-.07-.27-.14-.15-.15,0,0-.28-.14-.75-.75.07-.07-.27-.14-.15-.15,0,0-.28-.14-2.34-2.34-.14-.28,0,0-.15-.15-.14-.27-.07.07-.75-.75,0-.08h.2l-.4-.4-.05-.1h-.05l-.37-.37-.17-.52.07-.07-.13-.14-.11-.33-.11.11-.27-.27-.28-.56h.06l-.53-.79.18-.18-.63-.63-.21-.43-.19-.56,0,0-.19-.51,0,0-.26-.71,0,0-.2-.51,0,0-.26-.71,0,0-.19-.51,0,0-.06-.12v-.56l.05-.05-.05-.11v-.54l-.18.18-.3-.82v-.19h.1l-.1-.29v-.21h-.07l-.17-.51v-.58l.05-.05-.05-.11V104l-.18.18-.06-.12v-.41h.1l-.1-.29v-.21h-.07l-.17-.51V97.25l.17-.51H247v-.21l.1-.29H247v-.91l.17-.51h.07v-.21l.1-.29h-.1v-.19l.41-1.23h.07v-.21l.1-.29h-.1v-.19l.22-.67.41-.83h-.06l.13-.37.41-.83h-.06l.13-.37.32-.63,0,0,.12-.37.07-.15,0,0,.19-.56.23-.45.21-.31.17.17.28-.83.08-.12h0l.26-.56.27-.27.11.11.11-.33.13-.13-.07-.07.17-.52.37-.37h.05l.05-.1.4-.4h-.2l.32-.36.07.07.14-.27.15-.15,0,0,.14-.28,1.71-1.71.07.07.14-.27.15-.15,0,0,.14-.28.42-.42.08,0v.2l.4-.4.1-.05v0l.86-.86.08,0v.06l.94-.63,0,0,.16-.16.23-.16,0,0,.28-.27.56-.28v.2l.4-.4.1-.05v-.05l.36-.37.52-.17,0,0,.28-.12V76l.4-.4.1-.05v-.05l.37-.36.52-.17,0,0,.51-.19,0,0,.71-.26,0,0,.51-.19,0,0,.63-.32.37-.12v.06l.83-.41.67-.22h.19v.1l.29-.1h.8l-.2-.2.84-.28h.19v.1l.29-.1h.21v-.07l.51-.17h.19v.1l.29-.1h.21v-.05l2.91,2.68h-.76l-.54.24h-1.14l-.54.24H269l-1,.48h-.42l-1,.48h-.66L261,79l-.52.5-.44.22-.76.74-.44.22-1.24,1.22-.52.26-.24.48-.48.24-.26.52-.45.45-.25.47-.48.24-.26.52-.45.45-1,1.95-.45.45-.22.41h-.21l.14.14-.65,1.3h-.21l.14.14-.24.48,0,.53-.69,1.39,0,.55-.21.65-.24.48,0,.53-.21.43,0,1.25-.21.43,0,2.21-.21.43,0,1.31.24.54v2.1l.24.54v.66l.24.54v.42l.24.54v.42l.24.76v.44l.91,1.87-.3.3h.35v.23l.75,1.55.5.52.94,1.88.5.52.5,1,.48.24.2.4.5.52.26.52.48.24.24.48.52.26,1.17,1.17.51.27.45.45.51.27.21.21.51.27.45.45,3.46,1.74.69.23.48.24.53,0,.29.14v.32h-.15l.15.31v.19h.1l.14.29v.89H267l.15.31V126h.1l.14.29v.08l-.09.09h-.15v.15l0,0-.2-.1v.15h-.41l-.79-.39v.06l-.37-.12-.15-.08,0,0Zm10.9-54,.51.17v.07h.21l.29.1v-.1h1.61l.12.06-.18.18h.54l.11.05.05-.05h.58l.51.17v.07h.21l.29.1v-.1h.19l.67.22.15.08-.18.18H282l.11.05.05-.05h.56l.12.06,0,0,.37.12.14.07,0,0,.56.19.15.08,0,0,.37.12.15.07,0,0,.56.19.16.08,0,0,.37.12.15.07,0,0,.56.19.93.47,1.1.73v-.06l.58.29,1.1.73v-.06l.48.24.84.8-.07.07.27.14.15.15,0,0,.28.14.75.75-.07.07.27.14.15.15,0,0,.28.14,2.34,2.34.14.28,0,0,.15.15.14.27.07-.07.75.75,0,.08h-.2l.4.4.05.1h.05l.36.36.17.52-.07.07.13.14.11.33.11-.11.28.27.21.43,0,.13h0l.08.12.28.83.17-.17.21.31.23.45.18.56,0,0,.2.51,0,0,.32.63.13.37h-.06l.41.83.13.37h-.06l.39.79v.41H301l.15.31v.19h.1l.16.33.22.66V94l-.05.05.05.11v.54l.18-.18.06.12V95h-.15l.15.31v.19h.1l.14.29V97H302l.15.31v.19h.1l.14.29v4.46l0,.12-.2-.2v.8l-.1.29h.1v.89l-.06.12-.18-.18v.54l-.05.11.05.05v.58l-.17.51h-.07V106l-.1.29h.1v.19l-.22.67-.08.15-.18-.18v.54l-.05.11.05.05v.56l-.06.12,0,0-.12.37-.07.15,0,0-.19.56-.08.15,0,0-.12.37-.07.15,0,0-.19.56-.08.15,0,0-.12.37-.07.15,0,0-.19.56-.21.43-.28.27-.11-.11-.11.33-.13.14.07.07-.19.56-.21.43-.27.27-.07-.07-.14.27-.15.15,0,0-.15.31-.73,1.1h.06l-.32.36-.07-.07-.14.27-.15.15,0,0-.14.28-.75.75-.07-.07-.09.17h-4.05l.76-.74.52-.26.26-.52.45-.45.05-.08,0,0,.2-.45.69-.69.51-1,.45-.45,1.9-3.77h.21l-.14-.14.72-1.44,0-.53.23-.46.24-.72v-.5l.21-.43,0-.53.21-.43,0-1.25.21-.43,0-5.63-.24-.54V95.53l-.24-.54v-.42l-.24-.54v-.42l-.24-.76v-.69h-.24v-.23l-.91-1.87.3-.3h-.35v-.23l-.27-.59-.35-.37.25-.25h-.45l-1.13-2.26-.5-.52-.5-1-.48-.24-.2-.41-.5-.52-.26-.52-.48-.24-.24-.48-.52-.26-1.17-1.17-.51-.27-.45-.45-.51-.27-.69-.69-4.42-2.22-.72-.24h-.5l-.91-.45-.53,0-.46-.23-.72-.24h-1l-.43-.21-1.25,0-.43-.21H275l-1.73-3.06.18-.06Zm17.37,48.65,0,0-.15.15-.27.14.07.07-.75.75-.28.14,0,0-.15.15-.27.14.07.07-.75.75-.43.21-.56.19-.07-.07-.13.14-.33.11.11.11-.28.27-.43.21-.56.19-.07-.07-.13.14-.33.11.11.11-.28.27-.43.21-.56.19,0,0-.51.19,0,0-.71.26,0,0-.51.19,0,0-.71.26,0,0-.51.19,0,0-.82.3h-.19v-.1l-.29.1h-.19v-1.09l.09-.09H282v-.15l.35-.35H282v-.85l.09-.09h.15V124l.35-.35h-.35v-.08l.29-.14H283l1.52-.73.75-.25,1.92-1,.23-.21h.29l.27-.54,1.36-.68.52-.5.52-.26.09-.18h4.4l-1.47,1.46Zm-32.3-1.34-.15-.15,0,0-.76-.38-1-1,.07-.07-.27-.14-.15-.15,0,0-.25-.12-.12-.24.12-.12-.24-.12-.12-.24-.12.12-.25-.12-.12-.24.12-.12-.24-.12-.12-.24-.12.12-.24-.12-.12-.24,0,0-.15-.15-.14-.27-.07.07-.28-.27-.14-.28,0,0h0l-.16-.16-.14-.27-.07.07-.52-.51-.14-.28h0l-.24-.47h0l-.24-.49,0,0-.15-.15-.14-.27-.07.07-.27-.27-.14-.28,0,0-.15-.15-.14-.27-.07.07-.73-1.42-.22-.66v-.34l.05-.05-.05-.11v-.54l-.18.18-.24-.49h0l-.24-.47h0l-.06-.12v-.17h.15l-.15-.31v-.19h-.1l-.38-.77v-.17h.1l-.1-.29v-.21h-.07l-.17-.51v-.67h.15l-.15-.31v-.19H251l-.14-.29V101.3H251l-.15-.31v-.19h-.1l-.14-.29V99.43l.14-.29h.1v-.19l.15-.31h-.15V96.79l.14-.29h.1v-.19l.15-.31h-.15v-.67l.17-.51h.07v-.21l.1-.29h-.1v-.17l.38-.77h.1v-.19l.15-.31h-.15v-.17l.06-.12h0l.24-.47h0l.18.18v-.55l.05-.11-.05-.05v-.32l.06-.12,0,0,.12-.37.07-.15,0,0h0l.06.06.36-1.09.24-.47.08.08.48-1h0l.24-.47h0l.14-.28.27-.27.07.07.14-.27.15-.15,0,0h0l.24-.47h0l.36-.72.24-.12.12.12.12-.24.24-.12-.12-.12.14-.28.28-.27.07.07.14-.27.15-.15,0,0,.12-.24.24-.12.12.12.12-.24.24-.12-.12-.12.12-.24.24-.12.12.12L258,83l.24-.12-.12-.12.12-.24.25-.12,0,0,.15-.15.27-.14-.07-.07,1-1,.76-.38.12.12.12-.24.24-.12-.12-.12.12-.24,0,0h0l5.59-2.79h.17v.15l.31-.15h.19v-.1l.33-.16.67-.22h.33l.05.05.11-.05h.54l-.18-.18.12-.06H270v.15l.31-.15h.19v-.1l.29-.14h.89v.15l.31-.15h.19v-.1l.29-.14h1.76l.11.1.1-.1h.31l.78.69-.39-.69h1.54l.29.14v.1h.19l.31.15v-.15h.67l.51.17v.07h.21l.29.1v-.1h.65l.29.14v.1h.19l.31.15v-.15h.17l.12.06,0,0,.37.12.15.07,0,0,.4.13v.07H282l.29.1v-.1h.17l.79.4h0l1,.48h0l1,.48h0l1,.48h0l1,.48h0l.56.28.52.52-.07.07.27.14.15.15,0,0,.76.38.88.88h0l.12.12-.07.07.27.14.15.15,0,0,.24.12.12.24-.12.12.24.12.12.24.12-.12.24.12.12.24-.12.12.24.12L292,84l.12-.12.25.12.12.24,0,0,.15.15.14.27.07-.07.28.27.14.28,0,0h0l.16.16.14.27.07-.07.51.51.62,1.24,0,0,.15.15.14.27.07-.07.28.27.62,1.23.08-.08.24.47.36,1.09.06-.06,0,.12v.34l-.05.05.05.11v.54l.18-.18.24.48.08.16h0l.22.44v.17h-.15l.15.31v.19h.1l.14.29v.17h-.15l.15.31v.19h.1l.14.29v.56l-.05.05.05.11v.54l.18-.18.06.12v.65h-.15l.15.31V97h.1l.14.29v5.4l-.14.29h-.1v.19l-.15.31h.15v.65l-.06.12-.18-.18v.54l-.05.11.05.05v.56l-.14.29h-.1v.19l-.15.31h.15v.17l-.14.29h-.1v.19l-.15.31h.15v.17l-.21.43-.33.65,0,0-.12.37-.07.15,0,0h0l-.2-.2v.8l-.1.29h.1v.17l-.63,1.27-.56.6-.07-.07-.14.27-.15.15,0,0h0l-.24.47h0l-.62,1.24-1.35,1.35.12.12h0l-.07-.07-.14.27-.15.15,0,0-.12.24-.24.12L292,116l-.12.24-.24.12.12.12-.12.24-.24.12,0,0-.15.15-.27.14.07.07-.13.13h0l-.82.82h-4.56l-.39.39v.1a.48.48,0,0,0,.49.49h3.26l-.33.17,0,0-.15.15-.27.14.07.07-.28.27-.76.38,0,0-.15.15-.27.14.07.07-3.34,1.69-.61.2v-2.24l-.39-.39h0L281,118.45l-.37-.37h-12.1a.47.47,0,0,0-.47.35l-1.7,1.46v2.5h-.17l-.79-.4h0l-1-.48h0l-1-.48h0l-2-1-.51-.51.07-.07Zm8.11-.26h11.31l.7.7H268.21Zm-1.53,11.13.24-.24v-.48l.24-.24v-.72l.24-.24v-1.44l.24-.24v-.34l-.24-.54v-1.48l-.24-.24v-.38l-.24-.54v-.52l-.24-.24v-1.57h14.38v1.57l-.09.09h0l-.14.14v.24l-.24.24v.72L281,124v1.2l-.24.24v1.65l.17.17a.33.33,0,0,0,0,.26.35.35,0,0,0,.08.11v.8l.24.54v.52l.24.24V130l.24.24v17.65H267.38Zm14.87,18.63h17.9l.7.7H248.29l.7-.7h33.26Zm19.19,1.68v1.9h-.09l-.26.26-.13-.13v.26l-.33.33h-.26l.13.13-.26.25v.33H300v1.59l-.11.11H300v.24h.24v.13l-.11.11h.11v.09l.48.48v0h0l.38.38h.09v.24h.24V191H247.7V164l.46.41-.46-.82v-.44l.1-.05,0-.06.05-.05-.12-.1V150.5Zm-4.8,42v.11l-.11-.11Zm-1.44.59v.23l-.12-.12Zm-41,17v-.19l.12.12Zm-.12-16.87-.12.12v-.23Zm-1.45-.71-.11.11v-.11Zm2.66.22H255l-.48-.48h-.24l-.17-.17L254,192h8.27l-1.42.46h-.74l-1,.25-1.4.47h-.92l-.65.21-.69-.69h-.09v-.11ZM256.75,210l.94.24,1.44.48h1l1.44.48h.7l.94.23h-9.15l.46-.46h.24l.28-.28.39-.2h.29l.62-.62Zm14.71,1.24v-.05h-.22l-.28-.07v.07h-2.11l-.51-.17V211h-.21l-.29-.1v.1h-1.39l-.51-.17v-.07h-.21l-.29-.1v.1H265l-.74-.19v-.05H264l-.28-.07v.07h-.43l-.51-.17v-.07h-.21l-.29-.1v.1h-.44L261,210l-.54-.18v-.07h-.21l-.29-.1v.1h-.44l-.92-.23-2-.66V194.34l1.23-.4h.43V194l.28-.07h.22v-.05l.63-.16h0l.56-.15,0,0,.3-.1h.43v.07l.28-.07h.22v-.05l.63-.16h0l.56-.15,0,0,.3-.1H263v.1l.29-.1h.21v-.07l.51-.17h.67v.1l.29-.1h.21v-.07l.51-.17h.43v.07l.28-.07h.22v-.05l.74-.19h2.12v.1l.29-.1H270v-.07l.51-.17h8.08l.51.17v.07h.21l.29.1v-.1h2.11l.51.17v.07h.21l.29.1v-.1h.67l.51.17v.07h.21l.29.1v-.1h.44l.74.18V193h.22l.28.07V193h.43l1,.34v0l.46.12v.05h.22l.28.07v-.07h.43l1,.34-.14.14h.57l.11,0,0,0h.82l1,.33V209l-1,.33-.81.2h0l-.56.15,0,0-.3.1h-.43v-.1l-.29.1h-.21v.07l-.54.18-.92.23h-.44v-.1l-.29.1h-.21v.07l-.51.17H285l0,0-.11,0h-.56l.14.14-.3.1h-.43v-.07l-.28.07h-.22v.05l-.74.19H281.3v-.07L281,211h-.22V211l-.74.19h-2.12v-.1l-.29.1h-.21v.07l-.51.17H272.2Zm15.15,0h.92l1.48-.48h.92l2.22-.73.63-.16.65.65h.24l.17.17.55.29.25,0,.46.46h-9.17ZM293,193.41l-.88-.21h-.68l-1.42-.47-1-.25h-.68l-.7-.23-.94-.23h8.45l-.23.21h-.24l-.28.28-.39.2h-.28Zm4.58,66.75h-.19v0l-45.8,2.36-2.35-1.24,50.42-2.23Zm-48.34.16,2.14-1.34L298,256.83l2.06,1.24Zm2.14-2.32-2.09-1.18H277Zm.28,5.53,45.94-2.37,2.37,1.48-50.72,2.25Zm46.69-7.68H247.7V236.39l.23-.62V234l.23-.68v-1.48l.23-.68v-6.46l.11-.11h-.11v-3.41l-.23-.9v-.86l.11-.11h-.11v-.47l-.24-.76v-1.4l-.24-.76v-3.68l.13.13H301l.41-.21V216l-.23.68v.76l-.23.68v1.27h-.11l.11.11-.23.78v3.16l-.23.68v.55h-.11l.11.11V228l.24.76v3.08l.24.76v1.46l.23.9v.72l.24.76v19.39h-3.12ZM301,154.92v-.47l.23.24Zm-18.72-26h.11l-.11.11Z"/><path d="M285.14,224.07l-.24-.24v-.72l-.24-.24v-.24l0,0,.13-.13h-.26l-.09-.09v-.48l-.24-.24v-.24l-.24-.24V221l-.27-.59-.45-.47v-.24l-2.07-2.07h-.24l-.72-.72H280l-.48-.48H279l-.24-.24h-.24l-.24-.24h-.48l-.09-.09v-.26l-.13.13-1,0-.24-.24H275.3v-.11l-.11.11h-2.64l-.24.24h-.72l-.24.24h-.24l-.24.24h-.48l-.24.24h-.24l-.24.24h-.14l-.59.27-.23.21h-.24l-2.31,2.31v.09h-.09l-.39.39v.1a.48.48,0,0,0,0,.11l-.26.26v.24l-.48.48v.48l-.24.24v.24l-.24.24v.28l-.21.43,0,.53-.21.43,0,.34h-.11l.11.11v.75l-.24.24v1.06l.24.54v1.24l0,0a.45.45,0,0,0,.21.28v.65l.24.24v.24l.24.24v.48l.24.24V231l.48.48v.27l-.12.12h.12V232l.72.72v.24l1.59,1.59H268l.72.72H269l.39.2.29.29h.24l.24.24h.28l.43.21.25,0,.24.24h.72l.24.24h1l.24.24h1.68l.11.11v-.11h.09l.24-.24h1.1l.54-.24h.32l.11.11v-.11l.53-.24h.28l.24-.24H279l.24-.24h.24l.24-.24H280l.48-.48h.24l1.7-1.7.13.13v-.26l.72-.72v-.24l.72-.72v-.24l.24-.24v-.48l.24-.24V230l.24-.24v-.48l.09-.09H285l-.13-.13,0-.74.24-.24v-1.29h.11l-.11-.11Zm-1.56,5.39h.1v.1Zm.1-.31-.14.28-.1-.1v.5l-.1.1.1.1v.08l-.2.39-.14.14H283v.15l-.35.35h.11v.13l-.35.35h.24l-1,1,.12.12-.83.83-.14-.1-.1.1h-.5l.25.25-.36.36v-.24l-.33.33-.17,0v.15l-.22.22v0l-.31.16h-.19v.1l-.29.14h-.08l-.1-.1-.1.1h-.13v-.11l-.11.11h-.26l.13.13-.11.11h-.15v.15l-.09.09h-.51l-.1-.1-.1.1h-.5l.24.24h-.83v-.35l-.35.35h-.15v.15l-.09.09h-1.47l-.09-.09v-.15h-.13l-.37-.35v.35h-.85l-.09-.09v-.15H272l-.35-.35v.32l-.22-.11v-.09h-.19L271,235v.15h-.13l-.09-.09V235h-.15l-.35-.35.13-.13h-.5l-.1-.1-.1.1h-.27l-.33-.33V234h-.15l-.35-.35v.24l-.83-.83h0l-.12-.11v-.15h-.15l-.11-.12h0l-.59-.59h0l-.16-.31v-.19h-.1l-.33-.65-.06.06.1-.12-.1-.1v-.5l-.13.13-.35-.35v-.15h-.15l-.09-.09v-.51l.1-.1-.1-.1v-.37h18.43l-.11.22h-.1Zm-13.56,5.58.12-.12v.23l-.05-.05Zm-4.31-4.31H266l-.12.12-.06-.06Zm-.83-3.71v-.15h-.15l-.09-.09v-.75l.09-.09H265v-.15l.36-.35H265v-.85l.09-.09.15.11V224l.35-.35h-.35v-.37l.09-.09h.15v-.15l.23-.23h0l.11-.13h-.11v-.37l.1-.1-.1-.1v-.27l.33-.33h.14v-.14l.12-.12h0l.24-.24.13.13v-.5l.09-.09h15.82l.14.29v.19h.1l.14.29v.08l-.1.1.1.1v.5l.13-.13.35.35v.15h.15l.09.09v.51l-.1.1.1.1v.5l.1-.1.14.28v.19h.1l.14.29v3.29H265v-.7h.36Zm.59-4h-.11v-.11Zm2.05-3.45.46-.49V219l.24-.24h0l.11-.12h.15v-.15l.46-.46v0l.31-.15h.19v-.09l.18-.09,0,0,.15-.15.27-.14-.06-.06.12.1.1-.1h.13v.12l.11-.12h.26l-.13-.13.11-.11H271v-.15l.09-.09h.51l.1.1.1-.1h.5l-.1-.1.28-.14h.19v-.1l.29-.14h3.2l.23.23h0l.37.35v-.24l.24.24v-.35h.17l.29.14V217h.19l.29.14v.1h.15l.11.11-.13.13h.26l.11.11v-.11h.13l.1.1.1-.1H279l.09.09v.15h.15l.35.35-.13.13h.5l.11.11.09-.11,1,1-.25.25h.5l.22.22h-14v-.13l.1-.1Zm4.54-2.53v.1l-.1-.1Zm7.46,1.31v-.23l.12.12Zm3.59,3.84.12.12h-.23ZM266.53,221h-.23l.12-.12Zm17.39,2.53v.11h-.11Zm-18.7,5.27v-.11h.11Z"/></svg>