<svg id="Layer_1" data-name="Layer 1" xmlns="http://www.w3.org/2000/svg" viewBox="0 0 357.25 259.94"><title>Artboard 1</title><path d="M211.79,197.15l.24.24v.24l.24.24v.72l.48.48v.24l1,1v.24l.63.63h.24l.72.72h.24l.24.24H216l.24.24h.24l.24.24H217l.24.24h.48l.24.24h3.57l.24-.24h.48l.24-.24h.14l.54-.24h.29l.24-.24h.24l.24-.24h.24l.39-.39v-.24l.09-.09h.24l.87-.87V200l1-1v-.24l.24-.24v-.48l.24-.24v-.48l.24-.24v-.72l.24-.24v-2.37l-.24-.24v-.72l-.24-.24v-.48l-.24-.24v-.24l-.24-.24v-.48l-.39-.39h-.09v-.09L226,190v-.24l-.87-.87h-.24l-.09-.09v-.24l-.39-.39h-.24l-.24-.24h-.24l-.24-.24h-.28l-.43-.21-.25,0-.24-.24h-.57V187h-3.86v.24h-.57l-.24.24h-.24l-.24.24h-.24l-.24.24h-.24l-.24.24h-.24l-.72.72h-.24l-.63.63v.24l-.72.72v.09h-.24v.39l-.24.24v.24l-.24.24v.48l-.24.24v.24l-.24.24v1l-.21.43,0,1.31.24.54Zm3.14-7.05v-.39l.33-.33h.24l.24-.24H216l.72-.72h.48l.24-.24h.72l.24-.24h2.91l.24.24H222l.24.24h.48l.24.24h.24l.72.72h.24l1.07,1.07-.12.12.58.58v.39h.24v.09l.24.24v.24l.24.24v.48l.24.24v1l.24.24v1.47l-.24.24v1l-.24.24v.48l-.24.24v.24l-.23.23-.25-.25v.74l-.58.58.12.12-1.07,1.07h-.24l-.72.72H223l-.24.24h-.48l-.24.24h-.48l-.24.24h-2.91l-.24-.24h-.72l-.24-.24h-.48l-.72-.72h-.24l-.24-.24h-.24l-.33-.33v-.39h-.39l-.33-.33v-.24l-.48-.48v-.74l-.25.25-.23-.23v-.24l-.24-.24v-.48l-.24-.24v-1.2l-.24-.24v-1l.24-.24v-1.2l.24-.24v-.48l.24-.24v-.24l.24-.24v-.09h.24v-.39l.48-.48v-.24l.33-.33Z"/><path d="M265.79,55.4l.13,0,.12.12a.48.48,0,0,0,.48.37h2.26l.49-.49a.38.38,0,0,0,.32-.36.36.36,0,0,0-.18-.31v-.35a.36.36,0,0,0,.18-.31.37.37,0,0,0-.23-.33.46.46,0,0,0-.33-.27l-.12-.12a.36.36,0,0,0-.69-.09l-.08,0a.35.35,0,0,0-.14.28.38.38,0,0,0,.31.36l.11.1V55h-1.81l-.09-.09v-.51l.35-.35a.38.38,0,0,0,.31-.36.37.37,0,0,0-.22-.33.36.36,0,0,0-.69.09l-.12.12h-.23l-.39.39V55a.46.46,0,0,0,.19.39Z"/><path d="M266,53.06c.38,0,.49-.11.49-.48h1.9a.48.48,0,0,0,.49.48c.38,0,.49-.11.49-.49v-1a.36.36,0,0,0,.18-.31.37.37,0,0,0-.23-.33.46.46,0,0,0-.33-.27l-.13-.13a.7.7,0,0,0-.07-.15.46.46,0,0,0-.4-.21h-2l-.39.39v.09h-.09l-.39.39v1.54A.48.48,0,0,0,266,53.06Zm2.3-1.92.09.09v.37h-1.9v-.13l.33-.33Z"/><path d="M266,50.18c.38,0,.49-.11.49-.48h1.9a.48.48,0,0,0,.49.48c.38,0,.49-.11.49-.49v-1a.48.48,0,0,0-.49-.49h-.1l-.39.39v.09h-1.9a.48.48,0,0,0-.49-.48h-.1l-.39.39v1.06A.48.48,0,0,0,266,50.18Z"/><path d="M95.16,218.16h-.47V212.4h-.83l-1.11,1.11v.83h.83l.13-.13v3.95h-.47c-.38,0-.49.11-.49.49s.11.49.49.49h1.92a.49.49,0,0,0,0-1Z"/><path d="M100.92,212.4h-.37l-4,5.93v.81h.86l4-5.93v-.08C101.41,212.91,101.41,212.4,100.92,212.4Z"/><path d="M103.45,212.4l-1.11,1.11v.83h.83l1-1h1.23l.81.81v.27l-.81.81h-1.92l-1.11,1.11v2.26c0,.38.11.49.49.49h3.84a.49.49,0,0,0,0-1h-3.35v-1.09l.81-.81h1.92l1.11-1.11v-1.65l-1.11-1.11Z"/><path d="M118.2,212.4c-.38,0-.49.11-.49.49v4l-3-4.46h-.86v6.25c0,.38.11.49.49.49a.48.48,0,0,0,.49-.49v-4l3,4.46h.37a.48.48,0,0,0,.49-.49v-5.76A.48.48,0,0,0,118.2,212.4Z"/><path d="M124.07,213.37l-.6-.6a.48.48,0,0,0-.48-.37h-2.88c-.38,0-.49.11-.49.49v5.76c0,.38.11.49.49.49a.48.48,0,0,0,.49-.49v-2.39H123a.48.48,0,0,0,.48-.37l.6-.6a.47.47,0,0,0,.37-.48v-1A.47.47,0,0,0,124.07,213.37Zm-3.47,0h2l.81.81v.27l-.81.81h-2Z"/><path d="M129.72,212.4h-3.84c-.38,0-.49.11-.49.49s.11.49.49.49h1.43v5.27c0,.38.11.49.49.49a.48.48,0,0,0,.49-.49v-5.27h1.43a.49.49,0,0,0,0-1Z"/><path d="M183.95,212.08l5.58,2.79.44-.44V214l-4.23-4.23h-.46l-.39.47-35.83-26.1-.07,0h-6.19l-.39.39v.1a.48.48,0,0,0,.49.49h5.68l35.63,26-.28.34Z"/><path d="M34.27,181.21h-4l-.39.39v.1a.48.48,0,0,0,.49.49h3.08l-2.58,5.16,0,.11a.48.48,0,0,0,.49.49h.39l2.95-5.9,0-.84h-.42Z"/><path d="M39.51,181.55l-3.88,5.82v.08a.48.48,0,0,0,.49.49h.37l4-5.93v-.81H40.2C39.87,181.2,39.81,181.24,39.51,181.55Z"/><path d="M45.83,182.17l-.61-.61a.7.7,0,0,0-.07-.15.46.46,0,0,0-.4-.21h-2l-.39.39v.1a.52.52,0,0,0,0,.12l-.36.36h-.23l-.39.39v1.06a.43.43,0,0,0,.18.38l.07,0,.12,0,.6.6h0l-.36.36h-.23l-.39.39v1.06a.43.43,0,0,0,.18.38l.07,0,.12,0,.6.6a.48.48,0,0,0,.48.38H45.1l1.11-1.11v-1.3a.48.48,0,0,0-.37-.48l-.36-.36.74-.74v-1.3A.48.48,0,0,0,45.83,182.17ZM44.76,187H42.94l-.57-.57v-.51l.81-.81h1.47l.57.57v.86a.53.53,0,0,0,0,.12l-.36.36Zm-.1-4.78.57.57v.86a.52.52,0,0,0,0,.12l-.36.36H42.94l-.57-.57V183l.81-.81Z"/><path d="M59.26,181.2h-.1a.48.48,0,0,0-.49.44l-1.43,4.29-.47-1.42a.49.49,0,0,0-1,0l-.47,1.42-1.43-4.29a.48.48,0,0,0-.49-.44h-.1l-.07.07c-.27.27-.31.33-.31.66l2,6h.84l.54-1.62.54,1.62h.84l2-5.93v-.08c0-.32,0-.38-.31-.66Z"/><path d="M65,182.17l-.6-.6a.47.47,0,0,0-.48-.37H61l-.39.39v5.86a.48.48,0,0,0,.49.49c.38,0,.49-.11.49-.49v-2.39h.13l2.88,2.88h.83v-.59l-2.29-2.29H64.3L65.41,184v-1.3A.48.48,0,0,0,65,182.17Zm-3.47,0h2l.81.81v.51l-.57.57H61.57Z"/><path d="M70.68,182.18c.38,0,.49-.11.49-.49a.48.48,0,0,0-.49-.49H66.73l-.39.39v5.86a.48.48,0,0,0,.49.49h3.84c.38,0,.49-.11.49-.49a.48.48,0,0,0-.49-.49H67.33v-1.9h1.43c.38,0,.49-.11.49-.49a.48.48,0,0,0-.49-.49H67.33v-1.9Z"/><path d="M76.44,181.2a.48.48,0,0,0-.49.49v4.21l-2.87-4.31a.61.61,0,0,0-.06-.16.29.29,0,0,0-.06-.08l-.11-.09a.54.54,0,0,0-.24-.06H72.5l-.39.39v5.86a.48.48,0,0,0,.49.49c.38,0,.49-.11.49-.49v-4l3,4.46h.86v-6.25A.48.48,0,0,0,76.44,181.2Z"/><path d="M81.24,181.2H79.32a.47.47,0,0,0-.48.37l-.6.6a.48.48,0,0,0-.37.48v4.18L79,187.94h2.61l1.11-1.11v-.45l-.07-.07c-.15-.15-.25-.25-.42-.25s-.26.1-.42.25l-.65.65H79.42l-.57-.57V183l.81-.81h1.23l1,1h.83v-.59l-1-1A.47.47,0,0,0,81.24,181.2Z"/><path d="M88,181.2a.48.48,0,0,0-.49.49v2.39H84.61v-2.39a.49.49,0,1,0-1,0v5.76c0,.38.11.49.49.49s.49-.11.49-.49v-2.39h2.86v2.39c0,.38.11.49.49.49s.49-.11.49-.49v-5.76A.48.48,0,0,0,88,181.2Z"/><path d="M89.88,181.2a.48.48,0,0,0-.49.49c0,.38.11.49.49.49h.47V187h-.47a.48.48,0,0,0-.49.49c0,.38.11.49.49.49H91.8a.48.48,0,0,0,.49-.49v-.1L91.9,187h-.57v-4.78h.47a.48.48,0,0,0,.49-.49v-.1l-.39-.39Z"/><path d="M97.07,181.69v4.22l-2.93-4.39-.31-.31h-.59v6.25c0,.38.11.49.49.49a.48.48,0,0,0,.49-.49v-4l3,4.46h.38a.55.55,0,0,0,.24-.07.31.31,0,0,0,.09-.07l.09-.11a.57.57,0,0,0,.06-.24v-5.86l-.39-.39h-.1A.48.48,0,0,0,97.07,181.69Z"/><path d="M100.78,182.18h2.54a.48.48,0,0,0,.49-.49v-.1l-.39-.39h-3a.47.47,0,0,0-.48.37l-.6.6a.48.48,0,0,0-.37.48v4.18l1.11,1.11h3.22a.48.48,0,0,0,.49-.49v-3l-.39-.39h-1.06a.48.48,0,0,0-.49.49c0,.38.11.49.49.49h.47V187h-2.29l-.57-.57V183Z"/><path d="M111.49,184.08v-1.9h3.35a.48.48,0,0,0,.49-.49v-.1l-.39-.39H111a.48.48,0,0,0-.49.49v5.76c0,.38.11.49.49.49a.48.48,0,0,0,.49-.49v-2.39h1.43a.48.48,0,0,0,.49-.49v-.1l-.39-.39Z"/><path d="M116.76,187.94h3.84a.48.48,0,0,0,.49-.49v-.1l-.39-.39h-3.45v-5.37l-.39-.39h-.1a.48.48,0,0,0-.49.49v5.76C116.27,187.83,116.38,187.94,116.76,187.94Z"/><path d="M126.36,187.94a.48.48,0,0,0,.49-.49v-1.92l-1.95-4-.37-.39-.12,0h-.46v.43l-1.77,3.54a.51.51,0,0,0-.15.36v1.92c0,.38.11.49.49.49a.48.48,0,0,0,.49-.49V186h2.86v1.43C125.87,187.83,126,187.94,126.36,187.94Zm-1.92-5,1,2.07H123.4Z"/><path d="M128.28,181.2a.48.48,0,0,0-.49.49c0,.38.11.49.49.49h1.43v5.27c0,.38.11.49.49.49a.48.48,0,0,0,.49-.49v-5.27h1.43a.48.48,0,0,0,.49-.49v-.1l-.39-.39Z"/><path d="M135,187h-.12l-.6-.6a.37.37,0,0,0-.73.12v.34l1.11,1.11h2.26a.48.48,0,0,0,.48-.37l.6-.6a.38.38,0,0,0,.31-.36.37.37,0,0,0-.22-.33.36.36,0,0,0-.14-.16.34.34,0,0,0-.13,0l-3.3-3.3.59-.59h1.47l1,1h.34a.39.39,0,0,0,.43-.37.38.38,0,0,0-.31-.36l-.6-.6a.52.52,0,0,0,0-.12v-.1l-.39-.39h-2a.43.43,0,0,0-.37.17l-.06.07a.57.57,0,0,0,0,.12l-.66.66a.34.34,0,0,0-.13,0,.42.42,0,0,0-.18.37V183l3.62,3.62-.35.35Z"/><path d="M244.21,257.39l-2.92-1.75,2.79-1.49.37-.36v-.18a1.45,1.45,0,0,0,0-.17v-.25H244l-2.53-1.63,2.95-1.57v-.74l-.08-.07a.69.69,0,0,0-.23-.14l-2.82-1.69,2.46-1.31.53,0,.07-.08.07-.08.16-.15.08-.09v-.16a1.21,1.21,0,0,0,0-.17V245h-.25l-.08,0a.59.59,0,0,0-.24-.07l-2.59-1.66,2.79-1.49a.6.6,0,0,0,.29-.16l.08-.07v-.32l.11-.06h-.11a.61.61,0,0,0-.09-.24.46.46,0,0,0-.41-.21h-.08l-2.56-1.53,2.94-1.57h.43v-.25a1.29,1.29,0,0,0,0-.17v0l0-.12-.37-.36L242,235l2.95-1.57v-.77L242,230.92l2.75-1.46a.63.63,0,0,0,.17-.06.27.27,0,0,0,.08-.07l.1-.12a.56.56,0,0,0,.06-.24V223.7h.33l.24-.24h.14l.54-.24h.28l.24-.24h.24l.48-.48h.48l.48-.48h.24l.39-.39V208l-.63-.63h-.24l-.17-.17-.55-.29-.25,0-.48-.48h-.24l-.24-.24H246l-.24-.24h-.48l-.24-.24h-.09v-4.55l-.24-.76V199l-.24-.76v-8.08l.23-.68V188l.23-.68v-.56a1,1,0,0,0,0-.11s0-.08,0-.13v-1.93h-.24v-.46h.24V123.25l-.75-.56.51-.39V78.63l-1.11-1.11H225.25V67.15l1.63-.15a.54.54,0,0,0,.64,0L230,66.5a.49.49,0,0,0,.41-.13l2.07-.75a.55.55,0,0,0,.55-.12l2.12-1.06a.3.3,0,0,0,.22,0,.3.3,0,0,0,.09-.08.34.34,0,0,0,.27-.17l2.26-1a.43.43,0,0,0,.28-.15l2.4-1.31,2.79-1.27v-.07l2.19-.8H264l.24.24h.48L265,60h.48l.24.24h3.57l.24-.24H270l.24-.24h.48l.24-.24h75.14l-.63,3.15.35.69h.38v89.27a.48.48,0,0,0,.49.49h.1l.39-.39V63.38h.14l.34-.69-.42-3.15h6.16a.48.48,0,0,0,.49-.49v-.1l-.39-.39H272.64l.37-.37V58l.72-.72v-.09H274v-.39l.48-.48V56l.24-.24v-.72l.24-.24v-.72l.15-.15,1.32-.19,2.84-.48a.49.49,0,0,0,.48-.55l-.23-.9a.35.35,0,0,0-.2-.33.38.38,0,0,0-.39.09l-.6.05v-.53a.48.48,0,0,0-.49-.49h-2.87v-.09l-.24-.24v-.72l-.24-.24v-.24l-.48-.48v-.24l-1-1v-.24l-.39-.39h-.24l-.48-.48h-.24l-.24-.24h-.09v-.24h-.39l-.24-.24h-.48l-.24-.24h-.48l-.24-.24h-3.57l-.24.24H265l-.24.24h-.48l-.24.24h-.39v.24h-.09l-.24.24h-.24l-.48.48h-.39v.39l-.72.72V48h-.09l-.39.39v.24l-.24.24V49h-.24v.63l-.24.24v.48l-.09.09h-2.52l-2.9-.24h-2.62l-5.74-.48-2.62-.48-1.19-.3.15-.31,0-.34H243v-.69l.23-.68v-1l.23-.68V39.13l-.24-.54v-.66l-.24-.54V37l-.24-.76v-.44l-.48-1v-.66l-1.95-4-.5-.52-.46-.92-.5-.52-.46-.92-3.65-3.67-1-.51-.45-.45-1-.51-.45-.45-3.91-2-.77,0-.91-.45-.55,0-.68-.23h-.5l-.43-.21-1.25,0-.43-.21-5.63,0-.76.24h-.44l-.54.24h-.42l-.76.24h-.44l-.54.24h-.42l-.83.27-2.85,1.43-.75.25-1,.52-.21.42h-.19l-.29.28-.44.22-.52.5-.92.46L202,26.23l-.27.51-1.17,1.17-.27.51-.45.45-2,3.94-.23.69-.72,1.44,0,.55-.21.65-.24.48,0,.53-.21.43,0,1-2.5-3.5H193l-.62.62L158.27,2a.69.69,0,0,0-.07-.15.46.46,0,0,0-.4-.21H135.48a.48.48,0,0,0-.49.49c0,.38.11.49.49.49h22.22l33.83,33.83-.67.67.32.64,4.77,3.45v3.88l.24.54v1l.24.24v.86l.25.56,0,.1-.9,2.17-.05.09a.3.3,0,0,0-.13.13.33.33,0,0,0,0,.31L195,54v0l.5,3.23,1.23,2.93,1.92,2.64,2.5,2,2.42,1.1a.53.53,0,0,0,.2.1.41.41,0,0,0,.35.12l.06,0,2.57.64,2.9.24h4.55V77.52H195.83l-.74,1-.13.06a.46.46,0,0,0-.21.4V98.85l-2.5-3.57h-.46l-.55.46L147.72,51.5a.48.48,0,0,0-.48-.38h-14.4c-.38,0-.49.11-.49.49a.48.48,0,0,0,.49.49h14.29l43.47,44.17-.41.34v.73l4.4,3.08.16.23v21.28a.47.47,0,0,0,.37.48l.22.22-.83.62v60.12a.92.92,0,0,0,0,.11s0,.08,0,.13v.1l.24.24v.75l-.24.24v.1a1,1,0,0,0,0,.11s0,.08,0,.13v1.2a.88.88,0,0,0,0,.1s0,.08,0,.14v.48l.24.76v1.4l.24.76v8.08l-.23.68v1.48l-.23.68v4.72l-.29.14h-.52l-.24.24h-.14l-.54.24h-.28l-.48.48h-.24l-.48.48h-.48l-.63.63v13.65l.39.39h.48l.48.48h.24l.48.48h.24l.24.24h.48l.24.24h.24l.24.24h.33v7.53l.31.31,2.85,1.53-2.92,1.75v.77l2.95,1.57-2.55,1.64a.68.68,0,0,0-.19.08.46.46,0,0,0-.21.4v.1l.31.31,2.85,1.53L194.75,243v.78l3.14,1.57-2.82,1.7-.25.25L192,245h-.47l-.31.55L140.88,216l-.06,0h-6.17l-.39.39v.1a.48.48,0,0,0,.49.49h5.69l50.21,29.51-.24.41v.48l5.89,2.3.43-.87-.17-.14,1.33.71L195,251.15V252h.43l2.73,1.46-2.92,1.75v.14a.14.14,0,0,1,0,.08.67.67,0,0,0,0,.11.29.29,0,0,0,0,.12v.1l0,0a.77.77,0,0,0,.14.2l2.93,1.58-.6.24v.75l1.35,1.35h41.68l3.55-1.78Zm-50.07-34.91h-.48l-.24-.24h-.24l-.24-.24h-.24l-.24-.24h-.24l-.48-.48h-.24l-.33-.33V208.58h.09l.48-.48H192l.48-.48h.24l.24-.24h.24l.24-.24h.14l.54-.24h.52l.24-.24h1.2l.24-.24h1.28l.43.21,1,0,.43.21.49,0,.24.24h.24l.24.24h.48l.24.24h.24l.48.48h.24l.33.33v12.75l-.09.09h-.24l-.48.48h-.24l-.24.24h-.14l-.54.24h-.28l-.24.24h-.24l-.24.24H199l-.24.24h-3.55a.47.47,0,0,0-.42-.24h-.38Zm52.35-15.1.24.24H247l.48.48h.22l-.06.06.32.16-.26.26h.59v12.37l-.33.33h-.74l.26.26-.24.22H247l-.24.24h-.24l-.24.24H246l-.24.24h-.14l-.54.24h-.42a.47.47,0,0,0-.42.24H240.7l-.24-.24h-.72l-.24-.24h-.24l-.24-.24h-.24l-.24-.24h-.29l-.43-.21-.25,0-.48-.48h-.24l-.09-.09V208.43l.33-.33h.24l.48-.48h1l-.24-.24h.22l.24-.24h.24l.24-.24h.72l.24-.24h1.2l.24-.24h1.23l.24.24h1.2l.24.24h.72l.24.24H246l.24.24ZM197.44,251l1.72-1.11,41.45-1.92h.07l2.05,1.23Zm42.81-4-41.12,1.9-1.89-1,44.64-1.76-1.42.75A.52.52,0,0,0,240.25,247Zm-40.84,7,40.88-1.9,1.94,1.24L197.54,255Zm42.49-3.74-1.61.86-40.94,1.91-2-1Zm-.26,4.09-1.6.85L199.32,257a.5.5,0,0,0-.24.06L197.31,256Zm-44.33-7.39,1.85-1.11,41.44-1.91h.1l.07-.07h0l2,1.31Zm43.4-4.1h0a.58.58,0,0,0-.26.07l-.07,0-.28,0v0l-41,1.88-2-1,45.52-2Zm-41.8-1.09,41.62-2.14.13.06,2,1.17-45.54,2Zm0-1-1.9-1,45.36-2-1.4.84Zm41.9-5.24,1.95,1.25-45.75,2,1.71-1.1Zm1.6-1.83-1.6.85-42.12,2.15-1.9-1Zm0-4.07-1.6.86-42.11,2.13-1.9-1Zm-43.66,4,42.1-2.13,2.06,1.23-46,2Zm45-49.66v.94h-48v-.94ZM225,206.66l.72.24h1.42l1,.25h.68l.68.23h.76l.68.23h.76l1.4.47h.76l2,.65v12.12l-1.23.41h-.68l-1.48.48h-.68l-1.48.48h-.68l-.76.24h-1.64l-.76.24H225l-.76.24h-9l-.68-.23H213l-.72-.24H210.9l-1-.25h-.68l-1.4-.47H207l-1.4-.47h-.76l-1.23-.41V208.75l2-.65h.68l1.48-.48h.68l.76-.24h.74l.9-.23h.72l.76-.24h1.4l.76-.24h2.36l.76-.24h4.48l.68.23ZM231.1,223l.66-.22h.92l1.48-.48h.68l1.19-.38.14.14h.24l.48.48h.24l.17.17.56.29ZM236,207.74l-1.83-.61h-.76l-.7-.23-1-.25H231l-.66-.22h7.69l-.26.26-.39.2h-.29l-.48.48h-.24Zm-27-1.32-.66.22h-.68l-1.48.48h-.92l-1.91.62-.38-.38h-.24l-.48-.48h-.24l-.17-.17-.56-.29ZM203.26,222l.14-.14,1.15.38h.7l.94.23.72.24h.76l.66.22h-6.5l.46-.46h.24L203,222Zm40.93,1.92v4.56l-48.94,2.12v-6.68Zm-48.7-22.77.23-.68V199l.21-.43,0-8.51-.24-.76v-1.4l-.24-.76v-1.39h48.46v1.39l-.23.68v1.48l-.23.68v8.48l.24.54v1.38l.24.76v4.51h-.37l-.24-.24H196.09l-.24.24h-.37Zm48.46-18.29H195.49V124.1h48.46Zm-.24-61.44h-48v-42h48ZM199.23,258.11a.59.59,0,0,0,.25-.07l.08,0,40.51-1.91,2.05,1.23L203.88,259h-4.46l-.6-.6Zm42.28.24-1.21.61H227.21ZM197.86,35.88l0-.53.23-.46.23-.69.24-.48,0-.53.92-1.83.45-.45L201,29l1.17-1.17.27-.51L205,24.7l.44-.22.52-.5.44-.22.52-.5,1.23-.62-.08-.08.94-.47,1.11-.37-.06-.06,2.54-1.24H213l.83-.27.43-.21h.42l.54-.24h1.14l.54-.24h5.88l.43.21.55,0,.68.23h.5l.43.21.55,0,.65.21.48.24.53,0,4.23,2.12.45.45,1,.51.45.45.51.27.69.69.47.25.2.41.53.54.47.25.2.41.74.76.22.44.5.52.46.92.5.52,2.12,4.23v.42l.38,1.18.06-.06,0,.12v.44L242,37v.42l.24.76v.44l.24.54v5.88l-.21.43,0,1.25-.21.43,0,.55,0,.12-.06-.06-.31.93h-.31V49a.6.6,0,0,0,.14.47c-.23,0-.34.1-.37.31a.3.3,0,0,0-.1.12.41.41,0,0,0,.11.42l-.72,1.44,0,.73-.41.41-.75,1.47-.21.21-.27.51-.45.45-.51,1-1.17,1.17-.25.47-.4.2-.23.21h-1.05l.14-.28.48-.24.24-.48.48-.24.26-.52.69-.69.27-.51.45-.45.27-.51.21-.21,1.47-2.91.29-.28V51l.17-.17.53-1,0-.77.45-.91,0-.53.21-.43,0-.53.21-.43,0-1.49.21-.43,0-3.71-.24-.76v-1.4l-.24-.54v-.42l-.24-.54v-.42l-.48-1V35l-1-2v-.42l-.51-1.07-.5-.52-.46-.92-.26-.28-.53-1.06h-.24l-.17-.34-1-1-.22-.44-.84-.86h-.19l-.21-.42-.52-.26-.69-.69-.51-.27-.21-.21-.51-.27-.45-.45-1.47-.75-.21-.21-1.51-.77-.53,0-1.39-.69-.53,0-.43-.21-.77,0-.43-.21-.53,0-.43-.21-1.49,0-.43-.21-3.23,0-.54.24h-1.62l-.54.24h-.42l-.54.24h-.42l-.54.24h-.42l-1,.48h-.42l-4,1.95-.76.74-.92.46-.76.74-.52.26-.24.48-.48.24-.24.48-.48.24-.26.52-.29.28v.19l-.42.21-.48,1-.48.24-1,2-.21.21-1.25,2.46,0,.53-.45.91,0,.53-.21.43,0,.77-.21.43,0,.53-.21.43,0,1.49-.18.37-.74-1,.21-.63V38l.21-.43,0-.77Zm65.88,11.18H264l.24-.24h.24l.24-.24h.24l.24-.24h.48l.24-.24h3.15l.24.24h.48l.24.24h.24l.24.24h.24l.24.24h.24l.48.48h.09v.09l.39.39h.24l.09.09v.24l.48.48v.74l.25-.25.23.23v.24l.24.24v.48l.24.24v.48l.24.24v2.43l-.24.24v.48l-.24.24v.48l-.24.24v.24l-.24.24v.09H273v.39l-.48.48v.24l-.09.09h-.24l-.39.39v.09h-.09l-.48.48H271l-.24.24h-6.51l-.24-.24h-.24l-1-1h-.24l-.09-.09V57l-.48-.48v-.39h-.24v-.09l-.24-.24v-.24l-.24-.24v-.48l-.24-.24v-.72l-.24-.24V52.1H261V50.75l.24-.24V50l.24-.24v-.24l.23-.23.25.25v-.74l.48-.48v-.24l.09-.09h.24ZM235.39,63.49l.22-.11-.19.11Zm-2.62,1.2,2.15-1,0,.06-2,.93Zm-.43.18,0,0-.1,0ZM196.4,56.76v0l-.11-.71Zm10.64,8-2.6-.47-2.33-1.16-1.91-1.49a.34.34,0,0,0-.06-.1.38.38,0,0,0-.15-.11l0,0-1.61-2.25-.95-2.61,0-.08L196.93,54l.46-2.55.21-.56.27.53v.18l1.95,4,.5.52.26.52.42.21V57l.77.76.22.44,1.25,1.27.47.25.2.4.53.55,1,.51.45.45.95.49.24.48,1,.52.29,0,3.31,1.65.77,0,.92.46h-.61Zm7.15-.48h-.43l-.68-.23h-.5l-2.86-1.43-.69-.23-.92-.46-.21-.21-.51-.27-.45-.45-1-.51-.45-.45-.47-.25-.36-.72-.19.19-2.08-2.07-.22-.44-.5-.52-.26-.52-.48-.24L200,53.66l-.5-.52-.92-1.83v-.42l-.27-.83-.24-.48h0a.41.41,0,0,0,.05-.54s0,0,0-.07v-.25h-.24l-.09-.23.06-.13,0-.11c0-.32,0-.38-.31-.66l-.08-.08h-.09V47l-.24-.54v-.9l-.24-.76v-2.9l.52.37.18.25v.88l.24.54v1.62l.24.54V47l.24.54V48l.48,1v.42L201,53.88l.26.28.46.92.74.76.22.44,2.93,2.94.51.27.69.69,1,.51.45.45,1,.51.21.21,1,.53.53,0,1.39.69.53,0,.91.45.34,0Zm37-6.46a.57.57,0,0,0,.27,0l2.64-.44,2.62-.71,3.79-.63v.4h.24v.09l.24.24v.39h.24v.24h.24v.09l.72.72v.37H249.28ZM256.13,55l-2.64.44-2.63.72-2.9.73-2.61.95a.47.47,0,0,0-.21.07l-1.94.65h-6.08l1-1,.27-.51.45-.45.49-1,.48-.24,1-2,0-.29,1.25-2.49,1.14.28h.2l2.57.47a.41.41,0,0,0,.37.11l.08,0,2.53.42,2.9.24h7.91v1.77l.24.24v.13h-.77l-2.82.71A.65.65,0,0,0,256.13,55Zm-13.56,4.88h0l-.1,0ZM201.2,32.32l.21-.21,1-1.95.21-.21.27-.51.69-.69.25-.47.48-.24.24-.48.48-.24.24-.48.48-.24.24-.48,1-.48.24-.48,1.37-.68.28-.26,2.84-1.42.23-.21h.38l1-.48h.42l.54-.24h.42l.76-.24h.44l.54-.24h.9l.54-.24h3.48l.43.21,1.49,0,.43.21.53,0,.43.21.53,0,.43.21.53,0,.91.45.53,0,1.88.94-.08.08,2.19,1.1.69.69.51.27.69.69.51.27,1.62,1.62.22.44.74.76.5,1,.48.24L238.69,33l.26.28,0,.08h-.24l.88,1.75v.42l.48,1V37l.24.54v.42l.24.54v1.62l.24.54v3.24l-.21.43,0,1.73-.21.43,0,.53-.21.43,0,.53-.11.23-1.51-.57a.46.46,0,0,0-.22-.09l-1.66-.71L233,45.62l-2.67-1L227.75,44a.52.52,0,0,0-.32-.08l-2.63-.72L222,42.74a.4.4,0,0,0-.37-.11l-.08,0-2.24-.37a.49.49,0,0,0-.21,0,.39.39,0,0,0-.35-.1l-.08,0-2.53-.42-2.9-.24H210.1l-2.86.24a.66.66,0,0,0-.31,0l-2.57.43h-.24l-2.8,1.25-2.12,1.69a.33.33,0,0,0-.15,0,.36.36,0,0,0-.17.16l0-.07V43.93l-.24-.54V40.87l.21-.43,0-1.49.21-.43,0-.53.21-.43,0-.53.21-.43,0-.53.21-.43,0-.53ZM205.6,43l-1,.18h-.1Zm19.65,20.6.53-.24h.66l1.5-.72h.42l.59-.27.28-.26L231.59,61l.76-.74.92-.46.23-.21h1.21l-.47.25L233,61l-1.4.7-.52.5-2.31,1.16h-.42l-.56.25-.75.25-.43.21h-.42l-1,.45Zm.55,1.67.68-.23h.44l1.52-.73.68-.23h.69v-.24h.33l.52-.52L233,62.15l.52-.5.44-.22.76-.74.44-.22,1-.93h4.69l-1.06.48-2.37,1.42a.44.44,0,0,0-.24.12l-5.05,2.3-2.35.95-2.62.48-1.59.13Zm-11.61-2.68-.36-.18-.53,0-1.39-.69-.53,0L210,61l-.21-.21-1.91-1-.24-.48-1-.5-.69-.69-.47-.25-.24-.48-.48-.24-.2-.41-1.46-1.48-.22-.44-.26-.28-.5-1-.48-.24-1.14-2.27v-.42l-.27-.59-.26-.28-.2-.39V49l-.48-1v-.17h.12l.78-1,2.11-1.64,2.33-.94,2.36-.59.13.13,3-.25h3.1l5.5.48,2.88.48,2.62.48,2.88.72,2.34.64a.43.43,0,0,0,.26.09.43.43,0,0,0,.29.11h0l2.32.84L234,48l3.53,1.1a.47.47,0,0,0,.33.11l1.49.64-.46.92,0,.47-.06-.06-1.1,2.19-.69.69-.51,1-.69.69-.25.47-.48.24-.26.52-.66.66-.44.22-.71.69h-7.2l-.39.39V59a.48.48,0,0,0,.49.49h5.88l-.26.26-2.67,1.34.08.08-1.4.7h-.42l-1,.48h-.42l-.47.21v-2a.48.48,0,0,0,.18-.34c0-.16-.1-.26-.25-.42l-1.27-1.27h-8.37l-1.35,1.35Zm9.27-3.07.22.22h-7.91l.22-.22Zm-8.29,1.2h9.1V62.4h-4.55a.48.48,0,0,0-.49.49V63l.38.38a.47.47,0,0,0-.38.48V64l.39.39h1.78l.54-.24h1.38l.54-.24h.41v.8l-.29.14h-.9l-.76.24h-2.7l-.39.39v.1a.49.49,0,0,0,0,.12v.12c0,.34.09.47.37.49a.47.47,0,0,0-.37.47c0,.38.11.49.49.49h4.55v10.3h-9.1Zm34.06-9.84h0l.36,0Z"/><path d="M353.4,259h-6.16l.42-3.15-.34-.69h-.14V165.75l-.39-.39h-.1a.48.48,0,0,0-.49.49v89.27h-.38l-.35.7.63,3.15H243c-.38,0-.49.11-.49.49a.48.48,0,0,0,.49.49H353.5l.39-.39v-.1A.48.48,0,0,0,353.4,259Z"/><path d="M341.41,159.77l-.48-.72v-.27l-.25-.25a.39.39,0,0,0-.25-.3.35.35,0,0,0-.17,0l-.46-.31h-.2l1.09-1.5a.52.52,0,0,0,.24-.42v-.34l-.07-.07c-.16-.16-.32-.22-.46-.16a.3.3,0,0,0-.11.08h-3.2c-.38,0-.49.11-.49.49a.48.48,0,0,0,.49.49h2.52l-1,1.42h-.15l-.39.39v.1a.42.42,0,0,0,.17.37l.07.06a.56.56,0,0,0,.24.06h.92l.27.09.29.29.44.87v.36l-.45.91,0,.11v0l-.34.23-1.1.55v.39a.35.35,0,0,0,.2.33l.12,0a.46.46,0,0,0,.29-.13l.84-.22a.47.47,0,0,0,.48-.37l.25-.25.1,0a.35.35,0,0,0,.13-.23l.46-.92,0-.83V160a1.46,1.46,0,0,0,0-.17Z"/><path d="M343.32,161.52l-.73.34v.79l.41.2a.39.39,0,0,0,.11.08l0,.08a.35.35,0,0,0,.28.14.38.38,0,0,0,.36-.31l.18-.18c.15-.15.25-.25.25-.42s-.1-.26-.25-.42l-.31-.31Z"/><path d="M349.08,163c.38,0,.49-.11.49-.49v-1.67h1.19a.48.48,0,0,0,.49-.49v-.1l-.39-.39h-1.29v-4.17l-.07-.07a.42.42,0,0,0-.59-.1l-.06,0h-.13l-3.24,4.73v.57h3.12v1.67A.48.48,0,0,0,349.08,163Zm-.49-5.46v2.32H347Z"/><path d="M357.18,160.09l-.19-.56-.79-.83.12,0a.44.44,0,0,0,.41-.35l.25-.5,0-.11a1.47,1.47,0,0,0,0-.17v-.63a1.39,1.39,0,0,0,0-.16l-.27-.59-.34-.35-.85-.21-.12,0a.38.38,0,0,0-.4-.1.3.3,0,0,0-.11.08h-.63a.31.31,0,0,0-.12-.08.38.38,0,0,0-.4.09l-.07,0-.78.2a.48.48,0,0,0-.49.42l-.22.44,0,1.07.27.59,0,.07.11.11.13.13.23.13-.71.71-.23.62a.59.59,0,0,0-.09.27v1.2l.24.54v.33l.38.19a.34.34,0,0,0,.29.14l.79.19.12,0a.45.45,0,0,0,.28.12l.12,0a.31.31,0,0,0,.12-.08h.63a.3.3,0,0,0,.11.08.37.37,0,0,0,.4-.09l.07,0,.89-.23.62-.31v-.33l.21-.43,0-1.33A.59.59,0,0,0,357.18,160.09Zm-1.15-2.7-.17.33-.79.26v.08l-.55.18-.77-.31-.41-.2-.18-.35V157l.16-.33.79-.2h.9l.91.22.1.3Zm-3.1,3.22.21-.63.41-.41.67-.33a.46.46,0,0,0,.26-.12l.09,0,.1,0a.31.31,0,0,0,.09.08.31.31,0,0,0,.22,0l.33.17v.1l.74.5a.43.43,0,0,0,0,.11l.17.51v.62l-.2.39-.18.18-.44.22-1.67,0,0,0-.58-.29-.24-.5Z"/><path d="M4.47,69.84,2.86,66.61a.32.32,0,0,0,0-.2.32.32,0,0,0-.11-.11.32.32,0,0,0-.11-.11.3.3,0,0,0-.21,0,.3.3,0,0,0-.21,0,.32.32,0,0,0-.11.11.31.31,0,0,0-.14.31L.26,70a.48.48,0,0,0-.11.16.3.3,0,0,0-.12.14.39.39,0,0,0,.08.39v1.59c0,.38.11.49.49.49a.48.48,0,0,0,.49-.49V70.82H3.95v1.43c0,.38.11.49.49.49a.48.48,0,0,0,.49-.49v-2l-.39-.39Zm-3.23,0L2.4,67.53l1.16,2.31Z"/><path d="M10.45,72.08V66.49A.48.48,0,0,0,10,66h-.1l-.39.39V70.7L6.85,66.77v-.39L6.46,66h-.1a.43.43,0,0,0-.38.18l0,.07,0,0-.08,0a.35.35,0,0,0-.15.28.36.36,0,0,0,.18.31v5.33c0,.38.11.49.49.49a.48.48,0,0,0,.49-.49v-4l2.62,3.93v0a.47.47,0,0,0,.38.48.48.48,0,0,0,.29.12l.12,0a.31.31,0,0,0,.18-.23.4.4,0,0,0,.1-.4A.3.3,0,0,0,10.45,72.08Z"/><path d="M16.39,67.57a.36.36,0,0,0-.23-.33.46.46,0,0,0-.33-.27l-.61-.61a.72.72,0,0,0-.07-.15.46.46,0,0,0-.4-.21h-3l-.39.39v.1a.48.48,0,0,0,.49.49h.47v4.78h-.57l-.39.39v.1a.48.48,0,0,0,.49.49h2.69l0,0a.35.35,0,0,0,.28.15.38.38,0,0,0,.36-.31l.84-.84a.38.38,0,0,0,.31-.36.36.36,0,0,0-.18-.31V67.88A.36.36,0,0,0,16.39,67.57ZM13.33,67h1.33l.57.57v3.74a.52.52,0,0,0,0,.12l-.36.36H13.33Z"/><path d="M25.67,66.26a.4.4,0,0,0-.53,0l-.06,0h-.15l-.06.12a.35.35,0,0,0-.15-.1.4.4,0,0,0-.53,0l-.06,0H24l-1,2.06,0,.11a.49.49,0,0,0,.29.45.3.3,0,0,0,.14.12l.12,0a.55.55,0,0,0,.35-.18l.11-.22a.45.45,0,0,0,.24.25.3.3,0,0,0,.14.12l.12,0a.55.55,0,0,0,.35-.18l1-2a.4.4,0,0,0,.13-.43A.33.33,0,0,0,25.67,66.26Z"/><path d="M30.59,72.25a.47.47,0,0,0,.3.45.31.31,0,0,0,.14.12l.12,0a.51.51,0,0,0,.35-.18l.07-.07v-6.1a.48.48,0,0,0-.49-.49H31l-.39.39V70.7l-2.87-4.31a.71.71,0,0,0-.08-.18.46.46,0,0,0-.4-.21h-.1l-.39.39v5.86a.48.48,0,0,0,.49.49c.38,0,.49-.11.49-.49V67.92l2.86,4.29Z"/><path d="M37.33,67.45A.48.48,0,0,0,37,67l-.61-.61a.75.75,0,0,0-.07-.15.46.46,0,0,0-.4-.21h-3l-.39.39v.1A.48.48,0,0,0,33,67h.47v4.78h-.57l-.39.39v.1a.48.48,0,0,0,.49.49h2.69l0,0a.35.35,0,0,0,.28.15.38.38,0,0,0,.36-.31l1-1v-1.3a.48.48,0,0,0-.37-.48l-.36-.36.74-.74Zm-1,1.08-.36.36H34.45V67h1.33l.57.57v.86A.52.52,0,0,0,36.36,68.53Zm-1.91,1.33h1.25a.36.36,0,0,0,.12.12.34.34,0,0,0,.13,0l.41.41v.86a.53.53,0,0,0,0,.12l-.36.36H34.45Z"/><path d="M40.5,66.21l-.07,0h-.15l-.08.15h0l-.07-.07a.42.42,0,0,0-.59-.1l-.07,0h-.15l-1,2.06,0,.11a.49.49,0,0,0,.29.45.31.31,0,0,0,.14.12l.12,0a.55.55,0,0,0,.35-.18l.11-.22a.45.45,0,0,0,.24.25.31.31,0,0,0,.14.12l.12,0a.55.55,0,0,0,.35-.18l1-2,0-.46-.07-.07A.42.42,0,0,0,40.5,66.21ZM39,68.65h0Z"/><path d="M51.66,66.25l0,0a.46.46,0,0,0-.4-.21h-2l-.39.39v.1a.52.52,0,0,0,0,.12l-.42.42a.34.34,0,0,0-.13,0,.44.44,0,0,0-.14.82.37.37,0,0,0,.13.15l.12.05,3.13,3.34-.24.32H49.42l-.58-.58a.36.36,0,0,0-.69-.09l-.08,0a.35.35,0,0,0-.15.28.38.38,0,0,0,.31.36l.6.6a.46.46,0,0,0,.27.33.35.35,0,0,0,.63,0h1.31l0,0a.35.35,0,0,0,.28.15.38.38,0,0,0,.36-.31l.66-.66a.38.38,0,0,0,.18-.09.42.42,0,0,0,.13-.32v-.24a.42.42,0,0,0-.13-.32.38.38,0,0,0-.18-.09l-3.31-3.3.59-.59h1.45l.67.89a.63.63,0,0,0,.66.22.41.41,0,0,0,.24-.4v-.34l-1-1A.55.55,0,0,0,51.66,66.25Z"/><path d="M54,66l-.39.39v.1a.48.48,0,0,0,.49.49h1.43v5.27a.48.48,0,0,0,.49.49c.38,0,.49-.11.49-.49V67H58c.38,0,.49-.11.49-.49A.48.48,0,0,0,58,66Z"/><path d="M63.23,72.25a.48.48,0,0,0,.49.49c.38,0,.49-.11.49-.49V70.33a.52.52,0,0,0-.15-.36l-1.8-3.59-.05-.07a.62.62,0,0,0-.34-.16h-.1a.67.67,0,0,0-.39.17l-2,3.91,0,2a.48.48,0,0,0,.49.49c.38,0,.49-.11.49-.49V70.82h2.86ZM61.8,67.77l1,2.07H60.76Z"/><path d="M67.15,70.75a.67.67,0,0,0,.39.17h.11a.59.59,0,0,0,.32-.16l1-2v3.5a.48.48,0,0,0,.49.49c.38,0,.49-.11.49-.49V66.49a.48.48,0,0,0-.49-.49h-.1l-.31.31-1.5,3-1.44-2.87a.48.48,0,0,0-.48-.42h-.1l-.39.39v5.86a.48.48,0,0,0,.49.49c.38,0,.49-.11.49-.49v-3.5l1,1.93Z"/><path d="M74.28,70c.16,0,.26-.1.42-.25l1-1v-1.3a.48.48,0,0,0-.37-.48l-.6-.6a.47.47,0,0,0-.48-.37h-3l-.39.39v5.86a.48.48,0,0,0,.49.49c.38,0,.49-.11.49-.49V69.86h2A.48.48,0,0,0,74.28,70Zm.47-1.73-.57.57H71.89V67h2l.81.81Z"/><path d="M81.49,72.25a.48.48,0,0,0-.49-.49H77.65v-1.9h1.43c.38,0,.49-.11.49-.49a.48.48,0,0,0-.49-.49H77.65V67H81c.38,0,.49-.11.49-.49A.48.48,0,0,0,81,66H77.16a.48.48,0,0,0-.49.49v5.76c0,.38.11.49.49.49H81C81.38,72.74,81.49,72.63,81.49,72.25Z"/><path d="M85.8,72.92c.16,0,.26-.1.42-.25l1-1V67.45a.48.48,0,0,0-.37-.48l-.6-.6A.47.47,0,0,0,85.8,66H82.92a.48.48,0,0,0-.49.49c0,.38.11.49.49.49h.47v4.78h-.47a.48.48,0,0,0-.49.49c0,.38.11.49.49.49h2.54A.48.48,0,0,0,85.8,72.92Zm.47-1.73-.57.57H84.37V67h1.09l.81.81Z"/><path d="M98.77,72.25V66.39L98.38,66H94.44a.48.48,0,0,0-.49.49v5.76c0,.38.11.49.49.49h3.84A.48.48,0,0,0,98.77,72.25Zm-1-5.27v4.78H94.93V67Z"/><path d="M104.09,72.82a.31.31,0,0,0,.14-.13l0,0a.37.37,0,0,0,.09-.07l.09-.11a.56.56,0,0,0,.06-.24V66.39l-.39-.39H104a.48.48,0,0,0-.49.49v4.22l-2.93-4.39L100.3,66h-.1a.48.48,0,0,0-.49.49v5.76c0,.38.11.49.49.49a.48.48,0,0,0,.49-.49v-4l2.93,4.39a.55.55,0,0,0,.35.18Z"/><path d="M113,67h1.23l.83.83a.36.36,0,0,0,.69.09.37.37,0,0,0,.22-.33.37.37,0,0,0-.29-.35l-.68-.9L114.7,66h-2a.42.42,0,0,0-.37.18l0,.05a.56.56,0,0,0-.06.13l-.6.6a.48.48,0,0,0-.37.48v4.18l1,1a.39.39,0,0,0,.23.28.41.41,0,0,0,.16,0,.69.69,0,0,0,.43-.18h1.16a.38.38,0,0,0,.18.15c.2.08.44,0,.69-.25l.66-.88a.37.37,0,0,0,.29-.35.37.37,0,0,0-.22-.33.36.36,0,0,0-.69.09l-.58.58h-1.71l-.57-.57V67.79Z"/><path d="M121.81,72.25V70.33l-2-4.09h-.15l-.08,0-.11,0a.29.29,0,0,0-.12,0h-.1l0,0a.77.77,0,0,0-.2.14L117.14,70a.52.52,0,0,0-.15.36v1.92c0,.38.11.49.49.49a.48.48,0,0,0,.49-.49V70.82h2.86v1.43c0,.38.11.49.49.49A.48.48,0,0,0,121.81,72.25Zm-2.41-4.48,1,2.07h-2.07Z"/><path d="M127.32,68.84l0,0a.46.46,0,0,0,.21-.4V67.35l-.39-.39H127l-.36-.36a.52.52,0,0,0,0-.12v-.1l-.39-.39h-3a.48.48,0,0,0-.49.49v5.76c0,.38.11.49.49.49a.48.48,0,0,0,.49-.49V69.86h2l0,0a.36.36,0,0,0,.61-.08.46.46,0,0,0,.27-.33l.6-.6ZM123.73,67h2l.81.81v.51l-.57.57h-2.29Z"/><path d="M12.94,57.86h1.94l.6.6a.43.43,0,0,0,.08.17.36.36,0,0,0,.61-.08.37.37,0,0,0,.22-.33.38.38,0,0,0-.31-.36l-1-1H12.84a.48.48,0,0,0-.48.37l-.61.61-.15.07a.46.46,0,0,0-.21.4v3.94l.39.39H12l.36.36a.52.52,0,0,0,0,.12v.1l.39.39h2a.43.43,0,0,0,.37-.17l.06-.07a.55.55,0,0,0,0-.12l.84-.84a.38.38,0,0,0,.31-.36.39.39,0,0,0-.43-.37h-.34l-1,1H13.18l-.81-.81V58.43Z"/><path d="M20.15,57.28A.57.57,0,0,0,20,57l-.07-.07h-.34a.4.4,0,0,0-.42.28.34.34,0,0,0,0,.21l-1.69,3.38a.47.47,0,0,0-.32.46v2l.39.39h.1a.48.48,0,0,0,.49-.49V61.7H21v1.53l.39.39h.1a.48.48,0,0,0,.49-.49V61.45s0,0,0-.06a.41.41,0,0,0-.07-.56ZM18.4,60.72l1.28-2.55L21,60.72Z"/><path d="M27.35,59.77a.48.48,0,0,0,.37-.48V58l-1.11-1.11H23.4a.48.48,0,0,0-.49.49v5.86l.39.39h.1a.48.48,0,0,0,.49-.49V60.74h2.39a.43.43,0,0,0,.38-.18l0-.07a.56.56,0,0,0,0-.12Zm-3.47-1.91H26.4l.36.36a.52.52,0,0,0,0,.12v.86l-.57.57H23.89Z"/><path d="M29.05,63.62h.1a.48.48,0,0,0,.49-.49V61.7h2.86v1.53l.39.39H33a.48.48,0,0,0,.49-.49V61l-2-4.09h-.79l-2,4,0,.11a1.32,1.32,0,0,0,0,.17v2.1Zm-.13-2.45h0Zm1-.45,1.16-2.31,1.16,2.31Z"/><path d="M34.67,57.9l0,0a.46.46,0,0,0-.21.4v3.94l.39.39H35l.36.36a.52.52,0,0,0,0,.12v.1l.39.39h2a.43.43,0,0,0,.37-.17l.06-.07a.55.55,0,0,0,0-.12l1-1v-.59h-.59l-1,1H36.22l-.81-.81V58.43l.57-.57h1.94l.6.6a.44.44,0,0,0,.08.17.37.37,0,0,0,.65-.28V58l-1.11-1.11H35.88a.48.48,0,0,0-.48.37l-.6.6Z"/><path d="M42.6,63.62a.48.48,0,0,0,.49-.49c0-.38-.11-.49-.49-.49h-.47V57.86h.47a.48.48,0,0,0,.49-.49c0-.38-.11-.49-.49-.49H40.68a.48.48,0,0,0-.49.49v.1l.39.39h.57v4.78h-.47a.48.48,0,0,0-.49.49v.1l.39.39Z"/><path d="M48.85,57.37c0-.38-.11-.49-.49-.49H44.52a.48.48,0,0,0-.49.49v.1l.39.39h1.53v5.37l.39.39h.1a.48.48,0,0,0,.49-.49V57.86h1.43A.48.48,0,0,0,48.85,57.37Z"/><path d="M54.61,56.88h-.86L52.2,59.2l-1.55-2.32h-.37a.48.48,0,0,0-.49.49v.08l1.92,2.88v2.91l.39.39h.1a.48.48,0,0,0,.49-.49v-2.8l1.92-2.88Z"/><path d="M56.45,64.27l.66-.66a.48.48,0,0,0,.38-.48v-1c0-.38-.11-.49-.49-.49a.48.48,0,0,0-.49.49v.62l-1,1v.45l.07.07c.15.15.25.25.42.25S56.3,64.42,56.45,64.27Z"/><path d="M64.57,59.78h.1a.48.48,0,0,0,.49-.42l0,0a.93.93,0,0,0,.28.38l.07.07h.1a.48.48,0,0,0,.49-.42l.94-1.87,0-.6H66.2l-.08.17v-.17h-.88l-1,2.06,0,.11c0,.32,0,.38.31.66Z"/><path d="M69,57.37c0-.38-.11-.49-.49-.49a.48.48,0,0,0-.49.49v4.9l1.35,1.35h2a.47.47,0,0,0,.48-.37l.6-.6a.48.48,0,0,0,.37-.48v-4.8c0-.38-.11-.49-.49-.49a.48.48,0,0,0-.49.49v4.46l-.81.81H69.82L69,61.83Z"/><path d="M79.64,56.88l-2.49,5-2.49-5h-.39a.48.48,0,0,0-.49.49l2.88,5.83a.49.49,0,0,0,1,0l2.86-5.71,0-.11a.48.48,0,0,0-.49-.49Z"/><path d="M83.48,56.88l-.13.27a.46.46,0,0,0-.43-.27h-.39l-1,2.06,0,.11c0,.32,0,.38.31.66l.07.07H82a.48.48,0,0,0,.49-.42l0,0a.93.93,0,0,0,.28.38l.07.07h.1a.48.48,0,0,0,.49-.42l.94-1.87,0-.11a.48.48,0,0,0-.49-.49Z"/><path d="M95.89,62.27v-.45l-3.62-3.62.35-.35h1.71l.65.65c.34.34.49.34.83,0l.07-.07V58l-1.11-1.11H92.17L91.07,58v.45L94.68,62l-.59.59H92.86l-1-1h-.83v.59l1,1a.47.47,0,0,0,.48.37h2Z"/><path d="M99.24,63.62h.1l.39-.39V60.33l1.92-2.88v-.08a.48.48,0,0,0-.49-.49h-.37L99.24,59.2l-1.55-2.32h-.86v.57l1.92,2.88v2.8A.48.48,0,0,0,99.24,63.62Z"/><path d="M107.26,57h0l-.1-.08a.57.57,0,0,0-.24-.06h-.39L105,59.93l-1.53-3.05h-.88v6.25a.48.48,0,0,0,.49.49h.1l.39-.39V59.39l.94,1.88v.43h.61l0,0a.44.44,0,0,0,.34-.38l.94-1.89v3.74a.48.48,0,0,0,.49.49h.1l.39-.39V57.36a.58.58,0,0,0-.07-.24Zm-.17.18Z"/><path d="M113.17,62.27V60.87l-.74-.74.74-.74V58l-1.11-1.11h-3.22c-.38,0-.49.11-.49.49a.48.48,0,0,0,.49.49h.47v4.78h-.47c-.38,0-.49.11-.49.49a.48.48,0,0,0,.49.49h3Zm-1-3.33-.81.81h-1.09v-1.9h1.33l.57.57Zm0,2.37v.51l-.81.81h-1.09v-1.9h1.33Z"/><path d="M118.93,63.23V57.37a.48.48,0,0,0-.49-.49H114.6c-.38,0-.49.11-.49.49v5.76a.48.48,0,0,0,.49.49h3.94Zm-3.84-.59V57.86h2.86v4.78Z"/><path d="M124.69,63.23v-.1a.48.48,0,0,0-.49-.49h-3.35V57.37a.48.48,0,0,0-.49-.49c-.38,0-.49.11-.49.49v5.76a.48.48,0,0,0,.49.49h3.94Z"/><path d="M127.57,62.17a.48.48,0,0,0-.49-.49c-.38,0-.49.11-.49.49v.62l-1,1v.34a.39.39,0,0,0,.37.43.38.38,0,0,0,.36-.31l.6-.6h.23l.39-.39Z"/><path d="M23.65,53.19,20,49.57l.35-.35h1.71l.59.59a.39.39,0,0,0,.23.28.64.64,0,0,0,.66-.22l.07-.07v-.45l-1.11-1.11H19.93l-1.11,1.11v.45l3.62,3.62-.59.59H20.62l-1-1h-.83v.59l1,1a.58.58,0,0,0,.06.14.46.46,0,0,0,.41.22h2l1.35-1.35Z"/><path d="M25.08,55H29l.39-.39v-.1a.48.48,0,0,0-.49-.49H25.57V52.1H27.1l.39-.39v-.1a.48.48,0,0,0-.49-.49H25.57v-1.9H29l.39-.39v-.1a.48.48,0,0,0-.49-.49H25.08c-.38,0-.49.11-.49.49v5.76A.48.48,0,0,0,25.08,55Z"/><path d="M30.84,49.22h1.43v5.27a.48.48,0,0,0,.49.49h.1l.39-.39V49.22h1.53l.39-.39v-.1a.48.48,0,0,0-.49-.49H30.84c-.38,0-.49.11-.49.49A.48.48,0,0,0,30.84,49.22Z"/><path d="M42.36,55h.1l.39-.39V52.1h2.49l.39-.39v-.1a.52.52,0,0,0,0-.12l.36-.36h.23l.39-.39V49.69a.44.44,0,0,0-.19-.38l-.06,0-.12,0-.6-.6a.48.48,0,0,0-.48-.37H42.36c-.38,0-.49.11-.49.49v5.76A.48.48,0,0,0,42.36,55Zm.49-3.86v-1.9h2.29l.57.57v.51l-.81.81Z"/><path d="M48.12,55h.1l.39-.39V52.1H49l2.51,2.5a.36.36,0,0,0,.69.09.37.37,0,0,0,.22-.33.38.38,0,0,0-.31-.36L50.16,52.1h.94l.39-.39v-.1a.52.52,0,0,0,0-.12l.36-.36h.23l.39-.39V49.69a.44.44,0,0,0-.18-.38l-.06,0-.12,0-.6-.6a.48.48,0,0,0-.48-.37H48.12c-.38,0-.49.11-.49.49v5.76A.48.48,0,0,0,48.12,55Zm.49-3.86v-1.9h2.29l.57.57v.51l-.81.81Z"/><path d="M53.88,55h3.94l.39-.39v-.1a.48.48,0,0,0-.49-.49H54.37V52.1H55.9l.39-.39v-.1a.48.48,0,0,0-.49-.49H54.37v-1.9h3.45l.39-.39v-.1a.48.48,0,0,0-.49-.49H53.88c-.38,0-.49.11-.49.49v5.76A.48.48,0,0,0,53.88,55Z"/><path d="M60.7,54l-1-1H59.4a.47.47,0,0,0-.28.09.35.35,0,0,0-.15.28.38.38,0,0,0,.31.36l.84.84a.55.55,0,0,0,0,.12l0,0a.46.46,0,0,0,.4.21h2l.39-.39v-.1a.52.52,0,0,0,0-.12l.42-.42a.34.34,0,0,0,.13,0,2.59,2.59,0,0,0,.36-.49.38.38,0,0,0-.31-.36l-3.48-3.48.36-.36h1.94l.59.59a.45.45,0,0,0,.08.17.36.36,0,0,0,.61-.08.37.37,0,0,0,.22-.33.38.38,0,0,0-.31-.36l-.6-.6a.48.48,0,0,0-.48-.37H60.25l-1,1a.38.38,0,0,0-.31.36,2.55,2.55,0,0,0,.36.49.34.34,0,0,0,.13,0l3.3,3.3-.59.59Z"/><path d="M66.46,54l-1-1h-.34a.47.47,0,0,0-.29.09.35.35,0,0,0-.15.28.38.38,0,0,0,.31.36l.85.85a.71.71,0,0,0,.07.15.46.46,0,0,0,.4.21H68a.44.44,0,0,0,.38-.18l0-.06a.55.55,0,0,0,0-.12l.66-.66a.34.34,0,0,0,.13,0,2.57,2.57,0,0,0,.36-.49.38.38,0,0,0-.31-.36l-3.48-3.48.36-.36h1.92l.6.6a.44.44,0,0,0,.08.17.36.36,0,0,0,.61-.08.36.36,0,0,0,.22-.33.38.38,0,0,0-.31-.36l-1-1H66l-1,1a.38.38,0,0,0-.31.36,2.58,2.58,0,0,0,.36.49.35.35,0,0,0,.13,0l3.3,3.3-.59.59Z"/><path d="M70.92,54H71l.36.36a.52.52,0,0,0,0,.12v.1l.39.39h2a.43.43,0,0,0,.37-.17l.06-.07a.55.55,0,0,0,0-.12l.6-.6a.46.46,0,0,0,.33-.27.36.36,0,0,0,.23-.33.36.36,0,0,0-.18-.31V48.73c0-.38-.11-.49-.49-.49a.48.48,0,0,0-.49.49v4.7l-.57.57H72.22l-.81-.81V48.73c0-.38-.11-.49-.49-.49a.48.48,0,0,0-.49.49v4.9l.39.39Z"/><path d="M76.68,55a.48.48,0,0,0,.49-.49V52.1h.61l2.51,2.5a.36.36,0,0,0,.69.09.37.37,0,0,0,.22-.33.38.38,0,0,0-.31-.36L79,52.1h.6a.44.44,0,0,0,.38-.18l0-.06a.55.55,0,0,0,0-.12l.6-.6a.46.46,0,0,0,.33-.27.37.37,0,0,0,.22-.33.36.36,0,0,0-.18-.31v-.35a.36.36,0,0,0,.18-.31.38.38,0,0,0-.31-.36l-1-1H76.68a.48.48,0,0,0-.49.49v5.86l.39.39Zm.49-5.76h2.51l.36.36a.53.53,0,0,0,0,.12v.86l-.57.57H77.17Z"/><path d="M86.28,49.22a.48.48,0,0,0,.49-.49c0-.38-.11-.49-.49-.49H82.44a.48.48,0,0,0-.49.49v5.86l.39.39h3.94a.48.48,0,0,0,.49-.49c0-.38-.11-.49-.49-.49H82.93V52.1h1.43a.48.48,0,0,0,.49-.49c0-.38-.11-.49-.49-.49H82.93v-1.9Z"/><path d="M89.65,54.49v-1c0-.38-.11-.49-.49-.49a.48.48,0,0,0-.49.49v.86l-.59.59a.45.45,0,0,0-.17.08.35.35,0,0,0-.15.28,1.05,1.05,0,0,0,.55.55.38.38,0,0,0,.36-.31l.6-.6A.48.48,0,0,0,89.65,54.49Z"/><path d="M96.84,55a.48.48,0,0,0,.49-.49V52.1h.61l2.51,2.5a.37.37,0,0,0,.73-.12v-.34l-2-2h.6a.43.43,0,0,0,.37-.17l.06-.07a.55.55,0,0,0,0-.12l.6-.6a.48.48,0,0,0,.37-.48v-1.3l-1.11-1.11H96.84a.48.48,0,0,0-.49.49v5.86l.39.39Zm.49-5.76h2.51l.36.36a.52.52,0,0,0,0,.12v.86l-.57.57H97.33Z"/><path d="M106.44,55a.48.48,0,0,0,.49-.49c0-.38-.11-.49-.49-.49h-3.35V52.1h1.43a.48.48,0,0,0,.49-.49c0-.38-.11-.49-.49-.49h-1.43v-1.9h3.35a.48.48,0,0,0,.49-.49c0-.38-.11-.49-.49-.49H102.6a.48.48,0,0,0-.49.49v5.86l.39.39Z"/><path d="M112.69,54.49c0-.38-.11-.49-.49-.49h-3.35V48.73c0-.38-.11-.49-.49-.49a.48.48,0,0,0-.49.49v5.86l.39.39h3.94A.48.48,0,0,0,112.69,54.49Z"/><path d="M116,55a.48.48,0,0,0,.49-.49c0-.38-.11-.49-.49-.49h-.47V49.22H116a.48.48,0,0,0,.49-.49c0-.38-.11-.49-.49-.49h-1.92a.48.48,0,0,0-.49.49v.1l.39.39h.57V54h-.47a.48.48,0,0,0-.49.49v.1L114,55Z"/><path d="M121.8,55a.48.48,0,0,0,.49-.49c0-.38-.11-.49-.49-.49h-3.35V52.1h1.43a.48.48,0,0,0,.49-.49c0-.38-.11-.49-.49-.49h-1.43v-1.9h3.35a.48.48,0,0,0,.49-.49c0-.38-.11-.49-.49-.49H118a.48.48,0,0,0-.49.49v5.86l.39.39Z"/><path d="M123.72,55a.48.48,0,0,0,.49-.49V52.1h1.43a.48.48,0,0,0,.49-.49c0-.38-.11-.49-.49-.49h-1.43v-1.9h3.35a.48.48,0,0,0,.49-.49c0-.38-.11-.49-.49-.49h-3.84a.48.48,0,0,0-.49.49v5.86l.39.39Z"/><path d="M80,6.74c.38,0,.49-.11.49-.49V3.86h2.73l1.11-1.11V1.45A.48.48,0,0,0,84,1L83.39.37a.75.75,0,0,0-.07-.15.46.46,0,0,0-.4-.21h-3l-.39.39V6.25A.48.48,0,0,0,80,6.74ZM83.4,2.53,83,2.89H80.53V1h2.29l.57.57v.86A.52.52,0,0,0,83.4,2.53Z"/><path d="M85.55,5.72l.12,0,.6.6a.48.48,0,0,0,.48.37H89l1.11-1.11V.49A.48.48,0,0,0,89.64,0h-.1l-.39.39v4.9s0,0,0,.05l-.56.42H87.08l-.79-.6V.49A.48.48,0,0,0,85.8,0h-.1l-.39.39v4.9a.46.46,0,0,0,.19.39Z"/><path d="M91.56,6.74H95.4c.38,0,.49-.11.49-.49a.48.48,0,0,0-.49-.49H92V.49A.48.48,0,0,0,91.56,0h-.1l-.39.39V6.25A.48.48,0,0,0,91.56,6.74Z"/><path d="M97.32,6.74h3.84c.38,0,.49-.11.49-.49a.48.48,0,0,0-.49-.49H97.81V.49A.48.48,0,0,0,97.32,0h-.1l-.39.39V6.25A.48.48,0,0,0,97.32,6.74Z"/><path d="M108.84,6.74c.38,0,.49-.11.49-.49V3.86h.13l2.88,2.88h.83V5.9l-2.23-2h1.12l1.11-1.11V1.45a.48.48,0,0,0-.37-.48l-.6-.6a.47.47,0,0,0-.48-.37h-3l-.39.39V6.25A.48.48,0,0,0,108.84,6.74Zm3.35-4.43-.57.57h-2.29V1h2l.81.81Z"/><path d="M114.6,5.76a.48.48,0,0,0-.49.49c0,.38.11.49.49.49h1.92c.38,0,.49-.11.49-.49a.48.48,0,0,0-.49-.49H116V1h.47c.38,0,.49-.11.49-.49a.48.48,0,0,0-.49-.49H114.6a.48.48,0,0,0-.49.49c0,.38.11.49.49.49h.47V5.76Z"/><path d="M118.44,6.74c.38,0,.49-.11.49-.49v-4l3,4.46h.86V.49a.49.49,0,0,0-1,0V4.7L118.91.39a.72.72,0,0,0-.08-.19.46.46,0,0,0-.39-.2h-.49V6.25C117.95,6.63,118.06,6.74,118.44,6.74Z"/><path d="M128,6.74c.38,0,.49-.11.49-.49V3.37a.48.48,0,0,0-.49-.49h-1a.48.48,0,0,0-.49.49c0,.38.11.49.49.49h.47v1.9h-2.07l-.79-.6V1.79L125.5,1H128c.38,0,.49-.11.49-.49A.48.48,0,0,0,128,0h-2.88a.47.47,0,0,0-.48.37l-.6.6a.48.48,0,0,0-.37.48V5.63l1.11,1.11Z"/></svg>