<svg id="Layer_1" data-name="Layer 1" xmlns="http://www.w3.org/2000/svg" viewBox="0 0 289.92 179.1"><title>Artboard 1</title><path d="M289.59,144h-18l-.06,0a.3.3,0,0,0-.24.07l-.06.06,0,0,0,0-.12,0h-3.27V144a.34.34,0,0,0-.06-.19v0a.28.28,0,0,0-.06-.17.34.34,0,0,0-.06-.14.28.28,0,0,0-.07-.16.32.32,0,0,0-.09-.15l0-.07a.32.32,0,0,0-.08-.11.33.33,0,0,0-.06-.09l0,0a.34.34,0,0,0-.11-.14l-.06-.06-.06-.06-.06-.06a.44.44,0,0,0-.14-.11l-.07-.07-.08,0-.1-.06h0l0,0a.86.86,0,0,0-.38-.2l-.1,0a.33.33,0,0,0-.21-.07h0a.34.34,0,0,0-.19-.06h-6L255,131.92a33.31,33.31,0,0,1,.74-3.36l.06-.3s0-.07,0-.1,0-.07,0-.11l-.06-.12-.06-.08-.12-.12s-.06,0-.09,0,0,0-.08-.05l-.94-.18-1.2-.3h0l-.46-.1v0a1.21,1.21,0,0,0-.14-.24l0-.07a.35.35,0,0,0-.11-.14l0,0a.33.33,0,0,0-.06-.09l0,0a12.33,12.33,0,0,0-.37-.37h0l-.08-.05h0a.43.43,0,0,0-.15-.12h0l-.08,0-.09-.06h0a.33.33,0,0,0-.13-.07.36.36,0,0,0-.12-.06l-.12-.06a.34.34,0,0,0-.21-.09,14,14,0,0,0-.37-.12h-.11a.33.33,0,0,0-.19-.06H250v-.7l.06-.41v-.72s0,0,0-.06a.32.32,0,0,0,0-.13v-.17a.28.28,0,0,0-.07-.17.31.31,0,0,0-.09-.15l0-.07a.35.35,0,0,0-.11-.14.42.42,0,0,0-.14-.11h0l0,0a.33.33,0,0,0-.23-.13.43.43,0,0,0-.21-.06h-.6a.28.28,0,0,0-.17.07.31.31,0,0,0-.15.09l-.07,0a.35.35,0,0,0-.14.1.43.43,0,0,0-.12.15h0l0,0a.83.83,0,0,0-.19.39v.54l-.07.42v.73l-.06.36a.3.3,0,0,0,0,0h0v.71L230,122.11h0l-1.94-.42-.42-.06s-.07,0-.11,0a.19.19,0,0,0-.19.13s-.05,0-.06.09l-.06.25c-.13.56-.23,1.11-.35,1.66l-2.11-.46c.08-.34.14-.67.22-1l.18-.89h0a.33.33,0,0,0,0-.24h0a.33.33,0,0,0-.2-.14h0l-7.09-1.58-.24-.63-.22-.47-.06-.3a.38.38,0,0,0-.3-.25h0l-3.58-.79V106.23l0,0a.33.33,0,0,0,.19-.09l.06-.06h0s0-.05,0-.08a.31.31,0,0,0,.06-.15V102h4.71a.33.33,0,0,0,.23-.1h0l.6-.6a.33.33,0,0,0,.1-.23h0v-7.8a.33.33,0,0,0-.1-.23h0l-.6-.6a.33.33,0,0,0-.23-.1h-4.71V81.81h0s0,0,0-.05a.33.33,0,0,0-.08-.18h0l-.06-.06a.33.33,0,0,0-.15-.09.34.34,0,0,0-.05-.1V64s0-.05,0-.09a.28.28,0,0,0,0-.13V53.53a.35.35,0,0,0,0-.1s0,0,0,0h5.05a.33.33,0,0,0,.23-.1l.6-.6a.31.31,0,0,0,.06-.14l0,0a.3.3,0,0,0,0-.07.34.34,0,0,0,0,0V44.67a.33.33,0,0,0-.1-.23l-.6-.6h0a.33.33,0,0,0-.23-.1h-5.07V41.28h5.07a.33.33,0,0,0,.23-.1h0l.6-.6h0a.33.33,0,0,0,.1-.23v-7.8a.33.33,0,0,0-.1-.23l-.6-.6a.33.33,0,0,0-.23-.1h-5.07V29.91a.33.33,0,0,0-.1-.23h0l-1-1h0a.33.33,0,0,0-.23-.1H202a.33.33,0,0,0-.23.1h0l-.4.4V29a.33.33,0,0,0-.33-.33h-20.4a.33.33,0,0,0-.33.33V31l0,.38-.14.92a5.66,5.66,0,0,1-4.39,4.27l-1.12.12H146.81l-.47.06a55.84,55.84,0,0,1-5.69.24l-.79,0v-.19a.31.31,0,0,0-.24-.29h0l-.42-.2-.47-.13H141a.33.33,0,0,0,.21-.09l0,0h0L144,32.64s0-.07,0-.11,0-.06,0-.1V13s0-.07,0-.1,0-.07,0-.11l-2.76-3.48h0a1.11,1.11,0,0,0-.22-.11H127V7.83a.33.33,0,0,0-.33-.33h-1.41v-6s0,0,0-.07a.31.31,0,0,0,0-.14.32.32,0,0,0-.07-.13l0-.08a.33.33,0,0,0-.12-.18l-.06-.06,0,0a.33.33,0,0,0-.06-.09l-.12-.12-.08,0h0l0,0a.33.33,0,0,0-.26-.18l0,0h0a.33.33,0,0,0-.13-.07A.33.33,0,0,0,124,.13a.33.33,0,0,0-.2-.07h0a.33.33,0,0,0-.19-.06h-1.14a.33.33,0,0,0-.19.06.33.33,0,0,0-.18.06.28.28,0,0,0-.16.07.3.3,0,0,0-.12.06.33.33,0,0,0-.18.12l-.06.06,0,0-.07,0a.35.35,0,0,0-.14.11.42.42,0,0,0-.11.14h0a.27.27,0,0,0,0,.08h0l0,0a.33.33,0,0,0-.18.21.33.33,0,0,0-.07.17.38.38,0,0,0,0,.16.29.29,0,0,0,0,.12v6h-1.35s-.06,0-.1,0a.43.43,0,0,0-.14-.12h0a.33.33,0,0,0-.23-.1h-.33V5.55h0a.32.32,0,0,0,0-.11.32.32,0,0,0-.06-.12h0l-.59-.53h0s-.06,0-.1,0-.08-.05-.12-.05h-7.14a.33.33,0,0,0-.23.1l-.54.54h0a.36.36,0,0,0-.07.09s0,0,0,.05h0a.43.43,0,0,0,0,.06h0V7.32h-.39a.33.33,0,0,0-.23.1l-.12.12a.33.33,0,0,0-.1.23v.15h-.75a.33.33,0,0,0-.33.33v.93H105a1.22,1.22,0,0,0-.22.11h0L102,12.78s0,.07,0,.11,0,.06,0,.1V32.43s0,.06,0,.1,0,.08,0,.11l1.68,2.07a23.22,23.22,0,0,0-1,2.25h-.24l-2.73-.18-.42-.06H57a.33.33,0,0,0-.33.33v.74a.34.34,0,0,0,0,0V98.72l-.11.58-.19.7-.05.37,0,.07s0,0,0,0,0,0,0,0a.32.32,0,0,0,0,.16v0a.32.32,0,0,0,.15.17h0l0,0,.16,0v77.82a.33.33,0,0,0,.33.33h9.6a.33.33,0,0,0,.33-.33v-.22l.06-.24h0l.13-.55a.33.33,0,0,0,.06-.15l0,0h0a.34.34,0,0,0,.07-.13.37.37,0,0,0,.06-.12l0-.07.06-.09.19-.19,0-.06.08-.06.06-.06,0-.06.06,0a.34.34,0,0,0,.14-.1l0,0,.06,0a.33.33,0,0,0,.13-.07l.08,0a.33.33,0,0,0,.15-.07l.11,0a.29.29,0,0,0,.15-.06h0a.33.33,0,0,0,.19-.06H69a.33.33,0,0,0,.19-.06H184a.33.33,0,0,0,.19.06h.05a.34.34,0,0,0,.18.06.33.33,0,0,0,.19.06l.08,0a.33.33,0,0,0,.19.08l0,0h0a.33.33,0,0,0,.13.07l.07,0h0a.42.42,0,0,0,.14.11h0l.06,0,.06.08.06.06.06,0,.06.08.16.17a.34.34,0,0,0,.07.11l0,.06a25,25,0,0,0,.13.25l0,.08a.34.34,0,0,0,.06.14.27.27,0,0,0,.06.16h0a.28.28,0,0,0,.06.17v.07a.33.33,0,0,0,.1.23h0l0,.06v.3a.33.33,0,0,0,.33.33H201a.33.33,0,0,0,.33-.33v-3.16l.4.4a.33.33,0,0,0,.23.1h10.08a.33.33,0,0,0,.23-.1l1-1a.33.33,0,0,0,.1-.23V173.1h5.07a.33.33,0,0,0,.23-.1l.6-.6a.31.31,0,0,0,.06-.14l0,0a.29.29,0,0,0,0-.07.35.35,0,0,0,0,0V167.4h5.85a.33.33,0,0,0,0-.66H224.1l.94-2.11.43-1.82v-1.75l-.51-2.42-1-2a.32.32,0,0,0,0,0,.3.3,0,0,0,0,0l1.07-2.4.43-1.82v-1.75l-.51-2.42-.85-1.75h1a.34.34,0,0,0,.14.06.33.33,0,0,0,.24-.56l-.06-.06h0a.33.33,0,0,0-.15-.06s-.05,0-.08,0h-5.85v-1a.33.33,0,0,0-.1-.23l-.6-.6s-.06,0-.08,0a.33.33,0,0,0-.15-.06h-5.07v-6.9h5.07a.33.33,0,0,0,.23-.1l.6-.6a.31.31,0,0,0,.06-.14l0,0a.29.29,0,0,0,0-.07.34.34,0,0,0,0,0v-3.16l2.76.59h.09a.33.33,0,0,0,.2-.07s0,0,0-.05a.32.32,0,0,0,.08-.12l.24-.92.21-1,2.13.45-.05.25c-.1.49-.19,1-.29,1.43l-.06.18s0,.07,0,.1a.2.2,0,0,0,.09.22s0,.06.07.08l.12.06.09,0,1,.17,1.2.3h0l19.47,4.23-.09,1.78h-.53a.33.33,0,0,0-.33.33v.08h0a.29.29,0,0,0-.19.09l-.07,0-.08,0a.32.32,0,0,0-.15.09l-.09.06,0,0a.35.35,0,0,0-.13.1l-.06.06-.06.06-.06.06a.44.44,0,0,0-.11.14h0l0,.07a.33.33,0,0,0-.17.26l0,0h0l0,0a3,3,0,0,0-.26.63v.06a.58.58,0,0,0-.06.24V144H230.07a.33.33,0,0,0-.33.33v2.49l-4.47-.06h0a.33.33,0,0,0,0,.66l4.47.06V165.6l-4.47.06a.33.33,0,0,0,0,.66h0l4.47-.06v2.55a.33.33,0,0,0,.33.33h14.07v1a.34.34,0,0,0,.06.19v.05a.28.28,0,0,0,.06.17.35.35,0,0,0,.06.14.28.28,0,0,0,.07.17.31.31,0,0,0,.09.15l0,.07a.34.34,0,0,0,.07.11.32.32,0,0,0,.06.09l0,0a.35.35,0,0,0,.11.14l.06.06.06.06.06.06a.43.43,0,0,0,.14.11l.07.07.08,0,.09.06h0l0,0a.87.87,0,0,0,.38.19l0,0v.14a.33.33,0,0,0,.33.33h4.56a.31.31,0,0,0,.15-.06h.21a.28.28,0,0,0,.17-.07.3.3,0,0,0,.12-.06.31.31,0,0,0,.15-.09l.07,0a.36.36,0,0,0,.14-.1l.06-.06a.42.42,0,0,0,.11-.14h0l0,0a1.3,1.3,0,0,0,.18-.3.33.33,0,0,0,.07-.2v-.15h12.93a.28.28,0,0,0,.17-.06h.31a.34.34,0,0,0,.19-.06h.05a.28.28,0,0,0,.17-.06.33.33,0,0,0,.14-.06.29.29,0,0,0,.16-.07.32.32,0,0,0,.15-.09l.07,0a.32.32,0,0,0,.11-.08l.09-.06,0,0a.36.36,0,0,0,.14-.11l.06-.06.06-.06.06-.06a.44.44,0,0,0,.11-.14l.07-.07a.26.26,0,0,0,0-.08l.06-.1h0l0,0a.86.86,0,0,0,.2-.38.35.35,0,0,0,0-.11.33.33,0,0,0,.07-.2v-.05a.34.34,0,0,0,.06-.19v-.15H271l.09,0,.09,0,.12.08h0a.33.33,0,0,0,.23.09h18a.33.33,0,0,0,.33-.33V144.33A.33.33,0,0,0,289.59,144Zm-37.35,17.56.07.1a5.86,5.86,0,0,0,1.2,1.37l0,0,.06.08.12.12.09.06.15.12.08.06,0,0a.34.34,0,0,0,.15.15l.1.06.08.06.16.12.09.06.09.06.09.06.09.06.08.06.12.06.12,0,.14.07,0,0,.08.06.09.06a.33.33,0,0,0,.22.1l0,0,.24.12.11,0,.19.09.12,0,.19.09.11,0,.06,0a.34.34,0,0,0,.14,0,.34.34,0,0,0,.19.06l.09,0,.12,0,.06,0a.33.33,0,0,0,.15,0h.11a.34.34,0,0,0,.19.06H258a.33.33,0,0,0,.19.06h.23a.34.34,0,0,0,.19.06h.14a.82.82,0,0,1,.34,0,.92.92,0,0,0,.35.05h.35a1.3,1.3,0,0,0,.47,0,1,1,0,0,1,.39,0h.12a.32.32,0,0,0,.15,0l.15,0a.33.33,0,0,0,.15,0l.15,0a.33.33,0,0,0,.15,0l.15,0a.33.33,0,0,0,.15,0l.09,0a.33.33,0,0,0,.15,0l.05,0,.13,0,.09,0a.33.33,0,0,0,.19-.06.34.34,0,0,0,.14,0l.12-.06,0,0a.34.34,0,0,0,.14,0l.05,0,.13,0,.24-.12,0,0a.33.33,0,0,0,.23-.1l.09-.06.09-.06.07,0a.33.33,0,0,0,.23-.1h0c.18-.11.42-.27.64-.43v6.71H252.24Zm13,1.15-.07,0-.08.06-.18.18-.16.12-.08.06-.1.06-.09.06,0,0c-.18.13-.44.31-.7.47h0a.33.33,0,0,0-.15,0l-.12.06-.09.06-.09.06,0,0a.33.33,0,0,0-.22.1l-.15.08-.13,0-.09,0a.33.33,0,0,0-.23.1l-.07,0a.33.33,0,0,0-.19.06.34.34,0,0,0-.14,0l-.05,0-.13,0-.09,0a.33.33,0,0,0-.15,0l-.15,0a.33.33,0,0,0-.15,0l-.15,0a.33.33,0,0,0-.15,0l-.15,0a.32.32,0,0,0-.15,0l-.07,0a1.53,1.53,0,0,0-.57,0,.81.81,0,0,1-.29,0h-.26a.6.6,0,0,1-.24,0,1.21,1.21,0,0,0-.57,0,.32.32,0,0,0-.19-.06h-.23a.33.33,0,0,0-.19-.06H258a.34.34,0,0,0-.19-.06h-.16l-.05,0-.11,0-.06,0a.34.34,0,0,0-.14,0,.34.34,0,0,0-.19-.06l-.09,0-.12,0-.18-.09-.12,0-.18-.09-.12,0-.13-.07,0,0a.33.33,0,0,0-.23-.1l0,0-.1-.06-.08-.06-.24-.12-.12,0,0,0-.09-.06-.09-.06-.09-.06-.15-.12-.08-.06-.1-.06-.08-.06,0,0a.33.33,0,0,0-.15-.15l-.16-.12-.09-.06-.07,0-.08-.12a.34.34,0,0,0-.1-.12,5.12,5.12,0,0,1-1.12-1.26l-.22-.3-.06-.12-.06-.08-.06-.1,0,0a.33.33,0,0,0,0-.14l-.06-.12-.06-.08-.06-.09h0a.32.32,0,0,0-.07-.14.32.32,0,0,0,0-.11l-.09-.15a.32.32,0,0,0,0-.13l0-.09a.33.33,0,0,0-.1-.23l0-.07a.34.34,0,0,0-.06-.19.34.34,0,0,0,0-.14l0-.05a.31.31,0,0,0,0-.13l0-.09a.33.33,0,0,0,0-.15l-.07-.27a9.93,9.93,0,0,1-.19-1.8v-.22l0-.05a.33.33,0,0,0,0-.15v-.41a.33.33,0,0,0,.06-.19v-.23a.34.34,0,0,0,.06-.19v-.11a.33.33,0,0,0,.06-.19v-.16h0l.5,1.11-.46.76s0,0,0,0a.43.43,0,0,0,0,.24s0,0,0,0l3.9,6.72a.33.33,0,0,0,.29.16h.34l0,0h0l.07,0h0a.42.42,0,0,0,.14.11h0l.08.05.09.06h0a.33.33,0,0,0,.13.07.36.36,0,0,0,.12.06l.12.06a.33.33,0,0,0,.22.09.33.33,0,0,0,.18.06.33.33,0,0,0,.19.06h.11a.34.34,0,0,0,.19.06h.9a.34.34,0,0,0,.19-.06H259a.28.28,0,0,0,.17-.06h0a.34.34,0,0,0,.19-.06l.07,0a.25.25,0,0,0,.24,0l1.21-.57h2.61a.32.32,0,0,0,.21-.08l0,0,0,0,1-1.67.38-.18s0,0,.06-.07l.06,0a.32.32,0,0,0,.13-.07.33.33,0,0,0,.11-.07l.07,0a.36.36,0,0,0,.14-.11l0,0,.09-.06,0,0a.38.38,0,0,0,.19-.18.39.39,0,0,0,.18-.19h0a.27.27,0,0,0,0-.08h0a.42.42,0,0,0,.11-.14h0a.26.26,0,0,0,0-.08l.06-.09h0a.34.34,0,0,0,.07-.13,20.31,20.31,0,0,1,.12-.24,3.09,3.09,0,0,0,.15-.39.33.33,0,0,0,.06-.19v-.11a.34.34,0,0,0,.06-.19v-.9A.33.33,0,0,0,267,158l.73-1.23s0,0,0,0a.45.45,0,0,0,0-.24s0,0,0,0l-3.9-6.72,0,0a.47.47,0,0,0-.21-.12l0,0h-.32l-.3-.65.1,0c.17.08.34.15.51.24l0,0,.08.06.17.08a2.06,2.06,0,0,1,.59.34l.06.06.08.06.09.06.08.06,0,0a.33.33,0,0,0,.15.15l.16.12.08.06.07,0,.08.12a.33.33,0,0,0,.15.15l.12.08a1.86,1.86,0,0,1,.31.33,2.65,2.65,0,0,0,.27.31l.12.15.06.08.06.09.06.08,0,0a4.15,4.15,0,0,1,.25.36l.22.32h0a.33.33,0,0,0,0,.15l.06.12.06.08.06.09,0,0a.33.33,0,0,0,.1.22l.08.15a.31.31,0,0,0,0,.13l0,.09a.33.33,0,0,0,.1.23l0,0a6,6,0,0,0,.18.64l0,.15v.13a.33.33,0,0,0,0,.15l0,.15a.33.33,0,0,0,0,.15l0,.15a.33.33,0,0,0,0,.15l0,.51a.33.33,0,0,0,0,.15l0,.3a1.54,1.54,0,0,1,0,.48,1.8,1.8,0,0,0,0,.46v.11a.33.33,0,0,0-.06.19v.23a.34.34,0,0,0-.06.19v.11a.33.33,0,0,0-.06.19v.16l0,.05a.49.49,0,0,0,0,.13,3.31,3.31,0,0,0-.11.34,1.52,1.52,0,0,1-.15.41.43.43,0,0,0,0,.14l0,.09a7,7,0,0,1-.32.7l0,0a.31.31,0,0,0-.06.09l-.12.24a.42.42,0,0,0,0,.12l0,0a.34.34,0,0,0-.06.09,1.78,1.78,0,0,1-.2.3,3,3,0,0,0-.22.31h0a.33.33,0,0,0-.15.15l-.12.16L266,162l0,.07-.12.08a.34.34,0,0,0-.15.15Zm-18.79-21.54h.19l-.13,3.14h0a.31.31,0,0,0,.05.14s0,.07,0,.1.07,0,.11,0,.07.05.12.06h0l1.8.06h0a.33.33,0,0,0,.23-.09s0-.06,0-.09a.31.31,0,0,0,.06-.13l.15-3.23H250a3.84,3.84,0,0,1,.24.33l.13.22V172h-3.9Zm-18.86-7.27-.65-1.72-.47-1.87-.12-1.51.46-1.91.19-.51,1.53-2.12,1.43-1.49,22.5,4.88h0l.35.08.65,1.72.47,1.87.12,1.51-.4,1.9-.25.51-1.53,2.13-1.43,1.49-2.43-.53a.3.3,0,0,0-.13,0l-.72-.16s0,0-.08,0h0Zm34.29,14.36v0a.31.31,0,0,0,.14.25l.8,1.7h-6.55l0,0a.49.49,0,0,0-.21.12l0,0-3.17,5.31-1-2.33.29-.64a.31.31,0,0,0,.16-.26v-.1l0-.06a.32.32,0,0,0,0-.15l.14-.39a.32.32,0,0,0,0-.15l.12-.45a4.27,4.27,0,0,1,.11-.55,3.86,3.86,0,0,0,.13-.84l0-.05a.33.33,0,0,0,0-.15v-.22l0,0a.33.33,0,0,0,0-.15v-2c0-.12,0-.28-.06-.44a5.2,5.2,0,0,0-.18-1v-.12a.33.33,0,0,0,0-.15l0-.15a.33.33,0,0,0,0-.15l0-.09a.32.32,0,0,0,0-.1c-.11-.38-.23-.72-.35-1v-.12a.31.31,0,0,0-.14-.25,8,8,0,0,0-1-2l0-.07a.31.31,0,0,0-.12-.22l-.09-.16a7,7,0,0,0-.65-.84l-.24-.27-.06-.12a.33.33,0,0,0-.15-.15l-.06,0-.44-.48,1.3.28h0l2.15.48h.08A.32.32,0,0,0,253,140h0l.16-.12,0,0a.31.31,0,0,0,.1-.11.3.3,0,0,0,0-.07v0l.06-.3c.24-1.25.5-2.45.78-3.59l.18-.78h0l.41-1.94Zm1.45,14.7h-1l.13-.06h.65a.32.32,0,0,0,.21-.08l0,0,0,0,.22-.38.11-.05Zm-3.77.56s0,0-.06,0h-.12a.28.28,0,0,0-.17.06.34.34,0,0,0-.14.06H259a.28.28,0,0,0-.17.06h-.07a.34.34,0,0,0-.19.06H258a.34.34,0,0,0-.19-.06h0a.33.33,0,0,0-.19-.06h-.05a.33.33,0,0,0-.19-.06l-.08,0a.36.36,0,0,0-.12-.06.36.36,0,0,0-.12-.06l-.07,0-.09-.06h0l-.08-.05h0a.43.43,0,0,0-.15-.12h0l0,0,0,0-.12-.12,0,0h4.55Zm-3.11-12.63H263l3.23,5.67-3.29,5.67h-6.52l-2.71-4.72-.06-.13,0,0-.49-.85Zm-4.06,5.47,0,0s0,.06,0,.09a.29.29,0,0,0,0,.12s0,0,0,0l.65,1.14.44.95-1.27-2.19Zm12.95,4.31,0,0-.07,0a.32.32,0,0,0-.11.08l-.06,0a.33.33,0,0,0-.12.06.32.32,0,0,0-.18.14l-.56.27,2.06-3.55v0a.28.28,0,0,0,.06.17v.07a.34.34,0,0,0,.06.19v.64a.34.34,0,0,0-.06.19v0a.33.33,0,0,0-.06.19v.05a.33.33,0,0,0-.06.19l0,.08a.36.36,0,0,0-.06.12.36.36,0,0,0-.06.12l0,.07L266,160h0a.26.26,0,0,0,0,.08h0a.42.42,0,0,0-.12.15h0l0,0,0,0-.12.12,0,0,0,0,0,0A.36.36,0,0,0,265.36,160.68Zm1.39-3.58,0-.07.17-.3s0,0,0,0a.47.47,0,0,0,0-.24s0,0,0,0l-2.57-4.5s0,0,0,0l-.05-.11,2.79,4.81Zm-14.51-10.28v0c0,.18,0,.35.06.42v1.84l0,0a.33.33,0,0,0,0,.15Zm-5-2.82.12-2.83.49,0c.2,0,.41,0,.67,0l-.13,2.8Zm.61-5,.08.08.09.06.15.12.1.07a1.75,1.75,0,0,1,.34.27l0,1c-.23,0-.44,0-.64,0l-.52,0,.07-1.64Zm1.39,1.27.1.07.07.09.1.12h-.28Zm3.52-1.07,0,.15,0,0-1.41-.31,1.18-1.23.84-1.17C253.07,137.45,252.89,138.29,252.72,139.17ZM251,142.84a11.48,11.48,0,0,1,.54,1.24v8.13l-.44,1a.62.62,0,0,0,0,.21.27.27,0,0,0,.08.18l0,.09a.34.34,0,0,0,0,.14.33.33,0,0,0-.06.19Zm16.8,17.44c0-.11.11-.22.15-.32l.06-.12a.4.4,0,0,0,0-.11,2.31,2.31,0,0,0,.18-.51,2.12,2.12,0,0,1,.1-.3.44.44,0,0,0,0-.1l0-.06a.33.33,0,0,0,0-.15v-.11a.33.33,0,0,0,.06-.19v-.11a.34.34,0,0,0,.06-.19v-.23a.33.33,0,0,0,.06-.19v-.26a1.2,1.2,0,0,1,0-.32,2.1,2.1,0,0,0,0-.62v-.3a.33.33,0,0,0,0-.15l0-.51a.33.33,0,0,0,0-.15l0-.15a.33.33,0,0,0,0-.15l0-.15a.33.33,0,0,0,0-.15l0-.15a.32.32,0,0,0,0-.1l-.06-.21a5,5,0,0,1-.16-.58.32.32,0,0,0,0-.1l-.06-.12,0,0a.34.34,0,0,0,0-.14l0-.05a.31.31,0,0,0,0-.13l-.12-.24,0,0V144.9h2.72s0,0,0,0,0,0,0,.06v2.94h0l.06,1.21.12,1.22-.06,1.55-.12,1.68h0v5.88h0l.06,1.51.12,1.34-.06,1.48-.12,1.26s0,0,0,0h0v2.94h0a.3.3,0,0,0,0,0l0,.1h-2.72v-7.95Zm4.08-4V144.66h17.34v11.58Zm-.66-3h0l0-.44Zm0,7.76,0-1.14,0,0Zm0,3.53v.39l0,0Zm-.06-5.35v-5.25h.06v5.27Zm.06-10.07,0-.88h0Zm0,18.74h-.06v-2.22h0v0l0,0v2.16Zm0-20.42,0,0,0,0v-2.23l.06,0Zm.66,18.25V156.9h17.34v11.58H271.92Zm-6.28-23.13a.33.33,0,0,0,.18.06l.11,0a.33.33,0,0,0,.17.07l0,0h0l.08,0,.09.06.07.07.08.05h0l.06.06.06.06,0,0a.33.33,0,0,0,.06.09l0,0a.32.32,0,0,0,.07.11l0,.07,0,.08a.28.28,0,0,0,.06.11.33.33,0,0,0,.06.14.28.28,0,0,0,.06.16h0a.34.34,0,0,0,.06.19v.35a.32.32,0,0,0,.06.14v6.95a3.42,3.42,0,0,0-.22-.31l-.06-.09-.06-.08-.06-.09-.06-.08-.13-.13a2,2,0,0,1-.21-.24,2.42,2.42,0,0,0-.39-.41l-.06-.06-.08-.06,0,0-.06-.08-.12-.12-.09-.06-.12-.09V142.5h0A.33.33,0,0,0,265.64,142.56Zm-.86-.06v6.63a2.4,2.4,0,0,0-.72-.41l-.1-.06-.07-.05c-.2-.11-.4-.2-.6-.29l-.32-.14-.11,0-.06,0a.34.34,0,0,0-.14,0l0,0-.1,0-2.58-5.5Zm-9.69-14.25h0l0,.13c-.2.68-.39,1.55-.56,2.39l-.38-1.51-.5-1.33.61.15Zm-4.8-2.25h0a.33.33,0,0,0,.19.06h.05a.33.33,0,0,0,.19.06l.08,0,.12.06a.36.36,0,0,0,.12.06l.07,0,.1.06h0l.07,0h0a.44.44,0,0,0,.14.11h0l0,0,0,0,.12.12,0,0,0,0,0,0-3.06-.67h0a.3.3,0,0,0,.12-.06.34.34,0,0,0,.14-.06h0a.27.27,0,0,0,.17-.06h.08a.33.33,0,0,0,.19-.06h.64A.33.33,0,0,0,250.29,126Zm-2.07-2.72a.33.33,0,0,0,.06-.16l0,0h0l0-.06.06,0,.08,0a.3.3,0,0,0,.11-.05h.3a.33.33,0,0,0,.16.06l0,0h0l.06,0,0,.06,0,.08a.28.28,0,0,0,.05.11v.13a.32.32,0,0,0,.06.15v.58l-.06.41v.66l0,.12a.33.33,0,0,0-.11,0H249a.27.27,0,0,0-.17.06h0a.33.33,0,0,0-.19.06.28.28,0,0,0-.15.06h-.11l-.17-.1-.1-.13,0-.11.05-.34v-.73l.07-.42v-.41Zm-19-.65-1.18,1.23-.82,1.15c.07-.35.15-.71.22-1.06.11-.54.22-1.08.34-1.62Zm-12-2.78,0,0,0,.05a.3.3,0,0,0,.13.09l0,0,6.95,1.55-.12.57c-.1.43-.19.87-.29,1.3l0,0a.31.31,0,0,0,0,.05q-.54,2.42-1.06,4.84l-.49,2.27s-.06.06-.07.1,0,.08,0,.12l-.26,1.19-.16.6-3.44-.74s-.06,0-.1,0h0l-3.38-.73h-.08a.31.31,0,0,0-.21.09h0l-1.05,1.06-.06.08-.44-.1a.31.31,0,0,0-.14-.06l0,0L207.29,131l.25-1.11q.45-2,.89-4l.36-1.86.42-1.79c.39-1.73.76-3.46,1.13-5.2l2.68.59h0l3.64.81ZM183.63,168.6h-.06a.31.31,0,0,0-.11.07l-.07,0a.32.32,0,0,0-.09.22v6.51H70v-6.51s0,0,0-.06a.29.29,0,0,0-.14-.2s0,0,0,0l-.11,0H57.36v-3.84H200.7v3.84Zm-117,8.29-.13.55a.35.35,0,0,0,0,.1,4.69,4.69,0,0,0-.13.38v.26l-.05.25H57.36v-9.18H69.15l-.13.34c-.2.6-.41,1.19-.61,1.78C67.76,173.23,67.15,175,66.67,176.89Zm-9.53-76.53s-.07,0-.11,0h0l0-.19.19-.69.1-.54s0,0,0-.06v0l18.19,3.94-.12.62-.19.7,0,.2-3.68-.8s-.07,0-.11,0h0Zm45.1-62.27c-.21.66-.39,1.32-.54,2l-.18.66h0l0,.16H57.36V38.1Zm2.94-28.26h0l-.09.05ZM117.9,5.7V7.32h-1.26V5.73l.56-.36.45.12Zm-2.16,1.62H112.5V5.75l.37-.19,1.32-.22,1.32.33.22.09Zm25.13,2.52,0,0-.08,0Zm0,25.74h-.12l.2-.1Zm69.61,80.78c.4-1.89.82-3.84,1.26-5.8v6.08Zm-1.91,5.7-.42,1.8h0l-.36,1.85q-.44,2-.89,4c-.57,2.57-1.17,5.22-1.7,7.89l-3.13-.68s0,0-.07,0h0l-7.71-1.68c.53-2.19,1-4.45,1.46-6.64.36-1.74.73-3.53,1.13-5.27l.42-1.86h0l.42-1.81c.41-2.18.9-4.39,1.38-6.52.39-1.76.8-3.59,1.16-5.39l.75.16,0,0h0l10.12,2.21c-.5,2.17-1,4.39-1.43,6.53C209.35,118.47,209,120.27,208.57,122.05Zm4.13,24.74-.3-.15v-5.1l.3.24ZM71.1,112.2v13h0l0,.55H57.36V112.2Zm30.25-70.62L99,52.46s0,.06,0,.09a.23.23,0,0,0,.1.21l0,0-.24,1.1H57.36V41.58Zm99.35-8.46v4H177.14l.31-.12,1.14-.77.94-1,.69-1.08.4-1Zm12,4.45-.3-.3V33.32l.3.15Zm-1,72.07-.07,0s0,0-.07-.05l-9.28-2v-1.28h9.42ZM200.08,107a.31.31,0,0,0-.17,0h-.05l0,0a.26.26,0,0,0-.1.06l-.06.06a.42.42,0,0,0-.11.14h0l0,.06-.08.06-.1.1a.34.34,0,0,0-.14.11l0,0-.07,0-.08,0a39.7,39.7,0,0,1-.24.12.34.34,0,0,0-.14.06.33.33,0,0,0-.18.06h-.11a.27.27,0,0,0-.17.06h-.42a.33.33,0,0,0-.19-.06h-.11a.33.33,0,0,0-.18-.06l-.11,0a.32.32,0,0,0-.12-.06.33.33,0,0,0-.17-.07l0,0h0l-.08,0h0a.42.42,0,0,0-.14-.11h0l-.06,0-.06-.08-.1-.1a.36.36,0,0,0-.11-.14l0,0,0-.07a.29.29,0,0,0,0-.08,40,40,0,0,1-.12-.24.34.34,0,0,0-.06-.14.33.33,0,0,0-.05-.16l.06-.28h4.73v.92Zm-3,12.49-.42,1.8h0l-.42,1.86c-.4,1.75-.78,3.55-1.14,5.29-.4,1.94-.83,3.94-1.29,5.94v0l0-.07a.36.36,0,0,0-.1-.14l0,0,0-.07a.35.35,0,0,0-.11-.14.44.44,0,0,0-.14-.11l-.07-.07-.08,0h0a.42.42,0,0,0-.14-.11h0l0,0a.33.33,0,0,0-.18-.12.32.32,0,0,0-.12-.06,1.43,1.43,0,0,0-.31-.13.33.33,0,0,0-.19-.06H192a.34.34,0,0,0-.19-.06h-.78a.34.34,0,0,0-.19.06h-.11a.28.28,0,0,0-.17.06.34.34,0,0,0-.14.06.28.28,0,0,0-.16.07.3.3,0,0,0-.12.06.31.31,0,0,0-.13.08q.89-4,1.75-8l1.09-5h0l.36-1.9c.65-2.69,1.23-5.45,1.8-8.12l.63-2.94a.37.37,0,0,0,0,.06l0,0a.33.33,0,0,0,.06.09l.1.1a.36.36,0,0,0,.11.14.43.43,0,0,0,.14.11h0l.08.05h0a.44.44,0,0,0,.14.11h0l0,0a.33.33,0,0,0,.18.12.32.32,0,0,0,.12.06.33.33,0,0,0,.2.07,11.41,11.41,0,0,0,.37.12h.11a.33.33,0,0,0,.19.06h.72a.27.27,0,0,0,.17-.06h.07a.33.33,0,0,0,.19-.06.33.33,0,0,0,.18-.06.28.28,0,0,0,.16-.07.3.3,0,0,0,.12-.06.31.31,0,0,0,.15-.09l.06,0c-.32,1.56-.67,3.13-1,4.66C198,115.15,197.46,117.36,197,119.53Zm14.69,27h-9.42v-5.34h9.42Zm-10.08-5.83-.3.24v-3.46l.3.07Zm-1-.17H185.32l1.24-5.64,2.76.59h.07a.32.32,0,0,0,.22-.09,358.73,358.73,0,0,0,.11-.17.31.31,0,0,0,0-.05V135l.08-.36s0,0,0-.08a.44.44,0,0,0,.08-.11l.07-.07,0-.06.06,0a.36.36,0,0,0,.14-.11l0,0,.07,0,.08,0a.3.3,0,0,0,.12-.06.3.3,0,0,0,.12-.06.34.34,0,0,0,.14-.06.28.28,0,0,0,.16-.06H191a.34.34,0,0,0,.19-.06h.52a.34.34,0,0,0,.19.06h0a.33.33,0,0,0,.18.06l.1,0a.33.33,0,0,0,.12.06.32.32,0,0,0,.17.07l0,0h0l.08.05h0a.45.45,0,0,0,.15.12l.07.07.06,0,0,.06a.36.36,0,0,0,.1.13l0,0,0,.07,0,.08a.3.3,0,0,0,.06.12.3.3,0,0,0,.06.12.33.33,0,0,0,.06.14.28.28,0,0,0,.06.15v.08a.33.33,0,0,0,.07.21.28.28,0,0,0,.18.17.32.32,0,0,0,.13.06l6.88,1.5ZM97.11,125q2.58-11.87,5.15-23.75,2.64-12.2,5.29-24.38l78.74,17.08-3.18,14.72q-3.6,16.68-7.25,33.41ZM77.89,120.8q2.39-11,4.75-21.92c1.88-8.72,3.76-17.43,5.68-26.21l5,1.12.14,0c.39.16.74.28,1.11.42a.32.32,0,0,0,.14.08l.15,0A21.18,21.18,0,0,0,100,75.6l1,.09.4.09h.07a.32.32,0,0,0,.12,0l1.2.1h.09l2.45.52c-3.63,16.54-7,31.87-10.15,46.79a.29.29,0,0,0,0,.1l-.27,1.25ZM82.72,94l1.41-6.5s0,0,0-.07a.33.33,0,0,0,0-.14q1.52-7,3.05-14.08l.37-.23Q84.77,85.83,82,98.74q-2.32,10.74-4.65,21.47l-.24-.38Q79.94,106.91,82.72,94Zm119.6,11.62V64.08h9.42V105.6Zm-9.71,12.93-.36,1.91h0l-1.09,5c-.67,3.1-1.35,6.2-2,9.35l-2.4-.52c1.91-8.74,3.81-17.51,5.66-26.06l.57-2.63,2.41.52,0,.11a.33.33,0,0,0-.1.24.29.29,0,0,0,0,.12q-.42,1.94-.83,3.88C193.84,113.07,193.25,115.83,192.6,118.53ZM196,105.6a.32.32,0,0,0-.13-.09h0l-2.75-.59,1.78-8.24.06-.12s0,0,0,0a.45.45,0,0,0,0-.24s0,0,0,0l-.77-1.13h0l0,0A.3.3,0,0,0,194,95s0,0-.08-.05l-5.46-1.2h-.13a.33.33,0,0,0-.33.33v.17l-.14.62L187,93.51h0l0,0,0,0-.06,0-.05,0h0L107.39,76.15h0a.32.32,0,0,0-.23,0h0l-1.32.84.15-.68v-.09s0-.05.05-.09a.33.33,0,0,0-.25-.39l-2.68-.57.06,0s.06,0,.09,0,0,0,0,0a.62.62,0,0,0,.07-.23s0,0,0,0a.33.33,0,0,0-.08-.15h0l0,0h0a.32.32,0,0,0,.23-.3s0,0,0-.06,0,0,0,0,0,0,0,0,0,0,0-.07l0,0a.31.31,0,0,0,.11-.06h0s0,0,0,0l0,0,0,0s0-.05,0-.08a.29.29,0,0,0,0-.1s0,0,0,0v-.05a.32.32,0,0,0-.06-.1h0l0,0h0a.32.32,0,0,0,.1-.07l0,0a.33.33,0,0,0,.09-.16l.17-.84.11,0h.06l.1,0,.9-.3,0,0a.31.31,0,0,0,.13-.12l0-.06s0,0,0,0l.78-3.48s0,0,0-.05a.28.28,0,0,0,0-.08.3.3,0,0,0-.07-.14s0,0,0,0l-.71-.65h0s-.07,0-.1,0-.07,0-.12,0l-.44-.08.14-.52a.3.3,0,0,0,0-.14s0,0,0-.05h0s0,0,0,0a.29.29,0,0,0,0-.08s0,0,0,0l0-.06v0l0,0h0l0,0h0l.09,0h0l0,0h0a.32.32,0,0,0,.07-.12v0s0,0,0,0a.31.31,0,0,0,0-.06s0,0,0,0a.32.32,0,0,0,0-.08l0-.05,0,0,0,0h0l0,0,.07,0a.32.32,0,0,0,.13-.08h0a.32.32,0,0,0,.09-.21s0,0,0,0a.32.32,0,0,0,0-.08A.33.33,0,0,0,105,65h0L104.9,65l0,0,.07,0a.33.33,0,0,0,.12-.56l0,0h0l.05,0,0,0h0l0,0h0v0a.32.32,0,0,0,.06-.11h.14l.12,0,.12.06a.33.33,0,0,0,.15,0h.06l.1,0,.31-.1H200.7V105.6ZM94.43,70.32l.3,0a16.44,16.44,0,0,0,1.82.42c.56.11,1.1.21,1.64.37l.66.12.62.11a15.07,15.07,0,0,0,1.66.37,14.64,14.64,0,0,1,1.81.42l.24,0,.08,0-.11.56c-.71-.19-1.61-.37-2.42-.53l-1-.19-1-.24h0l-1.08-.24-1.13-.23c-.78-.15-1.57-.32-2.22-.49Zm10.26,1.2-.53.12-.71-.05h-.05L102.34,71l.68-3,.53-.12.77.05h0l1,.61Zm-7.4-6.16a11.55,11.55,0,0,0,1.66.34l1,.24h0l1.1.24c1,.16,1.89.38,2.95.64l-.08.31a17.51,17.51,0,0,0-1.71-.39c-.56-.11-1.1-.21-1.64-.37l-.65-.12-.68-.18c-.62-.1-1.25-.24-1.85-.38s-1-.22-1.48-.32l.06-.3C96.36,65.12,96.83,65.24,97.29,65.35Zm9.2-2.06-.58.13-.72-.06h0l-1-.61.56-2.66.57-.08H106l1.09.62Zm-7.74-4.43,2,0,.69.11,2.21.75.37.19-.56,2.63-.35,0-2.34-.23h0l-.66-.16-1.91-.79Zm-1.68,7.86,2,0,.75.12,2.16.76.42.19-.67,3-.36,0L99,70.63h0l-.66-.16-1.9-.79ZM201.36,38.87l.3-.3v2.55l-.3.3V38.87Zm1,24.55V54.54h9.42v8.88Zm-1-9.3.3.24v9.11l-.3.06V54.12Zm0-.85V42.35l.3-.3V53.52Zm0,52.66V64.2l.3-.06v41.63l-.3.26Zm1-52.05V41.58h9.42v12.3Zm0-13V38.1h9.42v2.82Zm-1.62,22.5H107.14l.61-2.9s0,0,0-.06a.28.28,0,0,0,0-.08.31.31,0,0,0-.07-.14s0,0,0,0l-.58-.48.63-3.1a.32.32,0,0,0,0-.15V56.4a.32.32,0,0,0-.12-.13h0L107,56s-.07,0-.11,0l0,0-.88-.21.26-1.17H200.7ZM99.76,53.06c1.2.22,2.42.5,3.59.76l2.25.5-.28,1.26-.18,0c-.59-.12-1.2-.25-1.73-.39l-1-.18-1-.23c-.52-.15-1.14-.27-1.74-.4l-.17,0Zm-2.33,1.63c.62.17,1.25.29,1.86.41s1.22.23,1.83.4l1.08.24h0l1.13.24,1.65.36,2,.44-.54,2.64-.33-.07h0l-.32-.05c-.58-.17-1.16-.28-1.72-.39s-1.14-.22-1.73-.4l-.72-.12h0l-.59-.1c-.57-.17-1.15-.28-1.71-.39s-1.14-.22-1.75-.4l-.13,0a.33.33,0,0,0-.16,0h-.09l-.3-.06Zm-1.66,3.46.58-.13.71.05,1.06.62-.57,2.68L97,61.5l-.67,0,0,0-1.1-.6ZM94.09,66l.53-.12.77.06h0l1,.61-.68,3-.53.12-.66-.05L93.46,69Zm11.52,11.94,1.2-.76q-2.6,12-5.19,23.92l-5,23.3-.78-1.17C98.89,108.78,102.11,93.95,105.61,77.94Zm78.14,30.86,3.09-14.29.81,1.22-2.11,9.65c-2.55,11.65-5.17,23.67-7.7,35.54l-1.26.84Q180.2,125.29,183.75,108.8Zm2.44-3.27,2.13-9.77v0l.28-1.27,4.86,1.07q-2.49,11.35-4.93,22.71c-1.83,8.45-3.65,16.91-5.52,25.42l-4.84-1.05C180.79,130.23,183.54,117.67,186.19,105.53Zm3,12.84c1.6-7.41,3.2-14.81,4.83-22.27l.23.34h0L191.72,108c-2.48,11.47-5,23.32-7.63,35l-.34.23Q186.49,130.84,189.17,118.36Zm12.18-11.44.3-.26v.74l-.3-.07ZM212.7,63.53l-.3-.06V54.37l.3-.24Zm0-10.26-.3.24V42l.3.3Zm-1-16.19h-9.42v-4h9.42Zm-11,16.8H106.23l2.53-11.47a.31.31,0,0,0,0-.11l.17-.72H200.7Zm-95.08-.31L102.8,53l-3.09-.65,2.36-11s0-.07,0-.11,0,0,0,0h0l3.11.7,2.83.63Zm-8.83,1-.6,2.75-.8.27h0l-.06,0h0a.32.32,0,0,0-.11.12v0l0,.06h0l-.66,3.11s0,0,0,0a.22.22,0,0,0,0,.15l.05.08s0,0,0,0l.71.59,0,0a.33.33,0,0,0,.23.1l.34.07v0a.32.32,0,0,0,0,0h0v0a.32.32,0,0,0,.1.23l0,0h0a.32.32,0,0,0-.14.09h0v0a.32.32,0,0,0-.07.21v0a.32.32,0,0,0,0,.06.31.31,0,0,0,.08.11s0,0,0,0l0,0h0l-.08,0,0,0a.32.32,0,0,0-.12.24v0a.31.31,0,0,0,0,.05H57.36V54.54Zm-1.17,9.54a.3.3,0,0,0,.14.18l-.06,0-.06,0h0l0,0h0l0,0h0s0,.06,0,.09,0,0-.05.08l-.11.61,0,0-.12,0H95l-.05,0a.33.33,0,0,0-.15,0H94.6l-.9.3,0,0a.29.29,0,0,0-.08.06s0,0-.06.06a.3.3,0,0,0,0,.06s0,0,0,0l-.72,3.48s0,0,0,0a.36.36,0,0,0,.07.23s0,0,0,0l.65.6.05.05a.33.33,0,0,0,.21.08l-.18.88a.31.31,0,0,0,0,0v0h0v0a.32.32,0,0,0,.08.18h0a.33.33,0,0,0-.11.07h0a.33.33,0,0,0-.09.15.32.32,0,0,0,0,.05.28.28,0,0,0,0,.05.32.32,0,0,0,.09.21h0l0,0h0a.32.32,0,0,0-.1.06l0,0a.32.32,0,0,0-.09.17s0,0,0,0v0s0,0,0,0a.31.31,0,0,0,.07.17l0,0,0,0h0l-.05,0a.32.32,0,0,0-.08.06l0,0a.32.32,0,0,0-.09.18s0,0,0,0v0s0,0,0,0a.31.31,0,0,0,.07.17l0,0h0l-5.23-1.16H88S88,72,88,72h-.09l-1.14.72,0,0a.55.55,0,0,0-.12.21s0,0,0,0v0q-1.52,6.94-3,13.89L81,86.36a.31.31,0,0,0-.13,0h0l-.13,0V70.77s0-.07,0-.11,0-.08,0-.11h0a.32.32,0,0,0-.11-.05.32.32,0,0,0-.12,0H57.36V64.08Zm-35,19.5.19-.7,0-.2,4,.87s0,0,.07,0H65l14,3-.3,1.45-18.2-3.94Zm10.45.65-3-.65h3Zm8.21,4.31h0L79.6,87l.12-.42a.34.34,0,0,0,0-.09v-.14a.32.32,0,0,0-.08-.2l0,0a.32.32,0,0,0-.15-.08l-7.72-1.68V78.15l.06-.14.38-.24.74-.38.79-.55,2.66-2.06L80.1,71.5V88.84l-.17.74-.82-.16Zm.25-17.44L76,74.29l-2.62,2-.74.52-.65.32H57.36V71.1Zm-8.38,6.72-.06.15s0,0,0,.06,0,0,0,.06v2.43H57.36v-2.7Zm-.08,3.36v1.74h-6L60.7,82a.3.3,0,0,0-.16,0h0a.32.32,0,0,0-.17.15h0l-.06.12a.32.32,0,0,0,0,.1l-.05.38,0,.18H57.36V81.18Zm-10.7,3.6,18.19,3.94-.17.75a.33.33,0,0,0-.06.13s0,.05,0,.08l-1.27,5.73h0l-1.26,5.87h0s0,0,0,0l-.17.8L57.48,98.18ZM77.75,95.56h0L79,90.06l.82.16c-.86,3.87-1.66,7.57-2.4,11.06l-.83-.17Zm2.75-5.5,0,0s0,0,0,0l.25-1.11h0l.41-1.82,2.27.51-1.36,6.26-2.47,11.4-2.26-.52C78.28,100.21,79.33,95.29,80.5,90.06Zm-1.11,16.2q-1.46,6.75-2.95,13.53v.12s0,.05,0,.08,0,.06,0,.09l.72,1.13h0a.33.33,0,0,0,.11.1l0,0,0,0h0l2.68.59v16.3l-.77-.6a26,26,0,0,1-7.28-10.56L71.82,126l-.06-.86V106.88a24.88,24.88,0,0,1,5.28-.54c.63,0,1.25,0,1.83-.08Zm-8.16,20.16.19.86a26.65,26.65,0,0,0,7.49,10.89l.56.43H57.36V126.42ZM57.36,139.26H80.43a.33.33,0,0,0,.21-.09l0,0,0,0s0-.07,0-.1,0-.06,0-.1V122.1L95,125.21h.07a.33.33,0,0,0,.18-.06l0,0a.31.31,0,0,0,.06-.07l.06-.12a.31.31,0,0,0,0-.08l.15-.71.87,1.3h0l0,0,0,0,.05,0,0,0,.05,0,68.9,14.95H57.36Zm111.21,1.92h0l7.47,1.62h.07a.33.33,0,0,0,.18-.06l1.34-.9-.16.75,0,.08s0,0,0,0a.32.32,0,0,0,0,.06.32.32,0,0,0,0,.16v0a.32.32,0,0,0,.15.17h0l.05,0,5.46,1.19h.13l0,0a.32.32,0,0,0,.14,0l1.14-.78,0,0a.66.66,0,0,0,.11-.22s0,0,0,0v0l.44-2H200.7v5.34H57.36v-5.34Zm32.13,6V164.1H57.36V147.18Zm.66-5.39.3-.24v5.1l-.3.15Zm1,5.39h9.42V164.1h-9.42Zm9.42-6.66h-9.42v-2.84l3.08.67h.07a.32.32,0,0,0,.22-.09,141.11,141.11,0,0,1,.11-.17.31.31,0,0,0,0-.05V138s0,0,0,0c.42-2.1.89-4.23,1.36-6.33l4.59,1Zm.66-76.37h.06l.24,0V106l-.3-.26Zm0-23V38.57l.3.3v2.55Zm.3-8.38-.3-.15V29.75l.3.3Zm-1-.28h-9.42V29.28h9.42Zm-10.08,4.81-.3.3v-4.1l.3-.15Zm-1-7.36v2.55H180.77v0c0-.07,0-.14.06-.21l.08-.72,0-.29a.3.3,0,0,0,0,0h0V29.28H200.7v.63Zm0,8.19v2.82H109.12a18.47,18.47,0,0,1,1.06-2.82Zm-96.63-4.23-1.53-1.58V13.12l.91-1,1.38-1.27,1.45-.81,1.15-.16,1.22.22,1,.49.92.68,1.77,1.88V24.48l-3.08,3.09-2,1.92h0l-.68.68A24.88,24.88,0,0,0,104.07,33.87ZM121.13,10,123,9.84l3.09.34,3.19,1,3,1.48.8.5V32.24l-.78.44-3,1.54-3.12,1-3.15.36-1.83-.11-3-.71-2.78-1.12L114.27,33l.17-.17c2.22-2.15,4.41-4.34,6.61-6.53l1.51-1.5,1.54.37.6.12h.07a.32.32,0,0,0,.22-.1h0l2.1-2.22h0l2.1-2.22h0a.32.32,0,0,0,.08-.21.28.28,0,0,0,0,0,.31.31,0,0,0,0-.06l-.9-2.95h0l-.9-2.87,0,0v0a.32.32,0,0,0-.18-.14h0l-2.67-.65-.06,0h0l-.16,0h0l-.08,0a.33.33,0,0,0-.15,0h-.05a.33.33,0,0,0-.19-.06h-.15l-.26-.06h0L121.3,13a.33.33,0,0,0-.31.1l-1.42,1.54h0l-.1.1a.36.36,0,0,0-.15.13.32.32,0,0,0-.11.07l-.12.12,0,0,0,0-.12.12s0,.07,0,.1l-.08.08h0l-1.92,2.1s0,0,0,0a.51.51,0,0,0-.05.24s0,0,0,0l.43,1.46.1.28L113,23.83V13.18l2.44-1.39,2.83-1.18Zm22.33,22.35-.85,1-1.41,1.29-1.48.74-1.1.22-1.27-.22-.93-.49-1-.74-1.71-1.83V13.11l.85-1L136,10.82l1.45-.81,1.15-.16,1.22.22.94.49,1,.67,1.71,1.89Zm-10.11.53L135,34.61l1.07.81.3.16h-9.18l2.35-.76,3.07-1.57Zm-7.8-11h0a.38.38,0,0,0,.16-.17h0a.26.26,0,0,0,0-.08h0l.06-.06.06-.06a.42.42,0,0,0,.11-.14l.07-.07a.32.32,0,0,0,.07-.13.36.36,0,0,0,.06-.12v0a.83.83,0,0,0,.19-.38l0-.08a3.13,3.13,0,0,0,.15-.39.33.33,0,0,0,.06-.19v-.17a.33.33,0,0,0,.06-.19V19c0-.33,0-.46-.06-.52v-.22a.27.27,0,0,0-.06-.17h0a4.57,4.57,0,0,0-.13-.38.32.32,0,0,0,0-.11.28.28,0,0,0-.07-.16.31.31,0,0,0-.09-.15l0-.06a.33.33,0,0,0-.06-.12.33.33,0,0,0-.09-.15l0,0a.35.35,0,0,0-.11-.14l-.06-.06-.06-.06,0,0a.33.33,0,0,0-.06-.09l-.18-.18-.08,0h0l-.06-.06-.06-.06a.42.42,0,0,0-.14-.11l-.07-.07a.32.32,0,0,0-.13-.07.36.36,0,0,0-.12-.06h0a.83.83,0,0,0-.38-.19l-.08,0a.33.33,0,0,0-.21-.09.33.33,0,0,0-.18-.06.33.33,0,0,0-.19-.06h-.17a.33.33,0,0,0-.19-.06h-.52c-.33,0-.47,0-.52.06h-.22a.28.28,0,0,0-.17.06h0a4.48,4.48,0,0,0-.38.13l-.11,0a.28.28,0,0,0-.16.07.31.31,0,0,0-.15.09l-.06,0a.32.32,0,0,0-.12.06.33.33,0,0,0-.15.08l0,0a.35.35,0,0,0-.14.1l-.06.06-.06.06,0,0-.09.06-.06.06a.32.32,0,0,0-.06.14h0l0,.07L118.85,18V18a.33.33,0,0,0,.06-.19v-.05a.33.33,0,0,0,0-.1.33.33,0,0,0,.07-.2l0-.08a.36.36,0,0,0,.06-.12,82.19,82.19,0,0,0,.12-.24.36.36,0,0,0,.06-.12l0-.07a.42.42,0,0,0,.12-.15h0a.34.34,0,0,0,.07-.13l.05-.05a.26.26,0,0,0,.05-.08.42.42,0,0,0,.09-.1.41.41,0,0,0,.15-.17l.17-.17a.37.37,0,0,0,.16-.14l.06-.05.07,0a.36.36,0,0,0,.15-.13l.09-.05a.33.33,0,0,0,.11-.07l.06,0a.33.33,0,0,0,.15-.09l0,0a.33.33,0,0,0,.19-.07.32.32,0,0,0,.12-.06l.11,0a.33.33,0,0,0,.18-.06.28.28,0,0,0,.16-.06.34.34,0,0,0,.14-.06h0a.33.33,0,0,0,.19-.06h.11a.33.33,0,0,0,.19-.06h.41a.33.33,0,0,0,.19-.06h0a.33.33,0,0,0,.19.06h.41a.33.33,0,0,0,.19.06h.05a.33.33,0,0,0,.19.06h0a.33.33,0,0,0,.19.06h.05l.11,0a.33.33,0,0,0,.2.07l.08,0a509227.45,509227.45,0,0,1,.24.12.35.35,0,0,0,.12.06.36.36,0,0,0,.12.06l.07,0a.42.42,0,0,0,.15.12h0a.32.32,0,0,0,.13.07l.05.05.08.05a.4.4,0,0,0,.1.09A.41.41,0,0,0,126,16l.17.17a.37.37,0,0,0,.14.16l.05.06,0,.07a.36.36,0,0,0,.13.15.32.32,0,0,0,.05.09.32.32,0,0,0,.07.11l0,.06a.33.33,0,0,0,.09.15l0,0a.33.33,0,0,0,.07.19.32.32,0,0,0,.06.12.34.34,0,0,0,0,.11.33.33,0,0,0,.06.18.28.28,0,0,0,.06.16.34.34,0,0,0,.06.14V18a.33.33,0,0,0,.06.19v.11a.33.33,0,0,0,.06.19v0c0,.34,0,.47.06.52a.54.54,0,0,1,0,.08.33.33,0,0,0-.06.19v.41a.33.33,0,0,0-.06.19v.05a.33.33,0,0,0-.06.19v.05a.33.33,0,0,0-.06.19v0a1.75,1.75,0,0,0-.12.31l0,.08a82,82,0,0,1-.12.24.36.36,0,0,0-.06.12.35.35,0,0,0-.06.12l0,.07a.42.42,0,0,0-.12.15h0a.34.34,0,0,0-.07.13l-.05.05a.27.27,0,0,0-.05.08.41.41,0,0,0-.09.1.41.41,0,0,0-.15.17l-.17.17a.37.37,0,0,0-.16.14l-.06.05-.07,0a.36.36,0,0,0-.15.13l-.09.05a.33.33,0,0,0-.11.07l-.06,0a.33.33,0,0,0-.15.09l0,0a.33.33,0,0,0-.19.07.32.32,0,0,0-.12.06l-.11,0a.33.33,0,0,0-.18.06.28.28,0,0,0-.16.06.33.33,0,0,0-.14.06h0Zm-1.21,2.69h.08a.33.33,0,0,0,.19-.06h.05a.33.33,0,0,0,.19-.06h0l-.2.21Zm3.59-5.72h0Zm.48,1.78v0a.33.33,0,0,0,.06-.19v-.05a.33.33,0,0,0,.05-.16l.09.31-.23.25A.32.32,0,0,0,128.4,20.55Zm-1.49-5.61,0,.15,0-.05-.06-.06a.33.33,0,0,0-.13-.07l0,0Zm-5.45-1.26h-.11l0,0,0,0,.13,0Zm-3.86,4a.33.33,0,0,0-.06.19v0a.33.33,0,0,0,0,.08l-.05-.17.14-.15ZM109.7,28,112.76,25a.29.29,0,0,0,.16-.16c2.53-2.52,5.1-5,7.87-7.74a.31.31,0,0,0,.06-.09l.06-.12s0,0,0,0l.06,0,.06-.06.06-.06,0,0,.09-.06,0,0,.12-.06a.32.32,0,0,0,.13-.07l.08,0a.29.29,0,0,0,.12-.06.33.33,0,0,0,.15-.07l.11,0a.33.33,0,0,0,.18-.06h.05a.27.27,0,0,0,.16-.06.45.45,0,0,0,.3-.06h.67a.33.33,0,0,0,.19.06h.11a.33.33,0,0,0,.19.06h0a.33.33,0,0,0,.19.06l.08,0a1.47,1.47,0,0,0,.31.15l0,0h0a.32.32,0,0,0,.13.07.35.35,0,0,0,.12.06l.05.05.08,0h0l.06.06.06.06a.42.42,0,0,0,.14.11l.05.05a.35.35,0,0,0,.11.14l.06.06.06.06,0,0a.33.33,0,0,0,.06.09l0,0a.33.33,0,0,0,.06.12.34.34,0,0,0,.07.13l0,.08a.3.3,0,0,0,.06.12.33.33,0,0,0,.07.15.34.34,0,0,0,0,.1.33.33,0,0,0,.06.18v.05a.27.27,0,0,0,.06.16.44.44,0,0,0,.06.3,1.44,1.44,0,0,1,0,.26v.41a.33.33,0,0,0-.06.19v.11a.33.33,0,0,0-.06.19v.05a.33.33,0,0,0-.06.19l0,.08a.33.33,0,0,0-.08.14.33.33,0,0,0-.07.17l0,0h0a.32.32,0,0,0-.07.13.35.35,0,0,0-.06.12l-.05.05a.27.27,0,0,0,0,.08h0l-.06.06-.06.06a.43.43,0,0,0-.11.15h0l0,0h0l-.06.06L122.38,24s0,0-.07,0,0,0,0,0l-.06.05s0,0,0,.05l-1.62,1.61c-2.19,2.18-4.39,4.37-6.61,6.52l-1,1a4.37,4.37,0,0,0-1.41-2.87A4.62,4.62,0,0,0,108.73,29Zm2.64,6.84.12-.12,1.32-1.32,1.38.79L118,35.39l.79.19h-7.11A8.17,8.17,0,0,1,112.34,34.88Zm6.82,2.48-5,0a50,50,0,0,1,5.76-.25h.63c2.5,0,4.9.15,7.13.33C124.82,37.4,122,37.38,119.16,37.36Zm14.19,0s0,0-.08,0l-1.39-.18a87.37,87.37,0,0,0-20.48-.24l-.64.09c.15-.26.3-.51.47-.75h19l2.32.24c.75.08,1.53.2,2.37.32a34.6,34.6,0,0,0,4,.44Q136.13,37.33,133.35,37.37Zm2.3-27.08-1.53,1.36-.78.92-.74-.46-3-1.52-2.35-.73h9.23ZM118,10l-2.92,1.22-2.41,1.37L111,10.75,110,10l-.31-.15h9Zm-11,20.64.63-.63.13-.07c.84-.68,2.3,0,3.29,1s1.65,2.4.88,3.36l0,.07-.08.08a9.44,9.44,0,0,0-1,1.24.3.3,0,0,0-.1.14,13.77,13.77,0,0,0-.84,1.39.3.3,0,0,0-.08.15l0,0a.3.3,0,0,0-.17.22h0s0,0,0,0,0,0,0,.05a19.13,19.13,0,0,0-1.33,3.71l-.11.47-2.84-.64-3.1-.69.09-.33A21,21,0,0,1,103,38a.32.32,0,0,0,.11-.24s0,0,0,0A23.46,23.46,0,0,1,107.06,30.62Zm-49.7,53H60l-.15.74h0L57.36,95.64Zm18,21.41h.07a.32.32,0,0,0,.18-.06l0,0a.31.31,0,0,0,.06-.07l.06-.12a.32.32,0,0,0,0-.1l.05-.38.19-.69.18-1h0l.17-.82.83.17c-.19.91-.39,1.83-.57,2.72l-.06.24h0s0,.08,0,.12a.33.33,0,0,0,0,.12s.07,0,.1.07.06.06.1.07h0l1.44.33-1.3.05a26.23,26.23,0,0,0-5.26.53v-2Zm-4.28,6.55H57.36v-.9H71.1Zm130.26,36,.3-.15v16.84l-.3.15Zm1,17.23h9.42v10.68h-9.42Zm10.08-17.38.3.15v16.84l-.3-.15Zm.3-6.45-.3-.24V132.8l.3.07Zm-.3-24.15V106.66l.3.26v9.93ZM218.1,93v8.34h-4.38V93Zm0-48.6v8.34h-4.74V44.4Zm0-12.12v8.34h-4.74V32.28Zm-16.44-2.53v2.84l-.3.15V30ZM174.3,37.38v0s0,0,0,0H147.12s.06,0,.08,0ZM123,9.18h-3.27v-1h6.54v1Zm-1.29-8.12a.35.35,0,0,0,.14-.11l.06-.06h0a.3.3,0,0,0,.12-.06.3.3,0,0,0,.12-.06.33.33,0,0,0,.14-.06.34.34,0,0,0,.18-.06h.88a.33.33,0,0,0,.18.06.33.33,0,0,0,.19.06l.08,0h0a.33.33,0,0,0,.21.13l0,0a.43.43,0,0,0,.14.11l0,0h-2.6l0,0Zm-.3.74h3.12V7.5h-3.12Zm-11.1,3.93.56-.36.46.13.3.22V7.32h-1.32Zm-1.92,2.85H119.1v.6H108.42Zm-9.59,28.8,0,0,.07,0h-19a.33.33,0,0,0,.19-.06Zm-28.61.06h0Zm-.11,0H57.36v-.06H69.92A.33.33,0,0,0,70.11,37.44Zm1,66.63V110H57.36v-8.89Zm-2,71.37a.33.33,0,0,0-.19.06h0a.33.33,0,0,0-.19.06h-.05a.28.28,0,0,0-.17.06.33.33,0,0,0-.16.07l-.1,0a.29.29,0,0,0-.19.09l-.06,0a.34.34,0,0,0-.13.07.36.36,0,0,0-.14.1l0,0,0,0c.43-1.52.91-3,1.44-4.49l.27-.79v4.63Zm116.58.71h0l-.08,0h0a.42.42,0,0,0-.14-.11h0a.32.32,0,0,0-.13-.07h0a.33.33,0,0,0-.26-.14l-.08,0a1.11,1.11,0,0,0-.34-.15h-.05a.34.34,0,0,0-.19-.06h-.06a.57.57,0,0,0-.24-.06H184v-4.59l0,.08c.61,1.78,1.2,3.48,1.72,5.23Zm-1.07-5.46-.5-1.42h16.6v9.18H186.95v-.05l-.06-.22-.06-.44C186.19,175.3,185.42,173.07,184.6,170.68Zm16.76-1.75v-3.82l.3-.15v10l-.3-.3Zm11.34,5.7-.3.34V165l.3.15Zm.66-9.72h0v-.81h4.74v8.34h-4.74v-7.53Zm11.46-3.78v1.6l-.4,1.68-1,2.21h-3.78l-.3-.64v-1.61a.33.33,0,0,0-.1-.23l-.6-.6s-.06,0-.08,0a.33.33,0,0,0-.12-.05l-.23-1,.05-1.58.34-1.61,1.05-2.21h3.79l.9,1.84Zm0-10.5v1.6l-.4,1.68-1,2.21h-3.78l-.91-1.9-.53-2.3.05-1.58.34-1.61,1.05-2.21h3.79l.9,1.84Zm-6.72-6.15v1.26h-.21a.33.33,0,0,0,0,.66H219l-1,2.12-.37,1.74-.06,1.68a.32.32,0,0,0,0,.09l.56,2.41,1,2.09v.09L218,159l-.37,1.74-.06,1.68a.36.36,0,0,0,0,.08l.21.92h-4.42v-16l4.47-.06a.33.33,0,0,0,0-.66h0l-4.47.06v-2.34ZM213.36,133l.26.06h.13a.33.33,0,0,0,.26-.13l1-1.1,3,.65v3.76h-4.74Zm9.77-2.43.44-2.05c.33-1.52.66-3,1-4.57l2.12.46c-.1.47-.19.94-.3,1.42l-.18.89-.48,2h0l-.18.89c-.11.47-.2.95-.3,1.42Zm2.31,2.84c.09-.45.18-.91.27-1.36,0-.18.08-.37.12-.56h0l.13-.62.38,1.52.5,1.33-.61-.15Zm18.91,11.23-.2,1.83v8l.21,1.79H230.4V144.66ZM230.4,156.9h13.94l-.2,1.83v8l.2,1.79H230.4Zm15.39,14.5h0l-.08,0-.1-.06-.06-.07-.08-.05h0l-.06-.06-.06-.06,0,0a.33.33,0,0,0-.06-.09l0,0a.33.33,0,0,0-.07-.11l0-.07,0-.08a.3.3,0,0,0-.06-.12.34.34,0,0,0-.06-.14.28.28,0,0,0-.06-.16h0a.34.34,0,0,0-.06-.19v-.89l0,0a.19.19,0,0,0,.16-.17s0-.06,0-.1v0l-.24-2.12v-7.88l.23-2.18v0h0v0l-.24-2.12v-7.88l.24-2.16v0s0-.07,0-.1a.19.19,0,0,0-.16-.17l0,0v-.89a.34.34,0,0,0,.06-.19v0a1.58,1.58,0,0,0,.12-.31v0l0,0h0l0,0a.32.32,0,0,0,.13-.21.42.42,0,0,0,.08-.11h0a.26.26,0,0,0,.05-.08h0l.06-.06.06-.06,0,0,.09-.07,0,0,.08,0a.32.32,0,0,0,.15-.09h0v29.74Zm5.73-.14a.35.35,0,0,0,0,.1.33.33,0,0,0-.07.17l0,0h0a.26.26,0,0,0-.05.08h0l0,0-.07,0-.08,0-.1,0V159a.32.32,0,0,0,0,.13l0,.09a.34.34,0,0,0,.06.19.34.34,0,0,0,0,.14l.06.12,0,0a.34.34,0,0,0,0,.14l0,.05a.32.32,0,0,0,0,.13l.12.24,0,0a.32.32,0,0,0,.06.14v10.51a.31.31,0,0,0-.06.14Zm15.6-2.34a58.31,58.31,0,0,1-.12.36.33.33,0,0,0,0,.11.33.33,0,0,0-.07.17l0,0h0a.24.24,0,0,0,0,.07l-.06.09-.07.07a.28.28,0,0,0-.05.08h0l-.06.06-.06.06,0,0-.09.06,0,0a.33.33,0,0,0-.11.07l-.07,0-.08,0a.3.3,0,0,0-.12.06.33.33,0,0,0-.14.06.28.28,0,0,0-.15.06h0a.34.34,0,0,0-.19.06h0v-7.15l.08-.08.09-.06.08-.06.42-.42.06-.09,0,0,.09-.06.12-.12.06-.08.12-.16.06-.08,0,0a.33.33,0,0,0,.15-.15,1.78,1.78,0,0,1,.2-.3l.13-.19v6.92a.31.31,0,0,0-.06.15Z"/><path d="M255.18,157.29a.34.34,0,0,0,.06.19v.11a.33.33,0,0,0,.06.19,570284.45,570284.45,0,0,0,.12.36.34.34,0,0,0,.07.19.33.33,0,0,0,.07.13l0,.08a.33.33,0,0,0,.07.16.29.29,0,0,0,0,.08.32.32,0,0,0,.09.15l0,.07a.34.34,0,0,0,.07.11.32.32,0,0,0,.06.09l0,0a.33.33,0,0,0,.08.14l.22.22a.39.39,0,0,0,.19.19l.19.19h0l.12.12a.33.33,0,0,0,.13.07l.05.05.08,0,.1.06h0l0,0a.33.33,0,0,0,.24.13l0,0h0a.33.33,0,0,0,.2.1l0,0h0a.34.34,0,0,0,.13.07,9.64,9.64,0,0,0,.76.27h.11a.33.33,0,0,0,.19.06h.29a.34.34,0,0,0,.19.06h.54a.34.34,0,0,0,.19-.06h.29a.33.33,0,0,0,.19-.06h0a.34.34,0,0,0,.19-.06h0a.28.28,0,0,0,.17-.06h0a.34.34,0,0,0,.2-.07l.11,0a.32.32,0,0,0,.2-.07.32.32,0,0,0,.13-.07l.08,0a.33.33,0,0,0,.18-.09l0,0a.33.33,0,0,0,.14-.08l0,0a.33.33,0,0,0,.14-.08l0,0a.34.34,0,0,0,.11-.08l.06,0s0,0,.07-.05a.29.29,0,0,0,.12-.14.38.38,0,0,0,.19-.19l.25-.25a.27.27,0,0,0,0-.08l.06-.09.07-.07a.33.33,0,0,0,.07-.13l0,0a.33.33,0,0,0,.07-.13l.05-.05a.33.33,0,0,0,.09-.2l0,0h0a.32.32,0,0,0,.07-.13.33.33,0,0,0,.09-.22l0-.08a2.57,2.57,0,0,0,.15-.4v-.05a.34.34,0,0,0,.06-.19v0a.33.33,0,0,0,.06-.19V157a.34.34,0,0,0,.06-.19v-.54a.34.34,0,0,0-.06-.19v-.29a.33.33,0,0,0-.06-.19v-.11a12.53,12.53,0,0,0-.12-.37,1.83,1.83,0,0,0-.2-.5l0-.08a.33.33,0,0,0-.08-.17l0-.08a.31.31,0,0,0-.09-.15l0-.07a.36.36,0,0,0-.07-.11.31.31,0,0,0-.07-.09l0,0a.33.33,0,0,0-.08-.14l-.22-.22a.39.39,0,0,0-.19-.19l-.13-.13h0l0,0a.71.71,0,0,0-.28-.22l0,0-.08-.06-.1-.07h0l0,0a.33.33,0,0,0-.23-.13l0,0h0a.33.33,0,0,0-.2-.09l0,0h0a.33.33,0,0,0-.13-.07,3.09,3.09,0,0,0-.39-.15.33.33,0,0,0-.18-.06.34.34,0,0,0-.19-.06h-.11a.34.34,0,0,0-.19-.06h-.29a.33.33,0,0,0-.19-.06h-.54a.33.33,0,0,0-.19.06h-.29a.34.34,0,0,0-.19.06h-.05a.34.34,0,0,0-.19.06h-.05a.28.28,0,0,0-.17.06h0a.34.34,0,0,0-.2.07l-.11,0a1.38,1.38,0,0,0-.32.14l-.08,0a.33.33,0,0,0-.19.09l0,0a.33.33,0,0,0-.14.08l0,0a.33.33,0,0,0-.14.08l0,0a.32.32,0,0,0-.11.07l-.09.06-.06.06,0,0,0,0,0,0a.39.39,0,0,0-.19.19l-.25.25a.26.26,0,0,0,0,.08l-.06.1-.07.06a.35.35,0,0,0-.07.13l-.05.05a.33.33,0,0,0-.07.13l0,0a.33.33,0,0,0-.1.2l0,0h0a.34.34,0,0,0-.07.13.33.33,0,0,0-.09.22l0,.08a2.57,2.57,0,0,0-.15.4v0a.33.33,0,0,0-.06.19v.05a.34.34,0,0,0-.06.19v.29a.33.33,0,0,0-.06.19v.54a.33.33,0,0,0,.06.19Zm7.71-2.92,0,.07,0,.08a.31.31,0,0,0,.09.15l0,0a.29.29,0,0,0,.09.19l0,.06a.35.35,0,0,0,0,.1.33.33,0,0,0,.06.18.34.34,0,0,0,.06.18.34.34,0,0,0,.06.18v.11a.33.33,0,0,0,.06.19v.29a.34.34,0,0,0,.06.19v.28a.34.34,0,0,0-.06.19v.29a.33.33,0,0,0-.06.19v.05a.34.34,0,0,0-.06.18.33.33,0,0,0-.06.19v.06l0,.08a.33.33,0,0,0-.09.22l0,.08v0a.33.33,0,0,0-.14.25l0,0a.32.32,0,0,0-.07.13l-.05.05a.34.34,0,0,0-.07.13l0,0v-4.59l0,0A.34.34,0,0,0,262.89,154.37Zm-5.53-.93,0,0a.33.33,0,0,0,.14-.08l0,0a.33.33,0,0,0,.14-.08l0,0a.29.29,0,0,0,.18-.09l.06,0,.1,0a.33.33,0,0,0,.2-.07l.1,0h0a.28.28,0,0,0,.17-.06h0a.34.34,0,0,0,.19-.06h.05a.34.34,0,0,0,.19-.06h.29a.33.33,0,0,0,.19-.06h.28a.33.33,0,0,0,.19.06h.29a.34.34,0,0,0,.19.06h.11a116.87,116.87,0,0,1,.36.12.33.33,0,0,0,.19.06l.08,0h0a55.08,55.08,0,0,0,.47.25l0,0h0l.08,0,.09.06a.59.59,0,0,0,.22.16v6l-.05,0-.09.06,0,0a.35.35,0,0,0-.14.08l0,0a.33.33,0,0,0-.14.08l0,0a.3.3,0,0,0-.19.09l-.06,0-.11,0a.34.34,0,0,0-.19.07l-.11,0h-.05a.28.28,0,0,0-.17.06h0a.34.34,0,0,0-.19.06h-.05a.33.33,0,0,0-.19.06H260a.34.34,0,0,0-.19.06h-.28a.34.34,0,0,0-.19-.06h-.29a.33.33,0,0,0-.19-.06h-.11a116.89,116.89,0,0,1-.36-.12.33.33,0,0,0-.19-.06l-.08,0h0a.33.33,0,0,0-.25-.13.33.33,0,0,0-.22-.12l0,0h0l-.08,0-.1-.06-.07-.07-.08,0V153.5Zm-1.58,3a.33.33,0,0,0,.06-.19v-.29a.34.34,0,0,0,.06-.19v0a10.39,10.39,0,0,0,.12-.37v-.06l0-.08a.33.33,0,0,0,.09-.22l0-.08v0a.33.33,0,0,0,.13-.25h0v3.86a.35.35,0,0,0,0-.06l0,0a.29.29,0,0,0-.09-.19l0-.06a.33.33,0,0,0,0-.11,116.89,116.89,0,0,1-.12-.36.33.33,0,0,0-.06-.18v-.11a.34.34,0,0,0-.06-.19v-.29a.33.33,0,0,0-.06-.19Z"/><path d="M257.88,157.19v0a.31.31,0,0,0,0,.05v0l.3.54a.33.33,0,0,0,.11.11l.54.36a.31.31,0,0,0,.12,0l.66.12h.12l.6-.12.12,0L261,158a.33.33,0,0,0,.09-.09l.36-.54a.31.31,0,0,0,0-.12l.12-.6a.31.31,0,0,0,0-.12l-.12-.66a.33.33,0,0,0,0-.12l-.36-.54a.34.34,0,0,0-.11-.1l-.47-.25-.05,0,0,0,0,0-.6-.18a.33.33,0,0,0-.18,0l-.56.16H259l-.05,0h0l-.54.3a.32.32,0,0,0-.13.13l-.26.48,0,0a.31.31,0,0,0,0,.05l0,.06-.18.66a.33.33,0,0,0,0,.18Zm3-.15-.29.43-.43.29-.47.09-.52-.09-.37-.28-.29-.44-.09-.47.09-.52.29-.38.38-.29.52-.09.47.09.44.29.28.37.09.52Z"/><path d="M247.4,136.5a.34.34,0,0,0,.19.06h.35a.33.33,0,0,0,.19.06h.3a.33.33,0,0,0,.19-.06H249a.34.34,0,0,0,.19-.06h.05a.33.33,0,0,0,.19-.06,115.76,115.76,0,0,1,.36-.12.32.32,0,0,0,.2-.07.32.32,0,0,0,.12-.06.33.33,0,0,0,.15-.09l0,0a.32.32,0,0,0,.12-.06.33.33,0,0,0,.13-.07.33.33,0,0,0,.11-.07l.09-.06.16-.16a.35.35,0,0,0,.14-.11l.06-.06.06-.06,0,0,.09-.06.12-.12a.26.26,0,0,0,0-.08l.06-.09h0a.27.27,0,0,0,0-.08h0a.42.42,0,0,0,.11-.14h0a.32.32,0,0,0,.07-.13l.05-.05a.33.33,0,0,0,.07-.13.36.36,0,0,0,.06-.12.36.36,0,0,0,.06-.12,3.19,3.19,0,0,0,.15-.39.33.33,0,0,0,.06-.18.34.34,0,0,0,.06-.19v0a.33.33,0,0,0,.06-.19v-.29a.33.33,0,0,0,.06-.19v-.36a.34.34,0,0,0-.06-.19v-.35a.33.33,0,0,0-.06-.19v0a.34.34,0,0,0-.06-.19,116.89,116.89,0,0,1-.12-.36.34.34,0,0,0-.07-.2.31.31,0,0,0-.06-.12.33.33,0,0,0-.08-.15l0,0a.33.33,0,0,0-.06-.12.33.33,0,0,0-.07-.13.34.34,0,0,0-.07-.11.31.31,0,0,0-.07-.09l-.16-.16a.35.35,0,0,0-.11-.14l-.06-.06-.06-.06,0,0a.32.32,0,0,0-.06-.09l-.12-.12-.08-.05-.09-.06h0l-.08,0h0a.42.42,0,0,0-.14-.11h0a.33.33,0,0,0-.13-.07l-.05-.05a.32.32,0,0,0-.13-.07,134054,134054,0,0,0-.24-.12.33.33,0,0,0-.21-.09.33.33,0,0,0-.18-.06,12.53,12.53,0,0,0-.37-.12h0a.33.33,0,0,0-.19-.06h-.35a.34.34,0,0,0-.19-.06h-.3a.34.34,0,0,0-.19.06h-.35a.33.33,0,0,0-.19.06h0a30.32,30.32,0,0,0-.55.18.34.34,0,0,0-.19.07.32.32,0,0,0-.12.06.33.33,0,0,0-.15.08l0,0-.11.06a1.17,1.17,0,0,0-.24.14l-.09.06-.16.16a.35.35,0,0,0-.14.11l-.06.06-.06.06,0,0-.09.06-.12.12a.26.26,0,0,0,0,.08l-.06.1h0a.26.26,0,0,0,0,.08h0a.42.42,0,0,0-.11.14h0a.33.33,0,0,0-.07.13l-.05.05a.33.33,0,0,0-.07.13.36.36,0,0,0-.06.12,2.5,2.5,0,0,0-.15.33,115.76,115.76,0,0,1-.12.36.33.33,0,0,0-.06.19v.06a.58.58,0,0,0-.06.24v.29a.33.33,0,0,0-.06.19v.3a.33.33,0,0,0,.06.19v.35a.34.34,0,0,0,.06.19v.05a.33.33,0,0,0,.06.19.33.33,0,0,0,.06.18.33.33,0,0,0,.06.18,1.66,1.66,0,0,0,.13.31.33.33,0,0,0,.09.15l0,0a.32.32,0,0,0,.06.12.31.31,0,0,0,.07.13.32.32,0,0,0,.07.11.32.32,0,0,0,.06.09l.16.16a.34.34,0,0,0,.1.13l.06.06.06.06,0,0a.32.32,0,0,0,.06.09l.12.12.08,0,.1.06h0l.08.05h0a.42.42,0,0,0,.15.12h0a.33.33,0,0,0,.13.07l.05.05a.33.33,0,0,0,.13.07.36.36,0,0,0,.12.06l.12.06a.34.34,0,0,0,.21.09.33.33,0,0,0,.18.06.33.33,0,0,0,.18.06.33.33,0,0,0,.19.06Zm-.28-.78a.33.33,0,0,0-.19-.06l-.08,0-.12-.06a.36.36,0,0,0-.12-.06l-.05-.05a.33.33,0,0,0-.13-.07l-.07,0h0a.44.44,0,0,0-.14-.11h0l-.08,0-.09-.06a.35.35,0,0,0-.1-.13l-.06-.06-.06-.06,0,0a.33.33,0,0,0-.06-.09l-.16-.16a.33.33,0,0,0-.07-.11l0-.06a.31.31,0,0,0-.06-.12.33.33,0,0,0-.08-.15l0,0a4.22,4.22,0,0,1-.11-.22.33.33,0,0,0-.06-.18.34.34,0,0,0-.06-.18.33.33,0,0,0-.06-.18v0a.34.34,0,0,0-.06-.19v-.35a.32.32,0,0,0-.05-.18.33.33,0,0,0,.05-.18V132a.34.34,0,0,0,.06-.19v0a24.42,24.42,0,0,0,.18-.55l0-.08a20.41,20.41,0,0,1,.12-.24l.05-.05a.33.33,0,0,0,.07-.13l0-.07h0a.44.44,0,0,0,.12-.15h0a.26.26,0,0,0,0-.08l.06-.09a.35.35,0,0,0,.13-.1l.06-.06.06-.06,0,0,.09-.06.16-.16a.33.33,0,0,0,.11-.07l.06,0,.12-.06a.33.33,0,0,0,.15-.09l0,0a.32.32,0,0,0,.12-.06l.1,0a.33.33,0,0,0,.18-.06.33.33,0,0,0,.18-.06.33.33,0,0,0,.18-.06h.05a.33.33,0,0,0,.19-.06h.35a.34.34,0,0,0,.19-.06h0a.34.34,0,0,0,.19.06h.35a.33.33,0,0,0,.19.06h.05a37,37,0,0,0,.55.18l.08,0a.36.36,0,0,0,.12.06.34.34,0,0,0,.12.06l.05.05a.33.33,0,0,0,.13.07l.07,0h0a.42.42,0,0,0,.14.11h0l.08,0,.09.06a.36.36,0,0,0,.1.13l.06.06.06.06,0,0a.32.32,0,0,0,.06.09l.16.16a.34.34,0,0,0,.07.11l0,.06a.32.32,0,0,0,.06.12.33.33,0,0,0,.09.15l0,0a.32.32,0,0,0,.06.12,1.39,1.39,0,0,1,.11.28,1484952272858.21,1484952272858.21,0,0,1,.12.36v.05a.33.33,0,0,0,.06.19v.35a.34.34,0,0,0,.06.19v0a.33.33,0,0,0-.06.19v.35a.33.33,0,0,0-.06.19v0a.34.34,0,0,0-.06.18,12.3,12.3,0,0,0-.12.37l0,.08a201626.1,201626.1,0,0,0-.12.24l-.05.05a.33.33,0,0,0-.07.13l0,.07h0a.42.42,0,0,0-.12.15h0a.28.28,0,0,0-.05.08l-.06.09a.35.35,0,0,0-.13.1l-.06.06-.06.06,0,0-.09.06-.16.16a.32.32,0,0,0-.11.07l-.06,0a.32.32,0,0,0-.12.06.33.33,0,0,0-.15.08l0,0-.11.06-.11,0a.33.33,0,0,0-.18.06,39.12,39.12,0,0,0-.36.12h0a.34.34,0,0,0-.19.06h-.35a.33.33,0,0,0-.19.06h0a.33.33,0,0,0-.19-.06h-.35a.34.34,0,0,0-.19-.06h0a.33.33,0,0,0-.18-.06A.34.34,0,0,0,247.12,135.72Z"/><path d="M247.23,137.22h.11a.33.33,0,0,0,.19.06h.35a.34.34,0,0,0,.19.06h.42a.34.34,0,0,0,.19-.06H249a.33.33,0,0,0,.19-.06h0a.34.34,0,0,0,.19-.06h.11a.32.32,0,0,0,.21-.07l.1,0a.32.32,0,0,0,.2-.07l.1,0a.33.33,0,0,0,.23-.1l0,0a.8.8,0,0,0,.31-.15l.07,0a.34.34,0,0,0,.11-.07l.07,0a.32.32,0,0,0,.11-.08l.07,0a.36.36,0,0,0,.17-.14l.06-.05.09-.06.06-.06,0,0,0,0,.24-.24a.26.26,0,0,0,.05-.08.43.43,0,0,0,.12-.15l.07-.07a.33.33,0,0,0,.07-.13l.05-.05a.33.33,0,0,0,.07-.13l.05-.05a.33.33,0,0,0,.07-.13l0,0a.33.33,0,0,0,.07-.13.36.36,0,0,0,.06-.12,5.69,5.69,0,0,1,.21-.46v0a1169082.52,1169082.52,0,0,1,.12-.36.33.33,0,0,0,.06-.19v-.11a.34.34,0,0,0,.06-.19V133a.33.33,0,0,0,.06-.19v-.48a.34.34,0,0,0-.06-.19v-.35a.34.34,0,0,0-.06-.19v-.05a.33.33,0,0,0-.06-.19v-.11a1.65,1.65,0,0,0-.12-.31.34.34,0,0,0-.07-.19,6.1,6.1,0,0,1-.15-.33l0,0a.33.33,0,0,0-.08-.2.32.32,0,0,0-.07-.11l0-.07a.34.34,0,0,0-.07-.11l0-.07a.34.34,0,0,0-.07-.11l0-.07a.37.37,0,0,0-.14-.16l-.05-.07a.35.35,0,0,0-.06-.09l-.06-.06,0,0,0,0-.24-.24-.08,0a.42.42,0,0,0-.15-.12l-.07-.07a.33.33,0,0,0-.13-.07l-.05-.05a.33.33,0,0,0-.13-.07l0,0a.35.35,0,0,0-.13-.07l-.05-.05a.32.32,0,0,0-.13-.07.36.36,0,0,0-.12-.06,5.69,5.69,0,0,1-.46-.21h0a.33.33,0,0,0-.18-.06.34.34,0,0,0-.18-.06.33.33,0,0,0-.19-.06h-.11a.34.34,0,0,0-.19-.06h-.35a.33.33,0,0,0-.19-.06h-.42a.33.33,0,0,0-.19.06h-.35a.34.34,0,0,0-.19.06h-.05a.33.33,0,0,0-.19.06H247a.33.33,0,0,0-.2.07l-.11,0a.34.34,0,0,0-.19.07l-.11,0a.33.33,0,0,0-.22.1l0,0a.78.78,0,0,0-.31.15l-.07,0a.36.36,0,0,0-.11.07l-.07,0-.11.07-.07,0a.37.37,0,0,0-.17.14l-.07.05-.09.06L245,129l0,0,0,0-.24.24a.24.24,0,0,0-.05.08.42.42,0,0,0-.12.15l-.07.07a.33.33,0,0,0-.07.13l-.05.05a.33.33,0,0,0-.07.13l-.05.05a.32.32,0,0,0-.07.13l-.05.05a.34.34,0,0,0-.07.13.36.36,0,0,0-.06.12.33.33,0,0,0-.09.21.33.33,0,0,0-.12.25v.05a16.91,16.91,0,0,0-.18.55v.11a.33.33,0,0,0-.06.19v.35a.33.33,0,0,0-.06.19v.42a.34.34,0,0,0,.06.19v.35a.33.33,0,0,0,.06.19v0a.34.34,0,0,0,.06.19v.11a.32.32,0,0,0,.07.21.35.35,0,0,0,0,.1.32.32,0,0,0,.07.2.34.34,0,0,0,0,.1.33.33,0,0,0,.1.22l0,0a.79.79,0,0,0,.15.31l0,.07a.32.32,0,0,0,.08.11l0,.07a.32.32,0,0,0,.07.11l0,.07a.38.38,0,0,0,.14.16l.05.06a.33.33,0,0,0,.07.09l.06.06,0,0,0,0,.24.24.08.05a.42.42,0,0,0,.15.12l.07.07a.32.32,0,0,0,.13.07l.05.05a.32.32,0,0,0,.13.07l.05.05a.34.34,0,0,0,.13.07l.05.05a.32.32,0,0,0,.13.07.35.35,0,0,0,.12.06.34.34,0,0,0,.21.09.33.33,0,0,0,.25.12h0a.34.34,0,0,0,.18.06.33.33,0,0,0,.18.06A.34.34,0,0,0,247.23,137.22Zm-.42-.84h0l0,0h0a.33.33,0,0,0-.23-.1l-.08,0a.34.34,0,0,0-.12-.06l-.05-.05a.33.33,0,0,0-.13-.07l0,0a.35.35,0,0,0-.13-.07l0,0a.33.33,0,0,0-.13-.07l-.05-.05,0,0,0,0-.06-.06a.34.34,0,0,0-.13-.07l-.09-.09a.36.36,0,0,0-.14-.16l0-.06a.31.31,0,0,0-.07-.09l-.06-.06,0,0,0,0a.34.34,0,0,0-.07-.11l0-.07a.32.32,0,0,0-.08-.11l0-.07a.33.33,0,0,0-.07-.11l0,0a.33.33,0,0,0-.1-.22l0,0a.32.32,0,0,0-.07-.19.33.33,0,0,0,0-.11.34.34,0,0,0-.07-.19.33.33,0,0,0,0-.11v-.11a.34.34,0,0,0-.06-.19v-.05a.33.33,0,0,0-.06-.19v-.35a.34.34,0,0,0-.06-.19v-.1a.33.33,0,0,0,.06-.19v-.41a.33.33,0,0,0,.06-.19v-.11a1349956611716.71,1349956611716.71,0,0,1,.12-.36.34.34,0,0,0,.06-.19v0l0,0h0a.33.33,0,0,0,.09-.23l0-.08a.36.36,0,0,0,.06-.12l0,0a.35.35,0,0,0,.07-.13l.05-.05a.33.33,0,0,0,.07-.13l.05-.05A.33.33,0,0,0,245,130l.05-.05,0,0,0,0,.06-.06a.33.33,0,0,0,.07-.13l.09-.09a.37.37,0,0,0,.16-.14l.07-.05.09-.06.06-.06,0,0h0a.32.32,0,0,0,.11-.07l.07,0a.34.34,0,0,0,.11-.07l.07,0a.36.36,0,0,0,.11-.07l0,0a.33.33,0,0,0,.22-.1l0,0a.33.33,0,0,0,.19-.07l.1,0a.32.32,0,0,0,.2-.07l.1,0h.11a.33.33,0,0,0,.19-.06h0a.34.34,0,0,0,.19-.06H248a.33.33,0,0,0,.19-.06h.16a.33.33,0,0,0,.19.06h.35a.34.34,0,0,0,.19.06h.11a19.65,19.65,0,0,0,.55.18h.07a.33.33,0,0,0,.23.1l.08,0a.34.34,0,0,0,.12.06l.05.05a.32.32,0,0,0,.13.07l.05.05a.33.33,0,0,0,.13.07l.05.05a.33.33,0,0,0,.13.07l.05.05,0,0,0,0,.06.06a.33.33,0,0,0,.13.07l.09.09a.36.36,0,0,0,.14.16l.05.07a.33.33,0,0,0,.06.09l.06.06,0,0v0a.34.34,0,0,0,.07.11l0,.07a.34.34,0,0,0,.07.11l0,.07a.34.34,0,0,0,.07.11l0,0a.33.33,0,0,0,.1.22l0,0a.32.32,0,0,0,.07.19.35.35,0,0,0,0,.1,2.15,2.15,0,0,0,.12.3v.11a.33.33,0,0,0,.06.19v0a.34.34,0,0,0,.06.19v.35a.34.34,0,0,0,.06.19v.16a.33.33,0,0,0-.06.19v.35a.34.34,0,0,0-.06.19v.11a1149918.87,1149918.87,0,0,0-.12.36.33.33,0,0,0-.06.19v.06h0a.33.33,0,0,0-.1.23l0,.08a.36.36,0,0,0-.06.12l-.05.05a.34.34,0,0,0-.07.13l-.05.05a.33.33,0,0,0-.07.13l-.05.05a.33.33,0,0,0-.07.13l-.05.05,0,0,0,0-.06.06a.33.33,0,0,0-.07.13l-.09.09a.38.38,0,0,0-.16.14l-.06.05-.09.06-.06.06,0,0h0a.33.33,0,0,0-.11.07l-.07,0a.32.32,0,0,0-.11.08l-.07,0a.32.32,0,0,0-.11.08l0,0a.33.33,0,0,0-.23.1l0,0a.32.32,0,0,0-.19.07l-.11,0a.33.33,0,0,0-.19.07l-.11,0h-.11a.34.34,0,0,0-.19.06h0a.33.33,0,0,0-.19.06h-.35a.34.34,0,0,0-.19.06h-.16a.34.34,0,0,0-.19-.06h-.35a.33.33,0,0,0-.19-.06h-.11a.34.34,0,0,0-.18-.06.33.33,0,0,0-.18-.06A.34.34,0,0,0,246.81,136.38Z"/><path d="M63.6,93.39a.33.33,0,0,0,.07.2.27.27,0,0,0,.07.1,1.23,1.23,0,0,0,.1.23.31.31,0,0,0,.09.15.33.33,0,0,0,.06.09l0,0a.35.35,0,0,0,.1.14l.06.06a.42.42,0,0,0,.14.11h0l.06,0a1.93,1.93,0,0,0,.71.35h0a.33.33,0,0,0,.18.06H66a.33.33,0,0,0,.19-.06h.05a.28.28,0,0,0,.17-.06,2.28,2.28,0,0,0,.28-.13l.08,0a.33.33,0,0,0,.18-.12L67,94.5l.06-.06h0l.1-.05h0a.32.32,0,0,0,.1-.16v0a.33.33,0,0,0,.13-.23l0,0h0a2.38,2.38,0,0,0,.22-.53v-.17a.33.33,0,0,0,.06-.19v-.18a.33.33,0,0,0-.06-.19v-.17a.33.33,0,0,0-.06-.19.33.33,0,0,0-.1-.23s0,0,0-.05a.33.33,0,0,0-.12-.18h0a.33.33,0,0,0-.12-.18l-.06-.06-.06-.06-.06-.06L67,91.42,67,91.36a.42.42,0,0,0-.14-.11h0l0,0a1.84,1.84,0,0,0-.56-.25.39.39,0,0,0-.25,0l-.12,0h-.48a.33.33,0,0,0-.19.06h-.05a.33.33,0,0,0-.19.06.28.28,0,0,0-.16.07.29.29,0,0,0-.12.06.33.33,0,0,0-.18.12l0,0-.09.06,0,0a.39.39,0,0,0-.18.18s-.05,0-.07,0l0,0a.33.33,0,0,0-.19.27l0,0h0a2.34,2.34,0,0,0-.22.53v.17a.33.33,0,0,0-.06.19V93a.33.33,0,0,0,.06.19Zm2.13-1.72.15,0,.53.44.53.43,0,.25-.13.47-.06.51,0,.08,0,0-.43.13-.4.17-.48.13-.5-.41-.51-.51v0l.24-1,0-.23Z"/><path d="M60.84,93.57a.33.33,0,0,0,.06.19v.11a.33.33,0,0,0,.06.19v.11a.28.28,0,0,0,.08.18.33.33,0,0,0,0,.13.33.33,0,0,0,.06.18s0,0,0,.07a.31.31,0,0,0,0,.11.29.29,0,0,0,.09.19l0,.06a.33.33,0,0,0,.09.15h0s0,.07,0,.09a.33.33,0,0,0,.07.11l0,.06a.33.33,0,0,0,.09.15l0,0s0,0,0,.06l0,.07a.36.36,0,0,0,.13.16l0,0s0,0,0,.06l.06.06,0,0,0,0,.24.24h0l.12.12,0,0,0,0,.06.06.08,0a.41.41,0,0,0,.15.13h0a.33.33,0,0,0,.13.07L63,97a.34.34,0,0,0,.14.07l.1.06.05.05a.32.32,0,0,0,.13.07.38.38,0,0,0,.14.07.33.33,0,0,0,.17.08l0,0h0a.33.33,0,0,0,.23.1h0a.32.32,0,0,0,.14.06.33.33,0,0,0,.19.06h.05a.33.33,0,0,0,.19.06h.05a.33.33,0,0,0,.19.06h.23a.33.33,0,0,0,.19.06h.84a.33.33,0,0,0,.19-.06h.23a.33.33,0,0,0,.19-.06h.05a.33.33,0,0,0,.17-.06h0a2.83,2.83,0,0,0,.51-.18h0a.33.33,0,0,0,.23-.1l0,0a.33.33,0,0,0,.22-.1h0s.07,0,.09,0a.32.32,0,0,0,.11-.07l.06,0a.33.33,0,0,0,.15-.09l.06-.06,0,0a.33.33,0,0,0,.15-.08l.11-.12a.35.35,0,0,0,.14-.11A.33.33,0,0,0,69,96.5l.06-.06,0,0,0,0,.06-.06s0,0,0,0l0,0,.06-.06a.27.27,0,0,0,.05-.08.43.43,0,0,0,.12-.15h0s0-.06,0-.08a.4.4,0,0,0,.14-.15h0a.32.32,0,0,0,.07-.13l0,0a.33.33,0,0,0,.09-.19.21.21,0,0,1,.07-.1A.35.35,0,0,0,70,95.1a.33.33,0,0,0,.09-.21l0-.08a.39.39,0,0,0,.07-.15,2,2,0,0,0,.14-.38v-.05a.31.31,0,0,0,0-.13s0,0,0-.06v-.11a.33.33,0,0,0,.06-.19v-.23a.33.33,0,0,0,.06-.19v-.2a.34.34,0,0,0,0,0v-.44a.34.34,0,0,0,0,0,.33.33,0,0,0-.06-.19v-.25a.34.34,0,0,0,0,0,.33.33,0,0,0-.06-.19v-.05a.33.33,0,0,0-.06-.19v0a.34.34,0,0,0,0,0,.33.33,0,0,0-.06-.19.28.28,0,0,0-.06-.16.33.33,0,0,0-.06-.11v0a.33.33,0,0,0-.07-.2.32.32,0,0,0-.06-.12.33.33,0,0,0-.09-.15h0s0-.06,0-.09a.33.33,0,0,0-.07-.13,7.92,7.92,0,0,0-.14-.2l0,0a.32.32,0,0,0-.07-.11l0-.06a.33.33,0,0,0-.09-.15l-.06-.06,0,0s0,0,0,0l-.3-.3-.18-.18,0,0,0,0-.06-.06a.33.33,0,0,0-.13-.07l0,0,0,0L68.48,89a.33.33,0,0,0-.13-.07l0,0s0,0-.07,0l0,0,0,0a.33.33,0,0,0-.13-.07.35.35,0,0,0-.12-.06l0-.05h0s0,0-.07,0a.31.31,0,0,0-.16-.07l-.08,0a.33.33,0,0,0-.19-.09h0a.31.31,0,0,0-.14-.06.33.33,0,0,0-.19-.06H67a.41.41,0,0,0-.21,0h0a.33.33,0,0,0-.19-.06h-.21a.32.32,0,0,0-.15-.06H65.13a.33.33,0,0,0-.19.06h-.17a.33.33,0,0,0-.19.06h-.11a.32.32,0,0,0-.15.06h0a.33.33,0,0,0-.2.07l-.11,0s0,0-.07,0a.31.31,0,0,0-.11,0,1.12,1.12,0,0,0-.34.16l-.06.06a.28.28,0,0,0-.09,0,.33.33,0,0,0-.13.07.32.32,0,0,0-.11.07L63,89h0a.27.27,0,0,0-.11.05l-.1.1a.33.33,0,0,0-.15.09l-.06.06,0,0a.37.37,0,0,0-.16.14.39.39,0,0,0-.11.13.39.39,0,0,0-.16.16l-.19.19a.33.33,0,0,0-.07.13s0,0,0,0l-.07.07a.27.27,0,0,0,0,.08l-.06.1h0s0,.07,0,.1l0,0a.26.26,0,0,0,0,.08l-.06.1h0a.33.33,0,0,0-.07.13s0,.07,0,.1,0,.06,0,.11l0,0a.33.33,0,0,0-.1.22.31.31,0,0,0,0,.12s0,0,0,.07a.33.33,0,0,0-.06.19v.06a.56.56,0,0,0-.05.22h0a.33.33,0,0,0-.06.19v.15a.32.32,0,0,0-.06.15v.44a.34.34,0,0,0,0,0v.42h0Zm1.51-2.84.06-.09.07-.07a.26.26,0,0,0,0-.08l0,0a.41.41,0,0,0,.15-.17l.07-.07,0,0,0,0,.06-.06,0,0,0,0,0,0a.37.37,0,0,0,.16-.14l.06-.05.07,0a.33.33,0,0,0,.11-.07l.09-.06,0,0,.12-.06a4032784.07,4032784.07,0,0,0,.24-.12l.11,0a.28.28,0,0,0,.16-.06.33.33,0,0,0,.14-.06.28.28,0,0,0,.16-.06h0a.33.33,0,0,0,.19-.06h.05A.33.33,0,0,0,64.9,89h.17a.33.33,0,0,0,.19-.06H66a.33.33,0,0,0,.19.06h.17a.33.33,0,0,0,.19.06h.05a.34.34,0,0,0,.18.06,16.44,16.44,0,0,0,.37.12l.08,0a2016392.17,2016392.17,0,0,0,.24.12.36.36,0,0,0,.12.06l.07,0,.09.06h0l.08,0,.09.06.07.07.08,0,.09.06.19.19,0,0,0,0,.06.06,0,0,0,0,0,0a.37.37,0,0,0,.14.16l.05.06,0,.07a7.92,7.92,0,0,0,.14.2l0,0a.33.33,0,0,0,.06.12,81.32,81.32,0,0,0,.12.24.32.32,0,0,0,0,.11.28.28,0,0,0,.06.16.33.33,0,0,0,.06.14.28.28,0,0,0,.06.16h0a.33.33,0,0,0,.06.19V92a.33.33,0,0,0,.06.19v.17a.33.33,0,0,0,.06.19v.76a.33.33,0,0,0-.06.19v.17a.33.33,0,0,0-.06.19v.05a.34.34,0,0,0-.06.18,16.44,16.44,0,0,0-.12.37l0,.08a.36.36,0,0,0-.06.12.36.36,0,0,0-.06.12.35.35,0,0,0-.06.12L69,95l-.06.09h0a.25.25,0,0,0-.05.08l-.06.09-.07.07a.27.27,0,0,0,0,.08l-.06.1-.19.19,0,0,0,0-.06.06,0,0,0,0,0,0a.37.37,0,0,0-.16.14l-.06.05-.07,0a.33.33,0,0,0-.11.07l-.09.06,0,0-.12.06a40.69,40.69,0,0,1-.24.12l-.11,0a.28.28,0,0,0-.16.06.33.33,0,0,0-.14.06.28.28,0,0,0-.16.06h0a.33.33,0,0,0-.19.06h-.05a.33.33,0,0,0-.19.06h-.17a.33.33,0,0,0-.19.06h-.76a.33.33,0,0,0-.19-.06H64.9a.33.33,0,0,0-.19-.06h-.05a232.74,232.74,0,0,0-.36-.12.33.33,0,0,0-.19-.06l-.08,0a.36.36,0,0,0-.12-.06.35.35,0,0,0-.12-.06.36.36,0,0,0-.12-.06l-.07,0-.1-.06h0l-.08,0-.09-.06-.07-.07-.08,0L63.09,96l-.19-.19,0,0,0,0-.06-.06,0,0,0,0,0,0a.37.37,0,0,0-.14-.16l-.05-.06,0-.07a.33.33,0,0,0-.07-.11.33.33,0,0,0-.06-.09l0,0a.33.33,0,0,0-.06-.11.34.34,0,0,0-.06-.12.32.32,0,0,0-.06-.12.32.32,0,0,0,0-.11.28.28,0,0,0-.06-.16.33.33,0,0,0-.06-.14.28.28,0,0,0-.06-.16h0a.33.33,0,0,0-.06-.19v-.05a.33.33,0,0,0-.06-.19v-.17a.33.33,0,0,0-.06-.19v-.76a.33.33,0,0,0,.06-.19V92.2A.33.33,0,0,0,61.8,92V92a232.74,232.74,0,0,0,.12-.36.33.33,0,0,0,.06-.19l0-.08a.36.36,0,0,0,.06-.12,2016392,2016392,0,0,1,.12-.24l0-.07.06-.09h0A.27.27,0,0,0,62.35,90.73Z"/><path d="M21.28,117.19a3.1,3.1,0,0,0,1.55-.38,2.74,2.74,0,0,0,1.06-1.09,3.16,3.16,0,0,0,.39-1.56,2.78,2.78,0,0,0-.76-2,2.59,2.59,0,0,0-1.94-.79,3.62,3.62,0,0,0-1,.17l.43-2.35h3.06v-.82H20.33l-.8,4.28a4.87,4.87,0,0,1,1.85-.46,2,2,0,0,1,1.47.54,1.9,1.9,0,0,1,.55,1.42,2.25,2.25,0,0,1-.61,1.61,1.94,1.94,0,0,1-1.46.64,1.89,1.89,0,0,1-.83-.19,1.72,1.72,0,0,1-.63-.5,1.94,1.94,0,0,1-.34-.81h-.88a2.63,2.63,0,0,0,.86,1.66A2.57,2.57,0,0,0,21.28,117.19Z"/><path d="M26.12,115.89a.73.73,0,0,0,0,1,.71.71,0,0,0,1,0,.73.73,0,0,0,0-1,.72.72,0,0,0-1,0Z"/><path d="M30.43,117.19l2.61-3.9a6.93,6.93,0,0,0,.76-1.4,3.24,3.24,0,0,0,.21-1.12,2.68,2.68,0,0,0-.35-1.32,2.48,2.48,0,0,0-1-1,2.62,2.62,0,0,0-1.32-.35,2.74,2.74,0,0,0-1.36.36,2.55,2.55,0,0,0-1,1,2.63,2.63,0,0,0-.35,1.34,2.53,2.53,0,0,0,.72,1.83,2.33,2.33,0,0,0,1.74.74,2.83,2.83,0,0,0,.88-.15l-2.33,3.53Zm.94-4.59a1.81,1.81,0,1,1,1.29-.53A1.75,1.75,0,0,1,31.38,112.6Z"/><path d="M36.57,116.71a2.49,2.49,0,0,0,1.49.47,2.56,2.56,0,0,0,1.52-.49,3.2,3.2,0,0,0,1.08-1.45,8.74,8.74,0,0,0,0-5.18,3.21,3.21,0,0,0-1.08-1.45,2.56,2.56,0,0,0-1.52-.48,2.5,2.5,0,0,0-1.49.48,3.06,3.06,0,0,0-1,1.41,7.48,7.48,0,0,0-.37,2.64,7.4,7.4,0,0,0,.37,2.63A3.07,3.07,0,0,0,36.57,116.71Zm-.59-4a7,7,0,0,1,.26-2.21,2.37,2.37,0,0,1,.77-1.13,1.69,1.69,0,0,1,2.15,0,2.5,2.5,0,0,1,.79,1.21,6.64,6.64,0,0,1,.29,2.13,6.74,6.74,0,0,1-.32,2.22,2.31,2.31,0,0,1-.76,1.13A1.7,1.7,0,0,1,37,116a2.35,2.35,0,0,1-.77-1.13A7.1,7.1,0,0,1,36,112.68Z"/><path d="M45.84,108.13,43.22,112a7,7,0,0,0-.77,1.4,3.22,3.22,0,0,0-.21,1.11,2.69,2.69,0,0,0,.35,1.33,2.46,2.46,0,0,0,1,1,2.64,2.64,0,0,0,1.32.34,2.77,2.77,0,0,0,1.37-.35,2.53,2.53,0,0,0,1-1,2.65,2.65,0,0,0,.35-1.34,2.53,2.53,0,0,0-.72-1.83A2.33,2.33,0,0,0,45.1,112a2.76,2.76,0,0,0-.88.16l2.33-3.53Zm-.95,4.59a1.81,1.81,0,1,1-1.28.53A1.75,1.75,0,0,1,44.89,112.72Z"/><path d="M53.43,36.81H24.09a.24.24,0,0,0,0,.48h8.72l-1.4,9.08a.24.24,0,0,0,.24.28h1.2v58.68a.24.24,0,1,0,.48,0V46.65h1.2a.24.24,0,0,0,.24-.28l-1.4-9.08H53.43a.24.24,0,0,0,0-.48Z"/><polygon points="0 73.43 0 74.25 4.12 74.25 0.14 81.9 0.85 82.27 5.47 73.43 0 73.43"/><path d="M7.1,81a.73.73,0,0,0,0,1,.71.71,0,0,0,1,0,.73.73,0,0,0,0-1,.72.72,0,0,0-1,0Z"/><path d="M14.4,82V80h1v-.82h-1v-6h-.17L9.42,80h4.12v2ZM11,79.23l2.55-3.62v3.62Z"/><path d="M19,81.43A2,2,0,0,1,17.67,81,2.45,2.45,0,0,1,17,79.74h-.84a3.14,3.14,0,0,0,1,1.88,2.74,2.74,0,0,0,1.86.64,3.08,3.08,0,0,0,1.49-.36,2.68,2.68,0,0,0,1.05-1,2.74,2.74,0,0,0,.39-1.4,2.36,2.36,0,0,0-.56-1.54,2.51,2.51,0,0,0-1-.74,2,2,0,0,0,1.11-1.76,2.06,2.06,0,0,0-.32-1.09,2.28,2.28,0,0,0-.9-.83A2.65,2.65,0,0,0,19,73.21a2.41,2.41,0,0,0-1.61.57,2.9,2.9,0,0,0-.92,1.64h.88A2.37,2.37,0,0,1,18,74.37a1.52,1.52,0,0,1,1-.31,1.61,1.61,0,0,1,1.13.41,1.28,1.28,0,0,1,.45,1,1.22,1.22,0,0,1-.22.7,1.57,1.57,0,0,1-.71.53,2.71,2.71,0,0,1-1.08.21v.79a4.23,4.23,0,0,1,1.48.28,1.79,1.79,0,0,1,.76.66,1.71,1.71,0,0,1,.28.94,1.8,1.8,0,0,1-.57,1.32A2,2,0,0,1,19,81.43Z"/><path d="M28.31,74.25v-.82H24.58l-.8,4.28a4.87,4.87,0,0,1,1.85-.46,2,2,0,0,1,1.47.54,1.9,1.9,0,0,1,.55,1.42A2.25,2.25,0,0,1,27,80.82a1.94,1.94,0,0,1-1.46.64,1.89,1.89,0,0,1-.83-.19,1.72,1.72,0,0,1-.63-.5,1.94,1.94,0,0,1-.34-.81H22.9a2.63,2.63,0,0,0,.86,1.66,2.57,2.57,0,0,0,1.77.64,3.1,3.1,0,0,0,1.55-.38,2.74,2.74,0,0,0,1.06-1.09,3.16,3.16,0,0,0,.39-1.56,2.78,2.78,0,0,0-.76-2,2.59,2.59,0,0,0-1.94-.79,3.62,3.62,0,0,0-1,.17l.43-2.35Z"/><path d="M5.13.57h8.72l-1.4,9.08a.24.24,0,0,0,.24.28h1.2V70.41a.24.24,0,0,0,.48,0V9.93h1.2a.24.24,0,0,0,.24-.28L14.41.57h105a.24.24,0,1,0,0-.48H5.13a.24.24,0,1,0,0,.48Z"/><path d="M53.43,178.53H33.37l1.4-9.08a.24.24,0,0,0-.06-.19.24.24,0,0,0-.18-.08h-1.2V119.61a.24.24,0,1,0-.48,0v49.56h-1.2a.24.24,0,0,0-.18.08.24.24,0,0,0-.06.19l1.4,9.08H14.41l1.4-9.08a.24.24,0,0,0-.06-.19.24.24,0,0,0-.18-.08h-1.2V84.69a.24.24,0,1,0-.48,0v84.48h-1.2a.24.24,0,0,0-.24.28l1.4,9.08H5.13a.24.24,0,1,0,0,.48h48.3a.24.24,0,1,0,0-.48Z"/></svg>