<svg id="Layer_1" data-name="Layer 1" xmlns="http://www.w3.org/2000/svg" viewBox="0 0 448.1 360.98"><title>Artboard 1</title><path d="M337.68,92.17v.1l.39.39h94.28L431,100.13l.35.69h1.1v114c0,.38.11.49.49.49s.49-.11.49-.49v-114h1.1l.35-.69-1.32-7.47h14a.48.48,0,0,0,.49-.49c0-.38-.11-.49-.49-.49H338.17A.48.48,0,0,0,337.68,92.17Z"/><path d="M447.61,360h-14l1.3-7.39v-.08l-.35-.69h-1.1v-114c0-.38-.11-.49-.49-.49s-.49.11-.49.49v114h-1.1l-.35.69,1.32,7.47H339l-.39.39v.1a.48.48,0,0,0,.49.49H447.61c.38,0,.49-.11.49-.49A.48.48,0,0,0,447.61,360Z"/><path d="M424.57,230.9c.38,0,.49-.11.49-.49v-2.15h1.43a.48.48,0,0,0,.49-.49c0-.38-.11-.49-.49-.49h-1.43v-5.52h-.86l-4,5.69v.42l.39.39h3.45v2.15C424.08,230.79,424.19,230.9,424.57,230.9Zm-.49-7v3.36h-2.44Z"/><polygon points="428.4 229.54 428.4 230.27 429.03 230.9 429.47 230.9 430.1 230.27 430.1 229.54 429.48 229.23 429.13 229.2 428.4 229.54"/><path d="M438.26,227.05l-.33-.72a.34.34,0,0,0,0-.21.37.37,0,0,0-.18-.23.33.33,0,0,0-.18-.25l0-.1a.39.39,0,0,0-.21-.31.46.46,0,0,0-.4,0l-.53-.35h-.23l1.5-2.16a.47.47,0,0,0,.34-.47.46.46,0,0,0-.13-.34h0l-.06,0,0,0a.58.58,0,0,0-.26-.07h-4.32c-.38,0-.49.11-.49.49s.11.49.49.49h3.2L434.64,225v.81H436l.57.14.46.46.21.83V228l-.17.83-.69.69-1.11.44h-.86l-1.11-.44-.16-.16-.28-.83h-.18l-.06,0a.41.41,0,0,0-.53,0,.32.32,0,0,0-.22.19.39.39,0,0,0,.11.42l.21.63v.35l.64.32,1.2.48.09,0h1.49l1.25-.5.8-.78c.15-.15.34-.34.19-.6l.33-.67Z"/><path d="M445.31,223.68c.18-.26,0-.44-.16-.65l-.79-.79h-.29l-.91-.45-.11,0h-.72l-1.29.5-.89.87-.15.15,0,0-.26,1.09a.51.51,0,0,0,0,.1h0a1.42,1.42,0,0,0,0,.14v.24a.78.78,0,0,0,0,.09,1.92,1.92,0,0,0,0,.19l.28,1.4h.34l.48.48a.3.3,0,0,0,0,.1l.08.08a.37.37,0,0,0,.27.23.34.34,0,0,0,.23,0l.83.33.09,0H443l.78-.36c.26.14.45,0,.6-.19l.24-.24-.43,1.75a.53.53,0,0,0,0,.18l-.48.6-1,.41h-.61l-.91-.45-.11,0h0l-.21-.31a.48.48,0,0,0-.48-.41.39.39,0,0,0-.43.37.37.37,0,0,0,.22.33l.25,1h.39l1,.39a.59.59,0,0,0,.28.09h1l1-.48h.32l.64-1.06a.49.49,0,0,0,.14-.17.36.36,0,0,0,.22-.28.34.34,0,0,0-.08-.26l.39-1.59a1.31,1.31,0,0,0,0-.17v-2Zm-3.94-.46,1.25-.48h.14l1.11.44.4.4.42,1.46-.18.91-.45.33-1.3.52h-.14l-1.16-.46-.09,0h-.12l-.37-.37-.22-1.08v-.19l.16-.82.5-.66Zm1.16,4.3h0Z"/><path d="M34.45,93.61h0a.3.3,0,0,0,0,.1.32.32,0,0,0,.08.08.38.38,0,0,0,.23.23A.36.36,0,0,0,35,94l.4.26,2.29.7a.48.48,0,0,0,.16.06l.63.41.21.2.44.66v.78l-.59.59-1.08.22H36.3l-1.13-.23-.6-.6a.36.36,0,0,0-.69-.09.37.37,0,0,0-.22.33.38.38,0,0,0,.31.36l.49.49a.5.5,0,0,0,.07.17s0,0,0,.07v.21l1.32.26h0a.45.45,0,0,0,.29.13l.12,0a.3.3,0,0,0,.11-.08h.94a.39.39,0,0,0,.39.08.3.3,0,0,0,.14-.12L39,98.64l.05-.05c.19-.19.28-.28.3-.46l.73-.55V96.19c0-.06,0-.12,0-.18v-.08l-.49-.73a.46.46,0,0,0-.28-.36.47.47,0,0,0-.36-.28l-.67-.44L36,93.42a.48.48,0,0,0-.2-.06l-.51-.17a.43.43,0,0,0-.14-.06L35.06,93s0-.09,0-.13v-.08l-.48-.72v-.3l.59-.59a.42.42,0,0,0,.17-.08l1-.39h1.1l1.11.44.68.68c.15.15.25.25.42.25s.26-.1.42-.25l.07-.07v-.47l-.73-.54c0-.21-.08-.54-.43-.54h0l-.83-.17-.32-.32H35.91l-.31.31-.91.19-.05.06a.65.65,0,0,0-.17.41l-.25.25H34l-.39.39v1.14l.49.73A.47.47,0,0,0,34.45,93.61Z"/><path d="M42.25,98.9h5c.38,0,.49-.11.49-.49a.48.48,0,0,0-.49-.49H42.74v-3.1h2.63a.48.48,0,0,0,.49-.49c0-.38-.11-.49-.49-.49H42.74v-3.1h4.55c.38,0,.49-.11.49-.49a.48.48,0,0,0-.49-.49H42.15l-.39.39v8.26A.48.48,0,0,0,42.25,98.9Z"/><path d="M48.49,90.74h2.39v7.67c0,.38.11.49.49.49a.48.48,0,0,0,.49-.49V90.74H54a.48.48,0,0,0,.49-.49v-.1l-.39-.39H48.39l-.39.39v.1A.48.48,0,0,0,48.49,90.74Z"/><path d="M67.78,95l.9-.18a.44.44,0,0,0,.41-.31l.53-.27v-.36l.15-.49a.58.58,0,0,0,.08-.27V91.69l-.25-.8L69,90.24h-.28L67.9,90a.47.47,0,0,0-.45-.28H64.09a.48.48,0,0,0-.49.49v8.16c0,.38.11.49.49.49a.48.48,0,0,0,.49-.49V95.06h2.87A.61.61,0,0,0,67.78,95Zm1-1.6-.51.51-.78.17H64.58V90.74H67.4l1,.38a.45.45,0,0,0,.18.09l.14.14.21.63v.86Z"/><path d="M72.25,98.9a.48.48,0,0,0,.49-.49V94.82h1.92l2.49,4.08h.14l.06,0a.45.45,0,0,0,.24.08.5.5,0,0,0,.35-.18l.07-.07v-.41l-2.15-3.52,1-.48h.28l.6-.6.18-.74a.56.56,0,0,0,.08-.35v-1l-.25-.8-.61-.65h-.28L76.06,90a.47.47,0,0,0-.45-.28H72.25a.48.48,0,0,0-.49.49v8.16C71.76,98.79,71.87,98.9,72.25,98.9ZM77,92.61l-.21.63-.16.16-1.11.44H72.74v-3.1h2.82l1,.38a.45.45,0,0,0,.18.09l.14.14L77,92Z"/><path d="M80.41,98.9h5a.48.48,0,0,0,.49-.49v-.1l-.39-.39H80.9v-3.1h2.73l.39-.39v-.1a.48.48,0,0,0-.49-.49H80.9v-3.1h4.55a.48.48,0,0,0,.49-.49v-.1l-.39-.39H80.41a.48.48,0,0,0-.49.49v8.16C79.92,98.79,80,98.9,80.41,98.9Z"/><path d="M90.57,98.9a.31.31,0,0,0,.12.08l.12,0a.45.45,0,0,0,.29-.13h0l1.33-.27v-.21s0,0,0-.07a.5.5,0,0,0,.07-.17l.5-.5.15-.07a.46.46,0,0,0,.21-.4v-1c0-.06,0-.11,0-.17v-.08l-.49-.73a.44.44,0,0,0-.34-.36l-.21-.21-.79-.41a.45.45,0,0,0-.3-.14l-2.79-.93-.4-.4-.21-.63v-.34l.62-.62.87-.44h1.33l1,.39a.42.42,0,0,0,.17.08l.6.6a.45.45,0,0,0,.08.17.36.36,0,0,0,.61-.08.37.37,0,0,0,.22-.33.38.38,0,0,0-.31-.36l-.49-.49a.65.65,0,0,0-.17-.41l-.05-.06-.9-.18-.32-.32H89.19l-.31.31-.78.17a.45.45,0,0,0-.45.35l-.39.39a.48.48,0,0,0-.37.48v1a.44.44,0,0,0,.06.2l.19.58.06.1a1,1,0,0,0,.37.28l.07.13,0,.06c.14.15.32.32.56.22l.44.29,2,.63v0l1.06.53.18.17.44.66v.78l-.59.59-1.08.22H89.35l-.89-.22L87.79,97c-.34-.34-.49-.34-.83,0l-.07.07v.45l.79.79.09.08.15.16.05.05,1.13.23a.31.31,0,0,0,.14.12.39.39,0,0,0,.39-.08Z"/><path d="M100,98.59l.15-.15.89-.88V95.93l-.49-.73a.44.44,0,0,0-.14-.26l-.19-.38h-.32l-.66-.44L97,93.42a.48.48,0,0,0-.2-.06l-.51-.17a.43.43,0,0,0-.14-.06L96,93s0-.09,0-.13v-.08l-.48-.72v-.3l.59-.59a.42.42,0,0,0,.17-.08l1-.39h1.33l.87.44.69.69c.15.15.25.25.42.25s.26-.1.42-.25l.07-.07v-.45l-.76-.76a.43.43,0,0,0-.4-.34l-.83-.17-.32-.32H97.21a.47.47,0,0,0-.44.28l-1.12.23-.05.06a.65.65,0,0,0-.17.41l-.25.25h-.23l-.39.39v1.14l.49.73a.47.47,0,0,0,.37.39h0a.3.3,0,0,0,0,.1.32.32,0,0,0,.08.08.38.38,0,0,0,.23.23A.36.36,0,0,0,96,94l.4.26,2.29.7a.47.47,0,0,0,.16.06l.69.46.1.05.48.76v.78l-.6.6-.83.21H97.26l-1.13-.23-.6-.6a.36.36,0,0,0-.69-.09.37.37,0,0,0-.22.33.38.38,0,0,0,.31.36l.49.49a.5.5,0,0,0,.07.17s0,0,0,.07v.21l1.33.27a.45.45,0,0,0,.29.13l.12,0a.3.3,0,0,0,.11-.08h.94a.4.4,0,0,0,.39.08.3.3,0,0,0,.14-.12l1.13-.23Z"/><path d="M106.68,98.88l1.34-.27v-.34l.48-.48.1,0a.35.35,0,0,0,.14-.24l.47-1.17,0-6.2-.39-.39h-.1a.48.48,0,0,0-.49.49v5.94l-.45.91,0,.11s0,0,0,.05l-.62.47-.81.19h-.67l-.83-.17-.7-.7-.44-.87V90.25a.48.48,0,0,0-.49-.49h-.1l-.39.39v6.1l.5,1.29.78.8.09.08.15.16.05.05,1.13.23a.3.3,0,0,0,.14.12l.12,0a.46.46,0,0,0,.27-.11H106a.61.61,0,0,0,.33.11A.55.55,0,0,0,106.68,98.88Z"/><path d="M111.85,98.9a.48.48,0,0,0,.49-.49V94.82h1.94l2.61,3.92a.33.33,0,0,0,.19.24l.12,0a.51.51,0,0,0,.35-.18.46.46,0,0,0,.16-.47.31.31,0,0,0-.18-.17l-2.06-3.37,1.27-.5.61-.58.18-.73a.38.38,0,0,0,.07-.18.3.3,0,0,0,.09-.12.39.39,0,0,0-.08-.39v-.06a.56.56,0,0,0,0-.7l-.22-.67-.59-.63L115.65,90a.47.47,0,0,0-.44-.28h-3.36a.48.48,0,0,0-.49.49v8.16C111.36,98.79,111.47,98.9,111.85,98.9Zm4.58-7.55.21.63v.64l-.21.63-.16.16-1.11.44h-2.82v-3.1h2.82l1,.38a.45.45,0,0,0,.18.09Z"/><path d="M120,98.9h5c.38,0,.49-.11.49-.49a.48.48,0,0,0-.49-.49H120.5v-3.1h2.73l.39-.39v-.1a.48.48,0,0,0-.49-.49H120.5v-3.1H125c.38,0,.49-.11.49-.49a.48.48,0,0,0-.49-.49h-5a.48.48,0,0,0-.49.49v8.16C119.52,98.79,119.63,98.9,120,98.9Z"/><path d="M128.49,97.8l-.07-.06-.12,0-.12-.12a.48.48,0,0,0-.48-.37h-.1l-.49.49a.45.45,0,0,0-.17.08.35.35,0,0,0-.15.28,2.58,2.58,0,0,0,.36.49l.08,0a.47.47,0,0,0,.25.28l0,.08,0,0-.37.56v0l-.05,0a.45.45,0,0,0-.22.08.35.35,0,0,0-.15.28.36.36,0,0,0,.22.33.49.49,0,0,0,.45.28h.1l.58-.59.52-.78v-.08a1.32,1.32,0,0,0,0-.17v-.79A.43.43,0,0,0,128.49,97.8Zm-.09,1.12h0Zm-.72-.28h0Zm.73-.48h0Z"/><path d="M139,98.41c0,.38.11.49.49.49a.48.48,0,0,0,.49-.49V94.82h1.92l2.49,4.08h.14l.07,0a.45.45,0,0,0,.24.08.5.5,0,0,0,.35-.18l.07-.07v-.41l-2.15-3.52,1-.48h.28l.6-.6.18-.74a.56.56,0,0,0,.08-.35v-1l-.25-.8-.61-.65h-.28l-.82-.21a.47.47,0,0,0-.45-.28h-3.36a.48.48,0,0,0-.49.49Zm5.28-5.8-.21.63-.16.16-1.11.44h-2.82v-3.1h2.82l1,.38a.45.45,0,0,0,.18.09l.14.14.21.63Z"/><path d="M147.61,98.9h5a.48.48,0,0,0,.49-.49v-.1l-.39-.39H148.1v-3.1h2.73l.39-.39v-.1a.48.48,0,0,0-.49-.49H148.1v-3.1h4.55a.48.48,0,0,0,.49-.49v-.1l-.39-.39h-5.14a.48.48,0,0,0-.49.49v8.16C147.12,98.79,147.23,98.9,147.61,98.9Z"/><path d="M154.81,98.9h4.8a.48.48,0,0,0,.49-.49v-.1l-.39-.39H155.3V90.25a.48.48,0,0,0-.49-.49h-.1l-.39.39v8.26A.48.48,0,0,0,154.81,98.9Z"/><path d="M161.53,98.9a.48.48,0,0,0,.49-.49V90.15l-.39-.39h-.1a.48.48,0,0,0-.49.49v8.16C161,98.79,161.15,98.9,161.53,98.9Z"/><path d="M164.16,90.25v8.16c0,.38.11.49.49.49h5c.38,0,.49-.11.49-.49a.48.48,0,0,0-.49-.49h-4.55v-3.1h2.63a.48.48,0,0,0,.49-.49c0-.38-.11-.49-.49-.49h-2.63v-3.1h4.55c.38,0,.49-.11.49-.49a.48.48,0,0,0-.49-.49h-5A.48.48,0,0,0,164.16,90.25Z"/><path d="M172.09,89.76a.48.48,0,0,0-.49.49v8.16c0,.38.11.49.49.49a.48.48,0,0,0,.49-.49V94.82h2.73l.39-.39v-.1a.48.48,0,0,0-.49-.49h-2.63v-3.1h4.55a.48.48,0,0,0,.49-.49v-.1l-.39-.39Z"/><path d="M33.35,112a.41.41,0,0,0,.06-.55s0,0,0-.06v-.25h-.25c-.35,0-.47.09-.49.41l-.41.62-.68.69-.37.24a.5.5,0,0,0-.22,0H29.53a.5.5,0,0,0-.22,0L29.2,113a.4.4,0,0,0-.27-.2l-.42-.42a.35.35,0,0,0,0-.13.37.37,0,0,0-.16-.14l0,0-.19-.56-.46-1.16v-1.58l.47-1.17.18-.54a.44.44,0,0,0,.06-.14l.6-.6a.4.4,0,0,0,.27-.2l.41-.27H30.9l.62.41.69.68.44.66c0,.32.14.41.49.41h.25v-.25s0,0,0-.07a.41.41,0,0,0-.06-.55l-.22-.67-.78-.82-.09-.08-.15-.16-.68-.26a.47.47,0,0,0-.45-.3H29.53a.47.47,0,0,0-.45.3l-.76.25v.32l-.41.41a.35.35,0,0,0-.13,0,.37.37,0,0,0-.14.16.37.37,0,0,0-.21.22.34.34,0,0,0,0,.17l-.29.44-.48,1.2,0,.09a.47.47,0,0,0,0,.12.46.46,0,0,0,0,.12v1.68a.46.46,0,0,0,0,.12.47.47,0,0,0,0,.12l.52,1.34.26.4a.35.35,0,0,0,0,.17.39.39,0,0,0,.3.25l.58.58v.32l.84.28a.56.56,0,0,0,.36.14.61.61,0,0,0,.33-.11h.87l.06,0a.41.41,0,0,0,.55-.06l.67-.22.1-.06.15-.15.81-.81Z"/><path d="M39.39,111.38l.95,2.48.06.09a.55.55,0,0,0,.35.18l.12,0A.3.3,0,0,0,41,114c.24,0,.31-.17.31-.48l-3.14-8.25-.06-.09a.5.5,0,0,0-.42-.17.51.51,0,0,0-.42.17l-3.18,8.25,0,.09c0,.31.07.44.31.48a.3.3,0,0,0,.12.09.45.45,0,0,0,.47-.16l1-2.57Zm-1.7-4.44L39,110.4H36.37Zm.24-1.56h0Zm-.48,0h0Zm0,0h0Z"/><path d="M47.71,109.86a.68.68,0,0,0,.16-.3l.39-.2V109l.09-.27.39-.39v-1.3a.47.47,0,0,0-.3-.45l-.2-.59-.59-.63-1.12-.22a.47.47,0,0,0-.44-.28H42.73a.48.48,0,0,0-.49.49v8.16c0,.38.11.49.49.49a.48.48,0,0,0,.49-.49v-3.35h3.16l1.28-.26Zm-4.49-4H46l1,.39a.42.42,0,0,0,.22.09l.06,0v0l.48.73V108l-.26.53h-.12l-.25.51-1,.21H43.22Z"/><path d="M55.51,113.95a.64.64,0,0,0,.43.18.57.57,0,0,0,.41-.18l.07-.07v-.34l-3.14-8.25-.06-.09a.5.5,0,0,0-.42-.17.51.51,0,0,0-.42.17l-3.18,8.25,0,.09c0,.31.07.44.31.48a.3.3,0,0,0,.12.1l.12,0a.55.55,0,0,0,.35-.18l1-2.57h3.4l.95,2.48Zm-4-3.55,1.32-3.46,1.32,3.46Zm1.57-5h0Zm-.48,0Z"/><path d="M62.66,105.75v-.33l-.76-.19-.34-.34H59.67l-.39.39-.31.11-.1.06-.13.14-.11.1-.48.48a.34.34,0,0,0-.13,0,.39.39,0,0,0-.18.28l-.44.67-.28,1.34v2.21l.24,1.2.55.85.72.72.09.08.15.16.63.23.07,0a.31.31,0,0,0,.15.13.39.39,0,0,0,.39-.08h1a.46.46,0,0,0,.27.11l.12,0a.31.31,0,0,0,.14-.13l1-.25v-.33l.68-.68.52-.78v-.08c0-.32,0-.38-.31-.66l-.07-.07h-.1a.48.48,0,0,0-.48.4l-.49.73v.13l-.72.54V113l-.1.05-1.91,0,0,0-.1-.05v-.07l-.76-.76-.45-.68-.23-1.1v-1.63l.23-1.15.42-.64.79-.79v-.07l.53-.26h1.08l.53.26v.09l.72.54v.13l.49.73a.48.48,0,0,0,.48.4h.1l.07-.07c.27-.27.31-.33.31-.66v-.08l-.55-.82Z"/><path d="M66,104.88a.48.48,0,0,0-.49.49v8.16c0,.38.11.49.49.49s.49-.11.49-.49v-8.16A.48.48,0,0,0,66,104.88Z"/><path d="M70.32,113.53c0,.38.11.49.49.49a.48.48,0,0,0,.49-.49v-7.67h2.15a.65.65,0,0,0,.31-.06l3,3.74v4c0,.38.11.49.49.49s.49-.11.49-.49v-4l3.12-3.84v-.43l-.07-.07c-.15-.15-.25-.25-.42-.25s-.26.1-.43.27l-2.69,3.31-2.64-3.25a.36.36,0,0,0-.69-.11s0,0-.05,0a.47.47,0,0,0-.46-.33H67.83l-.39.39v.1a.48.48,0,0,0,.49.49h2.39Zm4.09-8.16Zm-.24,0h0Z"/><path d="M81.84,114.82v.5l.07.07c.27.27.33.31.66.31h.15l.22-.44,0,0,.08,0h.18l.3-.89V112.9l-.24-.12v-.06l-.08-.08c-.27-.27-.33-.31-.66-.31h-.1l-.63.63v.45l.49.49a.39.39,0,0,0,.17.25l-.14.41Z"/><path d="M94.33,106.76a.61.61,0,0,0,.39-.22l.55-.27.22-.9a.54.54,0,0,0,.06-.23v-1a.43.43,0,0,0-.13-.32l-.2-.41h-.79l-.16.31a.78.78,0,0,0-.35.24l-.07.07v.45l.63.63h0l-.06.22-.27.51a.48.48,0,0,0-.32.46v.1l.07.07C94.08,106.68,94.21,106.76,94.33,106.76Z"/><path d="M97.63,103.75l-.31-.31h-.45l-.63.63v.45l.31.31a.34.34,0,0,0,0,.13.39.39,0,0,0,.29.18l-.13.52-.06.05-.46.23v.5l.07.07c.17.17.29.25.42.25s.25-.08.42-.25l.18-.18a.38.38,0,0,0,.3-.27.34.34,0,0,0,0-.21l.18-.36a.52.52,0,0,0,.15-.36v-1a.42.42,0,0,0-.18-.37A.34.34,0,0,0,97.63,103.75Z"/><path d="M105.62,105.37a.48.48,0,0,0-.49-.49H105l-.39.39v6.21l.11.11-.3.6-.76.76-.48.22-.13-.13h-.82a.48.48,0,0,0-.3.1l-.61-.24a.42.42,0,0,0-.17-.08l-.36-.36a.52.52,0,0,0,0-.12l-.48-1v-6l-.39-.39h-.1a.48.48,0,0,0-.49.49v6a.58.58,0,0,0,.09.26l.39,1a.35.35,0,0,0,.14.24l.1,0,.48.48v.34l1.33.27a.41.41,0,0,0,.53,0l.06,0h.15a.46.46,0,0,0,.27.11l.12,0a.3.3,0,0,0,.14-.12l1.13-.23.05-.05.14-.14.87-.87.23-1.13a.3.3,0,0,0,.12-.14.39.39,0,0,0-.08-.39Z"/><path d="M107.71,105.19a.64.64,0,0,0-.43-.18h0a.57.57,0,0,0-.41.18l-.07.07v.34l3,8a.32.32,0,0,0,0,.23.44.44,0,0,0,.43.28h.05a.46.46,0,0,0,.23-.07l.07,0h.17L114,105.7l0-.09c0-.31-.07-.44-.31-.48a.3.3,0,0,0-.12-.1.46.46,0,0,0-.47.16l-2.7,7-2.65-6.92Z"/><path d="M115,105.91a.46.46,0,0,0-.16.47.3.3,0,0,0,.12.14.37.37,0,0,0,.33.23.37.37,0,0,0,.34-.26l.44-.22.52-1,0-.84a.58.58,0,0,0-.07-.24.37.37,0,0,0-.07-.09l-.11-.09,0,0a.38.38,0,0,0-.09-.12l-.2-.41h-.5l-.31.31a.34.34,0,0,0-.13,0,.37.37,0,0,0-.14.16l-.08,0a.35.35,0,0,0-.15.28,2.5,2.5,0,0,0,.36.49.35.35,0,0,0,.13,0h0a.35.35,0,0,0,0,.13.38.38,0,0,0,.21.16l-.29.58Z"/><path d="M117.49,103.85a.38.38,0,0,0-.08.11l-.08,0a.35.35,0,0,0-.14.28.37.37,0,0,0,.23.33.39.39,0,0,0,.08.11l.2.41h.23l-.28.56-.15.15a.44.44,0,0,0-.17.08.35.35,0,0,0-.14.28.36.36,0,0,0,.22.33l0,.08a.35.35,0,0,0,.28.14.37.37,0,0,0,.34-.26l.44-.22.52-1,0-.83a.43.43,0,0,0-.17-.37l-.07-.06,0,0a.39.39,0,0,0-.09-.12l-.2-.41h-.79Zm.12.56Z"/><path d="M130.51,114.1l.12,0a.46.46,0,0,0,.27-.11h.87l.06,0a.4.4,0,0,0,.53,0l1.33-.27v-.34l.59-.59a.38.38,0,0,0,.31-.36.36.36,0,0,0-.18-.31v-.45a.61.61,0,0,0,.11-.33.56.56,0,0,0-.14-.36l-.22-.67-.06-.1a1,1,0,0,0-.37-.28l-.1-.21-.8-.4a.45.45,0,0,0-.31-.14l-2-.59v-.08l-.76-.19-.47-.47-.21-.63v-.34l.72-.72.76-.33H132l1,.39a.42.42,0,0,0,.17.08l.6.6a.44.44,0,0,0,.08.17.36.36,0,0,0,.61-.08.37.37,0,0,0,.22-.33.38.38,0,0,0-.31-.36l-.59-.58v-.34l-1.25-.25a.47.47,0,0,0-.44-.28h-1.44a.46.46,0,0,0-.46.33l-.74.15a.45.45,0,0,0-.45.35l-.39.39a.48.48,0,0,0-.37.48v1a.44.44,0,0,0,.06.2l.19.58.06.1a1,1,0,0,0,.37.28l.07.13,0,.06c.15.15.32.32.56.22l.17.11a.46.46,0,0,0,.37.22l2.09.7.93.46.18.17.24.37a.5.5,0,0,0,0,.22v1a.52.52,0,0,0,0,.12l-.36.36a.42.42,0,0,0-.17.08l-.61.24a.48.48,0,0,0-.3-.1h-1.44a.48.48,0,0,0-.3.1l-.41-.16-.79-.82a.64.64,0,0,0-.66-.22.41.41,0,0,0-.24.4v.34l.79.79.09.08.15.16.05.05,1,.2a.38.38,0,0,0,.15.05A.3.3,0,0,0,130.51,114.1Zm.06-.33Zm.24,0h0Z"/><path d="M139.22,109.45v-.08s0-.07,0-.1l3.12-3.57v-.09a.49.49,0,0,0-.28-.45.36.36,0,0,0-.69.11l-2.64,3.25-2.7-3.32c-.15-.15-.25-.25-.42-.25s-.26.1-.42.25l-.07.07v.43l3.12,3.84v4c0,.38.11.49.49.49a.48.48,0,0,0,.49-.49Z"/><path d="M150,104.88v0l0,0a.48.48,0,0,0-.48.44l-2.63,6.89-2.65-6.92-.37-.4h-.1a.48.48,0,0,0-.49.49v8.16c0,.38.11.49.49.49a.48.48,0,0,0,.49-.49v-5.31l2.16,5.64.06.09a.6.6,0,0,0,.32.16h.11a.67.67,0,0,0,.39-.17l2.22-6.2v5.78c0,.38.11.49.49.49a.48.48,0,0,0,.49-.49v-8.26l-.39-.39Z"/><path d="M156.43,114.13l.12,0a.31.31,0,0,0,.12-.09.39.39,0,0,0,.15-.05l1-.2.05-.05.13-.14.11-.1.17-.17h.33l.21-.86a.56.56,0,0,0,.08-.35v-1.22a.45.45,0,0,0-.06-.2l-.19-.58-.06-.1-.14-.13-.07-.08-.23-.45.13-.26a.68.68,0,0,0,.3-.16l.05,0,.18-.74a.56.56,0,0,0,.08-.35v-1l-.31-1h-.27l-.24-.48h-.32l-.81-.16a.47.47,0,0,0-.46-.33h-3.36a.48.48,0,0,0-.49.49v8.16c0,.38.11.49.49.49h3A.46.46,0,0,0,156.43,114.13Zm1.3-7.62.19.58v.64l-.19.58-.53.26v.08l-.76.3h-2.82v-3.1h2.82l.76.3v.08Zm-.53,6.44-.41.19a.48.48,0,0,0-.3-.1h-2.87v-3.1h2.82l.83.17.49.49.17.54V112l-.09.27Z"/><path d="M163.38,114l.06,0h.87a.46.46,0,0,0,.27.11l.12,0a.31.31,0,0,0,.12-.09.38.38,0,0,0,.17-.07l.74-.18,0,0c.13-.13.29-.29.24-.48l.3-.3a.51.51,0,0,0,.17-.07l.07,0h.18l.29-.88.48-1.2,0-.09a.55.55,0,0,0,0-.1s0-.08,0-.14v-1.68a.58.58,0,0,0,0-.1s0-.08,0-.14l-.49-1.28-.3-.89h-.18l-.07,0a.51.51,0,0,0-.17-.07l-.3-.3c0-.2-.11-.35-.24-.48l0,0-.62-.15a.47.47,0,0,0-.47-.35h-1.44a.47.47,0,0,0-.45.3l-.76.25v.18s0,0,0,.07a.5.5,0,0,0-.07.17l-.3.3c-.2,0-.35.11-.48.24l-.26.69a.37.37,0,0,0,0,.09.44.44,0,0,0-.12.3v0l-.36.9,0,.09a1.32,1.32,0,0,0,0,.17v1.83a1.38,1.38,0,0,0,0,.16l.38,1a.46.46,0,0,0,.13.34l.28.84h.18l.07,0a.49.49,0,0,0,.17.07l.38.38a.49.49,0,0,0,.07.17s0,0,0,.07v.18l.84.28A.41.41,0,0,0,163.38,114Zm-2.81-5.35h0Zm2,4.12-.6-.6a.4.4,0,0,0-.2-.27l-.19-.29a.51.51,0,0,0-.08-.14.46.46,0,0,0-.06-.23l-.18-.87v-1.63l.19-.94a.39.39,0,0,0,.06-.21.51.51,0,0,0,.08-.14l.19-.29a.4.4,0,0,0,.2-.27l.6-.6a.4.4,0,0,0,.27-.2l.41-.27h1.29l.41.27a.4.4,0,0,0,.27.2l.6.6a.44.44,0,0,0,.06.14l.19.56.46,1.16v1.58l-.47,1.17-.18.54a.44.44,0,0,0-.06.14l-.6.6a.4.4,0,0,0-.27.2l-.12.08a.5.5,0,0,0-.22,0h-1.44a.5.5,0,0,0-.22,0l-.12-.08A.4.4,0,0,0,162.6,112.81Z"/><path d="M169.69,104.88h-.1l-.39.39v8.26a.48.48,0,0,0,.49.49h4.8a.48.48,0,0,0,.49-.49v-.1l-.39-.39h-4.41v-7.67A.48.48,0,0,0,169.69,104.88Z"/><path d="M177.16,112.67l-.06,0a.49.49,0,0,0-.45-.3h-.1l-.63.63v.34a.42.42,0,0,0,.18.37l.13,0h0a.35.35,0,0,0,0,.13.37.37,0,0,0,.16.14l0,.08a.38.38,0,0,0,.09.09l-.11.33,0,.09-.51.25v.39a.48.48,0,0,0,.49.49h.1l.38-.38.1,0a.34.34,0,0,0,.13-.19.36.36,0,0,0,.07-.11l.43-.64v-.08a1.32,1.32,0,0,0,0-.17V112.9Zm.2,1.38h0Zm-.72-.28h0Z"/><path d="M6,126.08v-.17l-.07-.07-2-5.18a.32.32,0,0,0,0-.23.31.31,0,0,0-.11-.12.32.32,0,0,0-.11-.11.3.3,0,0,0-.21,0,.3.3,0,0,0-.21,0,.31.31,0,0,0-.11.11.31.31,0,0,0-.11.12.32.32,0,0,0,0,.23l-2,5.14-.12.12v.1a.35.35,0,0,0,0,.07L0,128.56,0,129l.07.07a.42.42,0,0,0,.59.1l.07,0H.91l.93-2.64H5.31l.94,2.45a.34.34,0,0,0,.2.28l.12,0a.45.45,0,0,0,.29-.12.33.33,0,0,0,.22-.19.39.39,0,0,0-.12-.42Zm-3.83-.56,1.32-3.74,1.43,3.74Z"/><path d="M13.93,120h-.1l-.39.39v6.74l-4.55-6.73a.67.67,0,0,0-.07-.18.46.46,0,0,0-.4-.21h-.1l-.39.39v8.26a.48.48,0,0,0,.49.49c.38,0,.49-.11.49-.49v-6.7l4.65,7.19h.14l.06,0a.45.45,0,0,0,.24.08.5.5,0,0,0,.35-.18l.07-.07v-8.5A.48.48,0,0,0,13.93,120Z"/><path d="M22.56,122.32l-.29-.44a.34.34,0,0,0,0-.17.37.37,0,0,0-.17-.21.27.27,0,0,0-.16-.21.26.26,0,0,0-.15,0l-.4-.4v-.34l-1.25-.25a.47.47,0,0,0-.44-.28H16.95l-.39.39v8.26a.48.48,0,0,0,.49.49h2.4l.07,0a.41.41,0,0,0,.53,0l1.33-.27v-.34l.48-.48.1,0a.32.32,0,0,0,.08-.08.38.38,0,0,0,.23-.23.35.35,0,0,0,0-.17l.29-.44.48-1.2,0-.09a1.33,1.33,0,0,0,0-.17v-1.83a1.39,1.39,0,0,0,0-.16Zm.24,3.25h0ZM17.54,121h2.1l1,.39a.42.42,0,0,0,.17.08l.6.6a.43.43,0,0,0,.06.14l.19.56.46,1.16v1.58l-.46,1.16-.19.56a.43.43,0,0,0-.06.14l-.6.6a.42.42,0,0,0-.17.08l-.61.25a.48.48,0,0,0-.3-.1H17.54Z"/><path d="M33.51,118.56l-.63.63v.45l.63.63h0l-.07.26-.58.58v.45l.07.07c.17.17.29.25.42.25s.25-.08.42-.25l.17-.17h.33l.24-1a.54.54,0,0,0,.06-.23v-1l-.34-.73Z"/><path d="M35.91,118.56l-.63.63v.45l.31.31a.34.34,0,0,0,0,.13.38.38,0,0,0,.21.16l-.34.68v0l-.24.12v.5l.07.07c.17.17.29.25.42.25s.25-.08.42-.25l.24-.24.4-.78a.52.52,0,0,0,.15-.36v-1.06l-.63-.63Z"/><path d="M44.17,120h-.1l-.39.39v6.68l-4.37-6.75L39,120h-.1a.48.48,0,0,0-.49.49v8.16c0,.38.11.49.49.49a.48.48,0,0,0,.49-.49v-6.39l4.3,6.36v0a.47.47,0,0,0,.3.45.3.3,0,0,0,.14.12l.12,0a.51.51,0,0,0,.35-.18l.07-.07v-8.5A.48.48,0,0,0,44.17,120Z"/><path d="M53,121.22a.39.39,0,0,0-.3-.25l-.15-.15a.41.41,0,0,0-.4-.34l-.83-.17L51,120H47.19l-.39.39v8.26a.48.48,0,0,0,.49.49h3.27a.46.46,0,0,0,.27.11l.12,0a.3.3,0,0,0,.14-.12l1.13-.23.05-.05a1,1,0,0,0,.28-.37l.09,0a.38.38,0,0,0,.35-.28.34.34,0,0,0,0-.21l.13-.27c.2-.09.2-.31.2-.45V126a.5.5,0,0,0-.22-.39l-.12-.18c.1-.24-.07-.41-.22-.56l-.18-.18a.52.52,0,0,0-.13-.25.48.48,0,0,0,.1-.15.47.47,0,0,0,.24-.24.37.37,0,0,0,.21-.24.34.34,0,0,0,0-.21l.13-.27c.19-.09.19-.31.19-.45v-.72a.78.78,0,0,0,0-.09s0-.1,0-.15v-.08L53,121.4A.34.34,0,0,0,53,121.22Zm-1.93,7-.06-.06H47.78v-3.1h3l.89.22.43.43.17.54v.92l-.09.27-.52.52Zm1.27-5.37-.19.58-.37.19-1.16.46H47.78V121H50.6l1.15.46.31.16.06,0,0,.06.17.5Z"/><path d="M56.84,119.41a.37.37,0,0,0-.23-.33.39.39,0,0,0-.08-.11l-.2-.41h-.79l-.2.41a.39.39,0,0,0-.08.11l-.08,0a.35.35,0,0,0-.15.28.36.36,0,0,0,.19.31.27.27,0,0,0,.15.2l.17.34h.14v.09l0,0-.05.1h-.12l-.25.51-.12.06a.35.35,0,0,0-.14.28.36.36,0,0,0,.19.31.27.27,0,0,0,.17.22l.11,0c.12,0,.22-.09.35-.23l.55-.27.22-.9,0,0a.3.3,0,0,0,.13-.14.39.39,0,0,0-.08-.39v-.2A.36.36,0,0,0,56.84,119.41Zm-.43-.12Z"/><path d="M59.06,119.7a.3.3,0,0,0,.08-.11.4.4,0,0,0-.09-.4.39.39,0,0,0-.17-.26.35.35,0,0,0-.13,0l-.31-.31H58l-.63.63v.45l.63.63h0l-.13.51-.06.05-.46.23v.5l.07.07a.75.75,0,0,0,.51.25.41.41,0,0,0,.16,0,.39.39,0,0,0,.23-.28l.11-.11h.33l.24-1,0,0a.31.31,0,0,0,.12-.14.39.39,0,0,0-.08-.39Zm-.25-.41Z"/><path d="M73.5,120.48l-.79-.16a.47.47,0,0,0-.46-.33H70.81a.47.47,0,0,0-.44.28l-1.25.25v.34l-.35.35a.47.47,0,0,0-.33.27.37.37,0,0,0-.22.33.36.36,0,0,0,.18.31v.2a.39.39,0,0,0-.08.39.3.3,0,0,0,.13.15h0l.18.54v.35l.51.25a.38.38,0,0,0,.24.25.33.33,0,0,0,.17,0l.46.31h.25l2,.65a.45.45,0,0,0,.19.07l.54.27v.12l.53.26.19.58v.82l-.72.72-.41.19a.48.48,0,0,0-.3-.1H70.81a.48.48,0,0,0-.3.1l-.61-.25a.42.42,0,0,0-.17-.08l-.6-.6a.36.36,0,0,0-.69-.09.37.37,0,0,0-.22.33.38.38,0,0,0,.31.36l.59.59v.34l1.33.27a.41.41,0,0,0,.53,0l.06,0h.87a.46.46,0,0,0,.27.11l.12,0a.3.3,0,0,0,.12-.09.38.38,0,0,0,.15-.05l1-.2.05-.05.15-.15.51-.51a.48.48,0,0,0,.37-.48v-1.52l-.49-.73a.45.45,0,0,0-.14-.26l-.19-.38h-.32l-.66-.44-2.29-.7a.48.48,0,0,0-.2-.06l-.51-.17-.06,0,0-.06-.18-.35-.2-.3v-.9l.35-.35a.42.42,0,0,0,.17-.08l1-.39H72.2l.76.3.79.82c.34.34.5.34.83,0l.07-.07v-.45l-.76-.76A.43.43,0,0,0,73.5,120.48Z"/><path d="M81.62,120.49a.48.48,0,0,0-.49-.49H75.85a.48.48,0,0,0-.49.49c0,.38.11.49.49.49H78v7.67c0,.38.11.49.49.49s.49-.11.49-.49V121h2.15C81.51,121,81.62,120.87,81.62,120.49Z"/><path d="M85.44,120.4l-.06-.09a.78.78,0,0,0-.21-.14.4.4,0,0,0-.13,0h-.11l0,0-.08,0-.08,0h-.18l-2.92,8.28a.39.39,0,0,0-.12.42.33.33,0,0,0,.22.19.41.41,0,0,0,.53,0l.07,0h.18l.93-2.64h3.23l1,2.64h.17l.06,0a.4.4,0,0,0,.53,0,.33.33,0,0,0,.22-.19.39.39,0,0,0-.12-.42Zm-1.66,5.12,1.2-3.41,1.31,3.41Z"/><path d="M96.25,120h-.1l-.31.31-2.7,7-2.63-6.89A.48.48,0,0,0,90,120h-.1l-.39.39v8.26a.48.48,0,0,0,.49.49c.38,0,.49-.11.49-.49v-5.31l2.22,5.8h.17l.07,0a.46.46,0,0,0,.23.07h.05a.31.31,0,0,0,.21,0,.32.32,0,0,0,.11-.11.31.31,0,0,0,.11-.12.32.32,0,0,0,0-.23l2.06-5.39v5.31a.48.48,0,0,0,.49.49c.38,0,.49-.11.49-.49v-8.16A.48.48,0,0,0,96.25,120Z"/><path d="M104.83,121l-.53-.53-.9-.18-.32-.32H99.27l-.39.39v8.26a.48.48,0,0,0,.49.49c.38,0,.49-.11.49-.49V125.3H103l.09,0,1.21-.24.05-.06a1.34,1.34,0,0,0,.23-.34l.32-.16v-.32l.48-.72V122.1c0-.06,0-.11,0-.17v-.08l-.42-.62A.79.79,0,0,0,104.83,121Zm-2.1,3.29H99.86V121h2.82l1.14.45.1,0v0l.48.73v.83l-.44.87-.16.16Z"/><path d="M112.57,121c.38,0,.49-.11.49-.49a.48.48,0,0,0-.49-.49h-5.14l-.39.39v8.26a.48.48,0,0,0,.49.49h5c.38,0,.49-.11.49-.49a.48.48,0,0,0-.49-.49H108v-3.1h2.63a.48.48,0,0,0,.49-.49c0-.38-.11-.49-.49-.49H108V121Z"/><path d="M118.05,120.28a.47.47,0,0,0-.44-.28H115a.48.48,0,0,0-.49.49v8.16c0,.38.11.49.49.49h2.31a.61.61,0,0,0,.34.11.55.55,0,0,0,.34-.13l1.33-.27v-.34l.68-.68.5-.77.48-1.2,0-.09a.5.5,0,0,1,0-.24v-1.68a.5.5,0,0,1,0-.24l-.52-1.34-.44-.67a.39.39,0,0,0-.18-.28.34.34,0,0,0-.13,0l-.41-.41v-.34Zm1,7.23-.72.54v.05l-.41.16a.48.48,0,0,0-.3-.1h-2.15V121h2.1l.76.3v.05l.72.54V122l.5.74.46,1.16v1.58l-.44,1.11-.52.78v.13Z"/><path d="M132.86,129.06a.39.39,0,0,0,.18.07.3.3,0,0,0,.12.09l.12,0a.46.46,0,0,0,.27-.11h.87l.06,0a.41.41,0,0,0,.55-.06l.67-.22.1-.06.14-.14.82-.82.28-.76a.46.46,0,0,0,.13-.34l.36-.9,0-2.25-.38-1a.44.44,0,0,0-.12-.32.37.37,0,0,0,0-.09l-.2-.59-.78-.82-.09-.08-.15-.16-.69-.26a.47.47,0,0,0-.45-.3h-1.44a.47.47,0,0,0-.47.35l-.74.18v.33l-.41.41a.34.34,0,0,0-.13,0,.39.39,0,0,0-.18.28l-.47.71-.48,1.2,0,.09a.47.47,0,0,0,0,.12.46.46,0,0,0,0,.12v1.68a.48.48,0,0,1,0,.24l.52,1.34.51.76.65.65v.33Zm-.6-7.18.72-.54v-.12l.31-.23h1.29l.62.41.69.68.36.54a.52.52,0,0,0,.08.14.46.46,0,0,0,.06.23l.18.87v1.65l-.18.9a.47.47,0,0,0-.06.23.53.53,0,0,0-.08.14l-.33.5-.68.69-.37.24a.5.5,0,0,0-.22,0h-1.44a.5.5,0,0,0-.22,0h0V128l-.72-.54v-.13l-.5-.74-.46-1.16V123.9l.44-1.11.52-.78v-.13Z"/><path d="M145.7,120.49a.48.48,0,0,0-.49-.49h-.1l-.39.39v6.74l-4.55-6.73a.67.67,0,0,0-.07-.18.46.46,0,0,0-.4-.21h-.1l-.39.39v8.26a.48.48,0,0,0,.49.49c.38,0,.49-.11.49-.49v-6.7l4.65,7.19H145l.07,0a.46.46,0,0,0,.24.08.51.51,0,0,0,.35-.18l.07-.07Z"/><path d="M161.3,120.87v-.33l-.76-.19-.34-.34h-1.89l-.39.39-.31.11-.1.06-.15.16-.57.56a.34.34,0,0,0-.13,0,.39.39,0,0,0-.18.28l-.44.67-.28,1.34v2.21L156,127l.55.85.72.72.09.08.15.16.62.23.07,0a.3.3,0,0,0,.15.13.39.39,0,0,0,.39-.08h1a.46.46,0,0,0,.27.11l.12,0a.3.3,0,0,0,.14-.13l1-.25v-.33l.68-.68.52-.78V127c0-.32,0-.38-.31-.66l-.07-.07H162a.48.48,0,0,0-.48.4l-.49.73v.13l-.72.54v.09l-.1.05-1.81,0-.3-.17-.69-.68-.45-.68-.23-1.1V123.9l.23-1.15.42-.64.68-.69.66-.44h1.07l.53.26v.09l.72.54V122l.49.73a.48.48,0,0,0,.48.4h.1l.07-.07c.27-.27.31-.33.31-.66v-.08l-.55-.82Z"/><path d="M168.27,126.5l1,2.64h.17l.07,0a.42.42,0,0,0,.59-.1l.07-.07v-.34L167,120.4l-.06-.09a.61.61,0,0,0-.33-.17h-.1a.67.67,0,0,0-.39.17l-2.93,8.21a.39.39,0,0,0-.11.42.33.33,0,0,0,.22.19.45.45,0,0,0,.29.12l.12,0a.34.34,0,0,0,.2-.28l.94-2.45Zm-1.7-4.44,1.32,3.46h-2.65Z"/><path d="M177.07,121l-.21-.21a.41.41,0,0,0-.4-.34l-.83-.17-.32-.32h-3.81l-.39.39v8.26a.48.48,0,0,0,.49.49c.38,0,.49-.11.49-.49V125.3h3.14l.09,0,1.21-.24.05-.06a1.33,1.33,0,0,0,.23-.34l.18-.09.06,0c.15-.15.32-.32.22-.56l.34-.5V122.1c0-.05,0-.11,0-.17v-.08l-.42-.62A.78.78,0,0,0,177.07,121Zm-2.1,3.29H172.1V121h2.82l1.14.45.32.16.06,0,0,.06.17.5v.86l-.14.57-.46.46Z"/><path d="M108.39,242.88,107,244.23v.07l-.72.36v.5l.07.07a.45.45,0,0,0,.47.16.3.3,0,0,0,.14-.12l.89-.22.34-.34v6.84c0,.38.11.49.49.49a.48.48,0,0,0,.49-.49v-8.26l-.39-.39Z"/><path d="M120.73,247.68h-7c-.38,0-.49.11-.49.49a.48.48,0,0,0,.49.49h7a.48.48,0,0,0,.49-.49C121.22,247.79,121.11,247.68,120.73,247.68Z"/><path d="M128.9,247.15a.48.48,0,0,0-.37-.42l-.35-.35V246l-1.25-.25a.47.47,0,0,0-.44-.28h-1a.47.47,0,0,0-.44.28l-.6.12.27-2.06h3.41c.38,0,.49-.11.49-.49a.48.48,0,0,0-.49-.49h-3.84c-.38,0-.49.11-.49.46l-.43,3.24-.05.05V247a.59.59,0,0,0,.08.25h0a.46.46,0,0,0,.4.21h.1l.49-.49a.41.41,0,0,0,.17-.08l1-.39h.86l.76.3v.05l.72.54s0,0,0,.05l.48,1v.61l-.44,1.11-.41.41-1.11.44h-.86l-1.2-.48h0l-.12-.24h-.12l-.36-.72h-.5l-.07.07a.45.45,0,0,0-.16.47.3.3,0,0,0,.14.15l.18.55v.35l.64.32,1.2.48.09,0h1.49l1.24-.5.8-.78.46-1.1a.58.58,0,0,0,.09-.28v-1a.48.48,0,0,0-.15-.42Z"/><path d="M134,247.78a.52.52,0,0,0-.14.24l-3.48,6,0,.06v.07a.49.49,0,0,0,.29.45.31.31,0,0,0,.14.12l.12,0a.54.54,0,0,0,.35-.18l3.25-6h0a.27.27,0,0,0,.15-.2.36.36,0,0,0,.18-.22.33.33,0,0,0,0-.19l3.44-6v-.56h-.88Z"/><path d="M140.3,251.51l1.22.49.09,0h1.68a.47.47,0,0,0,.42-.15l.82-.33h.3l.39-.39v-.27l.26-.39a.51.51,0,0,0,.22-.4v-1.52l-.55-.82-.65-.65v-.34l-.26-.05.19-.13a.46.46,0,0,0,.47-.16l.3-.82v-1a.42.42,0,0,0,0-.18l-.26-1h-.39l-1-.38a.47.47,0,0,0-.29-.1h-1.68l-1.38.53-.4.8a.51.51,0,0,0-.15.36v1l.56.83a.59.59,0,0,0,.17.12l.33.22,0,0-.16.16-.08.08-.72.72-.26.68a.47.47,0,0,0-.3.45v1.3l.39.39.09.27v.36Zm3.94-6.26-.19.56-1.6.53-1.33-.44-.46-.69v-.35l.32-.64.92-.37h1.34l.86.35.14.41Zm-2.93,2.38.85-.18.31-.09.29.09.82.16.67.5v.12l.49.73v.81l-.48.72v.08s0,0,0,.07l-1,.4H141.9l-1.2-.48-.13-.24h-.12l-.26-.53V249l.42-.64Z"/><path d="M161.53,242.88a.48.48,0,0,0-.49.49v3.35H156.5v-3.35a.48.48,0,0,0-.49-.49h-.1l-.39.39v8.26a.48.48,0,0,0,.49.49c.38,0,.49-.11.49-.49V247.7H161v3.83c0,.38.11.49.49.49a.48.48,0,0,0,.49-.49v-8.26l-.39-.39Z"/><path d="M169.69,243.86c.38,0,.49-.11.49-.49a.48.48,0,0,0-.49-.49h-5a.48.48,0,0,0-.49.49v8.16c0,.38.11.49.49.49h5c.38,0,.49-.11.49-.49a.48.48,0,0,0-.49-.49h-4.55V247.7h2.63c.38,0,.49-.11.49-.49a.48.48,0,0,0-.49-.49h-2.63v-2.86Z"/><path d="M177.23,242.88h-.1a.48.48,0,0,0-.48.4l-2.28,3.37-2.28-3.37a.48.48,0,0,0-.48-.4h-.1l-.07.07c-.27.27-.31.33-.31.66v.08l2.63,3.88-2.63,3.88v.08a.48.48,0,0,0,.49.49H172l2.39-3.53,2.39,3.53h.37a.48.48,0,0,0,.49-.49v-.08L175,247.57l2.63-3.88v-.08c0-.32,0-.38-.31-.66Z"/><path d="M109,287.83a.57.57,0,0,0-.26-.07h-.34L107.11,289l-.67.19,0,0a.57.57,0,0,0,0,.83l.07.07h.4l1.15-.29v-.33l.22-.22v7.08a.48.48,0,0,0,.49.49h.1l.39-.39v-8.26a.46.46,0,0,0-.18-.38Z"/><path d="M120.73,292.32h-7a.48.48,0,0,0-.49.49c0,.38.11.49.49.49h7c.38,0,.49-.11.49-.49A.48.48,0,0,0,120.73,292.32Z"/><path d="M125.14,289l-.62.21c-.44,0-.44.52-.44.73v.25h.55l1-.26.05-.05a1.25,1.25,0,0,0,.27-.45l0,0v7.12l.39.39h.1a.48.48,0,0,0,.49-.49v-8.65h-.85Z"/><path d="M137.78,286.21a.63.63,0,0,0-.43.18l-3.27,6a.44.44,0,0,0-.13.17.3.3,0,0,0-.1.11.31.31,0,0,0,0,.2l-3.46,6,0,.06v.07a.48.48,0,0,0,.49.49h.39l3.41-6.34a.6.6,0,0,0,.22-.38l3.4-5.89,0-.06v-.41l-.07-.07A.57.57,0,0,0,137.78,286.21Z"/><path d="M145.45,293.28H144v-5.52h-.49a.48.48,0,0,0-.49.49l-3.5,5.06-.12.06a.45.45,0,0,0-.21.4v.1l.39.39H143v2.25l.39.39h.1a.48.48,0,0,0,.49-.49v-2.15h1.43a.48.48,0,0,0,.49-.49C145.94,293.39,145.83,293.28,145.45,293.28ZM143,289.74v3.54h-2.46Z"/><path d="M161.53,287.76c-.38,0-.49.11-.49.49v6.39l-4.66-6.88H156a.56.56,0,0,0-.25.07.26.26,0,0,0-.08.07l-.07.07,0,0a.56.56,0,0,0-.06.24v8.26l.39.39h.1a.48.48,0,0,0,.49-.49v-6.63l4.55,6.73a.59.59,0,0,0,.06.16.35.35,0,0,0,.07.09l.11.09a.54.54,0,0,0,.24.06h.11l.39-.39v-8.26A.48.48,0,0,0,161.53,287.76Z"/><path d="M170.42,290.56V290a.39.39,0,0,0,.08-.39.3.3,0,0,0-.13-.15h0l-.18-.54v-.35l-.58-.29a.49.49,0,0,0-.35-.15l-.9-.36-.09,0h-3.6c-.38,0-.49.11-.49.49v8.16a.48.48,0,0,0,.49.49h.1l.39-.39v-3.45h3.11l1.29-.5.56-.54.28-.77a.55.55,0,0,0,.11-.54A.63.63,0,0,0,170.42,290.56Zm-5.28-1.83H168l1.22.49.12.23h.12l.05.1,0,1.33a.5.5,0,0,0,0,.22l-.21.33-.2.2-1.11.44h-2.82Z"/><path d="M177.13,287.76h-5.52a.48.48,0,0,0-.49.49v.1l.39.39H174v7.67a.48.48,0,0,0,.49.49h.1l.39-.39v-7.77h2.25l.39-.39v-.1A.48.48,0,0,0,177.13,287.76Z"/><path d="M361.6,68.47a.31.31,0,0,0,.15.16.6.6,0,0,0,.25.44l.33.32.15.16.07.07h.09v.24h2.9v-.24H366v-.39l.09-.09h.39v-.55h0a.46.46,0,0,0,.21-.4v-.82l-.24-.24v-.39h-.25l-.08,0,0,0-.22-.44h-.29l-.24-.24h-.1c-.31,0-.44.07-.48.31a.3.3,0,0,0-.1.12.46.46,0,0,0,.16.47l.17.1v.12l.51.25a.39.39,0,0,0,.1.15l.11.22v.36l0,0h-.07l-.63.63v0l-.08.05h-1.72l-.59-.59a.56.56,0,0,0,0-.12v-.81l.48-.24V67l.06,0a.48.48,0,0,0,.42-.49v-.1l-.07-.07c-.27-.27-.33-.31-.66-.31h-.1l-.24.24h-.29l-.24.48,0,0a.37.37,0,0,0-.24.26.34.34,0,0,0,0,.17l0,.07a.3.3,0,0,0-.12.14.39.39,0,0,0,.08.39v.29A.39.39,0,0,0,361.6,68.47Z"/><path d="M361.68,65.29a.48.48,0,0,0,.49.49h4.18l.39-.39V63.85a.48.48,0,0,0-.07-.26l-.24-.71h-.18s0,0-.06,0l-.08-.07-.15-.29-.59-.29-.54-.18a.47.47,0,0,0-.26-.07h-1l-.8.25-.26.23h-.29l-.18.37a.47.47,0,0,0-.1.15.36.36,0,0,0-.22.27.34.34,0,0,0,.05.24v0a.36.36,0,0,0-.11.22.31.31,0,0,0-.09.12.39.39,0,0,0,.08.39Zm1.57-2.16a.43.43,0,0,0,.21-.12l.22-.11h.84l.53.26v.12l.51.25a.39.39,0,0,0,.1.15l.11.22v.89h-3.1V63.52l.34-.17Z"/><path d="M362.17,61.7h4.18l.39-.39v-.1a.48.48,0,0,0-.49-.49h-4.08c-.38,0-.49.11-.49.49A.48.48,0,0,0,362.17,61.7Z"/><path d="M268.8,269.05l.24.54v.9l.24.54v.42l.24.54v.52l.29.29.2.39v.42l.51,1.07.26.28.46.92.26.28.46.92.26.28.22.44.26.28.26.52.48.24.2.41.26.28.29.58h.29l.41.41.47.25.24.48.52.26.21.21.51.27.21.21,1,.51.21.21,1,.51.21.21,1,.53.53,0,.39.2.28.28h.52l.43.21.53,0,.43.21,1,0,.43.21,1.73,0,.43.21,1.13,0,.48-.24h1.86l.54-.24h.66l.54-.24h.42l.54-.24h.42l.59-.27.23-.21H295l1.07-.51.23-.21h.24l.29-.29.92-.46.28-.26.44-.22.28-.26.92-.46.3-.29.22-.41h.19l.52-.52.52-.26.26-.52.93-.93.27-.51.21-.21.25-.47.48-.24.5-1,.29-.29v-.33h.24v-.63l.17-.17.77-1.5,0-.49.24-.24V272l.21-.43,0-.53.21-.43,0-.53.21-.43,0-1.25L307,268l0-3-.24-.54v-1.48l-.24-.24v-.38l0-.1a.52.52,0,0,0,0-.14V262l-.24-.24v-.38l-.24-.54v-.42l-.24-.54v-.18l-.75-1.55-.21-.23v-.63h-.24v-.23l-.27-.59-.26-.28-.26-.52-.48-.24-.2-.41-.26-.28-.22-.44-1-1-.26-.52-.52-.26-.18-.18-.29-.58h-.29l-.41-.41-1-.51-.93-.93-.54-.29-.49,0-.24-.24h-.24l-.17-.17-1-.53-.49,0-.17-.17-.55-.29-.53,0-.43-.21-.53,0-.43-.21-.49,0-.24-.24h-1.48l-.43-.21-3,0-.54.24h-1.14l-.54.24h-.42l-.54.24h-.42l-.54.24h-.53l-.28.29-.39.2h-.42l-1.07.51-.28.26-.39.2h-.52l-.29.28-.44.22-.76.74-.44.22-.28.26-.44.22-1.19,1.17h-.29l-.29.58-.21.21-.22.41h-.19l-.31.31-.27.51-.21.21-.27.51-.21.21-.27.51-.21.21-.75,1.47-.21.21-.53,1,0,.49-.17.17-.29.54,0,.53-.21.43,0,.49L269,262v.1a.51.51,0,0,0,0,.14l0,.76-.21.43,0,2-.21.43,0,1.07.24.54Zm8.08-17.32.92-.46.28-.26.44-.22.28-.26.87-.43h.18l1.5-.72h.18l.54-.24h.42l.54-.24h1l-.24-.24h.36l.54-.24h1.48l.24-.24h2.72l.43.21,1.25,0,.43.21.53,0,.43.21.49,0,.24.24h.52l.43.21.49,0,.17.17,1,.53.49,0,.17.17,1,.51.21.21.51.27.21.21.51.27.93.93.51.27.18.18.26.52.52.26,0,0H274.67l.32-.29.25-.47.41-.2Zm28.88,11.61v1.14l.24.54v2.72l-.24.24v1.48l-.21.43,0,.53-.21.43,0,.29-.21.43,0,.53-.21.43,0,.29-.69,1.39,0,.29-.44.87-.21.21-.29.55-.08-.08-.62,1.23-1.17,1.17-.25.47-.41.2-.3.29-.25.47-.41.2-.28.26-.44.22-1,1-.44.22-.28.26-.87.43h-.18l-1.5.72h-.18l-1,.48h-.52l-.24.24h-.38l-.54.24h-.9l-.54.24h-1.62l-.54.24h-.84l-.43-.21-1.73,0-.43-.21-.95,0,.24-.24h-1l-.43-.21-.53,0-.39-.2-.29-.29h-.53l-.87-.43-.29-.29h-.52l-.39-.2-.21-.21-.51-.27-.21-.21-.51-.27-.69-.69-.51-.27L273.81,278l-.22-.44-.74-.76-.7-1.39v.24l-.22-.25v-.38l-.27-.59-.26-.28-.44-.87v-1l-.26.26-.22-.44v-.42l-.24-.54V271l-.24-.54v-.9l-.24-.54v-1.62l-.24-.54V266l.21-.43,0-1.73.21-.43,0-.82h35.5v.23ZM271,259.8l0-.29.68-1.35.28-.28v-.28l.68-1.35.93-.93.22-.41h28.06l.62.62.22.44.26.28.62,1.23.08-.08.25.49.21.23v.38l.51,1.07.21.23v.38l.24.54v.52l.24.24v.13h-35v-.13l.24-.24v-.52Z"/><path d="M334.5,327.66l3.79-2,.37-.36v-.1a.42.42,0,0,0-.17-.37l-.07-.06a.57.57,0,0,0-.16-.05l-3.75-2.37,3.52-1.94h.14a.42.42,0,0,0,.37-.17l.06-.07a.56.56,0,0,0,.06-.24v-.35l-.08-.07a.77.77,0,0,0-.2-.13l-1.73-1.11h.8a.48.48,0,0,0,.49-.49v-8.25l4.08-2.3h.09l3.51-2V290.26l-7.87-4.42h-.29v-.71a.81.81,0,0,0,0-.1s0-.09,0-.14v-1.24l-.24-1.4V281l-.24-1.4v-2.69l-.23-1.15v-8.21l-.23-1.16.24-1.44V257.1l.24-1.25V253l.25-1.25v-1.39l.25-1.25V205.08a.37.37,0,0,0,.23.08c.16,0,.26-.1.42-.25l4.63-4.63V152.65c0-.38-.11-.49-.49-.49h-4.07V96.38L333.6,92a.46.46,0,0,0-.26-.3.35.35,0,0,0-.64,0H300.5v-6h2.65l3.82-.24a.64.64,0,0,0,.31-.05l3.84-.68L315,83.51l3.25-1.73a.33.33,0,0,0,.2,0,.35.35,0,0,0,.22-.18.33.33,0,0,0,.25-.16l3.52-1.54L326,78l3.58-1.67,4-1.5v-.06L337,73.69l4.08-1.2.15-.09,3.65-.86H345l3.77-.71,4.1-.72,1.51-.38.1.19v.28l.48.48v.24l.52.52.22.44.21.23v.24l.63.63h.24l1.2,1.2h.29l.39.2.29.28h.24l.48.48h.48l.24.24h.52l.43.21.49,0,.24.24H366l.54-.24h.52l.24-.24h.48l.24-.24h.24l.24-.24H369l.48-.48h.24l.48-.48h.24l.48-.48h.39v-.24h.24v-.39L373,71.39v-.24l.48-.48v-.48l.48-.48v-.24l.24-.24v-.48l.24-.24v-.72l.24-.24V66.7l2.18-.2,4.3-.51V64.33c0-.45-.48-.55-.74-.46L379,64v-.9c0-.32,0-.38-.31-.66l-.07-.07h-3.94a.51.51,0,0,0-.23.05v-.39l-.24-.24v-.48l-.24-.24v-.24l-.28-.29-.2-.39v-.28l-.48-.48v-.24l-1.44-1.44v-.39h-.24v-.24h-.39l-.48-.48h-.24l-.72-.72h-.24l-.24-.24h-.48L368,55.2h-.72l-.24-.24h-.52l-.43-.21-1.21,0-.24-.24h-.93l-.24.24h-1.68l-.24.24h-.72l-.24.24h-.24l-.24.24h-.48l-.24.24h-.24l-.48.48h-.48l-1,1H357l-1.11,1.11v.24l-.65.65-.29.54,0,.25-.48.48v.24l-.24.24v.48l-.24.24v.24l-.24.24v.09H346.1l-7.91-.48-4.06-.48-3.82-.72-2.47-.67a.5.5,0,0,0-.2-.05l-2.19-.66a.48.48,0,0,0-.2-.06l-2.42-.88a.45.45,0,0,0-.22-.08l-1.53-.57.27-.78V56l.23-.68V54.05l.23-.68v-6.8l-.24-.76v-.68l-.24-.76v-.68l-.24-.54v-.66L320.66,41v-.44L320.15,39l-.23-.45-.49-1.47-.23-.45L319,35.9l-.25-.51-.46-.69-.23-.45-.24-.72-.5-.54-.23-.7-.31-.62h-.21l-.18-.55-.51-.55-.22-.44-.5-.51-.46-.69-.24-.48-5.33-5.34-.76-.28-.92-.92-.76-.28-.44-.44-.52-.27-.75-.5-.45-.22-.75-.5-.51-.25-.69-.23L302,19l-1.27-.42v-.21l-.65-.32-.72-.24h-.52l-2.09-.69-.48-.24-.79,0-.68-.23h-.74l-.43-.21-.79,0-.68-.23h-1.46l-.43-.21-4.91,0-.76.24h-1.4l-.54.24H282l-.76.24h-.68l-.54.24h-.91V17h-.47l-.83.27-.45.23L275.9,18l-.45.23-.75.25-.45.23-1.47.49-.51.26-.69.46-.51.26-.69.46-.48.24-.5.49-.67.22-.55.51-.47.24-.76.51-.93.93-.44.22L261.64,28l-.45.68-.48.48-.27.51-.48.49-.5.75-.22.44-.45.45-.28.76-.44.44-.29.79-.25.51-.22.66-.44.44-.29.79-.25.51-.47,1.41-.25.51L255.15,40l-.24.48,0,.79-.47,1.4v.52l-.23.68v.76l-.23.68v1.24l-.23.68v.64L251,42.3l-.7-.35-.82.64L222.69,4.19l-.07-.11H195.37a.48.48,0,0,0-.49.49v.1l.39.39H222l26.77,38-.9.7v.46l5.76,6v2.54l.24.76v1.16l.24.76v.68l.24.54v.66l.48,1.48v.44l.51,1.55.21.43v.18l.25.56.25.75.23.45.48,1.44.5.54.23.7.26.51.46.69.24.48.49.5.22.66.51.55.24.47.51.76.45.45.22.44,1,1,.51.76.55.55.82,2a.45.45,0,0,0,.25.37l2.47,3.36L269.79,82a.47.47,0,0,0,.39.31L273.71,84a.42.42,0,0,0,.52.09l1.05.3v.78l-.21.43,0,6.1h-32.2a.35.35,0,0,0-.63,0,.47.47,0,0,0-.27.33l-4.21,4.21-.15.07a.46.46,0,0,0-.21.4v55.43h-4.07a.48.48,0,0,0-.49.49v20l-.76-2.72h-.74l-.38.22-29.78-60.76a.48.48,0,0,0-.49-.42H184.23l-.39.39v.1a.48.48,0,0,0,.49.49h15.92L230,170.66l-.45.26-.44.43,3.68,5.15v23.44a.44.44,0,0,0,.18.38l.06,0,.12,0,4.2,4.2a.47.47,0,0,0,.27.33.35.35,0,0,0,.44.21v44l.24,1.15v1.49l.23,1.15v1.48l.24,1.4v5.33l.24,1.15v8.11l-.25,1.25v5.24l-.24,1.48v1.16l-.24,1.48v1.16l-.24,1.48v1.2a1.16,1.16,0,0,0,0,.12s0,.07,0,.12v.71c-.14,0-.36,0-.45.21l-3.13,1.71h-.12l-4.47,2.5v4.95l-1.5-3.61h-.47l-.42.24-26.46-44.08a.45.45,0,0,0-.47-.16.3.3,0,0,0-.11.08H184.33a.48.48,0,0,0-.49.49v.1l.39.39h16.19l26.22,43.69-.42.24-.46.44,4.17,4.91v7.26l4.32,2.36.14.14h.1l3.11,1.69v8.38a.48.48,0,0,0,.42.49l3.16,1.58-3.94,2.28-.38.37,0,.12v0a1.28,1.28,0,0,0,0,.17v.25h.42l3.75,2.17-3.37,2.13h-.07a.42.42,0,0,0-.37.17l-.06.07a.54.54,0,0,0-.06.24h-.06l.06,0v.32l.08.07a.63.63,0,0,0,.49.15l3.6,2.08-3.64,2.3a.76.76,0,0,0-.21.14l-.08.07v.35l-.05,0h.05a.59.59,0,0,0,.09.25.46.46,0,0,0,.41.21H238l3.54,1.94-3.73,2.36h-.42v.25a1.31,1.31,0,0,0,0,.17v.18l.31.31,3.85,2-3.5,2.34h-.42v.25a.39.39,0,0,0,0,.1s0,.08,0,.14a.45.45,0,0,0,.36.45l3.78,2-3.9,2.46v.77l4.3,2.15-3.56,2.06-1.94-5.17,0-.09-.7-.35-.54.39-34.23-55.86a.59.59,0,0,0-.06-.16.32.32,0,0,0-.07-.09l-.11-.09a.54.54,0,0,0-.24-.06H184.23l-.39.39v.1a.48.48,0,0,0,.49.49h15.94l34.25,55.89-.52.37V350l3.68,4.33.31.82.22-.22h0l3.71,2.15-1.48.82v.73l2.31,2.31h91.79v-.25a1.47,1.47,0,0,0,0-.17v-.18l-.31-.31-.88-.51,4.07-2v-.15a.14.14,0,0,1,0-.08.61.61,0,0,0,0-.11.28.28,0,0,0,0-.12V357l0,0a.78.78,0,0,0-.15-.21.73.73,0,0,0-.21-.14l-3.62-2.29,3.8-2.09a.63.63,0,0,0,.27-.16l.08-.07v-.31l.12-.06h-.12a.48.48,0,0,0-.5-.47h-.06L333.77,349l3.75-2.17h.42v-.25a1.51,1.51,0,0,0,0-.17v-.17l-.37-.36-3.65-2.23,3.84-2.12a.62.62,0,0,0,.19-.08.46.46,0,0,0,.21-.4v-.1l-.31-.31-4-2.32,4.3-2.15v-.77l-3.9-2.46,3.72-2a.49.49,0,0,0,.42-.52v0a1.29,1.29,0,0,0,0-.17V330H338ZM374.66,63.38H378v.43l-3.34-.21Zm5.5,1.72-3.37.42-1.94.18.05-.21,5.26-.61ZM274.08,83l-3.46-1.61L267.53,79a.35.35,0,0,0-.06-.1.38.38,0,0,0-.13-.1.39.39,0,0,0-.17-.18L265,75.27l-1.68-4.08,0-.07-.65-3.92.4-2.38a.57.57,0,0,0,.08-.24v-.07l0,0,.25-1.51,1.87-4,1.95-2.44.29-.58h0l3.38-2.65a.4.4,0,0,0,.19-.09l3.26-1.43a.54.54,0,0,0,.35.08l4-1h.17l4.15-.23H287l4,.23a.4.4,0,0,0,.37.1l.09,0,3.61.42a.4.4,0,0,0,.36.11l.08,0L299,52a.44.44,0,0,0,.25,0l3.84,1,4.08,1,3.55.89A.5.5,0,0,0,311,55l3.81,1.43,1,.32-.12.24-.73-.24-.15-.06a.45.45,0,0,0-.31-.12h0l-3.34-1.25a.36.36,0,0,0-.22-.08l-3.67-.91-.12,0a.41.41,0,0,0-.34-.11l-.06,0-3.41-.85h0a.42.42,0,0,0-.36-.12l-.06,0-3.75-.88-3.76-.47a.4.4,0,0,0-.38-.11l-.09,0-3.47-.41a.63.63,0,0,0-.22,0L287,50.88H283l-4.35.24-3.92.73-.05.06a1.19,1.19,0,0,0-.27.32l-3,1.2a.31.31,0,0,0-.25,0,.3.3,0,0,0-.1.08.32.32,0,0,0-.3.29l-2.52,1.94a.26.26,0,0,0-.2,0,.27.27,0,0,0-.16.21.36.36,0,0,0-.15.16.34.34,0,0,0,0,.15l-.91,1.09a.3.3,0,0,0-.22.3l-1.81,2.49v.08a1.45,1.45,0,0,0,0,.17L263.54,63l-.75,4.18.66,3.73a.41.41,0,0,0,.1.48L265,75.22l2.49,3.18a1,1,0,0,0,.23.28l2.86,2.38.09.08.15.16L274,82.69l0,0s0,.05,0,.07ZM260.38,68.74l-.24-.47-.46-.69-.24-.48-.49-.5-.23-.7-.26-.51L258,64.7l-.23-.45-.25-.75-.23-.45-.49-1.47-.23-.45-.25-.75-.23-.45-.23-.68v-.68l-.38-1.18-.06.06,0-.12v-.68l-.24-.76v-.44l-.24-.76v-1.4l-.24-.54v-5.4l.21-.43,0-1.51.23-.68v-.52l.23-.68v-.76l.21-.65.24-.48,0-.79.21-.65.25-.51.47-1.41.25-.51.23-.69.25-.51.23-.69.22-.45.5-.75.25-.51.22-.66.44-.44.28-.76.44-.44.27-.51.45-.45.28-.76,1.4-1.4.27-.51.48-.49.45-.68.45-.45.44-.22L267,24l.66-.22,1-1,.47-.24.69-.46.48-.24.5-.49.7-.23.51-.26.69-.46.45-.23.75-.25.45-.23.75-.25.45-.23,1.47-.49.45-.23L279,18l.43-.21h.66l.76-.24h1.29l-.2-.2.12,0h.68l.76-.24h1.16l.76-.24h4.7l.43.21,1.51,0,.68.23H294l1.4.47h.52l1.37.45.48.24.79,0,.65.21.51.25.69.23.45.22.75.5.51.25.69.23.45.22.75.5.51.25.66.22.44.44.52.27.68.45.48.48.51.27.93.93.76.28,2.81,2.81.22.44,1,1,.51.76.18.18-.12.12,1.09,1.1.22.66.51.55.24.47.46.69.23.45.24.72.5.54.23.7.23.45.25.75.23.45.25.75.23.45.49,1.47.23.45.23.68V42l.24.54v.66l.24.76v.68l.24.54v.66l.24.76v6.62l-.21.43,0,1.51-.23.68v.52l-.47,1.4v.74l-.1.19a.45.45,0,0,0-.14.3l-.46,1.37-.32.64.2.2-.12.36-.25.51-.23.69-.48.72-.25.51-.23.69-.22.45-.5.75-.46.93-.5.75-.22.44-.45.45-.28.76-.92.92-.27.52-.45.68-3.33,3.33-.44.22L308,76.36l-.47.24-.76.51-.45.45-.47.24-.69.46-1,.5-.69.46-.45.23-.75.25-.51.26-.69.46-.45.23-.63.21V77.2l1.3-.65.52-.5,2.36-1.18.52-.5.92-.46,1.24-1.22.44-.22L309.79,70l.25-.47.48-.24.26-.52.45-.45.27-.51.45-.45.49-1,.48-.24,1.25-2.51.23-.69,1.68-3.36,0-.77.45-.91,0-.55.23-.68v-.5l.21-.43,0-1.25.21-.43,0-1.25.21-.43,0-4.43-.24-.76V45.61l-.24-.54v-.42l-.24-.54v-.66l-.24-.54v-.42l-.24-.54v-.66l-.72-1.5v-.42l-.27-.83-1.68-3.36-.5-.52-.7-1.4-.5-.52-.5-1L311,31.5l-.2-.41-.5-.52-.26-.52-.48-.24-.2-.41-.53-.54-.47-.25-.24-.48-.52-.26-.45-.45-.47-.25-.24-.48-.52-.26-.45-.45-1-.51L304,25l-1.95-1-.45-.45-2-1-.53,0-.46-.23-.69-.23-1-.48-.53,0-.46-.23-.72-.24h-.5l-.43-.21-.55,0-.68-.23h-1l-.68-.23h-2.18l-.43-.21-2.27,0-.76.24h-1.64l-.54.24h-.9l-.76.24h-.44l-.54.24h-.42l-.76.24h-.44l-1,.49-.68.23h-.44l-4.43,2.19-.52.5-1.54.77v.24l-.82.41-.52.5-.52.26-.24.48-.41.2-.52.5-.52.26-.24.48-.48.24-.26.52L265,30.79l-.22.41h-.24L264,32.26l-.45.45-.27.51-.69.69-1.49,2.95,0,.29L259.71,40l0,.77-.45.91,0,.53-.23.46-.24.72v.5l-.21.43,0,1.25-.21.43,0,1.73-.21.43,0,3.47.24.54v1.62l.24.76v.92l.24.54v.66l.48,1v.42l.27.83.21.43v.42l.72,1.5v.18L262,64.73l-.36,2.17a.71.71,0,0,0,0,.34l.64,3.85-.65-.65-.35-1-.17.17-.24-.36Zm94.13-5.16v-.15l.21-.43,0-.49.24-.24V62l.21-.43,0-.25.24-.24v-.24l.24-.24v-.24l.82-.82-.12-.12,1.22-1.22V58l.33-.33h.24l.29-.28.44-.22.23-.21h.24l.24-.24h.24l.24-.24h.24l.24-.24h.48l.24-.24h.38l.54-.24h1.48l.24-.24h.51l.24.24h1.44l.24.24h.72l.24.24h.24l.24.24h.48l.24.24h.24l.48.48h.24l1,1h.24l.81.81v.24l.72.72v.24l.48.48v.48l.24.24v.24l.24.24V62l.24.24V63l.24.24v1.34l.14.35a.3.3,0,0,0,0,.22.28.28,0,0,0,.07.08v.21l-.24.24v1.68l-.24.24v.52l-.21.43,0,.25L373,69v.24l-.24.24v.28l-.2.39-.28.28v.24l-.72.72v.24l-.57.57h-.24l-1,1h-.24l-.48.48h-.24l-.48.48h-.48l-.24.24h-.48l-.24.24h-.72l-.24.24h-3.68l-.43-.21-.49,0-.24-.24h-.48l-.24-.24h-.24l-.24-.24h-.24l-.48-.48h-.29l-.39-.2-.29-.28H358l-.33-.33v-.24l-1.22-1.22.12-.12-.82-.82V70l-.24-.24v-.24l-.24-.24v-.48l-.24-.24v-.24l-.24-.24v-.72l-.24-.24v-3a.37.37,0,0,0,0-.54ZM354,68.8l-1.48.33-3.82.72a.6.6,0,0,0-.29.05l-3.83.68-3.78,1a.49.49,0,0,0-.25.07l-3.62,1.13a.48.48,0,0,0-.35.11l-3.5,1.09a.46.46,0,0,0-.24.09l-3.66,1.37L325.63,77a.46.46,0,0,0-.3.16l-3.11,1.66a.3.3,0,0,0-.32.14.44.44,0,0,0-.15.11L318,81v.1l-3.42,1.5-3.81,1.19-3.81.72-4.07.24h-2.61l0-.22h2.8l3.94-.23h.08l3.81-.72,3.63-1.21,3.56-1.66a.45.45,0,0,0,.3-.16l3.3-1.76a.45.45,0,0,0,.29-.16l3.31-1.76a.44.44,0,0,0,.24-.11l3.61-1.58L333,73.69l7.66-2.4,4-1,3.86-.72,4.11-.73,1.27-.36.09.18Zm-84.87,9.78.73.36.45.45,3.46,1.74.69.23,1.06.53v.35l-.84-.14a.46.46,0,0,0-.27-.11l-3-1.38v-.07Zm1.26-.29-.45-.45-1-.51-.45-.45L268,76.6l-.69-.69-.51-.27-.53-.53h-.08l-.25-.32a.44.44,0,0,0-.1-.22l-1.42-3.24a.56.56,0,0,0,.09-.33l-.68-3.62.45.9.36.38h.19l.45.9.48.24.24.48.48.24.24.48.42.21v.19l.31.31.51.27,1.17,1.17.51.27.69.69,1,.51.21.21.51.27.45.45,2.43,1.23.21.21.41.22v1l.24.54v2.06l-.39-.19-.69-.23Zm40.1-22.12,3.74,1.17.06,0a.46.46,0,0,0,.25.12l.93.47-.09.28-.24.48,0,.53-1.17,2.35,0,.77-.44.87-.45.45-.75,1.47-.21.21-.27.51-.45.45-.51,1-.45.45-.25.47-.48.24-.26.52-1.17,1.17-.25.47-.41.2L306.34,72l-.44.22-.76.74-.44.22-.52.5-1.4.7-.52.5-2,1v-.5l.21-.43,0-.59a1,1,0,0,0,0-.11s0-.08,0-.13v-3l-1.94-1.7a.68.68,0,0,0-.06-.14.46.46,0,0,0-.4-.21H277.45a.43.43,0,0,0-.38.18l0,.07a.6.6,0,0,0,0,.11L275,71.18v3.07a1.45,1.45,0,0,0,0,.17l.24.54v1l-.14-.07.08-.08-3.12-1.56-.24-.48L270.44,73l-.24-.48-1-.48-.24-.48-.52-.26-1.38-1.38-.38-.75-.19.19-.16-.15-.26-.52-.48-.24-.48-1-.48-.24L264,65.93l.41-2.31,1.18-2.83a.45.45,0,0,0,.1-.22l1.49-2.35a.39.39,0,0,0,.15-.17.37.37,0,0,0,.18-.17.34.34,0,0,0,0-.15l.93-1.12,3.09-2.38,3.57-1.43.08,0,3.69-.65,4.07-.24H287l11.78,1.41a.46.46,0,0,0,.19,0ZM277.56,70.1H298l.82.94H276.74ZM303.13,52l-.06,0-3.74-.88-3.89-.72h-.12l-3.84-.23-.18-.19-.07-.07L287,49.68h-4.33l-4.12.25-3.95.88a.41.41,0,0,0-.45.11l-3.79,1.42L267,55l-.59.77a.38.38,0,0,0-.22.29l-1.91,2.39-1.92,4.08,0,.11a1.33,1.33,0,0,0,0,.17l-.09.53-.71-1.41h.24l-.65-1.29-.37-1.1-.06.06-.28-.62v-.42l-.48-1v-.66l-.24-.54v-.42l-.24-.54V54.25l-.24-.54V52.09l-.24-.54V48.31l.21-.43,0-1.73.21-.43,0-1,.23-.68v-.5l.21-.43,0-.55.21-.65.24-.48,0-.53.95-1.9.05-.16.2.2V37.75l.43-.87.45-.45,1-1.95.69-.69.51-1,.45-.45.25-.47.71-.36-.19-.19.18-.18.27-.51.42-.42.52-.26.24-.48.4-.2,1.24-1.22.52-.26.24-.48.41-.2.52-.5,1.4-.7.52-.5,4.71-2.36h.42l1-.49.68-.23h.44l.54-.24H281l.54-.24h.66l.54-.24h.9l.76-.24h2.24l-.2-.2.12,0h2.06l.43.21,2.21,0,.43.21,1.25,0,.43.21.55,0,.68.23h.5l.91.45.55,0,.65.21,1,.48.53,0L302,24.94l.45.45,1.47.75.45.45,1,.49.24.48.52.26.45.45.47.25.24.48.52.26,1.14,1.14.26.52.48.24.2.41.5.52.62,1.23.19-.19.16.15.46.92.5.52,2.6,5.19v.66l.48,1V42l.25.56.23.68v.44l.24.54v.9l.24.76v1.4l.24.76v4.22l-.21.43,0,1.25-.21.43,0,1-.12.35L311.38,54l-3.82-.9a.42.42,0,0,0-.28-.07l-3.67-.91-.12,0A.41.41,0,0,0,303.13,52ZM274.61,82.34h0ZM276,85.75l.21-.43,0-1,.21-.43,0-2,.21-.43,0-2.75-.24-.54v-2.1l-.24-.54v-.9l-.24-.54V72h23.5v2.57l-.21.43,0,1.25-.09.18a.52.52,0,0,0-.15.36v6.48l.24.54v.9l.24.54v6.41H276Zm24-3.8.34-.12.51-.26.69-.46.43-.21h.18l.56-.25.72-.24.65-.32v-.21l.58-.2.48-.24.5-.48.66-.22.55-.51.47-.24.76-.51.45-.45.44-.22.51-.5.76-.51,3.36-3.36.27-.51.48-.49.45-.68.48-.48.27-.51.45-.45.28-.76.44-.44.28-.76.44-.44.28-.76.44-.44.29-.78.25-.51.23-.69.25-.51.23-.69.24-.48,0-.29.23-.46.47-1.41.1-.2,4.16,1.53,2.23.67a.36.36,0,0,0,.19.06l2.89.72,3.86.72,4.09.48,8.17.48h7.43v3.21l.07.07-1.05.3a.57.57,0,0,0-.28.05l-3.77.67a.64.64,0,0,0-.31.05l-3.83.68-3.78,1a.49.49,0,0,0-.25.06l-3.91,1.15-3.85,1.21-3.86,1.45-3.56,1.66H325l-7.31,3.86-3.57,1.67-3.57,1.19-3.84.72-3.79.24h-2.73l-.14-.29Zm53.5-18.59H346.1L338,62.88l-3.83-.48-4.06-.71-5-1.36a.38.38,0,0,0-.19-.08.31.31,0,0,0-.1-.08.31.31,0,0,0-.25,0l-2.15-.86-1.56-.52,0-.12v-.13l1.41.47a.47.47,0,0,0,.21.07l2.41.88a.46.46,0,0,0,.24.08l2.19.66a.47.47,0,0,0,.21.06l2.44.67a.33.33,0,0,0,.19.05l3.86.72,4.09.48,7.94.48h7.43Zm-78,19.87v.16l-1.32-.33-.06,0Zm65.65,117.19L337.59,204H238l-3.58-3.58Zm-107.39-1v-46.3h108v46.3ZM337.2,97.22v54.94H238.34V97.22Zm-98.27-1,3.58-3.58H333l3.58,3.58ZM332.07,360H251.52l83.29-2.31-2.9,1.45v.78Zm-89.18-2.38h.19l89.28-2.87,3.33,1.93-93.18,2.6-.85-.85,1.2-.8Zm89.44-3.85-88.9,2.86a.61.61,0,0,0-.3-.08H243l-2.81-1.63,95.34-2.78Zm-93-31.74,2.54-1.61,72.07-2.16h20.81l2.13,1.21Zm41.81-3.77-38.88,1.17a.49.49,0,0,0-.2-.09l-2-1.08ZM239.29,281.1l.25-1.25v-1.4l.24-1.48v-5.23l.24-1.25v-8.21l-.23-1.15v-5.57l-.24-1.15v-1.49l-.24-1.15v-1.49l-.24-1.15V205h46.43l-.22.22h-.72l-.24.24h-.48l-.24.24h-.14l-.54.24h-.29l-.48.48h-.48l-.72.72h-.39v.24l-.58.27-1.34,1.32v.24l-.41.41-.27.51-.53.52v.24l-.17.17-.29.54,0,.25-.24.24v.48l-.24.24v.29l-.21.43,0,.53-.21.43,0,1.25-.21.43,0,1.31.24.54v1.14l.24.54v.42l.24.54v.29l.24.24v.48l.24.24v.24l.29.29.19.39v.29l1.2,1.2v.48L280,226.1h.48l1,1h.28l.39.2.28.28h.24l.17.17.55.29.25,0,.24.24h.72l.24.24h.72l.24.24h4l.24-.24h.72l.24-.24h.72L292,228h.48l.48-.48H293l.59-.27.23-.21h.24l.53-.53.44-.22.23-.21h.24l1.59-1.59v-.24l.24-.24v-.24l.72-.72V223h.24v-.63l.24-.24v-.24l.17-.17.29-.54,0-.53.21-.43,0-.25.24-.24v-1.2l.24-.24v-2.74l-.24-.54v-1l-.24-.24v-.14l-.24-.54v-.42l-.27-.59-.21-.23v-.14l-.24-.54v-.43h-.24v-.09l-.52-.52-.2-.39v-.29l-2.07-2.07h-.09v-.24h-.63l-.72-.72h-.28l-.39-.2-.28-.28h-.24l-.24-.24H292l-.24-.24h-.28l-.43-.21-.53,0L290,205h46.44v44.1l-.24,1.25v1.39L336,253v2.6l-.24,1.48v7.88l-.25,1.48.24,1.2v8.21L336,277v2.93l.24,1.15v1.49l.23,1.15v2.15H239.06v-2.1l.25-1.25Zm57.58-70.51v.24l.48.48v.14l.27.59.21.23v.24l.24.24v.48l.24.24v.38l.24.54v1l.24.24v2.43l-.24.24v1l-.24.24v.72l-.24.24v.48l-.24.24v.24l-.48.48v.48l-.48.48v.24l-2,2h0l-.48.46h-.24l-.72.72h-.24l-.29.29-.39.2h-.28L292,227h-.14l-.54.24h-.42l-.54.24h-.42l-.54.24h-3.24l-.43-.21-.53,0-.43-.21-.49,0L284,227h-.48l-.24-.24h-.24l-.17-.17-.07-.05.26-.26h-1l-.72-.72h-.24l-2.25-2.25v-.24l-.72-.72v-.48l-.24-.24v-.24l-.24-.24v-.14l-.24-.54v-.29l-.24-.24v-.72L277,219v-1.44l-.24-.24v-1l.21-.43,0-1.21.24-.24v-.72l.24-.24v-.28l.21-.43,0-.25.24-.24V212l.21-.43,0-.25.72-.72v-.24l2.49-2.49h.24l.52-.52.39-.2h.28l.24-.24h.24l.24-.24H284l.24-.24h.24l.24-.24h.72l.24-.24h4.11l.24.24h.72l.24.24h.29l.43.21.25,0,.24.24h.28l.43.21.25,0,.72.72h.24l.65.65.08.05h0Zm42.86,77.88.53,0,1.42.74.15.15,2,1.09.11.11.65.34v13.61l-.58.29-.18.16-.78.44-1.2.6-.21.19-.94.5h-.42l-1.5.72h-.42l-.54.24h-.18l-.54.24h-.42l-.54.24h-.42l-.54.24h-.9l-.54.24h-5.88l-.43-.21-1,0-.43-.21-.53,0-.43-.21-.53,0-.43-.21-.49,0-.24-.24h-.52l-1.39-.69-.53,0-.92-.46.08-.08-2.19-1.1-.21-.21-.65-.34V290.92l.58-.29.28-.26,2.19-1.1-.08-.08,1.4-.7h.42l1-.48h.52l.29-.29.08,0v.24l1.27-.63h.9l.54-.24h.9l.54-.24h5.88l.43.21,1,0,.43.21,1,0,1.27.63v-.12l.36.18.53,0ZM296.17,308.4h-1.92l-.76.24H282.31l-1-.25h-1.86l-1-.25h-.9l-1-.25h-.92l-.72-.24h-.94l-1-.25H272l-2-.49h-.92l-.7-.23-3.82-1-.74-.25-2.86-.71-.74-.25-.53-.13V291l.55-.14.7-.24,2.9-.72.7-.24,3.86-1,.68-.23h1l1.86-.47h1l1.86-.47h.78l.9-.23h2l.9-.23h2l.9-.23h11.24l.72.24h1.9l1,.25H299l1,.25h.9l.94.24.76.25h.94l2,.49h.9l.94.23.74.25,3.82,1,.74.25,2.86.71.55.18v13.32l-.53.18-2.9.72-.7.24-3.86,1-.7.24-.9.23h-1l-1.86.47h-1l-.76.24h-1l-.9.23h-1l-.9.23h-1ZM255,287.79l-.53,0-1.39-.69-.53,0-.44-.22h21.4l-.66.22h-1l-1.86.47h-1l-1.94.49-.7.23-3.86,1-.7.24-2.63.66-.28-.14-.21-.21-1.95-1-.21-.21Zm3.6,18,.28-.26.28-.14,2.61.65.74.25,3.82,1,.74.25,1,.25h.9l2.94.73h.92l.66.22h-21.4l.44-.22H253l1.5-.72h.42l1.55-.75.28-.26Zm58.82-16.29-.28.26-.76.38-1.65-.41-.74-.25-2.86-.71-.74-.25-3.9-1h-.9l-.94-.24-.76-.25H303l-.91-.23h21.39L323,287h-.42l-1.5.72h-.42l-1.07.51-.28.26Zm-14.53,19h1l.78-.25,1.86-.47h1l2.9-.72.7-.24L314,306l.7-.24,1.67-.42.76.38.21.21,1.95,1,.21.21,1,.53.53,0,1.39.69.53,0,.44.22H302Zm-62.34-21.36h.9l.54-.24h5.64l.43.21,1,0,.43.21,1,0,1.27.63v-.24l.6.3.53,0,.39.2.28.29h.53l2.31,1.15.21.21,1.47.75.21.21.41.22v13.37l-.34.17-.28.26-1.4.7-.28.26-1.83.92h-.42l-.59.27-.28.26-.39.2h-.42l-.54.24h-.42l-.54.24h-.42l-.54.24h-.42l-.54.24h-.9l-.54.24H242l-.43-.21-1,0-.43-.21-.53,0-.43-.21-.53,0-.43-.21-.53,0-.43-.21-.53,0-1.39-.69-.45,0-2.73-1.49-.12-.12-1-.51-.14-.14V291l.14-.14.92-.46.18-.17,3.17-1.73h.38l1-.48h.42l.75-.35.16.16,1.07-.53h.9Zm-2,22.56H337v7.66H238.58Zm4.39,37.2,89.93-2.64H333l2.72,1.72L240,348.67Zm0-1-2.81-1.48,95.44-2.76-2.76,1.6Zm-3-2.45,2.77-1.85,90.09-2.87.11.06,3,1.88Zm2.75-2.83-2.81-1.48,95.84-2.77-2.5,1.37h0ZM335.64,331l-2.58,1.36-90.37,2.87-2.93-1.47Zm-92.9,5.2,90.32-2.87,3.08,1.94L239.8,338.1Zm90.55-14.4-91.06,2.87-3-1.71L336,320.48Zm0,1,3.07,1.94-96.77,2.54,2.63-1.61Zm2.58,2.93-2.59,1.36L242.45,330l-3.38-1.69ZM242.48,331l90.82-2.88,2.92,1.95-97,2.79Zm-2.2,23,2.81-1.77.14-.08,89.36-2.63,2.95,1.71Zm95.06-7.06-2.76,1.6-89.7,2.64h-.11l-2.68-1.48ZM227.19,293.15l.75-.54,1,2.54Zm3.95-121.77v-.25l.15-.07.71,2.55-1.56-2.18.14-.06a1.8,1.8,0,0,0,.31,0Z"/><path d="M124.81,9.14h.1l.39-.39V5.06h2.63l.07,0a.4.4,0,0,0,.53,0l1.21-.24.58-.58.15-.62a.47.47,0,0,0,.35-.47V1.83l-.39-.39-.09-.27V.82l-.51-.25a.36.36,0,0,0-.27-.25.32.32,0,0,0-.23,0L128.5,0l-3.69,0c-.38,0-.49.11-.49.49V8.65A.48.48,0,0,0,124.81,9.14Zm4.44-5.28-1.08.22H125.3V1h2.85l1.06.21.25.51h.12l.26.53v.83l-.41.62Z"/><path d="M133.25,7.93l.52.69,1.27.51.09,0h1l1.2-.48h.32l.58-.78a.42.42,0,0,0,.26-.38l.16-.79a.47.47,0,0,0,.33-.46V.49a.48.48,0,0,0-.49-.49c-.38,0-.49.11-.49.49v5.7l-.44.87-.76.76-.76.33h-.62l-.76-.3V7.81l-.72-.54s0,0,0-.05l-.48-1V.49A.48.48,0,0,0,133,0c-.38,0-.49.11-.49.49v6l.48,1C133,7.7,133,7.88,133.25,7.93Z"/><path d="M146.27,9.14l.39-.39v-.1a.48.48,0,0,0-.49-.49h-4.31V.49c0-.38-.11-.49-.49-.49a.48.48,0,0,0-.49.49V8.75l.39.39Z"/><path d="M148.09,9.14h4.56a.48.48,0,0,0,.49-.49c0-.38-.11-.49-.49-.49h-4.07V.49c0-.38-.11-.49-.49-.49s-.49.11-.49.49V8.65A.48.48,0,0,0,148.09,9.14Z"/><path d="M162.73,9.14a.48.48,0,0,0,.49-.49V4.82h2l2.6,4c.27.27.33.31.66.31h.25v-.8L166.57,4.8a.31.31,0,0,0,.18-.13l.82-.33h.3l.4-.4.16-.15.3-.82V2.89a.57.57,0,0,0,0-.1s0-.08,0-.14V1.92a.43.43,0,0,0-.06-.2l-.19-.58-.06-.1a.38.38,0,0,0-.09-.18.4.4,0,0,0-.21-.12l-.18-.18c-.2-.2-.38-.34-.63-.18l-.56-.23a.47.47,0,0,0-.42-.15h-3.6a.48.48,0,0,0-.49.49V8.75l.39.39ZM167,3.46v.08l-.76.3h-3.06V1h3.09l.8.16.49.49.17.54v.44l-.19.58Z"/><path d="M170.89,9.14a.48.48,0,0,0,.49-.49V.49c0-.38-.11-.49-.49-.49a.48.48,0,0,0-.49.49V8.75l.39.39Z"/><path d="M179.53,0a.48.48,0,0,0-.49.49V6.88L174.38,0H174a.59.59,0,0,0-.27.09.46.46,0,0,0-.21.4V8.75l.39.39h.1a.48.48,0,0,0,.49-.49V1.71l4.61,7.12.31.31H180V.49C180,.11,179.91,0,179.53,0Z"/><path d="M186.31,9.14l1-.51.6-.75a.45.45,0,0,0,.26-.35l.49-.73V5.53a.48.48,0,0,0-.49-.49h-1.92c-.38,0-.49.11-.49.49a.48.48,0,0,0,.49.49h1.43v.39l-.48.72v.13l-.72.54V7.9l-.53.26h-1.08l-.53-.26V7.81l-.72-.54V7.13l-.5-.74-.23-1.1V3.66l.23-1.15.5-.75V1.64l.62-.47,0-.05.53-.14h1.14l.55.14.7.53v.12l.49.74a.48.48,0,0,0,.48.4c.49,0,.49-.51.49-.73V2.09l-.55-.82-.72-.72a.58.58,0,0,0-.46-.24l-.32-.16a.52.52,0,0,0-.36-.15h-1.68a.52.52,0,0,0-.36.15l-.32.16c-.19,0-.33.12-.46.24l-.75.76-.52.78v.08a1.36,1.36,0,0,0,0,.17l-.19.94a.38.38,0,0,0-.05.15.3.3,0,0,0-.09.12.39.39,0,0,0,.08.39V5.13a.31.31,0,0,0-.08.12.38.38,0,0,0,.1.4h0l.23,1.13.48.76a.45.45,0,0,0,.26.35l.51.68,1,.55Z"/></svg>