<svg id="Layer_1" data-name="Layer 1" xmlns="http://www.w3.org/2000/svg" viewBox="0 0 1002.68 13.3"><defs><style>.cls-1{fill:#0067b2;}</style></defs><title>Artboard 1</title><path class="cls-1" d="M7.25,0V5.87H12.9v1.5H7.25V13.3H5.65V7.37H0V5.87H5.65V0Z"/><path class="cls-1" d="M27.45,0V5.87H33.1v1.5H27.45V13.3h-1.6V7.37H20.2V5.87h5.65V0Z"/><path class="cls-1" d="M47.65,0V5.87H53.3v1.5H47.65V13.3H46V7.37H40.4V5.87H46V0Z"/><path class="cls-1" d="M67.85,0V5.87H73.5v1.5H67.85V13.3h-1.6V7.37H60.6V5.87h5.65V0Z"/><path class="cls-1" d="M88,0V5.87H93.7v1.5H88V13.3h-1.6V7.37H80.8V5.87h5.65V0Z"/><path class="cls-1" d="M108.25,0V5.87h5.65v1.5h-5.65V13.3h-1.6V7.37H101V5.87h5.65V0Z"/><path class="cls-1" d="M128.45,0V5.87h5.65v1.5h-5.65V13.3h-1.6V7.37H121.2V5.87h5.65V0Z"/><path class="cls-1" d="M148.65,0V5.87h5.65v1.5h-5.65V13.3H147V7.37H141.4V5.87H147V0Z"/><path class="cls-1" d="M168.85,0V5.87h5.65v1.5h-5.65V13.3h-1.6V7.37H161.6V5.87h5.65V0Z"/><path class="cls-1" d="M189,0V5.87h5.65v1.5H189V13.3h-1.6V7.37H181.8V5.87h5.65V0Z"/><path class="cls-1" d="M209.24,0V5.87h5.65v1.5h-5.65V13.3h-1.6V7.37H202V5.87h5.65V0Z"/><path class="cls-1" d="M229.44,0V5.87h5.65v1.5h-5.65V13.3h-1.6V7.37H222.2V5.87h5.65V0Z"/><path class="cls-1" d="M249.64,0V5.87h5.65v1.5h-5.65V13.3H248V7.37H242.4V5.87H248V0Z"/><path class="cls-1" d="M269.84,0V5.87h5.65v1.5h-5.65V13.3h-1.6V7.37h-5.65V5.87h5.65V0Z"/><path class="cls-1" d="M290,0V5.87h5.65v1.5H290V13.3h-1.6V7.37h-5.65V5.87h5.65V0Z"/><path class="cls-1" d="M310.24,0V5.87h5.65v1.5h-5.65V13.3h-1.6V7.37H303V5.87h5.65V0Z"/><path class="cls-1" d="M330.44,0V5.87h5.65v1.5h-5.65V13.3h-1.6V7.37h-5.65V5.87h5.65V0Z"/><path class="cls-1" d="M350.64,0V5.87h5.65v1.5h-5.65V13.3H349V7.37h-5.65V5.87H349V0Z"/><path class="cls-1" d="M370.84,0V5.87h5.65v1.5h-5.65V13.3h-1.6V7.37h-5.65V5.87h5.65V0Z"/><path class="cls-1" d="M391,0V5.87h5.65v1.5H391V13.3h-1.6V7.37h-5.65V5.87h5.65V0Z"/><path class="cls-1" d="M411.24,0V5.87h5.65v1.5h-5.65V13.3h-1.6V7.37H404V5.87h5.65V0Z"/><path class="cls-1" d="M431.44,0V5.87h5.65v1.5h-5.65V13.3h-1.6V7.37h-5.65V5.87h5.65V0Z"/><path class="cls-1" d="M451.64,0V5.87h5.65v1.5h-5.65V13.3H450V7.37h-5.65V5.87H450V0Z"/><path class="cls-1" d="M471.84,0V5.87h5.65v1.5h-5.65V13.3h-1.6V7.37h-5.65V5.87h5.65V0Z"/><path class="cls-1" d="M492,0V5.87h5.65v1.5H492V13.3h-1.6V7.37h-5.65V5.87h5.65V0Z"/><path class="cls-1" d="M512.24,0V5.87h5.65v1.5h-5.65V13.3h-1.6V7.37H505V5.87h5.65V0Z"/><path class="cls-1" d="M532.44,0V5.87h5.65v1.5h-5.65V13.3h-1.6V7.37h-5.65V5.87h5.65V0Z"/><path class="cls-1" d="M552.64,0V5.87h5.65v1.5h-5.65V13.3H551V7.37h-5.65V5.87H551V0Z"/><path class="cls-1" d="M572.84,0V5.87h5.65v1.5h-5.65V13.3h-1.6V7.37h-5.65V5.87h5.65V0Z"/><path class="cls-1" d="M593,0V5.87h5.65v1.5H593V13.3h-1.6V7.37h-5.65V5.87h5.65V0Z"/><path class="cls-1" d="M613.24,0V5.87h5.65v1.5h-5.65V13.3h-1.6V7.37H606V5.87h5.65V0Z"/><path class="cls-1" d="M633.44,0V5.87h5.65v1.5h-5.65V13.3h-1.6V7.37h-5.65V5.87h5.65V0Z"/><path class="cls-1" d="M653.64,0V5.87h5.65v1.5h-5.65V13.3H652V7.37h-5.65V5.87H652V0Z"/><path class="cls-1" d="M673.83,0V5.87h5.65v1.5h-5.65V13.3h-1.6V7.37h-5.65V5.87h5.65V0Z"/><path class="cls-1" d="M694,0V5.87h5.65v1.5H694V13.3h-1.6V7.37h-5.65V5.87h5.65V0Z"/><path class="cls-1" d="M714.23,0V5.87h5.65v1.5h-5.65V13.3h-1.6V7.37H707V5.87h5.65V0Z"/><path class="cls-1" d="M734.43,0V5.87h5.65v1.5h-5.65V13.3h-1.6V7.37h-5.65V5.87h5.65V0Z"/><path class="cls-1" d="M754.63,0V5.87h5.65v1.5h-5.65V13.3H753V7.37h-5.65V5.87H753V0Z"/><path class="cls-1" d="M774.83,0V5.87h5.65v1.5h-5.65V13.3h-1.6V7.37h-5.65V5.87h5.65V0Z"/><path class="cls-1" d="M795,0V5.87h5.65v1.5H795V13.3h-1.6V7.37h-5.65V5.87h5.65V0Z"/><path class="cls-1" d="M815.23,0V5.87h5.65v1.5h-5.65V13.3h-1.6V7.37H808V5.87h5.65V0Z"/><path class="cls-1" d="M835.43,0V5.87h5.65v1.5h-5.65V13.3h-1.6V7.37h-5.65V5.87h5.65V0Z"/><path class="cls-1" d="M855.63,0V5.87h5.65v1.5h-5.65V13.3H854V7.37h-5.65V5.87H854V0Z"/><path class="cls-1" d="M875.83,0V5.87h5.65v1.5h-5.65V13.3h-1.6V7.37h-5.65V5.87h5.65V0Z"/><path class="cls-1" d="M896,0V5.87h5.65v1.5H896V13.3h-1.6V7.37h-5.65V5.87h5.65V0Z"/><path class="cls-1" d="M916.23,0V5.87h5.65v1.5h-5.65V13.3h-1.6V7.37H909V5.87h5.65V0Z"/><path class="cls-1" d="M936.43,0V5.87h5.65v1.5h-5.65V13.3h-1.6V7.37h-5.65V5.87h5.65V0Z"/><path class="cls-1" d="M956.63,0V5.87h5.65v1.5h-5.65V13.3H955V7.37h-5.65V5.87H955V0Z"/><path class="cls-1" d="M976.83,0V5.87h5.65v1.5h-5.65V13.3h-1.6V7.37h-5.65V5.87h5.65V0Z"/><path class="cls-1" d="M997,0V5.87h5.65v1.5H997V13.3h-1.6V7.37h-5.65V5.87h5.65V0Z"/></svg>