<?xml version="1.0" encoding="utf-8"?>
<!-- Generator: Adobe Illustrator 21.1.0, SVG Export Plug-In . SVG Version: 6.00 Build 0)  -->
<svg version="1.1" id="Layer_1" xmlns="http://www.w3.org/2000/svg" xmlns:xlink="http://www.w3.org/1999/xlink" x="0px" y="0px"
	 viewBox="0 0 1247 13.3" style="enable-background:new 0 0 1247 13.3;" xml:space="preserve">
<style type="text/css">
	.st0{fill:#0067B2;}
</style>
<title>Artboard 1</title>
<g>
	<path class="st0" d="M7.2,0v5.9h5.6v1.5H7.2v5.9H5.7V7.4H0V5.9h5.7V0H7.2z"/>
	<path class="st0" d="M32.4,0v5.9h5.6v1.5h-5.6v5.9h-1.6V7.4h-5.6V5.9h5.6V0H32.4z"/>
	<path class="st0" d="M57.6,0v5.9h5.6v1.5h-5.6v5.9H56V7.4h-5.6V5.9H56V0H57.6z"/>
	<path class="st0" d="M82.8,0v5.9h5.7v1.5h-5.7v5.9h-1.6V7.4h-5.7V5.9h5.7V0H82.8z"/>
	<path class="st0" d="M107.9,0v5.9h5.7v1.5h-5.7v5.9h-1.6V7.4h-5.6V5.9h5.7V0H107.9z"/>
	<path class="st0" d="M133.2,0v5.9h5.7v1.5h-5.7v5.9h-1.6V7.4h-5.7V5.9h5.7V0H133.2z"/>
	<path class="st0" d="M158.4,0v5.9h5.6v1.5h-5.6v5.9h-1.6V7.4h-5.7V5.9h5.7V0H158.4z"/>
	<path class="st0" d="M183.5,0v5.9h5.6v1.5h-5.6v5.9h-1.6V7.4h-5.6V5.9h5.6V0H183.5z"/>
	<path class="st0" d="M208.7,0v5.9h5.6v1.5h-5.6v5.9h-1.6V7.4h-5.6V5.9h5.6V0H208.7z"/>
	<path class="st0" d="M233.9,0v5.9h5.6v1.5h-5.6v5.9h-1.6V7.4h-5.6V5.9h5.6V0H233.9z"/>
	<path class="st0" d="M259.1,0v5.9h5.6v1.5h-5.6v5.9h-1.6V7.4h-5.6V5.9h5.6V0H259.1z"/>
	<path class="st0" d="M284.3,0v5.9h5.6v1.5h-5.6v5.9h-1.6V7.4H277V5.9h5.6V0H284.3z"/>
	<path class="st0" d="M309.5,0v5.9h5.6v1.5h-5.6v5.9h-1.6V7.4h-5.6V5.9h5.6V0H309.5z"/>
	<path class="st0" d="M334.7,0v5.9h5.6v1.5h-5.6v5.9h-1.6V7.4h-5.6V5.9h5.6V0H334.7z"/>
	<path class="st0" d="M359.8,0v5.9h5.6v1.5h-5.6v5.9h-1.6V7.4h-5.6V5.9h5.6V0H359.8z"/>
	<path class="st0" d="M385,0v5.9h5.6v1.5H385v5.9h-1.6V7.4h-5.6V5.9h5.6V0H385z"/>
	<path class="st0" d="M410.2,0v5.9h5.6v1.5h-5.6v5.9h-1.6V7.4H403V5.9h5.6V0H410.2z"/>
	<path class="st0" d="M435.4,0v5.9h5.6v1.5h-5.6v5.9h-1.6V7.4h-5.6V5.9h5.6V0H435.4z"/>
	<path class="st0" d="M460.6,0v5.9h5.6v1.5h-5.6v5.9H459V7.4h-5.6V5.9h5.6V0H460.6z"/>
	<path class="st0" d="M485.8,0v5.9h5.6v1.5h-5.6v5.9h-1.6V7.4h-5.6V5.9h5.6V0H485.8z"/>
	<path class="st0" d="M511,0v5.9h5.6v1.5H511v5.9h-1.6V7.4h-5.6V5.9h5.6V0H511z"/>
	<path class="st0" d="M536.1,0v5.9h5.6v1.5h-5.6v5.9h-1.6V7.4h-5.6V5.9h5.6V0H536.1z"/>
	<path class="st0" d="M561.3,0v5.9h5.6v1.5h-5.6v5.9h-1.6V7.4h-5.7V5.9h5.7V0H561.3z"/>
	<path class="st0" d="M586.5,0v5.9h5.7v1.5h-5.7v5.9h-1.6V7.4h-5.7V5.9h5.7V0H586.5z"/>
	<path class="st0" d="M611.7,0v5.9h5.7v1.5h-5.7v5.9h-1.6V7.4h-5.7V5.9h5.7V0H611.7z"/>
	<path class="st0" d="M636.9,0v5.9h5.7v1.5h-5.7v5.9h-1.6V7.4h-5.6V5.9h5.7V0H636.9z"/>
	<path class="st0" d="M662.1,0v5.9h5.7v1.5h-5.7v5.9h-1.6V7.4h-5.7V5.9h5.7V0H662.1z"/>
	<path class="st0" d="M687.3,0v5.9h5.7v1.5h-5.7v5.9h-1.6V7.4H680V5.9h5.7V0H687.3z"/>
	<path class="st0" d="M712.4,0v5.9h5.7v1.5h-5.7v5.9h-1.6V7.4h-5.7V5.9h5.7V0H712.4z"/>
	<path class="st0" d="M737.6,0v5.9h5.7v1.5h-5.7v5.9H736V7.4h-5.7V5.9h5.7V0H737.6z"/>
	<path class="st0" d="M762.8,0v5.9h5.7v1.5h-5.7v5.9h-1.6V7.4h-5.6V5.9h5.7V0H762.8z"/>
	<path class="st0" d="M788,0v5.9h5.7v1.5H788v5.9h-1.6V7.4h-5.7V5.9h5.7V0H788z"/>
	<path class="st0" d="M813.2,0v5.9h5.7v1.5h-5.7v5.9h-1.6V7.4h-5.7V5.9h5.7V0H813.2z"/>
	<path class="st0" d="M838.4,0v5.9h5.7v1.5h-5.7v5.9h-1.6V7.4h-5.7V5.9h5.7V0H838.4z"/>
	<path class="st0" d="M863.6,0v5.9h5.7v1.5h-5.7v5.9H862V7.4h-5.7V5.9h5.7V0H863.6z"/>
	<path class="st0" d="M888.7,0v5.9h5.7v1.5h-5.7v5.9h-1.6V7.4h-5.6V5.9h5.7V0H888.7z"/>
	<path class="st0" d="M913.9,0v5.9h5.7v1.5h-5.7v5.9h-1.6V7.4h-5.7V5.9h5.7V0H913.9z"/>
	<path class="st0" d="M939.1,0v5.9h5.7v1.5h-5.7v5.9h-1.6V7.4h-5.7V5.9h5.7V0H939.1z"/>
	<path class="st0" d="M964.3,0v5.9h5.7v1.5h-5.7v5.9h-1.6V7.4H957V5.9h5.7V0H964.3z"/>
	<path class="st0" d="M989.5,0v5.9h5.7v1.5h-5.7v5.9h-1.6V7.4h-5.7V5.9h5.7V0H989.5z"/>
	<path class="st0" d="M1014.7,0v5.9h5.7v1.5h-5.7v5.9h-1.6V7.4h-5.6V5.9h5.7V0H1014.7z"/>
	<path class="st0" d="M1039.9,0v5.9h5.7v1.5h-5.7v5.9h-1.6V7.4h-5.7V5.9h5.7V0H1039.9z"/>
	<path class="st0" d="M1065.1,0v5.9h5.7v1.5h-5.7v5.9h-1.6V7.4h-5.7V5.9h5.7V0H1065.1z"/>
	<path class="st0" d="M1090.2,0v5.9h5.7v1.5h-5.7v5.9h-1.6V7.4h-5.7V5.9h5.7V0H1090.2z"/>
	<path class="st0" d="M1115.4,0v5.9h5.7v1.5h-5.7v5.9h-1.6V7.4h-5.7V5.9h5.7V0H1115.4z"/>
	<path class="st0" d="M1140.6,0v5.9h5.7v1.5h-5.7v5.9h-1.6V7.4h-5.6V5.9h5.7V0H1140.6z"/>
	<path class="st0" d="M1165.8,0v5.9h5.7v1.5h-5.7v5.9h-1.6V7.4h-5.7V5.9h5.7V0H1165.8z"/>
	<path class="st0" d="M1191,0v5.9h5.7v1.5h-5.7v5.9h-1.6V7.4h-5.7V5.9h5.7V0H1191z"/>
	<path class="st0" d="M1216.1,0v5.9h5.7v1.5h-5.7v5.9h-1.6V7.4h-5.7V5.9h5.7V0H1216.1z"/>
	<path class="st0" d="M1241.3,0v5.9h5.7v1.5h-5.7v5.9h-1.6V7.4h-5.7V5.9h5.7V0H1241.3z"/>
</g>
</svg>
