<svg id="Layer_2" data-name="Layer 2" xmlns="http://www.w3.org/2000/svg" viewBox="0 0 168 103.63"><defs><style>.cls-1{fill:#ffef00;}</style></defs><title>Artboard 1</title><path class="cls-1" d="M0,103.63,52.5,51.38,0,0A131.87,131.87,0,0,1,10.63,51.63,131.88,131.88,0,0,1,0,103.63Z"/><path class="cls-1" d="M59,103.63l52.5-52.25L59,0A131.87,131.87,0,0,1,69.63,51.63,131.88,131.88,0,0,1,59,103.63Z"/><path class="cls-1" d="M115.5,103.63,168,51.38,115.5,0a131.87,131.87,0,0,1,10.63,51.63A131.88,131.88,0,0,1,115.5,103.63Z"/></svg>